<svg width="1284" height="921" fill="none" xmlns="http://www.w3.org/2000/svg"><g opacity=".1" clip-path="url(#clip0_192_90671)" fill="#BDE7F4"><path d="M210.375 823.191h-74.667l-23.074-71.002 60.414-43.881 60.414 43.881-23.075 71.002h-.012zm-69.417-7.235h64.143l19.829-61.005-51.894-37.696-51.894 37.696 19.828 61.005h-.012z"/><path d="M221.213 836.565h-94.966l-29.35-90.296 76.827-55.808 76.827 55.808-29.35 90.296h.012zm-89.704-7.235h84.442l26.104-80.3-68.319-49.621-68.319 49.621 26.104 80.3h-.012zM177.345 0h-7.241v677.16h7.241V0zM1281.83 418.493L262.426 738.873l2.173 6.902L1284 425.395l-2.17-6.902zM232.148 845.764l-5.929 4.153 49.876 71.095 5.93-4.153-49.877-71.095zm-116.822-.089l-49.865 71.104 5.93 4.152 49.865-71.104-5.93-4.152zM2.185 712.794l-2.172 6.903 82.893 26.036 2.172-6.903-82.893-26.036zm171.539 178.951l-17.391-12.625 6.638-20.428h21.494l6.637 20.428-17.39 12.625h.012zm-8.87-15.399l8.87 6.452 8.87-6.452-3.391-10.43h-10.97l-3.391 10.43h.012zm-69.176 35.188l-5.938-4.16 44.327-63.164h28.795v7.235h-25.029l-42.155 60.089zm156.092 0l-42.155-60.089h-25.03v-7.235h28.796l44.327 63.164-5.938 4.16zm19.044-90.501l-17.403-12.626 6.638-20.428h21.493l6.65 20.428-17.39 12.626h.012zm-8.883-15.387l8.883 6.451 8.882-6.439-3.391-10.431h-10.982l-3.392 10.419zm13.662 89.198l-44.761-63.802 8.773-27 6.891 2.243-7.651 23.563 42.686 60.848-5.938 4.148zM253.206 785.64l-6.891-2.23 8.798-27.06 1.786-.555L1281.83 433.778l2.17 6.897L260.845 762.138l-7.639 23.502zM76.634 821.033l-17.39-12.626 6.65-20.428h21.493l6.638 20.428-17.403 12.626h.012zm-8.882-15.387l8.882 6.439 8.882-6.451-3.39-10.419H71.142l-3.391 10.431zm4.103 89.198l-5.926-4.148 42.686-60.848-7.663-23.563 6.891-2.243 8.773 27-44.761 63.802zm22.387-109.203l-7.64-23.503-70.225-22.068 2.172-6.897 73.786 23.177 8.798 27.06-6.891 2.231zm19.647-78.443l-17.39-12.625 6.625-20.428h21.494l6.649 20.428-17.378 12.625zm-8.894-15.387l8.882 6.452 8.87-6.44-3.391-10.431h-10.97l-3.379 10.431-.012-.012zm-5.66 43.846l-74.233-23.322 2.172-6.897 70.757 22.224 20.021-14.543 4.249 5.86-22.966 16.678zm40.537-29.448l-4.248-5.848 19.997-14.531V0h7.241v689.52l-22.99 16.689zm108.241 29.448l-22.966-16.678 4.248-5.86 20.021 14.543L1281.83 403.305l2.17 6.898L248.113 735.657z"/><path d="M225.147 718.98l-40.562-29.46V0h7.241v685.83l37.569 27.289-4.248 5.861z"/></g><defs><clipPath id="clip0_192_90671"><path fill="#fff" d="M0 0h1284v921H0z"/></clipPath></defs></svg>