<svg width="116" height="34" fill="none" xmlns="http://www.w3.org/2000/svg"><path fill-rule="evenodd" clip-rule="evenodd" d="M8.793.156h99.326c4.335 0 7.881 3.546 7.881 7.881v17.708c0 4.335-3.546 7.882-7.881 7.882H8.793C4.457 33.627.91 30.08.91 25.745V8.037c0-4.335 3.546-7.88 7.882-7.88z" fill="#BABBBB"/><path d="M75.882 6.405H63.791c-1.797 0-3.304.515-4.523 1.547-1.218 1.03-1.836 2.374-1.836 4.022v17.607h6.14V13.575c0-.5.172-.89.515-1.171.344-.281.797-.422 1.36-.422h8.779c.563 0 1.016.14 1.36.422.343.281.515.672.515 1.171v16.006h6.14V11.974c0-1.648-.61-2.991-1.836-4.022-1.219-1.032-2.726-1.547-4.523-1.547zM31.46 23.23l-.007-1.703h-.016l.008-2.984-.008-3.89h.016l.008-1.944c0-1.797.523-3.305 1.562-4.523 1.039-1.219 2.382-1.828 4.03-1.828l17.599.04-.016 6.139-16.005-.032c-.5 0-.89.172-1.18.516-.28.344-.421.797-.421 1.36l-.008 4.147.008 3.03c0 .563.14 1.016.422 1.36.28.343.671.515 1.18.515l16.004-.031v6.147l-17.59.024c-1.649 0-2.992-.602-4.031-1.828-1.031-1.21-1.547-2.718-1.555-4.515zm-18.613 6.35h17.418v-5.577H27.04V6.397h-6.17v17.606h-6.624c-1.281 0-2.14-.21-2.57-.64-.422-.43-.64-1.289-.64-2.586V6.405h-6.14v14.372c0 3.031.539 5.21 1.632 6.546 1.227 1.508 3.336 2.258 6.32 2.258zm90.312-2.78H92.973v2.632h10.186V26.8z" fill="#fff"/><path fill-rule="evenodd" clip-rule="evenodd" d="M97.23 9.326c.14 1.36.219 2.719.273 4.078.04.976-.03.82.938.609a31.463 31.463 0 014.741-.64c.391-.024.133.453-.047.562a42.24 42.24 0 00-5.327 4.007c-.312.281-.203.71-.203 1.086.023 1.656.047 3.312.11 4.968.007.171-.25.742-.485.515a24.334 24.334 0 00-3.14-2.585c-.32-.22-1.742 1.874-1.976 2.179a48.83 48.83 0 00-2.516 3.695c-.21.351-.453.171-.367-.188a61.74 61.74 0 011.766-6.132c.43-1.242.601-1.062-.64-1.562-.915-.36-1.836-.64-2.79-.86-.312-.07.11-.64.243-.718a37.54 37.54 0 015.366-2.71c.39-.156.562-.805.71-1.11a75.756 75.756 0 012.696-5.03c.078-.132.617-.515.648-.164z" fill="#A6A8AB"/><path d="M97.23 9.326c.14 1.36.219 2.719.273 4.078.04.976-.03.82.938.609a31.463 31.463 0 014.741-.64c.391-.024.133.453-.047.562a42.24 42.24 0 00-5.327 4.007c-.312.281-.203.71-.203 1.086.023 1.656.047 3.312.11 4.968.007.171-.25.742-.485.515a24.334 24.334 0 00-3.14-2.585c-.32-.22-1.742 1.874-1.976 2.179a48.83 48.83 0 00-2.516 3.695c-.21.351-.453.171-.367-.188a61.74 61.74 0 011.766-6.132c.43-1.242.601-1.062-.64-1.562-.915-.36-1.836-.64-2.79-.86-.312-.07.11-.64.243-.718a37.54 37.54 0 015.366-2.71c.39-.156.562-.805.71-1.11a75.756 75.756 0 012.696-5.03c.078-.132.617-.515.648-.164z" stroke="#D0D2D3" stroke-width=".031" stroke-miterlimit="22.926"/><path d="M97.027 8.92a59.583 59.583 0 01.273 4.085l.008.164c.008.352.016.516.094.57.07.047.203.016.453-.046.101-.024.226-.055.367-.086.781-.164 1.57-.305 2.359-.414.789-.11 1.586-.188 2.382-.234.43-.016.188.476-.039.585a37.074 37.074 0 00-2.741 1.898c-.89.672-1.75 1.375-2.586 2.11-.25.218-.226.53-.203.843.008.078.008.156.008.234.008.828.023 1.656.039 2.484.016.828.039 1.656.07 2.484 0 .43-.258.773-.507.531a31.312 31.312 0 00-1.516-1.359 22.657 22.657 0 00-1.625-1.226c-.265-.18-1.335 1.32-1.788 1.945-.078.11-.14.187-.172.234a48.086 48.086 0 00-2.523 3.695c-.07.11-.14.172-.203.187a.149.149 0 01-.102-.008.153.153 0 01-.07-.07c-.04-.07-.047-.18-.024-.304.243-1.04.508-2.07.805-3.086.297-1.023.617-2.038.96-3.046.063-.18.118-.328.165-.453.125-.32.187-.492.14-.61-.054-.132-.257-.218-.695-.39a22.06 22.06 0 00-1.617-.578c-.468-.14-.937-.266-1.413-.375-.336-.078-.243-.46.234-.75.055-.031.11-.062.164-.101a37.756 37.756 0 015.21-2.617c.305-.125.476-.547.601-.867.032-.086.07-.164.102-.235a77.462 77.462 0 012.601-4.881c.086-.141.156-.29.289-.399.195-.133.43-.203.5.086z" stroke="#D0D2D3" stroke-width=".171" stroke-miterlimit="22.926"/><path d="M97.035 8.912a59.856 59.856 0 01.273 4.085l.008.165c.008.351.016.515.094.57.07.047.203.015.453-.047.101-.024.226-.055.367-.086a34.68 34.68 0 012.359-.414c.789-.11 1.585-.188 2.382-.234.43-.016.188.476-.039.585a37.275 37.275 0 00-2.742 1.899c-.89.671-1.75 1.374-2.585 2.109-.25.218-.227.53-.203.843.008.078.008.156.008.235.008.828.023 1.655.039 2.483.015.828.039 1.656.07 2.484 0 .43-.258.774-.508.532a31.26 31.26 0 00-1.515-1.36 22.657 22.657 0 00-1.625-1.226c-.265-.18-1.335 1.32-1.788 1.945-.079.11-.133.188-.172.234a51.192 51.192 0 00-1.305 1.82 48.007 48.007 0 00-1.218 1.875c-.07.11-.141.172-.204.188a.149.149 0 01-.101-.008.153.153 0 01-.07-.07c-.04-.07-.047-.18-.024-.305.242-1.04.508-2.07.805-3.086.297-1.023.617-2.038.96-3.046.063-.18.118-.328.165-.453.125-.32.187-.492.14-.61-.054-.132-.257-.218-.695-.39a22.123 22.123 0 00-1.617-.578c-.469-.14-.937-.265-1.414-.375-.336-.078-.242-.46.243-.75.054-.03.109-.062.164-.101a37.733 37.733 0 015.21-2.617c.304-.125.476-.547.601-.867.031-.086.07-.164.102-.234a77.657 77.657 0 012.6-4.882c.087-.14.157-.29.29-.399.187-.125.421-.203.492.086z" fill="#D0D2D3"/><mask id="a" style="mask-type:luminance" maskUnits="userSpaceOnUse" x="87" y="8" width="17" height="20"><path d="M97.035 8.912a59.856 59.856 0 01.273 4.085l.008.165c.008.351.016.515.094.57.07.047.203.015.453-.047.101-.024.226-.055.367-.086a34.68 34.68 0 012.359-.414c.789-.11 1.585-.188 2.382-.234.43-.016.188.476-.039.585a37.275 37.275 0 00-2.742 1.899c-.89.671-1.75 1.374-2.585 2.109-.25.218-.227.53-.203.843.008.078.008.156.008.235.008.828.023 1.655.039 2.483.015.828.039 1.656.07 2.484 0 .43-.258.774-.508.532a31.26 31.26 0 00-1.515-1.36 22.657 22.657 0 00-1.625-1.226c-.265-.18-1.335 1.32-1.788 1.945-.079.11-.133.188-.172.234a51.192 51.192 0 00-1.305 1.82 48.007 48.007 0 00-1.218 1.875c-.07.11-.141.172-.204.188a.149.149 0 01-.101-.008.153.153 0 01-.07-.07c-.04-.07-.047-.18-.024-.305.242-1.04.508-2.07.805-3.086.297-1.023.617-2.038.96-3.046.063-.18.118-.328.165-.453.125-.32.187-.492.14-.61-.054-.132-.257-.218-.695-.39a22.123 22.123 0 00-1.617-.578c-.469-.14-.937-.265-1.414-.375-.336-.078-.242-.46.243-.75.054-.03.109-.062.164-.101a37.733 37.733 0 015.21-2.617c.304-.125.476-.547.601-.867.031-.086.07-.164.102-.234a77.657 77.657 0 012.6-4.882c.087-.14.157-.29.29-.399.187-.125.421-.203.492.086z" fill="#fff"/></mask><g mask="url(#a)"><path d="M85.146 13.591c1.469 3.312 7.225-2.671 9.92-4.108 4.898-2.602 11.256-4.086 14.013 2.89-7.076-2.234-22.449 15.888-23.933 1.218z" fill="#fff"/></g><mask id="b" style="mask-type:luminance" maskUnits="userSpaceOnUse" x="87" y="8" width="17" height="20"><path d="M97.035 8.912a59.856 59.856 0 01.273 4.085l.008.165c.008.351.016.515.094.57.07.047.203.015.453-.047.101-.024.226-.055.367-.086a34.68 34.68 0 012.359-.414c.789-.11 1.585-.188 2.382-.234.43-.016.188.476-.039.585a37.275 37.275 0 00-2.742 1.899c-.89.671-1.75 1.374-2.585 2.109-.25.218-.227.53-.203.843.008.078.008.156.008.235.008.828.023 1.655.039 2.483.015.828.039 1.656.07 2.484 0 .43-.258.774-.508.532a31.26 31.26 0 00-1.515-1.36 22.657 22.657 0 00-1.625-1.226c-.265-.18-1.335 1.32-1.788 1.945-.079.11-.133.188-.172.234a51.192 51.192 0 00-1.305 1.82 48.007 48.007 0 00-1.218 1.875c-.07.11-.141.172-.204.188a.149.149 0 01-.101-.008.153.153 0 01-.07-.07c-.04-.07-.047-.18-.024-.305.242-1.04.508-2.07.805-3.086.297-1.023.617-2.038.96-3.046.063-.18.118-.328.165-.453.125-.32.187-.492.14-.61-.054-.132-.257-.218-.695-.39a22.123 22.123 0 00-1.617-.578c-.469-.14-.937-.265-1.414-.375-.336-.078-.242-.46.243-.75.054-.03.109-.062.164-.101a37.733 37.733 0 015.21-2.617c.304-.125.476-.547.601-.867.031-.086.07-.164.102-.234a77.657 77.657 0 012.6-4.882c.087-.14.157-.29.29-.399.187-.125.421-.203.492.086z" fill="#fff"/></mask><g mask="url(#b)"><path d="M83.803 21.473c1.538-1.555 10.74-8.42 20.207-8.764 2.507-.094 3.085 1.171 4.523 2.866-6.984 1.46-23.184 22.941-24.73 5.898z" fill="#A6A8AB"/></g><mask id="c" style="mask-type:luminance" maskUnits="userSpaceOnUse" x="87" y="8" width="17" height="20"><path d="M97.035 8.912a59.856 59.856 0 01.273 4.085l.008.165c.008.351.016.515.094.57.07.047.203.015.453-.047.101-.024.226-.055.367-.086a34.68 34.68 0 012.359-.414c.789-.11 1.585-.188 2.382-.234.43-.016.188.476-.039.585a37.275 37.275 0 00-2.742 1.899c-.89.671-1.75 1.374-2.585 2.109-.25.218-.227.53-.203.843.008.078.008.156.008.235.008.828.023 1.655.039 2.483.015.828.039 1.656.07 2.484 0 .43-.258.774-.508.532a31.26 31.26 0 00-1.515-1.36 22.657 22.657 0 00-1.625-1.226c-.265-.18-1.335 1.32-1.788 1.945-.079.11-.133.188-.172.234a51.192 51.192 0 00-1.305 1.82 48.007 48.007 0 00-1.218 1.875c-.07.11-.141.172-.204.188a.149.149 0 01-.101-.008.153.153 0 01-.07-.07c-.04-.07-.047-.18-.024-.305.242-1.04.508-2.07.805-3.086.297-1.023.617-2.038.96-3.046.063-.18.118-.328.165-.453.125-.32.187-.492.14-.61-.054-.132-.257-.218-.695-.39a22.123 22.123 0 00-1.617-.578c-.469-.14-.937-.265-1.414-.375-.336-.078-.242-.46.243-.75.054-.03.109-.062.164-.101a37.733 37.733 0 015.21-2.617c.304-.125.476-.547.601-.867.031-.086.07-.164.102-.234a77.657 77.657 0 012.6-4.882c.087-.14.157-.29.29-.399.187-.125.421-.203.492.086z" fill="#fff"/></mask><g mask="url(#c)"><path d="M85.888 26.019c7.296-7.85 18.583-15.912 22.051-12.982-1.922.234-5.647 6.14-9.6 10.326-6.17 6.53-11.732 17.255-12.45 2.656z" fill="#6D6E70"/></g><path fill-rule="evenodd" clip-rule="evenodd" d="M104.736 14.755c-.046.476-.101.953-.148 1.43-.203 1.952-.516 1.671 1.445 1.562.188-.008 2.359-.266 1.336.547-.813.64-1.781 1.179-2.617 1.804-.711.531-.601.61-.664 1.468-.055.758.039 1.79-.164 2.515-.43 1.532-1.718-1.952-2.406-1.335a45.15 45.15 0 00-2.624 2.562c-.266.281-.453.039-.367-.242.39-1.258 1.203-2.437 1.679-3.664a.428.428 0 00.039-.164c.008-.523-2.828-1.562-1.46-2.187.921-.422 2.038-.43 2.983-.765.391-.14.649-.82.82-1.094a50.888 50.888 0 011.547-2.359c.117-.18.64-.469.601-.078zm4.328-3.445c-.071.422-.133.844-.203 1.266-.078.468 2.343-.055 1.39.75-.555.468-1.609.57-1.75 1.374-.031.18-.132 1.867-.718 1.602-.274-.125-.485-.93-.805-.914-.258.015-1.937 1.601-1.867.882.047-.437 1.305-1.671 1.031-1.968-.21-.226-1.273-1.039-.32-1.304.695-.188 1.32.14 1.82-.54.133-.187 1.039-1.687 1.391-1.296a.193.193 0 01.031.148zM96.168 3.86c.046.164.156.867.296.906.235.07 1.89-.649 1.758-.172-.086.312-.984.765-1.25.96-.601.43-.14.704-.187 1.328-.055.703-1.133.149-1.422.055-.336-.11-1.148.773-1.382.969-.118.101-.313.304-.493.257-.421-.109.914-1.515.493-1.616-.164-.04-.953-.149-1.024-.258-.304-.469 1.727-.813 1.969-1.14.18-.243.671-1.617 1.18-1.36a.11.11 0 01.062.07zm5.842-1.235c.047.25.094.5.125.75.055.352 1.852-.36 1.555.18-.188.344-1.453.578-1.422.984.024.25.227 1.289-.39 1.094-.188-.055-.399-.211-.578-.305-.68-.344-1.102.61-1.719.758-.578.133.36-1.063.422-1.156.25-.39-1.562-.469-.664-.883.523-.242 1.273-.062 1.625-.586.086-.125.687-1.257 1.015-.89.024.015.031.031.031.054zm8.491 4.336c-.023.218-.281 1.117.047 1.109.125 0 1.765-.156 1.086.375-.305.234-1.391.523-1.453.937-.055.36-.156 1.86-.797 1.148-.539-.601-.476-.57-1.265-.062-.016.008-.93.742-.883.297.031-.32 1.086-1.297.851-1.5-.187-.156-1.148-.734-.328-.96.563-.157 1.149.077 1.563-.454.101-.125.898-1.367 1.163-.984a.329.329 0 01.016.094zm-6.429-2.172c.024.352-.062 2.328.196 2.375.422.078 1.125-.078 1.578-.102.367-.015 1.296-.164 1.601-.008.476.258-.844.79-.922.828-.5.258-1 .524-1.492.797-1.203.68-.961.586-1.07 1.968-.016.211.07 1.852-.625 1.664-.281-.078-.804-.672-1.062-.875-.68-.53-.625-.656-1.336-.148-.851.61-1.64 1.343-2.492 1.93-.085.062-.242.124-.328.038-.234-.25 1.531-2.734 1.742-3.187.25-.515-1.773-.89-2.007-1.202-.258-.344.664-.602.773-.625.75-.211 1.508-.39 2.273-.547.867-.18.867-.5 1.422-1.281.367-.516.742-1.031 1.117-1.547.101-.148.617-.383.632-.078zM91.168 7.42l.211.75c.438 1.688.04 1.54 1.727.938.289-.102 2.054-.828 2.163-.555.125.312-.796.867-.898.96-.469.391-.937.79-1.398 1.196-1.055.945-.89.742-.703 2.14.055.43.43 1.539-.273 1.719-.266.07-1.258-.422-1.578-.516-.313-.094-.547-.258-.813-.015-.96.898-1.68 2.054-2.554 3.022-.187.203-.484.227-.367-.125a79.27 79.27 0 011.18-3.218c.273-.695-2.203-.234-2.32-.578-.165-.5 1.257-1.109 1.437-1.218.367-.211.742-.414 1.109-.61 1.156-.609 1.008-.578 1.578-1.835.273-.594.554-1.188.843-1.781.079-.133.57-.563.656-.274zm16.427-4.74c.047.241.086.483.117.726.047.335 1.735-.016 1.461.437-.18.289-1.359.297-1.328.68.024.234.211 1.241-.367.96-.172-.086-.375-.265-.539-.382-.64-.438-1.031.382-1.609.414-.539.03.336-.93.391-1.008.234-.32-1.461-.703-.617-.937.492-.133 1.187.156 1.515-.266.078-.102.64-1.062.945-.664.016.008.023.023.031.04zm3.726 1.405v.469c-.008.218 1.289-.055 1.031.242-.164.195-1.046.226-1.07.476-.015.157 0 .805-.39.633-.118-.055-.243-.164-.352-.234-.422-.266-.812.281-1.25.312-.406.031.367-.61.414-.664.211-.21-1-.422-.343-.593.382-.102.867.07 1.163-.211.071-.07.61-.711.789-.453 0 0 .008.015.008.023z" fill="#fff"/></svg>