<svg width="26" height="28" fill="none" xmlns="http://www.w3.org/2000/svg"><path d="M0 15.55c2.533-2.232 5.37-3.964 8.303-5.57 2.956-1.568 5.963-2.982 9.223-3.864-2.531 2.236-5.369 3.966-8.304 5.57C6.264 13.251 3.258 14.666 0 15.55zm13.52 2.795a5.498 5.498 0 015.329-3.331 5.497 5.497 0 01-5.329 3.331zM7.553 6.492c.901-2.108 3.035-3.455 5.329-3.332a5.497 5.497 0 01-5.329 3.332z" fill="#006DB8"/><path d="M1.577 3.65c2.7-1.39 6.06-1.488 8.83-.234-2.698 1.4-6.06 1.479-8.83.234zm3.415 15.694a6.996 6.996 0 015.749-2.543 6.997 6.997 0 01-5.749 2.543zM2.96 22.323c4.23.666 8.176 2.208 12.232 3.431 1.314.323 2.647.936 4.003.467-.97 1.226-2.881 1.105-4.284 1.033a24.068 24.068 0 01-11.95-4.929" fill="#006DB8"/><path d="M12.448 24.366c3.192-.81 6.42-.687 9.654-.539 1.063.012 2.101.242 3.148-.076-.606 1.007-1.957 1.323-3.018 1.595-3.283.615-6.701.362-9.784-.978m-2.81-.62c.857-1.044 2.036-1.755 2.83-2.646.221-.272.34-.458.425-.75.114-.711-.127-1.336-.32-2.28 1.184.318 2.3 1.639 2.006 2.978-.504 2.178-2.979 3.017-4.94 2.696M2.577 12.912c-.383-2.735 1.612-6.262 4.656-6.06C5.66 9 4.706 11.271 2.577 12.912zm14.496 10.653c-.056-.99.306-2.164.15-2.916a.958.958 0 00-.299-.428c-.522-.427-1.056-.664-1.732-1.198 1.286-.84 3.383-.575 3.892 1.082.369 1.523-.658 2.896-2.011 3.46zm-.504-8.654c-.149-.044-.274.05-.409.098a24.39 24.39 0 01-2.454 1.052c-.866.38-1.748.376-1.848 1.481-.745-.297-.894-1.393-.455-2.03.425-.689 1.04-1.044 1.632-1.272 1.117-.38 2.498-.399 3.42.418.058.065.12.17.114.251m-.195-12.148c-.845 2.391-4.36 1.33-3.643-1.184.896-2.464 4.365-1.252 3.643 1.184zm0 0c.46-1.6-1.753-2.26-2.26-.734-.487 1.544 1.682 2.299 2.26.734zm6.211 11.632c-.845 2.392-4.36 1.331-3.643-1.184.896-2.463 4.365-1.251 3.643 1.184zm0 0c.46-1.6-1.753-2.259-2.262-.733-.487 1.544 1.681 2.299 2.262.733z" fill="#006DB8"/></svg>