<svg width="52" height="28" fill="none" xmlns="http://www.w3.org/2000/svg"><path d="M3.306 17.934c12.429.704 24.516 3.726 36.293 7.579.055.02.763.251.822.272 1.027.12 2.067-.234 3.146-.528 1.866-.567 3.712-1.3 5.545-2.055-2.566 1.646-5.09 3.355-8.154 4.024-5.161-.043-9.96-1.168-14.947-2.148-7.766-1.752-15.412-3.845-22.713-7.14M6.695 8.25c5.975-.74 12.564 1.109 17.253 4.894-5.976.758-12.556-1.125-17.253-4.893zm21.754 6.262c4.18-.333 8.187.337 12.19 1.304 3.985 1.044 7.825 2.357 11.341 4.646-4.181.34-8.188-.333-12.19-1.304-3.98-1.053-7.82-2.366-11.341-4.646z" fill="#006DB8"/><path d="M9.84 14.793c4.723-.2 9.262.61 13.788 1.71 4.51 1.176 8.887 2.62 12.944 5.05-4.726.209-9.261-.6-13.788-1.71-4.505-1.184-8.882-2.625-12.944-5.05zM7.41 5.165C5.732 9.892-1.232 7.778.19 2.821 1.956-2.038 8.84.349 7.41 5.165zm0 0C8.358 1.819 3.75.447 2.647 3.618 1.66 6.84 6.209 8.43 7.41 5.165z" fill="#006DB8"/></svg>