<?xml version="1.0" standalone="no"?>
<!DOCTYPE svg PUBLIC "-//W3C//DTD SVG 20010904//EN"
 "http://www.w3.org/TR/2001/REC-SVG-20010904/DTD/svg10.dtd">
<svg version="1.0" xmlns="http://www.w3.org/2000/svg"
 width="608.000000pt" height="608.000000pt" viewBox="0 0 608.000000 608.000000"
 preserveAspectRatio="xMidYMid meet">
<metadata>
Created by potrace 1.14, written by Peter Selinger 2001-2017
</metadata>
<g transform="translate(0.000000,608.000000) scale(0.100000,-0.100000)"
fill="#000000" stroke="none">
<path d="M3000 5910 c0 -5 -6 -10 -14 -10 -8 0 -16 -3 -18 -8 -1 -4 -38 -32
-80 -62 -43 -30 -77 -59 -77 -65 0 -5 17 -59 37 -120 l37 -110 127 -3 126 -3
36 110 c20 60 36 116 36 124 0 12 -188 157 -204 157 -3 0 -6 -4 -6 -10z m87
-175 c1 0 -2 -18 -7 -40 -10 -45 -29 -63 -62 -59 -13 1 -31 3 -40 3 -11 1 -21
15 -27 39 -15 54 -15 56 25 85 l37 26 36 -27 c20 -14 37 -26 38 -27z"/>
<path d="M2960 5360 c0 -36 0 -74 0 -85 -1 -11 -1 -99 -1 -195 0 -96 0 -179 0
-185 0 -5 0 -57 0 -115 1 -58 1 -112 0 -120 0 -12 0 -107 0 -180 0 -8 0 -46 0
-85 0 -38 1 -81 1 -95 1 -14 2 -54 3 -90 l2 -64 40 -2 c22 0 45 1 52 3 10 4
12 149 12 639 0 349 -3 635 -7 635 -4 1 -28 2 -54 3 l-47 1 -1 -65z"/>
<path d="M2749 5096 c0 -6 -1 -250 -1 -543 0 -292 -4 -535 -7 -540 -3 -4 -28
-24 -56 -43 -27 -19 -54 -38 -60 -43 -5 -4 -41 -31 -80 -58 -95 -68 -92 -63
-60 -109 15 -22 30 -40 32 -40 6 0 258 182 303 219 l35 28 0 567 c0 370 -3
566 -10 567 -59 6 -95 4 -96 -5z"/>
<path d="M3182 5101 c-5 -3 -8 -261 -8 -572 l1 -567 166 -121 c92 -67 169
-121 172 -121 11 0 58 83 50 90 -4 5 -55 43 -113 84 -58 42 -119 87 -137 101
l-31 24 0 513 c-1 282 -1 527 -1 543 -1 29 -3 30 -46 31 -24 0 -48 -2 -53 -5z"/>
<path d="M1972 4173 c-14 -27 -86 -256 -87 -274 0 -10 51 -54 124 -107 l124
-90 30 21 c17 12 69 50 116 85 47 35 92 67 99 71 10 6 7 24 -13 87 -15 43 -28
86 -30 94 -3 8 -13 40 -23 70 l-19 55 -156 3 c-141 2 -157 1 -165 -15z m242
-104 c13 -14 51 -138 44 -143 -63 -48 -117 -86 -122 -86 -18 0 -126 84 -126
98 0 8 10 43 22 78 18 53 25 63 47 66 56 6 123 0 135 -13z"/>
<path d="M3736 4182 c-3 -5 -26 -73 -51 -152 -43 -135 -45 -143 -28 -155 10
-8 50 -36 88 -64 39 -28 88 -64 110 -80 l41 -29 89 65 c50 35 103 74 119 86
15 12 33 25 38 28 7 4 -2 43 -22 103 -17 52 -31 97 -31 98 1 2 -7 26 -17 53
l-18 50 -156 3 c-86 1 -159 -1 -162 -6z m225 -101 c10 -1 23 -25 37 -69 12
-38 22 -73 22 -79 0 -12 -117 -96 -128 -91 -28 12 -122 83 -122 91 0 6 10 41
22 78 25 79 25 79 169 70z"/>
<path d="M2994 3934 c-10 -8 -75 -55 -144 -105 -69 -49 -145 -105 -170 -123
-25 -19 -139 -102 -255 -185 -115 -84 -220 -160 -232 -169 -12 -9 -85 -62
-162 -117 -77 -55 -140 -106 -140 -114 -1 -8 25 -93 56 -190 31 -97 58 -180
59 -186 1 -5 43 -134 93 -285 51 -151 93 -284 96 -295 2 -11 4 -20 5 -20 0 0
27 -79 58 -175 l58 -174 669 -1 c369 0 684 2 702 4 23 2 34 9 38 25 13 43 128
404 157 490 17 49 31 94 33 100 1 6 5 18 8 26 3 8 54 166 114 350 l109 335
-26 20 c-14 12 -38 30 -54 40 -16 11 -41 29 -57 40 -157 113 -235 170 -239
175 -3 4 -27 22 -54 41 -80 56 -290 208 -541 392 -165 120 -160 118 -181 101z
m115 -186 c47 -34 88 -66 89 -70 2 -4 8 -8 13 -8 5 0 30 -16 56 -36 71 -53 73
-55 398 -291 165 -120 313 -227 327 -239 l27 -21 -68 -209 c-38 -115 -112
-344 -166 -509 -53 -165 -109 -336 -123 -380 l-27 -80 -610 -1 c-335 0 -616 1
-622 4 -9 3 -143 385 -148 422 -1 7 -155 481 -162 500 -3 8 -7 20 -9 25 -1 6
-18 59 -38 119 -19 61 -34 111 -32 113 4 4 94 71 131 97 34 25 409 296 435
316 14 10 48 36 77 57 28 21 61 45 73 53 12 8 78 57 148 107 70 51 131 93 136
93 5 0 48 -28 95 -62z"/>
<path d="M2904 3608 c-54 -39 -100 -75 -102 -80 -2 -4 -8 -8 -12 -8 -7 0 -150
-101 -195 -138 -5 -4 -32 -23 -59 -42 -26 -19 -61 -44 -76 -55 -15 -11 -66
-47 -111 -80 -46 -32 -86 -62 -89 -65 -3 -4 -25 -21 -50 -38 -92 -65 -91 -32
-11 -284 40 -123 76 -231 81 -240 6 -10 10 -28 10 -41 0 -13 4 -27 9 -32 5 -6
13 -26 19 -45 40 -134 137 -427 145 -437 7 -10 128 -13 543 -13 l534 0 15 33
c12 29 92 271 101 307 2 8 24 76 49 150 25 74 48 142 50 150 4 22 94 299 111
343 8 20 14 41 14 45 0 4 -32 30 -71 57 -39 28 -76 55 -82 60 -7 6 -70 52
-142 104 -71 52 -152 111 -180 131 -122 90 -381 277 -391 283 -6 3 -55 -26
-110 -65z"/>
<path d="M182 3852 c-12 -9 -57 -43 -102 -76 -45 -32 -79 -64 -77 -70 2 -6 19
-56 37 -111 19 -55 37 -104 42 -110 8 -9 232 -10 248 0 4 3 18 38 30 77 13 40
29 92 36 116 l13 42 -42 31 c-23 16 -49 35 -57 42 -9 7 -37 27 -62 44 -44 31
-46 32 -66 15z m61 -144 c18 -12 34 -23 36 -24 2 -2 -2 -25 -9 -51 l-13 -49
-50 1 -51 1 -14 44 -15 44 34 28 c40 34 42 34 82 6z"/>
<path d="M5735 3804 c-50 -36 -96 -69 -103 -73 -11 -6 -6 -32 24 -129 35 -114
39 -122 63 -123 179 -4 224 -3 228 4 3 5 22 58 43 119 29 85 36 114 27 122 -7
7 -48 38 -92 70 -44 33 -85 62 -90 67 -6 4 -50 -21 -100 -57z m131 -100 c36
-28 36 -33 13 -94 -8 -22 -16 -25 -57 -26 -47 0 -49 0 -60 38 -17 54 -15 60
21 85 41 28 42 28 83 -3z"/>
<path d="M851 3702 c-29 -75 -29 -75 56 -101 43 -13 110 -34 148 -47 39 -12
99 -31 135 -42 280 -87 368 -114 390 -122 26 -9 320 -101 331 -104 11 -2 99
56 99 65 0 5 7 9 15 9 8 0 15 4 15 9 0 5 8 12 18 15 9 4 31 19 49 34 18 15 57
45 88 66 30 22 55 44 55 50 0 6 -13 26 -29 45 l-28 35 -99 -72 c-55 -39 -110
-80 -123 -89 -72 -54 -68 -54 -166 -22 -49 17 -97 32 -105 33 -8 2 -51 16 -95
30 -44 14 -82 26 -85 25 -3 0 -18 5 -35 11 -16 6 -145 47 -285 91 -140 44
-274 86 -297 93 -41 14 -41 14 -52 -12z"/>
<path d="M5110 3710 c-30 -10 -116 -37 -190 -60 -74 -23 -153 -48 -175 -55
-22 -8 -114 -37 -205 -65 -91 -28 -187 -59 -215 -68 -27 -9 -54 -17 -60 -18
-5 -1 -39 -11 -74 -22 l-64 -21 -63 47 c-35 26 -100 74 -145 107 l-82 59 -28
-34 c-16 -19 -29 -40 -29 -46 0 -7 74 -67 166 -133 l165 -120 42 15 c23 9 53
18 66 20 14 3 29 8 34 11 5 3 30 11 55 18 26 7 142 43 257 80 116 37 215 68
220 69 12 2 84 25 105 33 8 3 21 8 28 10 6 1 18 5 25 6 6 2 19 7 27 10 8 3 62
20 120 38 58 18 106 33 108 35 4 3 -20 87 -27 95 -3 4 -31 -1 -61 -11z"/>
<path d="M483 3614 c3 -3 -1 -24 -9 -47 -8 -22 -11 -44 -7 -48 8 -7 148 -52
618 -199 143 -45 303 -95 355 -112 52 -16 124 -38 159 -49 35 -10 66 -21 70
-24 3 -3 13 17 23 46 10 29 17 54 15 55 -2 2 -77 27 -168 55 -90 28 -207 64
-259 81 -52 16 -122 38 -155 48 -33 10 -125 39 -205 65 -80 25 -149 48 -155
49 -13 3 -176 53 -233 72 -46 15 -59 17 -49 8z"/>
<path d="M5490 3605 c-19 -8 -109 -37 -200 -65 -306 -96 -484 -151 -670 -210
-102 -32 -210 -66 -242 -76 -60 -18 -63 -24 -38 -89 11 -30 19 -31 96 -6 32
10 104 33 159 50 55 17 127 40 160 50 33 11 139 45 235 75 96 30 256 80 355
112 99 31 190 59 203 61 26 6 26 7 6 66 -18 52 -16 51 -64 32z"/>
<path d="M716 3273 c-9 -26 -13 -50 -9 -54 5 -3 31 -14 58 -22 28 -9 100 -31
160 -50 61 -19 184 -58 275 -87 91 -28 172 -54 180 -57 8 -4 17 -7 20 -7 3 -1
78 -24 168 -51 l162 -50 56 -170 c30 -93 57 -171 59 -173 2 -2 26 3 53 12 l49
17 -28 82 c-15 45 -44 135 -65 200 l-37 117 -41 12 c-23 6 -43 12 -46 13 -5 1
-163 51 -425 135 -66 21 -187 59 -270 85 -82 26 -184 58 -225 71 -41 13 -75
24 -76 24 -1 0 -9 -21 -18 -47z"/>
<path d="M5195 3288 c-181 -57 -243 -77 -390 -123 -82 -26 -197 -62 -255 -81
-58 -18 -157 -49 -220 -68 -124 -38 -126 -40 -145 -123 -3 -10 -21 -65 -40
-123 -20 -58 -38 -112 -40 -120 -2 -8 -8 -27 -14 -42 -10 -25 -8 -27 36 -42
26 -9 50 -16 53 -16 4 0 31 76 61 170 l53 170 91 29 c49 16 158 51 240 76 83
26 175 55 205 65 30 10 123 39 205 65 83 26 179 56 215 67 36 11 68 24 73 27
4 4 1 23 -7 43 -9 19 -13 38 -10 40 17 17 -33 11 -111 -14z"/>
<path d="M1450 2512 c-23 -3 -29 -16 -72 -150 l-47 -147 24 -22 c13 -13 26
-23 29 -23 2 0 44 -30 93 -66 48 -36 93 -68 100 -71 11 -4 246 157 258 177 2
4 -14 63 -36 131 -22 68 -42 132 -44 143 -3 10 -6 21 -9 23 -5 6 -258 10 -296
5z m214 -113 c8 -9 46 -126 46 -142 0 -9 -4 -17 -10 -17 -5 0 -18 -8 -28 -17
-24 -23 -79 -63 -87 -63 -4 0 -13 6 -20 13 -7 6 -36 27 -62 46 l-49 34 22 68
c12 38 25 72 28 78 6 8 152 9 160 0z"/>
<path d="M4285 2510 c-4 -7 -39 -113 -41 -125 -1 -5 -14 -43 -28 -84 -14 -41
-26 -78 -26 -82 0 -5 30 -31 68 -58 37 -28 72 -54 77 -59 24 -19 104 -72 110
-72 3 0 62 41 131 91 83 61 124 96 120 105 -3 8 -26 76 -51 152 l-45 137 -156
0 c-86 0 -157 -2 -159 -5z m263 -178 c27 -83 28 -81 -52 -136 l-55 -38 -60 43
c-33 24 -61 51 -61 60 0 15 34 120 44 137 3 5 40 8 82 7 l78 -1 24 -72z"/>
<path d="M1980 2255 c-21 -7 -34 -18 -31 -26 2 -8 4 -18 6 -24 1 -5 5 -17 8
-25 18 -44 87 -268 87 -280 0 -8 -34 -62 -75 -120 -41 -58 -79 -112 -85 -120
-6 -8 -69 -98 -139 -200 -71 -102 -134 -190 -140 -197 -6 -7 -11 -16 -11 -22
0 -5 -4 -11 -8 -13 -10 -4 -165 -228 -161 -232 2 -1 21 -14 42 -30 41 -30 42
-29 83 29 11 17 126 181 255 365 212 302 327 466 354 505 6 9 -8 67 -47 187
-31 95 -59 183 -63 196 -7 25 -24 26 -75 7z"/>
<path d="M3920 2080 c-58 -179 -65 -221 -41 -240 4 -3 81 -111 171 -240 90
-129 167 -237 170 -240 4 -3 9 -12 13 -20 4 -8 22 -35 40 -60 18 -25 79 -111
135 -192 97 -138 105 -147 125 -136 12 6 27 17 34 24 7 7 18 14 25 16 8 3 4
15 -12 39 -13 19 -27 36 -30 39 -3 3 -27 39 -55 80 -27 41 -53 77 -57 78 -5 2
-8 10 -8 17 0 7 -3 15 -8 17 -4 2 -55 71 -112 153 -57 83 -108 152 -112 153
-5 2 -8 8 -8 12 0 5 -31 53 -69 107 -39 54 -80 113 -93 131 -13 18 -29 39 -35
47 -20 21 -16 41 37 206 27 85 50 159 50 165 0 12 -22 21 -72 30 -26 5 -27 4
-88 -186z"/>
<path d="M2426 1674 c-6 -6 -49 -66 -96 -133 -75 -107 -203 -290 -272 -389
-13 -18 -29 -39 -35 -47 -7 -7 -13 -18 -13 -23 0 -5 -6 -15 -13 -21 -8 -6 -39
-48 -70 -93 -31 -46 -70 -102 -87 -126 -68 -97 -67 -86 -17 -121 l44 -30 59
87 c32 48 62 89 65 92 3 3 36 50 74 105 37 55 75 110 84 121 9 12 22 30 29 40
58 86 154 223 166 239 9 11 44 61 79 110 l63 90 164 2 c91 1 174 2 185 2 18 1
20 8 20 53 l0 53 -209 0 c-142 0 -213 -4 -220 -11z"/>
<path d="M3179 1685 c-1 0 -2 -24 -3 -52 -1 -41 2 -53 14 -54 8 0 90 -1 182
-1 l168 -1 40 -53 c22 -29 40 -58 40 -64 0 -5 3 -10 8 -10 4 0 18 -18 32 -40
14 -22 28 -40 32 -40 4 0 9 -8 13 -19 3 -10 13 -28 23 -39 9 -12 32 -43 50
-69 19 -26 96 -138 173 -248 76 -110 146 -209 155 -220 8 -11 23 -32 32 -47
15 -25 52 -39 52 -20 0 4 14 15 30 24 l30 17 -20 33 c-12 18 -46 69 -78 114
-31 44 -93 132 -136 195 -44 63 -84 119 -88 124 -14 16 -309 438 -318 455 -7
12 -45 14 -219 15 -116 0 -212 0 -212 0z"/>
<path d="M2075 1548 c-44 -62 -83 -114 -87 -116 -4 -2 -8 -8 -8 -13 0 -5 -28
-49 -63 -97 -34 -48 -79 -112 -100 -142 -21 -30 -67 -95 -102 -145 -35 -49
-90 -128 -121 -175 -32 -47 -61 -87 -64 -90 -3 -3 -29 -38 -57 -79 -54 -77
-55 -78 -8 -109 29 -18 45 -25 49 -21 8 10 150 214 201 289 32 47 61 87 64 90
3 3 20 25 36 50 75 110 149 215 155 220 4 3 9 10 11 16 4 11 87 129 197 281
34 48 62 89 62 92 0 5 -62 50 -81 59 -3 1 -41 -48 -84 -110z"/>
<path d="M3860 1652 c0 -4 -16 -16 -35 -26 -19 -11 -35 -22 -35 -25 0 -3 23
-37 50 -76 27 -38 69 -99 94 -135 50 -73 387 -554 410 -585 8 -11 51 -73 96
-137 l81 -117 44 31 44 31 -56 81 c-31 45 -144 207 -252 361 -108 154 -204
291 -213 305 -28 40 -116 164 -125 175 -4 6 -26 36 -47 68 -36 52 -56 70 -56
49z"/>
<path d="M2810 1333 c-23 -76 -45 -143 -47 -150 -5 -12 232 -193 252 -193 15
0 250 175 250 186 0 5 -20 73 -45 152 l-45 142 -161 0 -161 0 -43 -137z m285
25 c3 -2 15 -37 27 -77 20 -67 20 -74 5 -82 -9 -5 -22 -15 -29 -22 -7 -7 -30
-23 -50 -35 l-37 -23 -60 43 c-33 24 -61 49 -61 56 0 19 41 136 50 142 11 7
148 5 155 -2z"/>
<path d="M1265 544 c-17 -14 -35 -28 -40 -32 -73 -53 -125 -94 -125 -99 0 -14
73 -219 81 -228 11 -11 240 -8 252 4 4 4 9 16 12 27 6 30 42 146 54 176 10 26
8 30 -42 66 -50 37 -131 92 -152 104 -6 4 -24 -5 -40 -18z m78 -136 c18 -12
33 -22 35 -23 1 -1 -3 -23 -10 -49 -8 -29 -18 -46 -28 -47 -8 0 -27 -2 -41 -4
-35 -5 -46 4 -62 50 -13 39 -12 41 17 67 38 33 49 34 89 6z"/>
<path d="M4629 499 c-57 -39 -105 -72 -105 -73 -4 -3 68 -232 74 -238 11 -11
241 -13 251 -2 7 8 81 214 81 227 0 3 -35 32 -77 64 -43 31 -80 60 -83 63 -31
32 -36 31 -141 -41z m144 -99 l31 -29 -15 -43 c-16 -42 -17 -43 -60 -41 -24 1
-47 2 -50 2 -4 1 -12 22 -18 48 -10 37 -10 48 1 54 7 4 22 15 33 23 29 22 42
20 78 -14z"/>
</g>
</svg>
