<svg width="1232" height="368" fill="none" xmlns="http://www.w3.org/2000/svg"><g clip-path="url(#clip0_177_13261)"><g opacity=".1" clip-path="url(#clip1_177_13261)" fill="#BDE7F4"><path d="M61.376 377.191h-74.667l-23.075-71.002 60.414-43.881 60.414 43.881-23.074 71.002h-.012zm-69.418-7.235h64.144l19.828-61.005-51.894-37.696-51.894 37.696 19.828 61.005h-.012z"/><path d="M72.213 390.565h-94.966l-29.35-90.296 76.827-55.808 76.827 55.808-29.35 90.296h.012zm-89.704-7.235H66.95l26.104-80.3-68.32-49.621-68.318 49.621 26.104 80.3h-.012zM28.344-446h-7.24v677.16h7.24V-446zM1132.83-27.507L113.426 292.873l2.173 6.902L1135-20.605l-2.17-6.902zM121.814 375.033l-17.403-12.626 6.638-20.428h21.493l6.65 20.428-17.39 12.626h.012zm-8.883-15.387l8.883 6.451 8.882-6.439-3.391-10.431h-10.982l-3.392 10.419zm13.662 89.198l-44.762-63.802 8.774-27 6.891 2.243-7.651 23.563 42.685 60.848-5.937 4.148zM104.206 339.64l-6.89-2.231 8.797-27.06 1.786-.554L1132.83-12.223l2.17 6.898L111.845 316.137l-7.639 23.503zM-9.128 260.209l-4.248-5.848L6.621 239.83V-446h7.241v689.52l-22.99 16.689zm108.241 29.448L76.147 272.98l4.248-5.861 20.022 14.543L1132.83-42.694l2.17 6.897L99.113 289.657z"/><path d="M76.147 272.98l-40.562-29.46V-446h7.242v685.83l37.568 27.289-4.248 5.861z"/></g></g><defs><clipPath id="clip0_177_13261"><path fill="#fff" d="M0 0h1232v368H0z"/></clipPath><clipPath id="clip1_177_13261"><path fill="#fff" transform="translate(-149 -446)" d="M0 0h1284v921H0z"/></clipPath></defs></svg>