<svg width="562" height="403" fill="none" xmlns="http://www.w3.org/2000/svg"><g opacity=".27" clip-path="url(#clip0_424_60579)" fill="#fff"><path d="M92.08 360.202H59.4l-10.1-31.068 26.443-19.201 26.443 19.201-10.1 31.068h-.005zm-30.383-3.166h28.075l8.679-26.694-22.714-16.494-22.714 16.494 8.679 26.694h-.005z"/><path d="M96.824 366.054H55.258L42.41 326.543l33.627-24.42 33.627 24.42-12.847 39.511h.006zm-39.263-3.166h36.96l11.425-35.136-29.903-21.713-29.903 21.713 11.426 35.136h-.005zM77.623 0h-3.17v296.303h3.17V0zM561.05 183.119L114.862 323.307l.951 3.02 446.188-140.188-.951-3.02zm-459.44 186.96l-2.595 1.817 21.831 31.109 2.595-1.817-21.831-31.109zm-51.133-.039l-21.825 31.113 2.596 1.817 21.825-31.113-2.596-1.817zM.956 311.896l-.95 3.02 36.282 11.393.95-3.021L.956 311.896zm75.082 78.303l-7.612-5.524 2.906-8.939h9.407l2.905 8.939-7.611 5.524h.005zm-3.882-6.738l3.882 2.823 3.883-2.823-1.485-4.564h-4.801l-1.485 4.564h.005zm-30.278 15.397l-2.6-1.82 19.403-27.639h12.603v3.166H60.329l-18.451 26.293zm68.32 0l-18.45-26.293H80.791v-3.166h12.603l19.402 27.639-2.599 1.82zm8.336-39.6l-7.617-5.525 2.905-8.938h9.408l2.91 8.938-7.612 5.525h.006zm-3.888-6.733l3.888 2.823 3.887-2.818-1.484-4.564h-4.807l-1.484 4.559zm5.98 39.03l-19.592-27.918 3.84-11.814 3.016.981-3.349 10.311 18.683 26.625-2.598 1.815zm-9.799-47.784l-3.016-.976 3.851-11.841.781-.242 448.606-140.905.951 3.018-447.829 140.662-3.344 10.284zm-77.285 15.487l-7.611-5.525 2.91-8.938h9.408l2.905 8.938-7.617 5.525h.005zm-3.887-6.733l3.887 2.817 3.888-2.823-1.484-4.558h-4.807l-1.484 4.564zm1.795 39.03l-2.593-1.815 18.683-26.625-3.354-10.311 3.016-.981 3.84 11.814-19.591 27.918zm9.8-47.784l-3.344-10.284-30.738-9.656.95-3.018 32.296 10.141 3.851 11.841-3.016.976zm8.599-34.324l-7.612-5.524 2.9-8.939h9.408l2.91 8.939-7.606 5.524zm-3.893-6.733l3.887 2.823 3.883-2.817-1.484-4.565H47.44l-1.48 4.565-.004-.006zM43.478 321.9l-32.49-10.205.95-3.018 30.97 9.724 8.763-6.363 1.86 2.564-10.053 7.298zm17.743-12.885l-1.86-2.56 8.754-6.358V0h3.169v301.712l-10.063 7.303zm47.377 12.885l-10.052-7.298 1.859-2.564 8.763 6.363 451.881-141.928.951 3.019L108.598 321.9zm-10.052-7.298l-17.754-12.89V0h3.17v300.097l16.443 11.941-1.86 2.564z"/></g><defs><clipPath id="clip0_424_60579"><path fill="#fff" d="M0 0h562v403H0z"/></clipPath></defs></svg>