<svg width="741" height="532" fill="none" xmlns="http://www.w3.org/2000/svg"><g opacity=".1" clip-path="url(#clip0_424_57824)" fill="#000"><path d="M121.408 475.503h-43.09L65 434.489l34.866-25.347 34.865 25.347-13.317 41.014h-.007zm-40.06-4.18h37.017l11.443-35.238L99.86 414.31l-29.948 21.775 11.442 35.238h-.006z"/><path d="M127.663 483.227H72.858l-16.939-52.158 44.338-32.236 44.337 32.236-16.938 52.158h.007zm-51.769-4.179h48.732l15.065-46.383-39.427-28.664-39.427 28.664L75.9 479.048h-.007zM102.346 0h-4.179v391.15h4.179V0zm637.402 241.735L151.447 426.797l1.254 3.987 588.301-185.062-1.254-3.987zM133.973 488.541l-3.421 2.399 28.783 41.067 3.422-2.399-28.784-41.067zm-67.418-.051l-28.777 41.072 3.422 2.398 28.777-41.072-3.422-2.398zM1.26 411.734l-1.252 3.987 47.837 15.039 1.254-3.987L1.26 411.734zm98.997 103.368l-10.037-7.293 3.831-11.8h12.404l3.831 11.8-10.036 7.293h.007zm-5.12-8.895l5.12 3.726 5.119-3.726-1.957-6.025h-6.331l-1.957 6.025h.007zm-39.921 20.325l-3.427-2.403 25.582-36.486h16.617v4.18H79.544l-24.328 34.709zm90.081 0l-24.328-34.709h-14.444v-4.18h16.617l25.582 36.486-3.427 2.403zm10.99-52.276l-10.043-7.293 3.831-11.8h12.404l3.838 11.8-10.037 7.293h.007zm-5.126-8.888l5.126 3.726 5.126-3.719-1.957-6.026h-6.337l-1.958 6.019zm7.884 51.524l-25.832-36.855 5.064-15.596 3.977 1.296-4.416 13.611 24.634 35.148-3.427 2.396zm-12.919-63.08l-3.977-1.289 5.077-15.63 1.031-.321 591.49-186.008 1.253 3.985-590.465 185.687-4.409 13.576zm-101.9 20.444l-10.036-7.293 3.837-11.8h12.404l3.83 11.8-10.042 7.293h.007zm-5.126-8.888l5.126 3.719 5.126-3.726-1.957-6.019h-6.338l-1.957 6.026zm2.368 51.524l-3.42-2.396 24.634-35.148-4.422-13.611 3.976-1.296 5.064 15.596-25.832 36.855zm12.919-63.08l-4.408-13.576L9.45 427.489l1.254-3.984 42.582 13.388 5.077 15.63-3.977 1.289zm11.339-45.311l-10.036-7.293 3.823-11.799h12.404l3.838 11.799-10.03 7.293zm-5.133-8.888l5.126 3.727 5.119-3.72-1.957-6.025H62.55l-1.95 6.025-.007-.007zm-3.267 25.327l-42.84-13.472 1.254-3.984 40.834 12.838 11.555-8.401 2.451 3.385-13.254 9.634zm23.394-17.01l-2.451-3.379 11.54-8.393V0h4.18v398.289L80.72 407.93zm62.467 17.01l-13.254-9.634 2.452-3.385 11.554 8.401 595.807-187.36 1.254 3.985L143.187 424.94zm-13.254-9.634l-23.408-17.016V0h4.178v396.158l21.682 15.763-2.452 3.385z"/></g><defs><clipPath id="clip0_424_57824"><path fill="#fff" d="M0 0h741v532H0z"/></clipPath></defs></svg>