<svg width="16" height="17" fill="none" xmlns="http://www.w3.org/2000/svg"><path d="M0 7.711c2.784.387 5.467 1.138 8.13 1.987 2.655.878 5.265 1.846 7.745 3.172-2.785-.385-5.467-1.136-8.13-1.986C5.091 10.003 2.479 9.034 0 7.71zm.176 2.007c2.12-.203 4.432.543 6.024 1.957-2.13.206-4.419-.544-6.024-1.957zm7.867 2.557c2.12-.203 4.432.542 6.025 1.957-2.13.206-4.42-.544-6.025-1.957zM.898 4.947C4.609 4.747 15 6.431 15.98 10.665c.062.4-.022.803-.198 1.128.043-.371.003-.73-.136-1.036-.939-1.84-4.45-2.707-6.352-3.362C6.51 6.54 3.69 5.853.9 4.947" fill="#D43B2C"/><path d="M13.504 5.51c-.55 1.646-2.97.963-2.51-.765.58-1.696 2.973-.91 2.51.765zm0 0c.298-1.14-1.265-1.575-1.618-.493-.316 1.098 1.23 1.606 1.618.493zm-2.944-.895c-.549 1.646-2.97.963-2.51-.765.582-1.696 2.974-.91 2.51.765zm0 0c.299-1.14-1.264-1.575-1.616-.493-.317 1.098 1.23 1.606 1.617.493z" fill="#D43B2C"/></svg>