<svg width="16" height="17" fill="none" xmlns="http://www.w3.org/2000/svg"><path d="M.5 9.136c1.496-1.32 3.172-2.343 4.904-3.293C7.15 4.917 8.925 4.081 10.85 3.56 9.356 4.88 7.68 5.904 5.947 6.852 4.2 7.777 2.424 8.612.5 9.136zm7.985 1.652a3.247 3.247 0 013.147-1.97 3.247 3.247 0 01-3.147 1.97zM4.96 3.782a3.247 3.247 0 013.148-1.97 3.247 3.247 0 01-3.147 1.97z" fill="#D43B2C"/><path d="M1.431 2.102c1.595-.822 3.58-.88 5.215-.138-1.593.827-3.579.874-5.215.138zm2.017 9.276a4.13 4.13 0 013.396-1.503 4.131 4.131 0 01-3.396 1.503zm-1.199 1.761c2.498.394 4.828 1.305 7.224 2.028.776.191 1.563.553 2.364.276-.573.725-1.702.653-2.53.61a14.209 14.209 0 01-7.058-2.913" fill="#D43B2C"/><path d="M7.852 14.347c1.885-.48 3.791-.407 5.701-.319.629.007 1.242.143 1.86-.045-.358.596-1.156.782-1.783.943-1.939.364-3.957.214-5.778-.578m-1.66-.366c.506-.618 1.203-1.038 1.672-1.565.13-.16.2-.27.251-.443.067-.42-.075-.79-.19-1.348.7.188 1.36.97 1.186 1.761-.298 1.287-1.76 1.783-2.919 1.593m-4.17-6.403c-.226-1.617.952-3.701 2.75-3.582-.929 1.27-1.492 2.612-2.75 3.582zm8.561 6.296c-.033-.585.181-1.279.09-1.724a.567.567 0 00-.177-.252c-.309-.253-.624-.393-1.023-.708.76-.497 1.998-.34 2.298.64.218.9-.388 1.71-1.188 2.044zm-.297-5.115c-.088-.026-.162.03-.241.058-.467.228-.978.454-1.45.622-.511.225-1.032.222-1.091.875-.44-.175-.528-.823-.27-1.2.252-.407.615-.617.965-.751.66-.225 1.475-.236 2.02.247.034.038.071.1.067.148m-.116-7.18c-.499 1.413-2.575.786-2.151-.7.53-1.456 2.578-.74 2.151.7zm0 0C10.442.63 9.135.24 8.836 1.143c-.288.913.993 1.359 1.334.434zm3.669 6.875c-.5 1.414-2.575.787-2.152-.7.53-1.456 2.578-.74 2.152.7zm0 0c.271-.945-1.036-1.335-1.336-.433-.288.912.993 1.358 1.336.433z" fill="#D43B2C"/></svg>