<svg width="16" height="17" fill="none" xmlns="http://www.w3.org/2000/svg"><path d="M1.694 9.786C3.333 9.38 5.137 9.1 5.987 7.517c.259-.476.417-1.046.57-1.69 1.433 3.112-2.17 5.315-4.863 3.96zm7.884 2.951c.534-3.002 1.194-5.21-2.353-6.328 1.44-.439 3.228.264 3.685 1.814.481 1.648-.206 3.35-1.332 4.514zM4.36 2.795c1.714.086 3.347.492 4.971.99 1.615.522 3.187 1.126 4.64 2.042-1.717-.083-3.35-.49-4.972-.99-1.615-.524-3.185-1.129-4.639-2.042zM.034 8.61c1.212 1.092 1.857 2.794 1.66 4.415C.478 11.935-.159 10.229.034 8.61zm7.191 5.07a5.205 5.205 0 014.703-.356 5.206 5.206 0 01-4.703.357zM16 3.686c-.046 1.682-2.489 1.729-2.55 0 .059-1.734 2.504-1.686 2.55 0zm0 0c-.045-1.19-1.694-1.15-1.722 0 .023 1.154 1.678 1.19 1.722 0z" fill="#D43B2C"/></svg>