<svg width="16" height="17" fill="none" xmlns="http://www.w3.org/2000/svg"><path d="M7.12 6.113c.25 3.11-1.987 6.572-4.905 7.656 2.179-2.204 3.836-4.742 4.905-7.656z" fill="#D43B2C"/><path d="M8.132 13.664c-.09-1.335-.251-2.582-1.035-3.673-.243-.348-.54-.674-.89-1.035 2.207.1 3.26 3.07 1.925 4.71M7.03 6.563c1.762.165 3.347.032 5.031-.522C11.098 7.748 8.336 8 7.03 6.563zm6.744 6.904c-.83-.833-1.431-1.806-1.974-2.828-.524-1.032-.971-2.084-1.172-3.244.833.832 1.434 1.805 1.974 2.828.522 1.033.97 2.085 1.172 3.244z" fill="#D43B2C"/><path d="M0 13.842c4.071-.442 8.165-.4 12.247-.204l2.028.114c.624.075 1.232-.28 1.725-.75-.299.536-.811 1.01-1.43 1.151-.775.12-1.555.15-2.324.19-4.09.163-8.188.072-12.246-.5zM8.953 4.28c-.04 1.48-2.19 1.517-2.242 0 .052-1.518 2.203-1.48 2.242 0zm0 0c-.04-1.072-1.539-1.04-1.564 0 .022 1.045 1.525 1.075 1.564 0zM6.207 1.904c0 .983-.253 1.893-.588 2.792-.356.894-.769 1.745-1.444 2.464.017-.981.262-1.889.602-2.788.355-.892.773-1.736 1.431-2.468m-.271 3.974c-.016 1.399-.74 2.879-1.87 3.71.049-1.435.736-2.824 1.87-3.71z" fill="#D43B2C"/></svg>