<svg width="48" height="28" fill="none" xmlns="http://www.w3.org/2000/svg"><path d="M35.529 25.536c3.768-2.027 8.378-2.08 12.183-.112-3.768 2.04-8.378 2.068-12.184.112zM27.996 7.148c2.778 1.177 5.01 3 7.112 5.056 2.055 2.101 3.875 4.334 5.039 7.12-2.782-1.168-5.01-2.997-7.111-5.056-2.052-2.11-3.872-4.342-5.04-7.12zm-9.014-4.086c3.834 2.27 7.082 5.192 10.19 8.313 3.063 3.17 5.915 6.471 8.102 10.36-3.838-2.267-7.086-5.189-10.19-8.313-3.054-3.174-5.91-6.476-8.102-10.36zm23.064 14.475c1.861-.19 3.524.986 3.966 2.773.454 1.775-1.086 3.79-2.947 3.344.235-.842.355-1.453.314-1.883-.306-1.502-1.098-2.65-1.333-4.23M36.89 3.611c-.12 4.445-6.579 4.57-6.735 0 .156-4.577 6.616-4.45 6.736 0zm0 0c-.12-3.137-4.474-3.034-4.544 0 .062 3.042 4.425 3.141 4.545 0zm-13.017 7.173c-1.957 1.928-4.26 3.55-6.154 5.42-1.333 1.849-1.684 4.115-2.687 6.253-2.15 5.493-6.076 5.336-11.202 4.206-1.308-.318-2.596-.706-3.83-1.239 2.67-.037 5.32-.008 7.797-.305 2.91-.289 3.55-1.222 4.569-3.785.895-2.134 1.494-4.672 3.02-6.591.248-.302.624-.648.934-.855 2.332-1.601 4.816-2.567 7.557-3.104" fill="#006DB8"/><path d="M18.982 16.526c2.323-1.024 7.706-3.026 9.86-.974.595.56.603 1.72.24 2.323-1.854 3.005-5.341 4.413-7.715 6.749-.156.148-.251.33-.247.26a.557.557 0 00-.075-.252c1.367.916 5.643 1.13 7.723 1.448-2.386.69-8.35 2.176-9.885-.441-.487-.842.008-2.068.445-2.613 1.825-2.385 4.549-3.859 6.716-5.691.214-.178.412-.36.553-.512.148-.132.198-.33.173-.058 0 .07.02.177.066.272.054.104.066.112.108.149.057.05.066.029.024-.004-2.262-.88-5.452-.458-7.982-.656" fill="#006DB8"/></svg>