<svg width="302" height="72" fill="none" xmlns="http://www.w3.org/2000/svg"><mask id="a" style="mask-type:luminance" maskUnits="userSpaceOnUse" x="28" y="29" width="19" height="19"><path d="M28.16 36.474l3.587 11.045h11.61l3.588-11.045-9.39-6.829-9.396 6.829z" fill="#fff"/></mask><g mask="url(#a)"><mask id="b" style="mask-type:luminance" maskUnits="userSpaceOnUse" x="-14" y="-13" width="106" height="97"><path d="M91.176-12.396h-105.12v96.009h105.12v-96.009z" fill="#fff"/></mask><g mask="url(#b)"><path d="M47.4 45.514l-9.778 6.804c-1.055.734-2.495.443-3.204-.646l-5.132-7.88c-.709-1.089-.426-2.579.625-3.313l9.779-6.803c1.055-.735 2.494-.444 3.203.645l5.132 7.88c.71 1.089.427 2.579-.624 3.313z" fill="#D43B2C"/><path d="M43.864 33.984l-2.389-3.672c-1.013-1.558-3.102-1.954-4.642-.882l-7.965 5.537c-1.54 1.072-1.97 3.22-.953 4.778l2.388 3.672 13.56-9.433z" fill="#fff"/><path d="M37.284 45.075c5.694-4.634 9.686-4.356 10.877-7.846-.309-.624-3.6-5.533-3.6-5.533l.223.017c-2.975 4.322-9.67 4.322-11.936 6.073-2 1.545-2.236 2.845-2.236 2.845l4.376 6.732s1.655-1.769 2.296-2.292" fill="#16469B"/></g></g><path d="M40.623 34.266a8.084 8.084 0 01-.743.245c-.405.11-.882.08-.882.08l.49.262-.706.093-.502-.144.308.435c.03.042.785.291.785.291l-.62-.008c.101.101.367.304.658.405.346.118.642.085.785.055l-.46.173-.557-.008-.27 1.004-.464 1.929-.853.721-.27.824-1.325 1.831-.722.228-1.844 1.92-.279.03-.21.114a2.426 2.426 0 01-.156 1.207l.05.355.468.126c-.004-.093 0-.223.042-.371.051-.165.136-.266.19-.346.102-.14.287-.477.389-.785l2.186-1.592.346-.122 1.63-1.275.62-.734 1.789-.169-1.05.916-.406-.181-.287.223a1.257 1.257 0 01-.477.933l-.021.494.156.211.266-.342.671-.595 1.46-.81 1.596-.963.194-.692-.397-.375-1.16-.165H39.69l1.215-1.756-.126-1.156.316-.587c.178-.02.355-.046.528-.067a.4.4 0 00.038-.114c.008-.047 0-.089 0-.114 0-.013 0-.038.008-.068.013-.042.03-.055.038-.093 0-.017.005-.042 0-.076-.042-.05-.042-.071-.038-.088.017-.038.097-.017.135-.072.009-.013.013-.03.017-.042-.072-.093-.139-.186-.21-.279a.147.147 0 01-.03-.05c-.021-.08.042-.152.046-.157-.034-.088-.063-.177-.097-.265a.257.257 0 00.025-.178c-.033-.126-.038-.342-.228-.325-.075-.004-.19-.017-.312-.017-.13 0-.27.013-.371.051" fill="#D43B2C"/><mask id="c" style="mask-type:luminance" maskUnits="userSpaceOnUse" x="32" y="34" width="11" height="13"><path d="M40.623 34.266a8.084 8.084 0 01-.743.245c-.405.11-.882.08-.882.08l.49.262-.706.093-.502-.144.308.435c.03.042.785.291.785.291l-.62-.008c.101.101.367.304.658.405.346.118.642.085.785.055l-.46.173-.557-.008-.27 1.004-.464 1.929-.853.721-.27.824-1.325 1.831-.722.228-1.844 1.92-.279.03-.21.114a2.426 2.426 0 01-.156 1.207l.05.355.468.126c-.004-.093 0-.223.042-.371.051-.165.136-.266.19-.346.102-.14.287-.477.389-.785l2.186-1.592.346-.122 1.63-1.275.62-.734 1.789-.169-1.05.916-.406-.181-.287.223a1.257 1.257 0 01-.477.933l-.021.494.156.211.266-.342.671-.595 1.46-.81 1.596-.963.194-.692-.397-.375-1.16-.165H39.69l1.215-1.756-.126-1.156.316-.587c.178-.02.355-.046.528-.067a.4.4 0 00.038-.114c.008-.047 0-.089 0-.114 0-.013 0-.038.008-.068.013-.042.03-.055.038-.093 0-.017.005-.042 0-.076-.042-.05-.042-.071-.038-.088.017-.038.097-.017.135-.072.009-.013.013-.03.017-.042-.072-.093-.139-.186-.21-.279a.147.147 0 01-.03-.05c-.021-.08.042-.152.046-.157-.034-.088-.063-.177-.097-.265a.257.257 0 00.025-.178c-.033-.126-.038-.342-.228-.325-.075-.004-.19-.017-.312-.017-.13 0-.27.013-.371.051" fill="#fff"/></mask><g mask="url(#c)"><path d="M91.088-11.995H-14.033v96.009h105.12v-96.009z" fill="#D43B2C"/></g><path d="M32.456 46.164l-.557-.152-.06-.396v-.013a2.22 2.22 0 00.14-.46c.042-.236.05-.481.021-.726v-.034l.245-.135.274-.03 1.84-1.916.718-.227 1.313-1.815.274-.832.852-.721.448-1.862-1.11-.088-.659-.177a9.024 9.024 0 01-2.232-.296l-.764.258-.021-.026c-.043-.05-.026-.135.059-.261.02-.034.042-.064.059-.09-.093-.008-.203-.003-.308-.003-.313 0-.608 0-.642-.17l-.008-.041.734-.24h.009l1.215.168 1.671-.038.975.059.503.008.848-.16.553.009.148-.055c-.144 0-.304-.026-.477-.085a1.987 1.987 0 01-.676-.413l-.084-.08h.443c-.494-.165-.515-.195-.523-.207l-.384-.54.62.172.553-.071-.549-.296.211.013s.473.025.87-.08c.063-.017.13-.038.198-.055.22-.064.448-.127.608-.148h.004l.481.038c.203-.017.38.084.418.24a.323.323 0 01-.021.195l.101.274-.02.021s-.052.055-.035.11c0 .013.009.025.017.034l.224.295v.021c-.008.021-.013.042-.025.06-.03.042-.076.054-.11.063h-.017c0 .008.013.017.025.033l.009.009v.013a.174.174 0 010 .092c-.004.026-.013.043-.021.06-.005.012-.013.02-.017.038 0 .016-.004.033-.004.05a.426.426 0 010 .127.326.326 0 01-.047.126l-.012.021-.528.068-.295.549.282 1.24-.232.275-.346.101-.78 1.237h1.295l1.178.169.426.405-.207.738-1.612.971-1.456.806-.663.587-.3.384-.202-.27.02-.532.018-.013a1.209 1.209 0 00.46-.899v-.02l.325-.254.405.181.92-.801-1.63.156-.607.726-1.633 1.283-.346.122-2.17 1.579a3.54 3.54 0 01-.388.785c-.004.008-.013.017-.017.025-.055.076-.122.164-.164.304a.962.962 0 00-.043.35v.063l-.008.017zm-.477-.223l.38.105c0-.114.017-.22.046-.325.05-.152.123-.257.182-.333.004-.009.012-.017.017-.026.093-.13.278-.468.38-.772v-.013L33 44.57l2.19-1.595.347-.123 1.62-1.266.63-.747 1.95-.186-1.182 1.03-.41-.181-.249.194a1.213 1.213 0 01-.101.422c-.101.245-.258.41-.38.506l-.017.456.11.152.232-.3.68-.599h.004l1.46-.81 1.578-.95.182-.646-.363-.346-1.144-.164h-1.456l.89-1.414.355-.102.186-.219-.279-1.232.338-.62.528-.068a.266.266 0 00.025-.173.3.3 0 01.008-.089c.005-.025.017-.042.022-.055.004-.013.012-.02.012-.034v-.042c-.03-.034-.055-.084-.038-.126.017-.038.055-.047.085-.051.025-.004.046-.013.054-.025l-.194-.258s-.03-.042-.038-.067a.209.209 0 01.038-.178l-.097-.261.009-.017c.017-.038.038-.093.02-.148-.029-.11-.168-.186-.328-.173h-.022l-.46-.038c-.151.021-.375.08-.586.144-.068.016-.135.038-.199.054a2.827 2.827 0 01-.7.085l.447.24-.857.114-.388-.11.228.321c.055.034.477.182.764.279l.287.093-.798-.013c.127.101.325.236.549.313.308.105.582.088.764.054l.025.089-.468.177-.562-.008-.848.16h-.004l-.507-.008-.97-.06-1.676.039-1.211-.17-.62.203c.08.064.333.06.527.06.143 0 .287 0 .4.012l.081.013-.055.063a.982.982 0 00-.169.266l.71-.24h.012a8.549 8.549 0 002.229.3h.004l.667.18 1.207.093-.482 1.997-.856.721-.27.82h-.005l-1.333 1.852-.726.228-1.849 1.925-.287.033-.177.097c.025.24.017.486-.025.722-.03.16-.072.317-.135.468l.046.313v-.004z" fill="#fff"/><path d="M32.456 46.333s-.03 0-.042-.004l-.558-.152a.174.174 0 01-.122-.135l-.059-.397c0-.03 0-.059.008-.084a2.256 2.256 0 00.152-1.118v-.035a.15.15 0 01.085-.164l.245-.135s.038-.017.059-.017l.21-.025 1.799-1.874s.042-.034.071-.042l.667-.212 1.266-1.751.266-.806a.152.152 0 01.051-.076l.81-.684.389-1.616-.916-.072s-.026 0-.038-.009l-.633-.173c-.224 0-.448-.012-.667-.03a9.57 9.57 0 01-1.536-.257l-.718.245a.172.172 0 01-.181-.05l-.022-.026c-.08-.093-.067-.202-.038-.295h-.118c-.337 0-.658-.021-.713-.304l-.008-.042a.162.162 0 01.11-.19l.734-.24c.02-.01.046-.01.067-.01l1.22.17 1.659-.038.987.059.477.008.684-.127a2.344 2.344 0 01-.393-.29l-.084-.085a.174.174 0 01-.042-.173.156.156 0 01-.06-.06l-.383-.544a.165.165 0 010-.194.162.162 0 01.181-.063l.587.164h.004l-.093-.05a.17.17 0 01-.08-.194.172.172 0 01.169-.123l.21.013s.457.021.815-.076l.195-.055c.227-.063.46-.13.628-.152h.038l.469.038c.283-.017.519.135.578.367a.434.434 0 01-.004.232l.08.22a.167.167 0 01-.03.164l.195.254a.17.17 0 01.033.126.28.28 0 01-.054.148c-.017.025-.038.042-.055.06 0 .033 0 .063-.009.096a.361.361 0 01-.034.093c0 .05 0 .11-.008.169a.747.747 0 01-.063.186l-.013.02a.17.17 0 01-.122.085l-.444.055-.227.418.265 1.182a.16.16 0 01-.033.143l-.232.274a.163.163 0 01-.08.051l-.288.084-.586.929h.996s.02 0 .034.004l1.169.169a.188.188 0 01.093.042l.426.405a.16.16 0 01.046.165l-.207.739a.16.16 0 01-.076.097l-1.612.97-1.443.802-.638.566-.287.371c-.033.043-.08.076-.135.064a.162.162 0 01-.13-.068l-.203-.27a.185.185 0 01-.034-.106l.021-.531a.16.16 0 01.064-.123 1.04 1.04 0 00.413-.789c0-.046.026-.114.063-.143l.326-.254a.163.163 0 01.168-.02l.308.134.452-.392-1.047.101-.565.671-.026.025-1.637 1.28s-.03.02-.046.025l-.321.114-2.106 1.532a3.714 3.714 0 01-.393.776l-.021.025a.775.775 0 00-.173.55v.062a.15.15 0 01-.06.14.162.162 0 01-.105.038l.009.025zm-.33-.528l.08.022a.991.991 0 01.039-.16c.059-.182.143-.3.202-.38l.14.067-.051-.038-.072-.055c.093-.127.266-.452.359-.726a.217.217 0 01.063-.097l2.203-1.604s.03-.017.043-.02l.316-.115 1.583-1.24.616-.735a.168.168 0 01.11-.06l1.95-.185a.17.17 0 01.169.101.161.161 0 01-.043.19l-1.181 1.03a.17.17 0 01-.178.026l-.316-.14-.114.089a1.452 1.452 0 01-.473.92l-.008.169.038-.047s.012-.017.02-.02l.68-.6s.021-.017.03-.021l1.46-.81 1.52-.912.135-.486-.254-.24-1.08-.156h-1.444a.167.167 0 01-.143-.089.183.183 0 01.004-.169l.89-1.41a.174.174 0 01.094-.071l.303-.089.097-.118-.261-1.148a.194.194 0 01.017-.118l.337-.62a.16.16 0 01.127-.085l.41-.05v-.026c0-.042 0-.089.012-.13.004-.026.013-.043.021-.06-.05-.097-.038-.177-.013-.228a.26.26 0 01.043-.067l-.08-.102a.352.352 0 01-.046-.359l-.073-.19a.158.158 0 01.009-.13c.017-.034.02-.047.017-.05 0-.013-.06-.056-.152-.047h-.03l-.464-.038c-.14.021-.346.08-.549.135l-.198.055c-.063.017-.127.03-.186.042a.177.177 0 01.055.156.166.166 0 01-.143.135l-.752.097c.14.05.334.118.528.182l.287.093a.171.171 0 01.114.185c-.013.08-.093.131-.165.14h-.122a1.4 1.4 0 00.608.025.165.165 0 01.19.122l.025.089a.165.165 0 01-.102.198l-.468.178-.063.012-.545-.008-.831.156h-.038l-.507-.009-.979-.059-1.481.034a8.3 8.3 0 001.06.152c.219.017.442.026.662.03.013 0 .034 0 .046.004l.65.177 1.195.093c.05 0 .092.03.122.068.03.038.038.088.025.135l-.48 1.996a.166.166 0 01-.056.089l-.819.692-.253.776s-.012.034-.025.047l-1.338 1.848a.18.18 0 01-.084.064l-.684.215-1.82 1.89a.157.157 0 01-.1.051l-.254.03-.05.03c.012.219 0 .438-.038.654-.03.156-.072.308-.127.455l.025.16.005.013zm1.503-9.745c.004.021.009.047.004.068l.14-.047-.144-.02zm7.234-1.33z" fill="#fff"/><path d="M38.993 34.17c-.405.11-.882.08-.882.08l.49.265-.705.093-.502-.143.308.434c.03.043.785.292.785.292l-.62-.009c.1.102.367.304.658.405a1.5 1.5 0 00.785.055l-.46.173-.557-.008-.849.16-.506-.008-.97-.06-1.676.039-1.22-.17c-.228.077-.684.225-.684.225.026.135.313.135.595.135.144 0 .287 0 .397.012 0 0-.236.283-.173.36l.747-.254c.456.118.98.22 1.562.27.236.021.464.03.68.03l.666.177 1.16.093-.463 1.928-.853.722-.27.823-1.325 1.832-.722.228-1.845 1.92-.278.03-.211.114a2.48 2.48 0 01-.156 1.207l.05.354.469.127c-.004-.093 0-.224.042-.372.05-.164.135-.265.19-.346.097-.139.287-.477.388-.785l2.187-1.59.346-.123L37.2 41.61l.62-.734 1.79-.17-1.051.917-.405-.182-.287.224a1.26 1.26 0 01-.477.933l-.022.494.157.21.266-.341.67-.595 1.461-.81 1.595-.963.194-.692-.396-.376-1.16-.164h-1.377l.836-1.326.35-.1.207-.246-.279-1.236.317-.587c.177-.021.354-.042.527-.068a.392.392 0 00.039-.114c.008-.046 0-.088 0-.113 0-.013 0-.038.008-.068.013-.042.03-.055.038-.093 0-.017.004-.042 0-.076-.042-.05-.042-.072-.038-.088.017-.034.097-.017.135-.072.008-.013.013-.03.017-.042-.072-.093-.14-.186-.211-.279-.009-.013-.021-.03-.03-.05-.02-.08.042-.152.047-.157-.034-.088-.064-.177-.097-.266a.247.247 0 00.025-.181c-.034-.127-.186-.224-.376-.207l-.48-.038c-.208.025-.528.127-.798.199" fill="#fff"/><mask id="d" style="mask-type:luminance" maskUnits="userSpaceOnUse" x="31" y="33" width="11" height="14"><path d="M38.993 34.17c-.405.11-.882.08-.882.08l.49.265-.705.093-.502-.143.308.434c.03.043.785.292.785.292l-.62-.009c.1.102.367.304.658.405a1.5 1.5 0 00.785.055l-.46.173-.557-.008-.849.16-.506-.008-.97-.06-1.676.039-1.22-.17c-.228.077-.684.225-.684.225.026.135.313.135.595.135.144 0 .287 0 .397.012 0 0-.236.283-.173.36l.747-.254c.456.118.98.22 1.562.27.236.021.464.03.68.03l.666.177 1.16.093-.463 1.928-.853.722-.27.823-1.325 1.832-.722.228-1.845 1.92-.278.03-.211.114a2.48 2.48 0 01-.156 1.207l.05.354.469.127c-.004-.093 0-.224.042-.372.05-.164.135-.265.19-.346.097-.139.287-.477.388-.785l2.187-1.59.346-.123L37.2 41.61l.62-.734 1.79-.17-1.051.917-.405-.182-.287.224a1.26 1.26 0 01-.477.933l-.022.494.157.21.266-.341.67-.595 1.461-.81 1.595-.963.194-.692-.396-.376-1.16-.164h-1.377l.836-1.326.35-.1.207-.246-.279-1.236.317-.587c.177-.021.354-.042.527-.068a.392.392 0 00.039-.114c.008-.046 0-.088 0-.113 0-.013 0-.038.008-.068.013-.042.03-.055.038-.093 0-.017.004-.042 0-.076-.042-.05-.042-.072-.038-.088.017-.034.097-.017.135-.072.008-.013.013-.03.017-.042-.072-.093-.14-.186-.211-.279-.009-.013-.021-.03-.03-.05-.02-.08.042-.152.047-.157-.034-.088-.064-.177-.097-.266a.247.247 0 00.025-.181c-.034-.127-.186-.224-.376-.207l-.48-.038c-.208.025-.528.127-.798.199" fill="#fff"/></mask><g mask="url(#d)"><path d="M91.176-12.396h-105.12v96.009h105.12v-96.009z" fill="#fff"/></g><path d="M46.417 51.541H28.944l-5.398-16.625L37.681 24.64l14.134 10.277-5.398 16.625zm-16.506-1.33h15.536l4.803-14.784-12.57-9.137-12.568 9.137 4.803 14.785h-.004zM39.234 4.87h-3.161l-.98-3.009L37.652 0l2.558 1.861-.98 3.01h.005zm-2.195-1.329h1.228l.38-1.17-.991-.72-.992.72.38 1.17h-.005zm1.309 2.663h-1.334v15.988h1.334V6.204zm30.895 22.564l-15.251 4.794.4 1.272 15.251-4.794-.4-1.272zM48.43 53.233L47.339 54l9.177 13.091 1.092-.766-9.176-13.09zm-21.499-.008l-9.174 13.093 1.092.765 9.175-13.093-1.093-.765zM6.116 28.759l-.4 1.272 15.251 4.794.4-1.272-15.251-4.794zm68.237 1.776l-3.165-.029-.95-3.018 2.579-1.836 2.54 1.883-1.008 3h.004zm-2.186-1.35l1.228.013.392-1.165-.987-.73-1 .713.367 1.169zm-71.158 1.35l-1.009-3 2.54-1.883 2.58 1.836-.95 3.018-3.166.03h.005zm.565-2.502l.393 1.165 1.228-.013.367-1.17-1-.712-.988.73zm59.046 43.75l-3.162-.055-.928-3.026 2.591-1.815 2.528 1.903-1.025 2.993h-.005zm-2.17-1.368l1.228.021.397-1.16-.983-.739-1.005.705.359 1.173h.004zm-43.712 1.368l-1.025-2.993 2.528-1.903 2.591 1.815-.929 3.026-3.16.055h-.005zm.549-2.507l.396 1.16 1.229-.02.358-1.174-1.004-.705-.983.739h.004zM37.68 61.7l-3.198-2.326 1.22-3.76h3.954l1.22 3.76-3.2 2.326h.005zm-1.632-2.832l1.633 1.186 1.633-1.186-.624-1.92h-2.018l-.624 1.92zm-12.725 6.478l-1.093-.764 8.154-11.631h5.296v1.33h-4.604l-7.753 11.065zm28.717 0L44.285 54.28h-4.609v-1.33h5.301l8.154 11.632-1.093.764zm3.502-16.662l-3.199-2.326 1.22-3.76h3.954l1.224 3.76-3.199 2.326zm-1.633-2.836l1.633 1.186 1.633-1.186-.624-1.92h-2.022l-.624 1.92h.004zm2.515 16.426l-8.238-11.75 1.616-4.968 1.266.41-1.41 4.338 7.855 11.206-1.089.764zm-4.119-20.107l-1.27-.413 1.62-4.98 13.574-4.272.4 1.275-12.919 4.06-1.405 4.33zm-32.49 6.517l-3.199-2.326 1.224-3.76h3.955l1.22 3.76-3.2 2.326zm-1.633-2.836l1.633 1.186 1.634-1.186-.625-1.92h-2.022l-.624 1.92h.004zm.756 16.426l-1.09-.764 7.85-11.206-1.409-4.338 1.27-.41 1.613 4.968-8.235 11.75zm4.119-20.107l-1.406-4.33-12.919-4.06.401-1.275 13.573 4.271 1.617 4.98-1.266.414zm3.613-14.442l-3.2-2.326 1.22-3.76h3.955l1.224 3.76-3.2 2.326zm-1.634-2.837l1.634 1.186 1.633-1.186-.625-1.92h-2.017l-.625 1.92zm-1.042 8.074L10.336 28.67l.401-1.27 13.016 4.09 3.685-2.676.78 1.076-4.224 3.072zm7.457-5.423l-.78-1.076 3.68-2.676V10.2h1.33v14.265l-4.23 3.073zm17.237.186l-3.2-2.326 1.225-3.76h3.954l1.22 3.76-3.199 2.326zm-1.63-2.837l1.634 1.186 1.634-1.186-.625-1.92h-2.017l-.625 1.92zm4.306 8.074l-4.225-3.072.785-1.076 3.68 2.675 13.02-4.09.398 1.271-13.658 4.292zm-7.458-5.423l-4.229-3.073V10.201h1.334v13.586l3.68 2.676-.785 1.076z" fill="#fff"/><path d="M37.554 27.995l-10.96 7.968 4.186 12.89h13.548l4.187-12.89-10.96-7.968zm5.803 19.528h-11.61l-3.588-11.05 9.395-6.828 9.395 6.829-3.587 11.05h-.005zm55.315-21.887h3.283c2.203 0 2.866.848 2.866 2.017 0 .895-.43 1.545-1.148 1.857.882.186 1.439.857 1.439 1.925 0 1.646-1.274 2.32-3.216 2.32h-3.224v-8.124.005zm1.055.983v2.507h2.308c1.035 0 1.706-.464 1.706-1.254 0-.835-.465-1.253-1.879-1.253h-2.135zm0 3.473v2.68h2.157c1.473 0 2.135-.43 2.135-1.392 0-.861-.616-1.288-2.017-1.288h-2.275zm14.24 2.343c-.616.86-1.832 1.426-3.157 1.426-2.566 0-4.191-1.637-4.191-4.165 0-2.334 1.591-4.166 4.107-4.166 1.46 0 2.574.616 3.123 1.346l-.684.663c-.625-.625-1.346-.996-2.414-.996-1.891 0-3.03 1.3-3.03 3.157s1.266 3.157 3.157 3.157c1.126 0 1.924-.464 2.481-1.089l.604.671.004-.004zm1.659-6.799h5.849v.987h-4.794v2.528h4.469v.962h-4.469v2.66h4.896v.987h-5.956v-8.124h.005zm7.972 8.124v-8.124h3.157c2.714 0 3.33 1.312 3.33 2.553 0 1.313-.857 2.574-3.343 2.574h-2.089v2.993h-1.055v.004zm1.055-7.141v3.17h2.064c1.591 0 2.275-.65 2.275-1.613 0-.903-.578-1.553-2.195-1.553h-2.148l.004-.004zm10.758-1.089c2.288 0 4.12 1.739 4.12 4.166 0 2.427-1.832 4.165-4.12 4.165-2.287 0-4.131-1.738-4.131-4.165s1.81-4.166 4.131-4.166zm0 7.323c1.706 0 3.018-1.313 3.018-3.157 0-1.845-1.393-3.157-3.018-3.157-1.624 0-3.03 1.3-3.03 3.157s1.38 3.157 3.03 3.157zm12.882-.418c-.617.86-1.832 1.426-3.157 1.426-2.567 0-4.191-1.637-4.191-4.165 0-2.334 1.591-4.166 4.106-4.166 1.46 0 2.575.616 3.123 1.346l-.683.663c-.625-.625-1.347-.996-2.415-.996-1.89 0-3.03 1.3-3.03 3.157s1.266 3.157 3.157 3.157c1.127 0 1.925-.464 2.482-1.089l.603.671.005-.004zm8.263 0c-.616.86-1.831 1.426-3.157 1.426-2.566 0-4.191-1.637-4.191-4.165 0-2.334 1.591-4.166 4.107-4.166 1.46 0 2.574.616 3.123 1.346l-.684.663c-.624-.625-1.346-.996-2.414-.996-1.891 0-3.03 1.3-3.03 3.157s1.266 3.157 3.157 3.157c1.127 0 1.924-.464 2.482-1.089l.603.671.004-.004zm1.659 1.325v-8.124h1.055v6.288l4.921-6.288h.903v8.124h-1.055v-6.289l-4.933 6.289h-.895.004zm9.192 0v-8.124h1.055v6.288l4.922-6.288h.903v8.124h-1.055v-6.289l-4.934 6.289h-.895.004zm2.262-10.4c.212.477.617.722 1.195.722.578 0 1.034-.232 1.161-.721h.996c-.114.915-1.034 1.578-2.136 1.578-1.241 0-2.009-.671-2.203-1.578h.987zm13.831 9.075c-.616.86-1.832 1.426-3.157 1.426-2.566 0-4.191-1.637-4.191-4.165 0-2.334 1.591-4.166 4.107-4.166 1.46 0 2.574.616 3.123 1.346l-.684.663c-.629-.625-1.346-.996-2.414-.996-1.891 0-3.03 1.3-3.03 3.157s1.266 3.157 3.157 3.157c1.127 0 1.924-.464 2.481-1.089l.604.671.004-.004zm1.663-6.799h1.055v3.92l4.107-3.92h1.38l-3.828 3.68 4.106 4.444h-1.392l-3.503-3.748-.87.836v2.912h-1.055v-8.124zm10.767-.026h.835l3.562 8.146h-1.101l-.903-2.056h-3.98l-.895 2.056h-1.081l3.563-8.146zm-1.195 5.166h3.191l-1.6-3.689-1.591 3.689zm12.117-.026h-2.182l-2.473 3.006h-1.274l2.633-3.178c-1.3-.253-2.089-1.136-2.089-2.39 0-1.404 1.021-2.552 3.203-2.552h3.237v8.124h-1.055v-3.009zm0-.983v-3.144h-2.287c-1.439 0-1.996.684-1.996 1.591 0 .823.662 1.473 1.797 1.553h2.486zm-96.473 21.968c-1.076 1.524-3.064 2.414-5.271 2.414-4.085 0-6.685-2.616-6.685-6.647 0-3.714 2.616-6.647 6.647-6.647 2.359 0 4.216.945 5.107 2.245l-1.486 1.41c-.89-.984-2.097-1.503-3.507-1.503-2.672 0-4.419 1.781-4.419 4.495 0 2.714 1.857 4.49 4.512 4.49 1.633 0 2.895-.65 3.786-1.709l1.316 1.448v.004zm11.328-8.614h-6.757v10.88h-2.245V41.008h11.252v12.995h-2.245v-10.88h-.005zm9.969-2.119h1.71l5.702 12.995h-2.36l-1.262-2.878h-5.921l-1.245 2.879h-2.321l5.701-12.996h-.004zm-1.317 8.188h4.272l-2.136-4.938-2.136 4.938zm10.754 4.812V41.007h5.255c4.381 0 5.402 2.211 5.402 4.27 0 2.06-1.376 4.272-5.423 4.272h-2.988v4.457h-2.246v-.004zm2.246-10.902v4.343h2.95c2.19 0 3.119-.853 3.119-2.19 0-1.246-.781-2.153-2.988-2.153h-3.081zm9.411-2.098h10.974v2.12h-4.364v10.88h-2.245v-10.88h-4.365v-2.12zm15.633 0h1.71l5.702 12.995h-2.36l-1.262-2.878h-5.921l-1.245 2.879h-2.321l5.697-12.996zm-1.316 8.188h4.271l-2.136-4.938-2.135 4.938zm10.753-8.188h2.246v5.702l5.828-5.702h2.934l-5.905 5.83 6.331 7.166h-2.988l-5.031-5.664-1.169 1.13v4.53h-2.246V40.997v.005zm13.367 13V41.007h2.245v9.006l7.129-9.006h1.895v12.995h-2.246v-9.007l-7.149 9.007h-1.874zm18.996-13h1.71l5.702 12.995h-2.36l-1.261-2.878h-5.922l-1.245 2.879h-2.321l5.697-12.996zm-1.321 8.188h4.272l-2.136-4.938-2.136 4.938zm9.767 2.714h1.393c.852-1.283 1.447-3.229 1.447-9.007v-1.895h9.192V51.9h1.579v4.38h-2.174v-2.282h-9.264v2.283h-2.173V51.9v.004zm4.976-7.985c0 4.026-.427 6.462-1.245 7.985h6.052v-8.8h-4.807v.82-.005zm15.244-2.917h1.71l5.697 12.995h-2.359l-1.262-2.878h-5.921l-1.245 2.879h-2.322l5.702-12.996zm-1.317 8.188h4.272l-2.136-4.938-2.136 4.938zm15.135-4.845c.65-2.266 2.693-3.473 5.179-3.473 2.988 0 4.68 1.578 4.68 3.845 0 2.561-1.447 4.123-4.68 6.347l-1.486.853h6.572v2.08h-10.083v-1.654l2.933-2.136c1.895-1.485 4.436-3.211 4.436-5.144 0-1.262-.912-2.043-2.414-2.043-1.727 0-2.731 1.004-3.195 2.097l-1.95-.78.008.008zm17.954-3.469c3.66 0 5.643 2.802 5.643 6.63s-1.95 6.626-5.609 6.626-5.643-2.785-5.643-6.626c0-3.84 1.988-6.63 5.609-6.63zm.038 11.12c2.229 0 3.305-1.616 3.305-4.49s-1.093-4.495-3.343-4.495c-2.249 0-3.304 1.65-3.304 4.495s1.245 4.49 3.342 4.49zm7.593-7.651c.65-2.266 2.693-3.473 5.179-3.473 2.988 0 4.68 1.578 4.68 3.845 0 2.561-1.447 4.123-4.68 6.347l-1.486.853h6.572v2.08h-10.083v-1.654l2.933-2.136c1.895-1.485 4.436-3.211 4.436-5.144 0-1.262-.912-2.043-2.414-2.043-1.727 0-2.731 1.004-3.195 2.097l-1.95-.78.008.008zm19.347 7.188h-7.352v-1.448l7.669-9.078h1.857v8.542H302v1.988h-2.207v2.469h-2.174v-2.473zm0-1.988v-4.993l-4.381 4.993h4.381z" fill="#fff"/></svg>