<svg xmlns="http://www.w3.org/2000/svg" width="48" height="48" fill="none"><path d="M24 45.75c6.627 0 12-5.373 12-12s-5.373-12-12-12-12 5.373-12 12 5.373 12 12 12z" fill="#CE7335"/><path d="M24 42a8.25 8.25 0 100-16.5A8.25 8.25 0 0024 42z" fill="#FFAD66"/><path d="M14.948 17.8h18.105v1.7a2.25 2.25 0 01-2.25 2.25H17.197a2.25 2.25 0 01-2.25-2.25v-1.7z" fill="#CE7335"/><path d="M26.495 17.8h-7.99l-7.5-15.55h7.99l7.5 15.55z" fill="#E53A35"/><path d="M29.005 2.25L24 12.627l2.495 5.173h3l7.5-15.55h-7.99z" fill="#D32E2E"/><path d="M36 17.05H12a.75.75 0 100 1.5h24a.75.75 0 100-1.5z" fill="#FF9840"/></svg>