<svg width="54" height="65" fill="none" xmlns="http://www.w3.org/2000/svg"><path fill-rule="evenodd" clip-rule="evenodd" d="M32.086 4.24c-.22.54-1.39 4.62-1.68 5.4.01-.2.02-.37.02-.53l1.41-4.96.25.09zm.79.25l-2.23 7.74-.19-.23 2.24-7.57.18.06zm.51 7.59c.11-.5 1.82-6.54 1.92-6.85.03.13.07.25.12.37l-1.82 6.4c-.09.03-.17.05-.22.08zM34.626 5l-2.08 7.5-.22.08 2.12-7.65.18.06V5zm-4.2 3.24c-.02-.47-.08-.64-.06-.74.01-.73.27-1.83.27-1.83l-.71.03c0-.1-.06-.37-.06-.45.45.06 1.14 0 1.5-.35l-.95 3.34h.01zm-17.07 12.49l-.1.24v.25l.11.21v-.69l-.01-.01zm0 2.06l-.36.03-.23.05-.16.05v.12l.19.26-.22.48-.27.28c-.47.22-.79.17-1.25.14.1.05.14.24.14.24l.07.21c.43.02.75.59.75.59.4-.37.68-.58.87-.68.15-.07.4-.05.4-.05l.07-1.72zm-.66 8.72c.31 0 .66.33.66.33v-.61c-.15.06-.62.22-.66.28zm.66.68c-.09.23-.96.7-.96 1.02-.03.02.73 1.1.73 1.1l.24.43v-2.55h-.01zm0 4.05l-.2.31-.07.13-.09.12-.07.13-.23.33-.03.09v.11l.03.08.29.25.18.09.18.14v-1.79l.01.01zm22.06 25.59c-.14.26-.35.49-.56.71-.07.07-.14.14-.2.21-.08.08-.15.16-.22.25-.15.03-.26.14-.41.13h-.03c-.46.53-.78.75-1.21.92-.21.09-.45.14-.75.18-.29.04-1.08.05-1.08.05l-.09-.43c-.41-.07-1.07.06-1.19-.17-.17-.34-.1-1.01-.19-1.15l-1.16-.1c-.01.05.1-.6.09-1-.01-.43.02-.85.08-1.25-.22-.06-.44-.15-.61-.32-.02.34-.34.54-.54.74l-.34.04c-.01.26.23.53.07.82.04.89-.78.4-.8 1.57-.09.18-.23.39-.43.44-.42.16-.84-.42-1.16.03-.24.21-.52.51-.85.46l-.54-.29c-.27.2-.62.45-.97.24-.18-.18-.26-.49-.54-.54-.33-.04-.67.14-.92.28-.34.03-.79.08-.97-.36-.32-.58.81-.94.06-1.42-.15-.14-.31-.25-.39-.47-.05-.37.23-.69.51-.69.25-.27.91.03.9-.45.03-.21-.11-.37-.29-.29-.51.28-1.09.22-1.59.55-.2-.03-.32.34-.21.55.1.25.03.53-.17.72a.64.64 0 01-.41.16c-.06-.09-.14-.11-.24-.1-.02.4.02.96-.32 1.25-.25 0-.51-.24-.63-.27-.32.29-.6.89-1.06.79-.35-.11-.2-.67-.57-.63-.18.2-.46.64-.79.5-.25.04-.33-.27-.6-.18-.34.32-.67.74-1.21.62-.29-.12-.27-.44-.43-.67-.16.25-.21.47-.66.62-.34.06-.58-.05-.92-.09-.32.39-.71.8-1.21.74-.53-.07-.61-.34-.72-.63 0-.26.41-.7.04-.78-.33.06-.5-.08-.74-.2-.2-.3-.59-.42-.64-.82-.02-.04-.08-.07-.12-.02-.25.48-.4 1.06-.99 1.28-.2.09-.52.16-.74.07-.67-.26-.12-.98-.35-1.33-.35-.04-.63.11-.97-.02-.26.03-.54-.21-.62-.43-.08-.35.04-.67.15-.91.29-.31 1.18-.63 1.18-.63-.17-.31-.34-.54-.45-.87-.29-.01-.83.17-1.08-.09-.22-.14-.34-.85-.01-1.14-.37.06-.66-.17-.85-.45-.31-.39-.06-1.3.14-1.73-.28-.18-.6-.45-.6-.87-.05-.73.78-.79 1.28-.88.16-.4.03-.85-.12-1.21-.2.01-.17.24-.34.32-.38.36-.99.47-1.46.26-.41-.19-.39-.74-.45-1.14 0-.33.34-.52.51-.77 0-.4-.51-.16-.68-.44-.74-.97.53-1.28.82-1.39.06-.39-.44-.08-.63-.23-.15-.15-.36-.4-.48-.59-.02-.45.26-.73.46-1.08-.13-.42-.4-.85-.03-1.26-.01-.17.18-.26.29-.32.14-.02.28-.05.44-.05.1-.14.3-.24.29-.44-.46-.29-1.06-.55-1.21-1.16.09-.24.07-.54.24-.76l-.02-.15c-.38-.26-1.11-.54-.89-1.16.13-.24.29-.44.54-.59-.47-1.26.22-1.43.6-1.5.22-.04.74.16.89.46.08.14.14.22.27.21.08-.2.13-.43.29-.62-.12-.59-.15-1.28.06-1.79-.09-.32-.24-.6-.12-.95-.03-.54-.7-.15-.95-.49-.62-.29.14-1.12-.55-1.23-.35-.14-.52-.54-.51-.93 0-.23.04-.25.24-.34.2-.08.48.01.63-.22.03-.26-.28-.37-.38-.57-.09-.44.07-.85.36-1.18-.02-.32-.22-.83.21-1.03-.21-.2-.61-.07-.8-.39-.28-.32-.28-1.01-.09-1.18.14-.34.62-.16.7-.49-.03-.47.17-.81.35-1.18.22-.26.49-.36.82-.39.43.15.81.59.95 1 .11-.05.05-.15.11-.27-.31-.56-.4-1.76-.08-2.37-.04-.28-.03-.26-.03-.55.09-.07.03-.13.05-.25-.23.15-.42.62-.78.65-.33.1-.62.01-.88-.14-.63-.33 0-1.11-.27-1.56-.54-.19-1.22-.44-1.27-1.1 0-.69.59-1.18.76-1.21.33-.07.6.31.92-.02.08-.46-.23-.8-.05-1.28.2-.26.46-.54.68-.76.08-.16.14-.35.15-.54-.51-1.38-.07-1.9.43-2.14.12-.25-.13-.26-.34-.32-.39-.28-.49-.73-.49-1.12.01-.98.75-.51.84-.64-.13-.25-.32-.63-.39-.86.07-.26.22-.49.49-.61.33-.2.74.02 1.07-.2-.27-.36-.96-.61-.88-1.15-.09-.26.14-.9 1.03-.63l.09-.35c-.03-.52.09-.78.58-1.09.24-.05.41-.03.61.17l.47.26.24-.25c-.29-.22-.38-.56-.43-.91-.14-.28-.05-.71.43-.86.17-.14.42.08.56-.09-.14-.49-.19-1.17.31-1.31.15-.22.52-.15.76-.07.29.17.67.31.82.67.4.21.72-.43 1.14-.02.21.18.38.4.41.65.02.34 0 .52-.04.83.22.06.44-.25.66 0 .14.2.32.43.21.7-.01.57-.61.6-.76 1.12.21.15.6.25.59.58-.05.38-.21.7-.47.98.02.11-.17.37-.05.42.64-.48.9-.79 1.36-.44l.07-.04c.07-.04.14-.1.23-.15.08-.05.16-.09.24-.13.02-.01.03-.02.06-.04s.07-.03.12-.05c.08-.04.19-.08.3-.12l.3-.12c.08-.03.14-.05.16-.07 1.48-.79 1.95.25 1.99.38v.03c.03.16.04.38.05.61 0 .2.02.37.05.48.23.27.96.41 1.4.32.17-.76.48-1.12.95-1.15.26-.04.63.04.89.11h.03l-.2-.44h.48v-.04c-.88-.43-1.7-1.22-1.93-2.68-.18-1.13-.73-2.63-1.04-3.09l-.18-.27.32-.08c.15-.04.7-.2 1.02-.67.13-.2.18-.42.15-.67-.02-.07-.03-.14-.05-.21a.369.369 0 00-.08-.14l-.28-.33.43-.04.36-.03c.07 0 .14-.02.2-.03.05-.17.05-.36.04-.58 0-.13-.02-.27-.02-.41 0-.15 0-.3.03-.45l.03-.16.17-.02c.26-.03.57-.05.89-.1.23-.04.44-.08.62-.15l-.03-.09c-.04-.11-.09-.22-.11-.32l-.03-.13.1-.09c.32-.28 1.04-.62 1.66-.72.56-.09 1.26.01 1.28.77.29.08.65.07.88.05-.02-.1-.04-.21-.06-.29l-.04-.14.12-.09c1.51-1.11 3-1.1 4.1-.82 1.1.28 1.82.84 1.83.85l.11.08-.02.13c-.02.14-.08.32-.12.45.19.05.47.09.72 0l.05-.88.03-.05c.28-.43.86-.37 1.32-.24.5.14 1.04.42 1.46.67l.11.06v.13s-.01.09-.04.17c-.02.05-.04.11-.06.16l-.02.04c.37.15 1.49.37 1.56.38l.22.04-.04.22c-.06.36.02 1.17.06 1.48.16.08.45.21.58.27l.13.07v.15c-.07 1.14 1.15 1.47 1.18 1.48l.29.07-.16.26c-.21.34-.5.93-.76 1.97-.35 2.73-.98 3.25-2.71 3.84v.13h.88l-.1.46.14-.04c1.35-.33 1.61.85 1.57 1.33.18.12.77-.04 1.02-.12.05-.17.14-.45.22-.71.05-.16.11-.33.16-.46.03-.07.05-.13.08-.18.02-.05.06-.11.1-.16.3-.27 1.5-.5 1.92-.42.88-.07 1.63.42 2.03.8 0-.02.99-1.08 1.23-1.2l-.36-3.1c.02-.54.9-.71 1.02-.65.06.03.11.06.16.09s.1.06.14.1c.18.13.27.42.48.43.28.02.61.18.78.33.17.14.42.29.55.46.26.34.87.79.91.96.03.14.15.3.17.45.1.08.21.27.33.35.15.09.33.23.47.33.28.18.56.41.66.8.29.19.51.24.72.47.22.23.52.8.52.8.08.21.29.79.3 1 .43 1.02.57 2.35.54 3.84.26 1.6.93 2.45 1.01 3.2.03.39.03.97-.04 1.32-.07.34-.09.54-.22 1.02-.08.21-.15.41-.22.59s-.15.35-.24.51c-.2.33-.72.84-1.18 1.1-.03.02.17 2.9.24 2.93.05.02.32.07.37.1.05.02.11.05.16.09 1.11.55 2.86 1.78 1.43 4.72-.04.32-.08.91-.07 1.34.01.45.04.9.05 1.27.02.53-.28.88-.61 1.14-.16.13-.34.24-.5.37-.15.11-.27.21-.38.32 0 1.48-.03 3.18-.43 4.38 0 .03.2.07.28.15.03.03.21.15.25.18.04-.08.79-1.63.79-1.63h.04c.36-.06.63.12.84.32.1.1.19.22.27.33.08.11.15.21.22.3.22.37.18.79.2 1.39.01.6.08 1.43.04 2.31v.04c-.02.06-.13.08-.13.25 0 .17 0 .37.01.61 0 .49 0 1.12-.13 1.88.04.49.27.98.41 1.34.07.19.17.63.22.79.05.15-.29.73-.45 1.02-.08.14-.16.29-.23.42-.07.12-.12.24-.17.35-.04.28-.03.47-.05.65-.02.21-.14.54-.14.54s-.77.27-1.13.23c-.03.24.12.79.19 1.07.27.78.36 1.8-.23 2.52-.04.16-.05 1.17-.46 1.36 0 0-.47-.19-.65-.17.08.05.17.09.25.14.21.13.37.18.44.48 0 0-.02.4-.46.87-.11.12-.25.2-.38.3-.12.09-.24.18-.33.28-.05.08-.02.36-.05.57-.01.1-.08.09-.09.18-.01.11-.03.21-.05.28 0 0-.57.56-.85.68-.07.03-.27.27-.33.31-.12.07-.53.28-.59.34-.04.03-.11.21-.14.24-.04.04-.07.08-.11.12-.15.16-.58.12-.58.12-.02-.06-.29-.19-.37-.32l-.1.23c-.06.12-.13.14-.2.25-.15.22-1.11.17-1.28.18-.15.01-.24.2-.33.36 0 0-2.59.35-3-.61-.15.03-.34.24-.5.25-.18.01-.37-.04-.53.02-.31.12-1.07.24-1.07.24-.18.01-.34-.42-.44-.47-.14.02-.52.35-.67.37-.17.03-.24.06-.44 0 0-.13-1.15-2.79-1.48-3.62-.14.1-.41.43-.53.57-.05.05-.09.11-.13.16m5.12-44.81c-.14-.12-.26-.23-.34-.29l-.03-.03a2.84 2.84 0 00-.5-.39c-.23-.1-.5-.21-.82-.32h-.05c-.2.34-.36.72-.56 1.06-.22.39-.52.77-.99 1.03-.91.49-2.02.71-2.74.45l.02.27h6.12v2.35c.05-.12.74-1.04 1.18-1.11 0 0 .72-.09.78-.11.07-.03.66-.06.66-.06-.12-.13-.51-.38-.62-.5-.16-.18-.32-.35-.53-.53-.75-.44-1.19-1.04-1.5-1.61l-.1-.2h.04l-.02-.01zm-21.3 1.79v-.17s.02-.2.03-.37c-.74.34-1.54.3-2.31.17-.59-.11-1.42-.4-1.6-1.3l-.61-1.28v-.05c-.28.16-1.51.71-1.46.84 0 0-.1 1.27-1.38 1.64 0 .02.03.11.05.22l-.42.46-.93.28a.83.83 0 00-.39.11c-.33.47-.93.91-.9 1.52.19-.05.35.11.48.09.04-.4-.1-.7.15-1 .2-.36.57-.42.89-.52.07.05.14.07.2.08l.22.09.17.15.13.14h.22s.92-.88 1.56.08v-1.17h5.89l.01-.01zM13.376 39c-.19.12-.9.52-1.07.38 0 0 0 .07.07.2.65.66.37 1.4-.48 1.4-.06 0-.12.01-.21.01s-.38-.03-.38-.03l-.42-.06.28.18c.08.27.23.35-.23.78-.38.42-.87.41-1.36.57.98.77 2.03 1.41 2.89 2.43.33.47.67.98.93 1.51-.02-.22-.02-.45-.03-.7v-6.69l.01.02zm.42 9.38c-.02.19-.07.38-.14.57-.15.45-.38.75-.43 1.24.36-.19.77-.4 1.21-.25.17.12.33.31.41.49.1.22-.08.46-.12.68.25.07.5.23.66.47.11.41-.06.82-.34 1.12-.09.15.17.21.22.23.07-.3.13-.6.44-.82.19-.13.38-.05.59 0 .19-.18.15-.48.44-.61.07-.05.15-.1.24-.14-.96-.24-2.45-.95-3.17-3m4.06 3.14c.11.11.2.22.35.28.1-.13.22-.22.36-.28h-.71zm9.2 1.57c.09 0 .17 0 .26-.01l.04.03c.17.14.31.07.36 0a.12.12 0 00.05-.05c.28-.06.54-.11.8-.16.5-.1 1-.23 1.49-.34.46-.1 2.25-.35 2.48-.25.45.1 1.15.39 1.22.74.07.14.13.3.16.45.61-.61 1.54-1.03 2.43-.89.11-.43.41-.83.78-1.08h-6.48c-.95 0-1.68.4-2.17.8-.25.2-.44.4-.56.55-.05.06-.1.11-.13.15-.03.04-.05.06-.07.07-.06.07-.19.14-.36 0l-.04-.03s-.09-.08-.15-.14c-.14-.13-.35-.32-.61-.52-.52-.39-1.26-.81-2.17-.91h-4.97c.16.1.29.21.41.34l.24.2c.11.14.24.24.29.35.1-.06.23-.12.42-.16.42-.03 1.23-.1 2.18.16 1.32.34 2.53.54 3.56.62.14 0 .38.06.53.07m12.36-2.67c.13-.02.26-.03.39-.04.38-.02.76 0 1.13 0-.15-.26-.31-.51-.47-.77-.11-.18-.21-.36-.29-.55-.21.58-.48 1.02-.76 1.36zm1.24-5.17c.3-.44.68-.85 1.06-1.24.37-.37.85-.93 1.22-1.28l-1.48-2.68c-.24-.35-.53-.67-.78-1.02l-.03 6.21.01.01zm-5.05-39.53c.28.45.69.75 1.01.82-.43.89-.67 1.81-.82 2.82-.26 1.77-1.28 2.2-1.93 2.4l1.73-6.04h.01z" fill="#000"/><path d="M35.096 5.13l-1.98 7.05-.29.16c.22-.89 2.01-7.29 2.01-7.29l.25.08h.01zm-2.62-.8l-2.19 7.47-.24-.22c.33-.82 2.21-7.31 2.21-7.31l.22.06zm-8.73 7.33l-.17.14-1.98-7.41.22-.1 1.94 7.37h-.01zm-2.77-7.1c.68 2.55 2.03 7.78 2.03 7.78-.2.18-.75.61-.75.61l-.94-.29-2.03-7.64c.52-.07 1.07-.25 1.56-.39l.12-.06.01-.01zm-.35 7.95l-.25-.11-1.88-7.26h.2l1.94 7.38-.01-.01zm7.12-8.07v8.06l-.83.38-.87-.42s.03-7.39.01-8.03h1.69v.01zm-2.56.02v7.53l.23.13V4.46h-.23zm3.46.06l.03 7.57-.24.13v-7.7h.21z" fill="#EE293D"/><path d="M34.216 4.87l-2.16 7.81-.64.25-.55-.59 2.22-7.83 1.13.36z" fill="#2E62AE"/><path fill-rule="evenodd" clip-rule="evenodd" d="M31.276 2.99c.02.17.08.13.29.28.17-.12.16-.19.26-.35-.11-.05-.52-.1-.55.07zM23.405 12l-.2.12s-1.69-6.51-1.99-7.6l.19-.09c.33 1.28 1.91 7.2 2 7.56m1.36-6.56c.09-.12.16-.28.22-.48-.03.09-.03 6.92-.03 6.92-.07-.03-.13-.06-.2-.09V5.44l.01-.01zm-1.04.48s.46.07.84-.25v5.98c-.89-.68-.85-2.18-.81-3.91.02-.77.1-1.35-.03-1.82zm4.48 6.47l-.23.12V4.54h.22v7.85l.01-.01zm-2.56-.07l.19.11.05-7.89h-.23l-.01 7.78zm2.73-8.18c.27.03.6.44 1.28.48.73.04 1.35-.1 1.94-.56l-.11-.13c-.44.13-1.28.52-3.11.21zm4.61-1.33c.42.19 1.01.29 1.59.39 0 0 0 .12-.01.3l-1.17-.11c.26.17.78.26 1.17.33v.24l-1.08-.11c.24.15.72.25 1.09.32.01.15.04.28.07.38-.47-.06-.79-.26-1.23-.38-.49-.13-.91-.08-.94-.6 0-.16.21.04.24-.01.12-.23.16-.5.25-.74m-1.99-1.15c.05-.26 1.1-.11 1.95.47-.03.14-.26.83-.38 1 0 0-.82-.86-1.58-.4v-.3c.25-.07.57-.03.8-.09-.38-.12-.65-.18-.82-.2V2c.26-.08.6-.04.84-.11-.38-.12-.65-.18-.82-.2v-.03h.01zm-9.51 1.57c-.08.14-.17.4-.24.54-.01-.15-.29-.36.24-.54zm.71-.06c-.02.17-.09.13-.29.28-.17-.12-.16-.18-.27-.35.11-.05.52-.1.55.07m-1.69-.16c.09.24.13.51.25.74.03.06.24-.15.24 0-.03.52-.46.53-.95.66-.44.12-.75.26-1.22.32.04-.09.06-.23.07-.39.37-.07.83-.16 1.06-.31l-1.05.1v-.24c.38-.07.89-.17 1.15-.33l-1.15.11c-.01-.22-.03-.38-.03-.38.59-.1 1.2-.12 1.63-.31m1.88-1.29s.04.05.06.07c-.21.05-.53.17-.95.34.3.02.71-.07 1.04-.04v.17c-.21.05-.53.17-.94.34.26.02.59-.05.89-.05-.02.12-.04.24-.04.36-.76-.46-1.55.4-1.55.4-.12-.17-.35-.85-.38-1 .84-.58 1.65-.62 1.86-.59m-2.72 10.46c-.55-.27-1.39-.94-1.62-2.43-.16-1.01-.48-1.85-.9-2.76.32-.07.68-.43.96-.79l1.57 5.98h-.01zm.46.15s-.11-.02-.21-.05l-1.67-6.29c.05-.08.1-.14.14-.21.09.32 1.64 6.05 1.74 6.55zm9.02-.42c-.07.04-.14.07-.22.1 0 0 .03-6.81 0-7.01.05.23.13.41.22.55v6.36zm1.09-5.83c-.16.62-.14 1.04-.12 1.81.04 1.71.09 3.18-.76 3.87V5.76c.38.35.88.29.88.29zm-9.13 6.57l-.21-.08c-.55-2.02-2.02-7.5-2.02-7.5.09 0 .11-.04.21-.03l2.02 7.61zm2.35-3.65c.01.33.03.68.05 1.01-.43-1.69-1.04-3.96-1.48-5.65.11.15.22.27.33.37l1.1 4.26v.01zm.4-3.76l.03.33s-.32 0-.58.02c.19.41.21 1.16.18 1.65-.02.22-.03.53-.03.88l-.83-3.16c.68.49 1.23.27 1.23.27m1.31-1.17c-.27.03-.35.39-1.03.43-.73.04-1.53-.09-2.13-.56l.11-.13c.44.13 1.55.35 3.04.26m5.6-1.35c0 .26-.03.01 0 .27.07.15.64.55.77.56-.6.56-3.04.48-3.43.1-.04-.04-.04-.18 0-.24.29-.04.45.33.79.2.05-.01.43-.55.53-.92.26.2 1.11.14 1.33.04m-2.76.13c-.08.29-.23.48-.12.92-.32-.18-.67-.61-.6-.94-.29.07-.62.04-.85 0-.06.06.07.51-.38.85l-.31.16c.21-.18.17-.43.17-.51-.05-.11-.13-.41-.16-.5 1.19-.41 2.1-.05 2.26.02m-3.76-.36c.13.31.32.99.34 1 .33.41.89-.19 1.05-.02.04.18-.17.14-.26.2-1.59.36-3.14-.16-3.23-.14.32-.11.44-.2.48-.44.08-.06.07-.19.09-.27 0-.14.05-.24.05-.37.36.19 1.4.1 1.48.04zm.51.47c-.02-.08-.05-.16-.07-.23.3-.27.77-.48 1.05-.72-.55.17-.94.31-1.17.42l-.06-.13c.3-.24.72-.44.98-.67-.49.15-.85.28-1.09.38-.02-.06-.03-.12-.05-.18.6-.69 2.49-.79 2.49-.79.81-.03 1.81.34 2.61.76l-.06.18c-.24-.11-.6-.24-1.09-.38.27.22.7.43.99.67l-.06.17c-.24-.11-.61-.24-1.12-.39.27.23.72.44 1.02.69-.05.14-.08.22-.09.2-.79-.39-1.3-.77-3.07-.48-.59.14-1.16.46-1.21.49m8.33 11.84s-.46.46-.22 1.76c0 0-10.93.02-12.14 0 .24-1.07 0-1.74 0-1.74h12.36v-.02zm-.68.31h.23l-.14.18c-.19.25-.09.67 0 .94l-11.24.04c.02-.41.04-.82-.06-1.23l.18.05c.12.03 11.01.03 11.03.03m-.3.89c-.08-.19-.07-.48 0-.67h-5.18c-2.29 0-4.62 0-5.36-.02.04.11.05.26.05.3 0 .07.01.28-.04.42l10.53-.03zm-5.04-2.69c.35.03 2.04-.55 2.53-.96.74.71 1.63.88 1.63.88-.41-.28-1.36-1.32-1.45-1.36-.21.29-2.72 1.45-2.72 1.45m6.45 4.3l.28.31.05.68h-14l.02-.72c.11-.09.17-.17.27-.27 0 0 12.97.02 13.38-.01m-.3-.54l.21.31-13.29-.03.22-.3 12.87.02h-.01zm.37-3.01c-.05.14-.34.26-.34.26h-12.83l-.19-.29 13.36.03zm.34-.68c-.01.11-.09.38-.09.38l-13.76.02-.22-.39s14.04-.01 14.06 0m-7.07-.1c-.35.03-2.15-.58-2.64-.98-.74.7-1.81.93-1.81.93.4-.27 1.45-1.45 1.66-1.57.21.32 2.79 1.62 2.79 1.62z" fill="#FEBF49"/><path d="M3.176 28.9c.03.32.05.71.39.83.46.13.57-.55.87-.78.13-.04.21.06.32.09.52.62-.5 1.29.12 1.89.37 0 .69-.58 1.05-.19.3.63-.55.84-.49 1.4.12.18.35.1.51.02.11-.13.23-.05.38-.07.41.94-.71 1.55-.73 2.45-.06 0-.08.11-.16.07-.61-.93-1.42-2.59-1.38-2.72.07-.69.22-1.7.5-2.29l-.07-.07c-.36.63-.71 1.27-.73 2.03-.36-.71-.83-1.4-1.02-2.21 0 .59.28 1.21.47 1.8-.47-.11-.89-.37-1.39-.3l-.07.07c.15.12.38.15.58.22.6.41 1.5.65 1.54 1.55-.34-.25-.83-.12-1.19-.3-.08.01-.14.05-.19.12.12.24.43.14.61.3.54.35 1.34.6 1.53 1.35-.27 0-.61-.09-.9-.17l-.21.12c.46.27 1.06.31 1.48.67.08.05.09.14.12.21-.56-.18-1.1-.4-1.68-.56-.24-.14-.25-.4-.16-.63.08-.17.13-.36.12-.56-.22-.2-.53-.2-.78-.3-.15-.16-.49-.04-.52-.35-.27-.6.81-.48.39-1.05-.26-.39-.79-.14-1.07-.49-.08-.17-.18-.38-.07-.56.25-.14.63-.08.75-.44.2-.46-.17-1.36.61-1.47.24-.03.41.1.49.32m1.61 4.14s-.07-.03-.07-.07c.06-.64.29-1.21.75-1.69-.2.56-.42 1.19-.68 1.76zm.78 1.1l-.08.08c-.42-.15-.12-.64-.07-.91.17-.32.33-.56.61-.84-.08.53-.3 1.11-.46 1.67zm7.11 1.99c.09.43-.12.71-.36 1.06-.08.18-.1.56.06.67.28.18.63.26.68.65-.04 1.04-1.43.11-1.43 1.16.11.32.81.32.59.79-.66.51-1.38-.37-1.98.25-.01.15-.11.21-.09.38.17.33.71-.02.5.52-.59.33-1.2.07-1.71.6-.1-.03-.31-.11-.19-.28.28-.38.39-.6.66-1.02.3-.18.75-.49.99-.74-.23.05-.54.08-.8.14.25-.86 1.41-.93 1.96-1.44l-.07-.05c-.38.01-.74.1-1.09.19.33-.61.68-1.27 1.16-1.77.12-.2.28-.4.4-.61 0-.01.03-.03.02-.05-.02-.04-.06-.01-.09-.02-.68.54-.89 1.34-1.54 1.89-.08-.59-.09-1.26-.36-1.79l-.09.09c.03.82-.01 1.65-.1 2.45-.08.21-.46.68-.46.68-.18-.68-.29-1.4-.83-1.93-.08.29.13.57.17.88.08.51.13 1.04.14 1.58-.07.13.04.41-.17.46-.2-.4-.23-.92-.68-1.18-.15.18.08.42.05.62.18.46.46.97.31 1.47-.45-.06-.12-.49-.21-.76-.07-.62-1.15-1.32-.17-1.82.36-.35-.07-.72 0-1.12.04-.31.26-.61.54-.74.36-.13.65.49.92.02.21-.32-.15-.8.21-1.05.2-.11.39-.2.64-.19.25.14.38.53.73.51.38-.1.76-.28.94-.67.23-.07.69-.28.76.15m-6.92.63c-.26.07-.6.23-.64.54.06.37.16.73.32 1.05-.57-.85-.94-1.78-1.39-2.67-.21-.21-.29-.46-.36-.72.96.09 1.8.87 2.06 1.79m3.63-.86c-.19.3-.29.48-.38.84.02.08.07.14.05.25-.34-.13-.7.02-.99.14-.21.28-.49.51-.52.86.01.27.19.52.08.79-.24.33-.55.65-.41 1.11.09.4.29.76.38 1.16-.24-.24-.37-.48-.63-.75.34-1.99.51-4.07 1.49-5.6.36.37.64.8.92 1.21m-3.12-1.44l-.24-.03c.02-.27.14-.48.24-.71-.03.26-.03.5 0 .74zm1.88-.12c-.14.43-.19.56-.39.95-.19-.36-.3-.8-.57-1.16-.04 0-.09 0-.12.05.22.96.41 2.13.12 3.12h-.04c-.38-.59-.53-1.32-1.07-1.79-.03.09-.06.31.02.42.38.71.67 1.44.85 2.23 0 .17-.04.39-.14.44-.14-.34-.37-.64-.66-.93-.05 0-.11-.01-.14.05.36.65.59 1.47.55 2.21h-.07c-.22-.81-.51-1.57-.88-2.31-.04-.46.52-.18.66-.54.23-.84-.85-1.17-.73-1.96.11-.23.42-.17.64-.14.31-.05.44.62.7.17-.14-.25-.11-.57-.21-.81-.06-.41-.05-.84.28-1.11.59-.09.86.71 1.2 1.11zm-5.23-.89c-.2.31-.15.72.05 1.01.4.24.39.74.58 1.1-.55 0-1.08-.33-1.6-.1l.1.12c.69.04 1.25.36 1.84.66.16.11.2.28.26.44-.51-.11-1.06-.19-1.62-.12l-.12.1c.59.3 1.33.38 1.96.68.26.27.43.84.59 1.37-.17.06-.97-.27-1.53-.17-.1-.31 0 .06-.14-.24.12-.44-.06-.93-.42-1.2-.18 0-.3.05-.63-.12-.15-.02-.15-.18-.22-.28-.03-.32.28-.73-.17-.9-.23-.11-.51-.23-.56-.52.24-.37.95-.03.92-.66-.04-.37-.47-.6-.31-1.02.07-.15 0-.36.15-.47.31.03.58.21.87.32z" fill="#FEBF49"/><path fill-rule="evenodd" clip-rule="evenodd" d="M6.366 13.44c-.42-.11-.29-.42-1.16-.54.63.54 1.29 1.19 1.79 1.84l.03.12c-.4-.11-.82-.48-1.29-.44.48.36 1.04.68 1.49 1.12.2.08.19.59.3.96-.43-.24-.67-.5-1.18-.49.05.13.22.15.32.27.45.41.93.82 1.23 1.33v1.32c-.08-.27-.33-.49-.56-.64-.28-.1-.53.07-.76.18-.04-.35.02-.65-.14-.93-.17-.21-.43-.31-.68-.37.26-.66-.69-.81-.48-1.38.19-.09.23-.3.31-.46-.06-.19-.24-.29-.41-.35-.15.07-.41.07-.56 0-.17-.11-.2-.29-.22-.47.01-.12.07-.18.2-.19.22.08.42-.1.55-.3.14-.77-1.2-.75-.78-1.54.32-.19.63.3.92-.05.1-.17.2-.36.19-.58.37.47.6 1.05.88 1.6m-2.31.95c.01.39.1.8.49.96l.44.12c-.17.27-.08.49-.07.81.19.29.58.47.51.89-.07.03-.15.05-.21.04-.1.12-.32.24-.27.45-.11.07-.07.28-.21.27-.31-.03-.55-.32-.81-.42.18-.77-.97-.73-.77-1.44.34-.21.78.55.99-.1.09-.25-.15-.43-.24-.63-.06-.25-.34-.51-.19-.77.11-.07.22-.15.36-.17m6.09-5.16c-.21.53-.54.9-.63 1.6-.13.03-.24-.12-.22-.16-.02-.58.35-1.12.8-1.47l.05.04v-.01zm-1.02-.58c.16.08.32.21.52.12.14-.2.41-.27.63-.17.64.5-.45 1.31.36 1.6.17-.03.37-.18.54-.02.07.17.09.36-.02.51-.33.21-.7.58-.85.96-.08.56 1.09.26.53.93-.16.15-.25.41-.51.46h-.12s-.39.04-.59.3c.06-.46-.52-2.87-.88-3.83-.14-.29-.21-.59-.45-.84l-.04.17c.18.5.3 1.02.38 1.57-.36-.19-.72-.41-1.11-.49l-.05.04c.88.59 1.33 1.01 1.36 1.26l.17.86c-.44-.09-.9-.44-1.39-.47l.03.07c.32.04 1.36.96 1.36.96.06.24.08.48.07.74-.4-.07-.73-.47-1.16-.32.51.3.9.61 1.21 1.04-.06.17-.03.38-.05.56-.24-.23-.25-.76-.7-.74-.27-.17-.66-.34-.76-.66-.13-.37.25-.61.05-.91-.3-.34-.88-.52-.63-1.07.16-.3.83-.1.73-.61-.19-.46-.8-.11-.9-.57-.05-.2-.03-.43.07-.61.28-.17.62.4.85-.04.13-.52-.29-1.06.17-1.48.51-.18.97.26 1.18.69m-.8 11.77h-.06a.232.232 0 01-.2-.24c0-.08.02-.17.01-.24v-.03s.02-.09.03-.15v-.18c0-.11 0-.25.08-.36v-.58l.14.15c.14.15.17.36.18.56 0 .19 0 .39.03.57l-.2.49-.01.01zm-1.17 3.45c-.05-.1-.08-.2-.1-.29-.01-.08-.01-.18.04-.25l.07-.09.06.1c.09.14.17.31.23.48.07.16.13.34.18.49l-.13.08c-.12-.12-.26-.33-.36-.52m-.13 2.8c.03-.19.09-.38.11-.55h.16c.04.15.08.35.1.54.02.2 0 .41-.11.58l-.06.1-.07-.09c-.15-.18-.16-.39-.13-.59m5.5-12.86c.04.35-.12.32-.2.61.22.31.31-.08.6-.04.18.09.12.62.14.78-.17.1-.37.72-.62.74-.27.11-.14.21-.31.26.14.38.82.69.4 1.13-.14.14-.61.49-.8.45-.18-.2-.34-.16-.54-.13-.13.1-.15.15-.03.27.13.12.29.28.19.47-.18.57-.89.19-1.21.58-.69.62-1.42 1.34-1.39 2.29.25.17-.11.39-.09.61-.05.43-.04.89.17 1.25.18 0 .18-.29.24-.44-.17-.41-.13-.96.19-1.28.05-.08.16-.13.24-.07.04.17.09.35.21.49.17-.09.45-.09.49-.35.17-.53-.27-1.18.29-1.49h.49c.13.19.35.37.58.44.46-.05.8-.7 1.29-.3-.72.68-1.4 1.39-2.12 2.15.23-.47.28-1.01.15-1.55-.03.01-.04.05-.08.05l-.02-.03c-.19.47-.21 1.01-.36 1.5-.07.5-.36.94-.71 1.32.03-.41-.02-.9-.14-1.3-.02-.02-.04-.06-.07-.05-.04.03-.05.06-.03.1-.14.27-.02.55-.09.86-.09 1.28-.82 2.28-1.27 3.4-.09.21-.22.45-.17.7.38-.46.52-1.07.83-1.58.31-.54.57-1.12.94-1.62.66-.29 1.32-.53 1.97-.84-.27-.09-.67-.04-.95.05-.15.1-.35.08-.54.12.15-.27.37-.49.66-.56.48-.24.99-.43 1.51-.59l.14-.18c-.39-.24-.82.01-1.21.07.48-.64 1.15-1.17 1.73-1.69.04.36-.38.62-.15.98.14.3.53.3.52.66-.07.11.01.12-.13.2-.36.21-.99 0-1.23.48.01.25.39.38.24.67-.04.24-.33.3-.34.32-.04.04-.52.13-.67.09-.24-.09-.42.07-.64.1-.06.09-.12.26-.05.35.09.1.26.07.32.22-.12.47-.75.39-1.05.68-.28-.01-.53.2-.75.42-.69.68-.85 1.66-1.48 2.33l-.1-.14c.08-1.02.74-1.86.51-2.95-.28-1.36-1.2-2.45-1.86-3.63-.62-.89-1.5-1.53-2.26-2.26-.11-.03-.24-.17-.33-.07.71.78 1.07.95 1.83 1.68.23.17.79 1.25.87 1.51-.2-.07-.43.1-.39-.25-.22-.49-.37-1.16-1-1.31-.22-.03-.49.04-.63.23-.18.18-.26.42-.32.67-.01-.31-.39-.62-.56-.91.02-.17.23-.27.26-.44-.05-.62-.48-1.18-.24-1.82.15-.25.45-.26.66-.12.25.13.45.66.78.4.59-.14.26-1.13 1.04-.79.59.33-.06 1.09.46 1.47.32-.02.28-.23.46-.44-.05-.02.4-.26.56.02.48.46-.01 1.12.15 1.72.06.17.26.18.38.2.15.34.23.85.02 1.18-.04.82-.38 1.75.12 2.45l.12-.12c.07-1.19.04-2.36.32-3.44.29-.34.32-.79.44-1.2.74-1.31 1.33-2.7 2.13-3.96.24-.46.61-.86.8-1.35l-.05-.04c-.53.47-.78 1.15-1.21 1.72-.06-.52.2-1.39-.4-1.72-.34.46-.01 1.01 0 1.51.12.56-.08 1.11-.41 1.52-.18-.56-.17-1.29-.76-1.67-.2.33.16.61.2.93.08.57.27 1.26-.08 1.77-.07-.18-.03-.45-.21-.61-.08.37.05.83-.03 1.21-.16-.44-.76-.66-.53-1.35-.04-.12.05-.18.12-.25.19-.11.34-.13.49-.3.11-.67-.94-1.13-.32-1.82.08-.06.16 0 .22.05.1.02.25.08.39.02.41-.3.13-.96.48-1.3.08-.17.3-.32.47-.44.49-.1.32.57.78.54.57.01.78-.91 1.41-.54l.14.3-.01.04zm-6.79 4.95c.08.33-.07.83-.18 1.14-.04-.59-.12-.97-.1-1.36.26-.22.22.06.28.21m1.05 1.18c.08.33-.07.83-.18 1.14-.04-.59-.12-.96-.1-1.35.26-.22.22.06.28.21zm.76 1.2c.08.33-.07.83-.18 1.14-.04-.59-.12-.97-.1-1.35.26-.22.22.06.28.21zm4.76-4.24c-.13.44-1.95.75-2.28 1.18.07-.41.56-.77.92-.95.4-.2.92-.42 1.36-.22m.47-1.77c-.63.64-1.5.84-2.12 1.5.01-.29 1.44-1.45 1.92-1.63.08-.01.16.05.19.12m-7.61 6.02c.09.31.32.58.27.91.08.13.09.31.24.4.19.03.37-.29.61-.1.29.17.34.54.48.84-.22.98 1.17 1.51.94 2.48v.1c-.25-.78-1.13-1.07-1.55-1.8-.61-.6-.82-1.44-1.24-2.13-.05.69.26 1.32.39 1.93-.83-.05-1.41-.87-1.87-1.47-.13-.15-.07-.42-.29-.51l-.05.05c.17.56.4 1.11.68 1.62-.51.02-1.09-.06-1.62.07.44.16 1.05.14 1.49.3-.38.51-.85.92-.8 1.59.39-.52.55-1.03 1.14-1.44.4-.03.94.12 1.29.23-.27.36-.73.7-.61 1.14.49-1.11 1.71-.68 2.12-.11.15.22.37.18.46.45-.42.03-.85.91-1.24.27.01-.24 0-.45-.14-.61-.71.26-.64 1.43-1.53 1.28-.28-.42.16-.92-.29-1.28a.611.611 0 00-.54.09c-.11.19-.26.41-.47.52-.25.07-.5-.02-.68-.17-.35-.48.3-1.01-.19-1.42-.34-.34-1.08-.17-1.09-.84-.02-.34.16-.61.42-.81.42-.01.97.45 1.23-.17.17-.51-.41-1.38.41-1.49.62.18.23 1.25.99.98.29-.35-.03-1.33.71-1.1l.31.21.02-.01zm5.37 9.18c.02.21-.04.46-.05.69-.13-.09-.37-.33-.43-.54.12-.12.3-.14.49-.14m.94.56l-.49.72c-.25-.08-.19-.39-.17-.54v-.68c.28 0 .55-.12.71-.4l.02-.21c.02.34.1.78-.07 1.12m-2.9-3.47l-.04-.05-.06-.05v-.12s0-.05.01-.08c.01-.06.03-.11.08-.16l.07-.07.05.08c.05.08.07.17.07.23 0 .03 0 .07.01.1 0 .03.01.05.02.07l.05.09-.1.03c-.09.02-.14-.03-.17-.06m4.77-1.49c0 .5-.51.89-.31 1.38.21.22.19.55.12.81-.04.03-.13.02-.1.1-.24.1-.51-.34-.68 0 .12.24.17.53.14.81-.55.47-1.17-.16-1.77-.03-.14.06-.08.21-.09.33.15.18.46.29.49.56l-.1.09c-.49 0-.99-.14-1.36.22-.1-.07-.23-.17-.27-.3.26-.15.57-.19.88-.25l.07-.07c-.28-.16-.67-.1-.97-.14.2-.38 2.07-.83 2.33-.86-.39-.17-.91-.2-1.36-.08-.15.04-.28.12-.43.12.29-.5.68-.56 1.16-.76.38-.11.84-.16 1.23-.17l.12-.09c-.36-.22-.96-.3-1.38-.15.27-.43.72-.75 1.12-1.03.34-.28.76-.36 1.16-.49zm-3.23.23c-.23-.12-.12-.43-.4-.49.11-.15.32-.28.54-.3l-.14.79zm3.23-.42c-.09 0-.17.04-.25.03-.73.19-1.33.73-1.96 1.15.01-.47.2-.99-.08-1.37-.16.37-.15.82-.28 1.21-.09.37-.14.36-.23.72-.11.11-.71.79-.82.82-.17-.52.08-1.2-.31-1.63l-.07.08c-.01.95.09 1.93-.46 2.67h-.07c-.19-.5.02-1.19-.45-1.54-.08.31.03.69 0 1-.25-.07-.24-.34-.36-.51-.08-.36.2-.57.31-.86l.12.02.41.4c.08-.04.2 0 .26-.12.16-.58-.4-1.62.38-1.79h.1c.15.25.06.7.46.76.22-.02.33-.23.49-.39-.05-.55.01-1.06.55-1.34.18 0 .43.07.51.3.06.16.1.4.32.44.53-.17.82-.86 1.44-.82v.79l-.01-.02zm-.07 5.01c-.39.34-.99.25-1.28.73.02.09.13.32.24.35.24.13.52-.17.61.17-.12.38-.56.49-.8.81-.33-.21-.4-.35-.66-.66.05-.49.3-1.07.55-1.5.28-.34.71-.74 1.09-1.03-.41.09-.72.58-1.14.72l-.07-.69c.27.08.49-.09.73-.17.35-.18.53-.56.52-.91.08-.01.14-.05.21-.11v2.3-.01zm-6.15-18.22c0 .39-.05.82.14 1.12.34.31.74.58 1.14.79.24.42-.45.56-.34 1.01-.06.46.06.9.39 1.23-.06.18-.29.34-.46.44-.28-1.9-1.14-3.57-2.01-5.23-.15-.25-.37-.46-.44-.74.07-.05.16-.15.26-.08.35.03 1.12 1.24 1.32 1.45m-.25 31.36c-.4.58-.2 1.41-.49 2.05-.14-.15-.32-.37-.21-.61-.1-.04-.03-.11-.03-.17.13-.33.22-.68.4-.98.16-.07.11-.44.33-.28m-4.22-2.35c.26-.1.16-.43.36-.54.41.56.27 1.29.33 1.96-.15.16-.39.16-.51.35-.24-.53-.59-1.02-.9-1.53-.18-.02-.23-.37-.42-.24.05.39.36.72.54 1.08-.28-.02-.65-.3-.95-.05.48.48 1.46.38 1.56 1.23-.1.41.27.71.47 1-.35-.1-.75-.09-1.09-.2l-.08.07c.27.41.85.51 1.26.72-.16.23-.11.54 0 .79.24.28.64.47 1.02.32-.02.35.09.64.32.88l-.8-.02c-.3-.54-.95-.44-1.43-.52-.16-.11-.16-.32-.12-.49.13-.25.55-.45.32-.76-.29-.41-.89-.37-1.07-.88-.39-.44.29-.7.19-1.14-.32-.34-1.09-.37-.97-1 .16-.34.91-.32.56-.84-.16-.21-.19-.58-.07-.83.6-.37.85.5 1.34.69l.15-.05h-.01zm-.78 5.3c.02.14.17.27.29.33.41.29.98 0 1.31.44-.05.23-.03.51.15.69-.03.13-.12.26-.27.24-.36-.07-.84-.1-1.14.12-.33-.06-.46.44-.68.47-.12-.11-.34-.17-.33-.37-.15-.47.63-.52.36-1.01.04-.36-.54-.97.04-1.15.16-.02.24.13.27.24zm6.4.28c-.25.98.33 1.72.04 2.71l-.11.25c-.05-.15-.2-.34-.14-.54-.21-.87-.41-1.81-.29-2.77.2.03.46.11.51.35m.59.42c-.01.11-.17.46-.24.55l-.05-.75c.1.07.21.08.29.2zm-2.6.37l-.82-.28.43.1.39.17v.01zm-1.91-.12c.65-.09 1.15.35 1.77.44.21.05.38.02.58.09-.23.14-.57.28-.82.44-.45-.12-.78-.27-1.24-.36l-.04.04c.34.21.56.43.99.49l-.33.28c-.74.1-1.4.15-2.11.17l-.05.04c.4.43 1.04.25 1.58.33-.15.18-1.28.68-2.26.83.34.16.82.1 1.18.15-.55.73-1.2 1.42-1.55 2.23.51-.65 1.04-1.35 1.67-1.98.07.42-.15 1 .17 1.35.16-.08.07-.32.17-.45.05-.4-.01-.93.14-1.3.2-.17.42-.43.68-.54.16.26.19.6.36.86l.08-.07c-.03-.4-.06-.8.02-1.16.28-.14.55-.34.85-.44.06.23-.05.61.19.67.28-.29-.09-1.05.52-1.11-.07.38-.03.91-.32 1.25-.19.08-.57-.36-.68.08.08.34.05.67.12.98-.03.17.02.4-.17.49-.41.07-.75-.91-1.06-.2-.11.58.2 1.42-.56 1.65-.12.04-.31.05-.36-.09.02-.27.08-.52-.15-.72-.49-.15-.67.48-1.02.73-.22.1-.46.21-.73.14-.41-.13-.3-.56-.38-.88.07-.51 1.13-.77.42-1.33-.23-.06-.57.02-.68-.21-.09-.26.21-.37.36-.47.28 0 .55-.2.68-.44-.14-.21-.33-.36-.22-.63.3-.45.95-.08 1.39-.23.23-.03.38-.24.49-.44.16-.24-.21-.4-.05-.61.11-.06.26-.2.39-.07m5.02.14c-.5.29-.35.89-.41 1.37-.05.3-.03.68.07.96l-.4-.05c-.04-.76.08-1.84.29-2.18.03-.23.3-.33.44-.1m1.19 1.28l-.02.93c-.36.11-.7.08-1.09.12-.29-.5.02-1.12-.08-1.7l.08-.53c.42.3.74.78 1.11 1.18zm.59 1.49l-.2.07c.06-.34-.14-.62-.07-1 .12.3.36.57.28.93m1.13 1.35a.548.548 0 01-.29-.21l-.71-.33-.07.08c.6.48 1.28 1.04 1.41 1.81-.37-.09-.95-.24-1.36-.07.47.31 1.09.39 1.6.69.14.14.26.34.31.54-.36.05-.82-.04-1.06.26.21.37.6 0 .89.23l-.02.14c-.39-.03-.74.02-1.11-.07a.374.374 0 01-.12-.37c.1-.16.21-.36.16-.56-.2-.55-1.28-.07-1.11-.91.16-.17.35-.39.44-.61-.13-.43-.52-.85-.26-1.35.11-.2.36-.2.54-.32-.03-.41.2-.7.36-1.03l.19-.07c-.11.75.07 1.44.21 2.16m.46-1.84c.04.21.13.58.33.7.41 0 .63-.44 1.08-.24.14.13.15.28.05.44-.03.21-.26.34-.14.58.27.24.92-.14.78.49-.19.31-.46.54-.44.92.13.37.97.19.65.69-.23.21-.54.4-.42.76.43.18 0 .57.1.91.23.36.44-.12.56-.25.02-.35-.21-.58-.24-.91.26-.08.51-.19.68-.44.05-.4-.23-.76.12-1.14.31-.12.34.33.64.03.31-.28.26-.89.79-.96.16-.09.16.09.31.11.15.15.12.21.28.36-.05.48-.29 1.11-.04 1.5 0 .17.32.36.27.54-.51.05-.96.23-1.44.37.1-.65.34-1.24.57-1.84-.3-.13-.28.27-.41.42-.03.18-.13.33-.19.49-.18-.26-.23-.6-.54-.77l-.05.05c.06.62.61 1.23.19 1.87-.14-.04-.11-.28-.29-.3.02-.14-.18-.3-.32-.37-.09.04-.16-.09-.21.02.06.44.33.62.4 1.05h-.14c-.42.18-.81.44-1.27.54-.16-.2-.36-.11-.55-.24-.02.1-.15.18-.12.27.09.07.15.16.19.27-.46.27-1.01.02-1.48-.07l-.29-.17c-.12.08 0 .17.05.25l.8.49c-.12.16-.34.28-.54.37-.52.08-1-.05-1.51-.07l-.07.07 1 .44c-.36.29-.76.6-1.07.96.08.14.21.03.32.05.37-.27.69-.65 1.09-.84.07.36-.25.67 0 .98.13-.02.17-.16.22-.27.3-.49.11-1.35.87-1.47.11.32.05.75.34 1 .15-.09.01-.25.02-.37.11-.38.74-1.39.97-1.45 0 .25-.03.49.12.66.17-.26.15-.61.31-.88.2-.14.41-.24.64-.3-.47.42-.05 1.35-.56 1.77-.06.04-.15.01-.22.02-.21-.18-.17-.78-.56-.58-.29.34.02.72.09 1.05-.03.28-.17.54-.43.71-.39.09-.49-.38-.7-.58-.18-.05-.25.16-.32.27-.03.39-.12.75-.33 1.05-.2.17-.37-.08-.56-.07-.14-.24-.03-.6-.27-.81-.56 0-.64.88-1.26.68-.13-.06-.33-.15-.33-.34-.23-.62.83-.68.38-1.26-.16-.08-.31-.27-.44-.42-.02-.19.02-.39.14-.51.4-.18 1.08.29 1.24-.3-.01-.23-.13-.62.19-.7.69-.27 1.03.68 1.7.32.15-.18-.09-.41.02-.64.28-.17.4.33.64.21.05 0 .11.09.14 0-.63-.38-.12-.97-.24-1.52.05-.37-.01-.69.19-.98l-.04-.05c-.6.23-.56.91-.64 1.45l-.37-.52c0-.85.23-1.61.56-2.33-.3.27-.73.56-.8 1.03-.11.14-.12.34-.14.51l-.17-.34c-.21-.81-.37-1.64-.43-2.51.02-.09.06-.16 0-.24.24 0 .49.05.56.32m-2.26 1.42c-.03.37.11.67.31.94.02.25-.21.39-.31.58-.17-.09-.26-.31-.34-.49-.1-.24-.1-.51-.09-.79.13-.1.28-.17.43-.25m9.42 1.28c.04.14.08.28.1.42-.29.29-.67.34-1.02.47-.12-.55-.38-1.1-.24-1.7.17-.07.34-.15.56-.12.27.27.5.58.61.93m-10.08-.25c.12.72.79 1.22 1.32 1.67l.26.03-.1.76c-1.15-.68-1.81-1.83-1.96-3.09.53-.21.28.44.49.63m8.62-.42c-.09.63.04 1.13.17 1.7-.1.02-.18.07-.29.05-.45-.94-.16-1.42.07-1.75h.05zm1.28 1.89c-.42.04-.82.18-1.14.44l-.04-.14c.41-.17.81-.33 1.2-.55l-.02.26v-.01zm-12.11 3.78c-.35-.05-.68-.32-1.07-.32 0-.21.1-.46.1-.72.54.02.7.66.97 1.03m-2.51.32l-.4.51c-.32-.02-.73.29-.95-.07-.04-.28.06-.51.1-.76l.46-.35c.3.18.48.53.8.66m2.22.07c.27.3.79-.09.94.4.18.1.38.31.49.49-.51 0-1.04-.25-1.58-.23l-.04.05c.29.35.84.32 1.09.54-.14.13-1.29.33-2.34-.05-.06.06-.28-.03-.21.12.4.2.73.59 1.21.61-.59.41-1.35.53-1.9 1.05.35-.03.66-.32 1-.42l.67-.24c.02.34-.73 1.05-.53 1.44.43-.83 1.65-1.99 1.89-1.99 0 .32-.16.64-.07.94.04.07-.09.14.03.19l.12-.12.46-1.23.68-.22.69.28c-.08.44.1 1.14-.41 1.32-.24.13-.43-.26-.64-.05-.21.3-.24.7-.53.94-.16-.06-.4.03-.47-.2-.03-.18-.02-.37-.19-.49-1.01.14-.64 1.71-1.82 1.58-.15-.44.26-1.35-.49-1.4-.31.11-.68.11-1 0a.503.503 0 01-.12-.51c.11-.32.54-.29.78-.49.27-.1.33-.26.54-.47-.11-.17-.06-.48-.34-.49-.1-.21-.32-.46-.19-.71.1-.15.3-.26.49-.17.24.07.53.43.78.12.02-.34-.28-.65.07-.91.36-.02.75-.01.95.32m-1.49-.05c.05.07.02.16.03.24a6.36 6.36 0 00-.66-.17v-.05c.19.03.4-.05.63-.03m11.76.79c-.47.57-.75 1.17-.99 1.83-.12-.03-.16-.19-.17-.32.16-.07.32-.21.44-.37 0-.32-.3-.53-.24-.84.37-.13.6-.25.98-.31m1.11 1.27c-.12.05-.28-.01-.36.14-.08.38.38.79-.02 1.03-.16-.07-.34-.27-.54-.12-.26.33-.09.75-.14 1.15-.25.18-.36-.31-.64-.22-.25.3-.44.69-.77.89.01-.43.03-.93.26-1.3 0-.18.08-.33.12-.49.14.06.12.27.22.39l.24.32c.03-.12.03-.27 0-.42-.04-.38-.26-.84 0-1.2.15-.18.27-.44.49-.56.13.38.19.8.46 1.12.12-.1-.01-.23 0-.35.06-.4-.12-.8-.02-1.23.17.31.29.77.7.84m-2.33-.35c.05.14-.08.25-.17.28-.14-.02-.24.14-.29.25.04.42.55.76.39 1.23-.1.25-.31.07-.46.02-.13-.11-.26-.3-.44-.21-.05.05-.12.07-.17.14-.11.42.16 1.11-.33 1.35-.36.09-.58-.15-.85-.27-.33.28-.65.82-1.15.68-.03-.32-.19-.58-.43-.81.16.12.5.24.75.12 0 .09-.11.2 0 .29.29-.68.56-1.37.99-1.98.16.26 0 .72.15 1l.09.1c.11-.29.08-.71.12-1.05.11-.43.13-.97.61-1.17.1.39-.13.96.29 1.17.17-.42.08-.95.17-1.4.15-.09.31-.16.51-.17.01.17.13.31.22.44m-4.93.33c-.05.12-.05.31-.22.34l-1.04.15.12-.77 1.14.28zm2.6.16c-.01.12-.06.25-.17.3-.23.05-.46-.07-.66-.17-.48.57.71 1.29-.22 1.75-.45.23-.71-.61-1.04-.1-.02.4.18.86-.17 1.15-.41.2-.82-.3-1.21.05-.28.24-.51.89-.99.64-.12-.01-.2-.09-.22-.21-.06-.37.43-.82-.02-1.14-.2.06-.47.01-.68-.05-.31-.25.21-.43.24-.68.08-.14.13-.31.14-.49.28.02.57.19.8-.05.21-.45.76-.4 1.12-.37-.1.83-1.09.55-1.61.89.31.33.75 0 1.12 0-.05.52-.36.98-.49 1.44.2-.12.18-.42.36-.56.12-.36.26-.71.49-1.03.12.31.07.73.36.98l.07-.09c-.07-.41.07-2.06.66-2.12.14.26.08.63.33.79.03.1.14.21.24.24l.05-.05c-.2-.37-.27-.8-.34-1.23.58-.02 1.16-.03 1.7-.17l.12.29.02-.01zm-.33.82l-.12.09-.07-.27c.08.02.24.04.19.17m2.34 1.23l-.05.34c-.12-.11-.26-.29-.43-.32-.04-.16-.1-.34-.07-.49.17.18.63.09.56.47m-7.75-10.43c-.03.1.05.1.1.17-.1.29-.54.27-.54.61-.06.37-.17.73-.19 1.11l-.05.05c-.17-.21-.08-.65-.17-.95-.29.15-.52.39-.78.58l-.16.19c-.02.76 0 1.49.16 2.17-.42-.47-.44-1.16-.58-1.77-.23.21-.56.38-.73.68-.03.62-.05 1.28-.07 1.86-.3-.36-.19-.94-.45-1.35-.53.43-.75 1.03-1.24 1.5-.23-.33.21-.56.34-.84.24-.32.63-.58.82-.93-.45-.12-.95.05-1.39-.14 0-.09.09-.14.17-.12l1.63-.17c.25-.12.42-.38.63-.56l-.09-.1-1.09-.37c.06-.25.41-.04.63-.07.21-.1.32.19.51.02.57.24.81-.4 1.17-.73-.11-.07-.13 0-.22-.13-.2.05-.43.03-.61-.07-.08-.03-.12-.12-.14-.2.29-.13.61-.02.94-.05.34.03.78.18 1-.17.15-.02.23-.19.38-.21m-3.35-9.73c.34-.04.38-.68.8-.54.18.17.48.24.53.52.25.56-.45.82-.34 1.32.07.11.21.1.29.1.33-.13.51-.64.92-.56.62.72-.3 1.29-.31 1.98.08.05.19.11.29.05.07-.11.18-.26.34-.22.11.31.29.68.12 1.01.03.16-.13.24-.17.37-.03.41-.15.62-.07 1.23.15.86.13 1.85.58 2.63h.1c-.2.26-.14.75-.05 1 .18.39.58.65.95.79.09.67.36 1.32.68 1.93.49.57 1.07 1.17 1.65 1.57-.06.17-.08.37-.17.49-.82-.33-1.36-1.08-1.96-1.72-.29-.41-.53-.85-.66-1.33-.08-.04-.08-.14-.17-.16-.12.35-.09.74.05 1.07.04.21-.16.35-.26.47-.24.06-.59-.14-.71.17-.11.65.42 1.31.1 1.96-.13.17-.39.08-.57.07-.17-.15-.43-.26-.65-.17-.35.42.11 1.19-.51 1.47-.29.01-.63.02-.85-.19-.15-.17-.14-.43-.38-.54-.56-.27-.74.58-1.28.35-.28-.22-.19-.62-.17-.98-.1-.39.38-.64.14-.96-.17-.16-.5-.19-.51-.49-.08-.27.2-.42.36-.54.31 0 .64-.05.8-.37.1-.19 0-.4.07-.58.47.03.86-.3 1.09-.7.16-.35.09-.75.1-1.15.27.12.52.47.87.27.17-.35.62-.17.88-.14.26.06.64.09.89-.03l.08-.19c-.02.05.02.07.04.1h.05c.03-.27-.12-.54-.21-.79-.22-.8-.47-1.63-.47-2.48-.16-.16-.1-.42-.14-.63-.32-.53.06-1.15.04-1.74.12-.2.16-.43.24-.65l-.04-.05c-.11.12-.2.25-.22.4-.35.3-.38.74-.55 1.11-.49-.59-.91-1.27-1.14-1.99.05-.7-.04-1.58.26-2.23l-.04-.05c-.18.24-.33.54-.44.84a1 1 0 00-.12.56c-.43-.54-.59-1.24-.92-1.84l-.05.05c.12.64.47 1.2.61 1.84-.36-.04-.73-.34-1.06-.12.5.37 1.12.6 1.51 1.1l.24.56c-.36-.14-.78-.41-1.19-.19.57.42 1.26.67 1.7 1.25-.24.05-.51-.1-.78-.12l.03.15c.5.39 1.18.49 1.53 1.1-.56-.53-1.35-.5-2.04-.7-.09-.32.31-.7-.07-.95-.34-.27-.81.24-1.11-.15.02-.43.67-.73.36-1.18-.26-.29-.77-.48-.83-.88 0-.52.88-.46.71-1.05-.06-.43-.15-1.01.16-1.33.66-.34.69.54 1.07.81m3.54 8.4l.38.04s-.07.35.24.62c-.15.04-.38-.09-.38-.09-.2-.08-.24-.58-.24-.58m-.04-.3c0 .1.12.05.16.1.42-.03.86.17 1.3.02l.65-.12c.14.16.06.46-.02.65-.42.45-1.04.64-1.63.58-.29-.05-.45-.36-.58-.58 0-.21-.14-.58.12-.65z" fill="#FEBF49"/><path d="M27.646 59.24l-.41-.23c.06-.15.25.01.41-.04v.27zm-4.21-1.08c.02-.17.05-.36.08-.54l.91.2a.21.21 0 00-.13.07c-.3.18-.49.49-.51.84l.07.34c-.35.02-.73.2-.87.54-.5.12-.99.26-1.53.27l-.06.1c.08.13.16.14.3.19.33.07.71-.01 1.01-.02-.1.24-.32.46-.49.68-.64.18-1.39.22-1.96.44.47.17.97.28 1.48.12-.34.47-.71.93-.87 1.47l.05.05c.38-.57 1.35-1.6 1.35-1.6 0 .32.08.61.12.91h.03c.11-.58.23-1.15.53-1.65.64.31-.22.98.27 1.45.26.2.1.57.05.81-.15.24-.25.61-.59.64-.25.06-.32-.17-.51-.27-.18-.06-.24-.31-.45-.32-.46.08-.98.66-1.46.16-.12-.49.63-.77.22-1.23-.2-.21-.6-.27-.51-.65.11-.12.18-.32.38-.3.25.03.55-.01.75-.17.2-.15.29-.42.17-.63-.11-.08-.08-.24-.12-.35.13-.26.42-.31.61-.54.55-.06 1.13-.09 1.46-.64.04-.14.12-.22.18-.4m2.54-.09s.07.06.07.12c-.11.17-.26.35-.41.49-.38.05-.74-.19-1.06-.07.21.21.53.42.65.65-.21.31-.42.52-.77.59-.32.09-.64-.2-.88.05.23.21.91.33.91.33 0 .23-.2.47-.11.68.17-.17.26-.42.4-.63l.33-.49c.17.35.26.77.39 1.16l.12.09c-.01-2 .21-2.26.41-2.3.1.35.04.81.44 1 .04-.15-.17-1.19-.1-1.47.06-.05.11-.11.17-.17h1.16c.03.08.05.16.07.24.01.12.01.26-.12.3-.17.02-.57 0-.58-.02-.09 0-.15.1-.19.16-.17.64 1.01.73.49 1.35-.24.23-.7-.17-.85.22-.06.47.33.88.04 1.33-.18.2-.52.32-.8.19-.14-.18-.35-.41-.61-.42-.61-.04-.67.88-1.3.68-.09-.13-.27-.1-.35-.24.06-.39.06-.8.32-1.11.02-.14-.1-.3-.24-.32-.12.01-.22-.09-.28-.19-.06-.24-.03-.5.16-.67.23-.41 1.09.03.97-.56-.12-.2-.29-.32-.24-.59.1-.18.28-.13.41-.25.18.04.39.13.54-.05.05-.05.07-.1.08-.16l.22.05.54.02v.01zm-.1 4.35c0 .24-.05.51-.29.58-.4.26-.68-.4-1.04 0-.21.11-.21.33-.41.42-.2-.02-.4-.04-.59-.1-.01-.28.2-.52.19-.83.15.04.27.22.47.12.39-.1.6-.71 1.01-.69l.66.49v.01zm4.69-.3c-.39.02-.82.07-1.16-.02-.16-.21-.07-1.24-.17-1.54.12-.03.4.17.39.27.07.4.09.81.13 1 .08-.11.16 0 .25-.1-.01-.32-.04-.52-.04-.79l.51.71.08.46.01.01zm-.48 1.29l-.14-.9.08-.02c.1-.02.22-.02.32-.02h.37l.17.99-.79-.05h-.01zm1.4.33h-.04l-.02-.04c-.07-.13-.11-.25-.14-.38-.03-.12-.05-.24-.07-.35-.04-.22-.08-.42-.25-.61l-.19-.9-.29-.42-.43-.54.15-.36 2.7 3.26-.07.05c-.39.29-.87.32-1.34.29m2.15-3.14c.17.22.33.46.49.68.16.23.32.45.5.62l.03.03v.04c-.09.29-.46.43-.69.47h-.04l-.03-.02c-1.11-1.19-1.95-2.31-3-3.53l-.08-.97c.08-.12.13-.18.18-.23.05-.04.08-.08.12-.11.05-.05.1-.08.14-.3l.15-.04c.08.21.12.45.14.69.02.24.03.49.07.72.07.46.22.86.71 1.06.58.06.98.43 1.32.87m-4.66-.87c.02.24-.15.52.05.72 0 .51-.01 1.02.09 1.49.02.05-.3.06-.4.07.14-.42 0-1.12.12-1.64.08-.2-.09-.54.14-.64zm6.1 1.89l-.07-.05c-.53-.39-1.01-.96-1.34-1.44l-.09-.13h.16c.19.02.38.14.55.18.17.04.33.09.49.14.33.1.62.08.98.07h.16l-.84 1.23zm-5.01-2.94c-.09-.07-.16-.15-.23-.22-.1-.12-.2-.24-.35-.41l-.03-.04c-.03-.08-.02-.14-.02-.18h.07l1.28-.37.14.02s-.06.07-.09.09c-.05.04-.1.08-.15.11-.08.06-.14.12-.16.2.1.22.14.47.12.71-.1.21-.2.44-.32.7h-.07a.31.31 0 01-.08-.02c.01.03.02.06.04.11l.02.05-.02.05c-.05.1-.08.21-.12.32l-.2.44c-.14.16-.35.17-.64-.02l-.04-.05c-.05-.09-.05-.19-.05-.27 0-.07.01-.15.01-.22 0-.1-.01-.16-.15-.2-.06.01-.12.03-.17.05l-.18.09c-.13.07-.28.13-.5.11h-.06l-.03-.07c-.15-.3-.17-.52-.17-.84v-.04l.03-.03c.16-.22.16-.42.08-.65l1.18-.22c.05.26 0 .44-.1.61-.06.09-.13.18-.2.26-.06.07-.12.14-.18.22v.04l.12-.09c.14-.11.26-.23.34-.38l.09-.18.12.17c.12.18.16.41.19.61.01.1.02.2.04.29v.05l.03-.12c.03-.2.05-.4.03-.64l-.03-.22.2.1c.06.03.11.06.16.08.04.02.07.03.09.03m2.22 2.35c.44.59.87 1.19 1.33 1.81l.03.03-.02.04c-.06.18-.24.23-.39.2l-2.85-3.41.02-.05s.03-.08.05-.12c.02-.04.04-.09.07-.13.06-.08.14-.16.27-.15h.03c.55.6 1.01 1.18 1.46 1.78zm14.89-27.05c-.03.17-.16.37-.31.52-.14 0-.27-.01-.38.05.14-.21.41-.43.64-.57h.05zm.74.66c-.06.17-.28.49-.42.63h-.8c.27-.19.41-.62.8-.56l.42-.07zm-1.39.18c-.09.18-.22.45-.44.49l-.59.03c.23-.25.56-.66 1.03-.52zm.6.84l.24-.03c-.08 0-.16 0-.24.03zm.59-.04c-.11.14-.07.57-.31.57h-.61l.26-.51s.05-.02.07-.02c.08-.02.16-.02.24-.03.12 0 .23 0 .35-.01zm-1.78.54s-.65-.25-.74-.27c.11-.02.64-.09 1.23-.15.07 0 .13.02.17.03-.03.11-.17.35-.26.44-.13-.02-.33.15-.39-.05m2.14.34c-.19.09-.35.59-.63.43l-.64-.27c.36-.17 1.01-.21 1.27-.17m-3.9 5.69l.03.06-.68.52-.04-.09c-.33-.77-.82-1.49-1.31-2.21-.25-.36-.5-.73-.73-1.1-.23-.37-.45-.75-.63-1.14v-.03c0-.36.46-.85.7-1.01l.08-.05.04.08c.85 1.64 1.79 3.31 2.54 4.99m4.25-3.01l-.15.08.12-.58c.87-.75 1.78-1.33 2.67-1.98l.13-.1v.55c-.83.79-1.78 1.52-2.76 2.03m-.17-1.25v.14c0 .11 0 .26-.02.41-.03.31-.11.67-.34.93-.33.37-.67.58-.94.72-.13.07-.25.12-.33.17-.09.05-.13.09-.15.12l-.08.15-.07-.16c-.19-.45-.99-3.29-.95-3.81v-.07h.08c.09 0 .26.05.45.12l.04.02.39 2.14.07.11-.09-2.1.12.05c.29.12.61.27.89.41l.05.02-.02.79.04.04.24-.71.09.04c.26.13.47.25.54.3l.04.04-.02.05v.07m-2.86 3.22l-.1-.58c-.27-1.38-.69-2.72-.79-4.11v-.11l.34.09 1.2 4.42-.65.29zm-.59.49l.03.06-.06.04c-.07.05-.11.06-.16.07-.03 0-.07 0-.14.03l-.07.02-2.48-5.03.02-.04s.04-.09.06-.14c.02-.05.04-.1.06-.14.06-.1.14-.18.3-.17h.05l.02.05c.85 1.73 1.64 3.48 2.38 5.26m.32-.41l-.15.05c-.22-.38-.4-.78-.56-1.19-.15-.41-.29-.82-.43-1.23-.27-.83-.56-1.63-1.06-2.36l-.02-.35.74.04.02.05c.57 1.63 1.15 3.3 1.45 4.99m3.42-3.02v-.17c.02-.18.09-.32.18-.45.04-.06.09-.12.13-.18.04-.06.08-.11.11-.17l2.16-1.6.05.05c.09.09.12.26.1.4v.04l-2.73 2.09v-.01zm.91-2.52l1.86-1.4v.17c-.02.49-.35.85-.73 1.16-.19.15-.4.29-.6.42-.2.13-.39.26-.55.39l-.18.15.2-.9v.01zm1.23-2.01c.32-.35.66-.68 1.05-1.04l.17-.16-.04.23c-.1.57-.44.94-.84 1.26-.2.15-.41.3-.62.45-.21.15-.41.3-.59.48l-.12-.11c.35-.4.66-.76.98-1.11m-1.31.87l-.06-.08a.992.992 0 01-.16-.38c-.04-.14-.06-.28-.09-.42v-.03l2.02-2.85.07.04c.2.12.33.29.43.47.1.18.17.39.25.57l.02.05-2.47 2.63h-.01zm.54-2.68c-.29.44-.6.88-.92 1.34l-.05.08-.3-.31.03-.05c.51-.94 1.08-1.93 1.7-2.82l.02-.03h.03c.15-.04.2.07.22.15 0 .03.02.06.03.09.01.02.02.04.03.04l.06.04-.03.07c-.25.5-.52.95-.82 1.4zm-.27-2.12l.47.17-.51.9-.15-.05.19-1.01v-.01zm-1.27 3.79c.58.8.78 2 .3 2.91-.17.32-.44.68-.83.65l.85-.82c-.16-.31-.53-.14-.78-.14.11-.31.13-.34.18-.51.05.02.61-.24.64-.26.02-.09-.09-.02-.12-.08l-.66-.08c.14-.35.34-.48.52-.95-.33.09-.69.11-1.04.17.16-.26.19-.31.33-.57.09-.05.52-.06.55-.2-.25-.12-.19.12-.83-.03.17-.14.28-.45.55-.46.19.05.2.28.36.37" fill="#FEBF49"/><path fill-rule="evenodd" clip-rule="evenodd" d="M40.656 28.85c.35.05.46.14.71.44.09.3.26.63.52.94l-1.19-.36s-.04-.14-.03-.14v-.88h-.01zm0-1.23c.38.13.48.01.48.54l.06.48s-.54-.31-.53-.31v-.71h-.01zm0-1.3c.25.18.48.12.57.43-.07.22-.09.53-.11.47 0 0-.46-.29-.45-.29v-.61h-.01zm0-1.06c.35.27.61.36.52.81-.15-.23-.29-.18-.51-.33v-.47l-.01-.01zm0-1.71c.53.52 1.17 1.48.85 1.83 0 0-.85-.82-.84-.82v-1.01h-.01zm8.5-7.38c-.19 0-.39-.02-.58 0h-.17l.1-.13c.23-.33.5-.71.9-.84l.08-.02.28.88-.06.03c-.16.08-.36.09-.55.09m.68.58v.11l.02.1h-.1c-.54 0-1.25-.03-1.86-.08l-.27-.02.24-.13c.27-.14.59-.17.91-.16.31 0 .64.04.93.01h.05c.07.06.09.13.09.18m-3.02 1.01l.4-.5 2.73.03v.43l-3.13.04zm-.87.9l.41-.49h.04c1.16-.04 2.36-.07 3.43-.04h.08v.35l-3.96.17v.01zm2.08 1.01c-.7-.02-1.4-.08-2.07-.11l-.7.36-.04-.03c-.2-.14-.12-.32-.03-.43.05-.06.1-.12.16-.18.05-.06.09-.11.11-.15l.02-.03.37-.13 4.07.03.26.49-.1.02c-.65.15-1.35.16-2.05.14m.25 2.29l-.13.06.17-2.03 1.91-.02.19.68-.04.03c-.28.23-1.8 1.12-2.1 1.27m-.74.49l-.02-.11c-.09-.68-.14-1.48-.08-2.21v-.04l.04-.02c.07-.04.15-.05.22-.05s.13.01.2.01h.08v2.19l-.44.24v-.01zm-.42.29v.08h-.22l-.57-2.72h.09c.09-.01.17-.03.26-.04.09 0 .19-.01.29 0h.07v.08c.03.86.11 1.81.08 2.61m-.49.36v.06l-.04.03s-.02.01-.03.02c-.02.01-.03.03-.05.04a.18.18 0 01-.18.02h-.03l-.01-.05c-.33-.9-.59-1.89-.76-2.81l-.02-.1h.35l.02.06c.2.91.57 1.77.76 2.71m-1.62.03c.48.9.94 1.82 1.26 2.79.22.33.4.67.57 1.01.17.35.32.7.48 1.05l-.18.78-.09-.27c-.37-1.15-.97-2.24-1.62-3.32-.65-1.08-1.33-2.15-1.84-3.26l-.6-1.46.1-.02c.08-.02.15-.04.23-.05.08-.02.16-.03.24-.03h.05l.02.05c.4.93.9 1.82 1.38 2.73zm.86.32l-.15.06c-.24-.43-.5-.87-.71-1.33-.22-.46-.39-.95-.43-1.5v-.09h.38l.02.05c.43.89.7 1.87.89 2.81zm-3.88 1.3l-.07.13-.08-.13c-.18-.32-.35-.72-.54-1.1-.19-.38-.39-.73-.64-.96l-.03-.04c-.05-.28.52-1.38.71-1.58l.06-.06.06.06c.34.38.66.97.96 1.57.3.6.58 1.22.84 1.67l.15.25-.25-.14c-.16-.09-1 0-1.17.33zm4.91 1.36s0-.05-.01-.08c0-.02 0-.04-.01-.05l-.03-.07.06-.03c1.26-.72 2.47-1.52 3.78-2.11l.17-.07-.22.7-3.55 1.86c-.14 0-.17-.09-.18-.15m.42.77l-.21-.17.1-.06c.91-.56 1.89-1.15 2.88-1.62l.17-.08-.06.18c-.08.23-.24.38-.42.5-.17.11-.36.19-.53.28l-1.94.97h.01zm-3.82-4.32c.38.68.75 1.37.98 1.99l.07.17-.17-.07c-.09-.03-.22-.1-.34-.16-.06-.03-.11-.05-.16-.07-.05-.02-.08-.02-.1-.02h-.07l-.02-.06c-.21-.64-.56-1.23-.91-1.84-.18-.3-.36-.6-.53-.91a7.26 7.26 0 01-.44-.94l-.03-.08.08-.02c.15-.05.36-.07.52 0l.03.03c.31.6.7 1.28 1.08 1.95m7.45.05l-.03.55-.03.02c-1.35.83-2.81 1.42-4.15 2.3l-.08.05-.21-.49.05-.04c.78-.55 1.55-1.1 2.35-1.6l-.31-.26-2.18 1.4-.05-.04a.533.533 0 01-.13-.2c-.03-.07-.04-.15-.06-.23v-.05l.03-.03a26.2 26.2 0 014.39-2.99l.07-.04.04.07c.07.12.15.44.22.73.07.3.14.6.18.71l.02.07-.12.06v.01zm-5.87-10.88a.882.882 0 01-.19-.12l-.03-.02.05-2.08.11.05c.46.21.54.53.51.9-.02.17-.06.36-.09.56-.04.19-.07.4-.07.61v.04l-.03.02c-.09.07-.18.07-.26.04zm1.13-.26c-.06.2-.14.39-.2.56l-.02.05h-.05c-.22.03-.3-.11-.32-.25 0-.07 0-.14.01-.2 0-.06.02-.12.03-.16l.16-1.09.11.08s.05.03.09.05c.04.01.09.03.13.05.09.04.19.12.19.28-.02.23-.07.44-.13.64m.57 1.32l-.04.04-.05-.02c-.33-.12-.35-.36-.28-.57.03-.1.07-.2.11-.31.04-.1.06-.19.06-.26v-.12l.11.04c.12.04.21.1.29.17.08.06.15.14.25.23l.04.04-.03.05c-.11.25-.28.48-.47.7m.96.63c-.07.06-.14.13-.2.19s-.11.12-.15.18l-.05.09-.08-.08c-.36-.35-.35-.66-.21-.92a.99.99 0 01.11-.17c.04-.05.08-.11.12-.16.08-.1.15-.19.18-.27l.02-.04h.04c.09-.02.16.04.2.09.05.05.09.13.12.2s.07.15.09.21l.03.08.02.03.02.05c0 .22-.14.38-.27.51m.91.42c-.07.1-.13.2-.2.29-.14.19-.32.36-.6.36h-.04l-.22-.27.8-1.14.06.03c.07.03.16.08.24.14.08.06.16.15.18.27v.04l-.02.03c-.07.07-.14.15-.2.24m-.19 1.67l-.04-.12c-.03-.1-.09-.2-.14-.32a.55.55 0 01-.02-.42l.7-.76.06.03c.14.08.2.21.23.34.02.06.03.12.05.19.01.06.03.12.05.17l.02.05-.92.84h.01zm-4.88-4.01h-.04l-.02-.06c-.15-.39-.24-.82-.3-1.25-.06-.43-.08-.86-.11-1.27v-.04c.09-.18.29-.26.45-.25.16.02.29.13.28.33l.81.34-.03 2.15c-.11.11-.85.35-.94.36l-.09.02v-.33h-.01zm1.85 1.94c-.19.37-.39.74-.49.98l-.16-.03-.02-2.31.1.03c.17.05.72.18.89.23l.07.02v.07c-.03.26-.21.64-.39 1.01zm-1.26 6.51l-.06.05-.05-.05c-.49-.49-1.05-.96-1.6-1.45s-1.09-1-1.53-1.55l-.03-.04.29-.75.09.08c.26.25.49.53.72.82.23.29.44.59.67.87.45.57.94 1.08 1.61 1.36h.03l.01.05c.07.2.04.46-.15.62m-.73-1.61c-.77-.92-1.43-1.88-2.14-2.81l-.02-.05c.03-.46.15-.91.44-1.28l.07-.09.06.1c.79 1.33 1.32 2.77 1.95 4.16l.1.21-.47-.24h.01zm.94.44l-.09.16-.06-.17a53.3 53.3 0 00-1.35-3.44 9.1 9.1 0 01-.68-1.65l-.02-.05.34-.29.05.09c.17.33.32.68.45 1.04.13.35.25.71.38 1.07.26.71.55 1.4 1.05 1.98.25.4.12.93-.07 1.27m-1.65-5.72l-.09-.1c.15-.2.53-.49.74-.61l.09-.05.03.1c.14.46.46 1.17.71 1.98.25.81.44 1.72.32 2.56l-.03.2-.12-.16c-.4-.58-.82-1.58-1.14-2.42-.16-.42-.3-.81-.41-1.08a2.28 2.28 0 00-.13-.32c-.01-.03-.03-.06-.04-.08.01 0 .04-.03.07-.01m1.34.31c-.09-.36-.16-.73-.27-1.07v-.04c.03-.2.2-.24.34-.24s.28.04.38.04h.07l.05 2.54-.15-.22c-.2-.3-.32-.65-.41-1.01m2.18 3.05c.06.17-.13.2.03.33.38-.67.55-1.45 1.04-2.01.39-.02.44.75.63.99v.19c-1.09 1.02-2.05 2.2-3.1 3.26.17-.53-.08-1.21.38-1.6l1.39-3.77c.93.77-.2 1.79-.38 2.61m-1.37-1.08c0-.17.21-.66.43-1.15.23-.5.5-1.04.62-1.3l.05-.1.44.45-1.36 3.93-.16-.03-.03-1.8h.01zm-1.77 12.3c-.23.32-.44.7-.84.53.07-.13.11-.3.18-.44.2-.03.42-.06.66-.08m1.15-.12c-.27.27-.53.67-.96.57l.18-.49c.27-.03.53-.05.78-.08zm-2.17.27l-.34.55c-.07-.17-.09-.3-.11-.44.09-.04.25-.07.45-.11zm1.37 1.42l-.63.06c0-.23.1-.44.2-.64.27-.05.6-.12 1.01-.2l-.57.78h-.01zm1.77-.93l-.71.87-.53.04.4-.83c.27-.04.6-.14.84-.08zm-2.56.41c-.17.26-.37.55-.6.65-.05-.13-.14-.27-.2-.41.12-.08.33-.14.79-.24m1.81 2.3c.02-.12.05-.33.15-.45l.45-.13.14-.03-.74.6v.01zm-.81.38a2.03 2.03 0 01-.53-.35c.27-.1.68-.23 1.11-.36l-.57.71h-.01zm.95-1.17l-.48.06.32-.74c.29-.05.57-.1.81-.14h.04l-.68.81-.01.01zm-1.13.17c-.12.04-.25.08-.38.11.02-.24.09-.49.17-.74.27-.05.55-.1.83-.15l-.62.79v-.01zm-.59-.56l-.34.42c-.07-.09-.15-.2-.21-.3.15-.04.34-.08.55-.12zm-.83 2.99c-.24.23-.51.44-.73.68.19-.5.15-1.04.57-1.47.11.22.11.52.16.79zm1.1-.92c-.24.27-.6.35-.79.64.07-.38.19-.77.35-1.12.23.08.35.3.44.48zm-1.81.31c-.23.11-.29.39-.54.52-.02-.35-.13-.6-.1-.97.03-.15.37-.36.47-.44l.17.89zm1.09-.99l-.73.65c.05-.36-.11-.81.24-1.05.16.13.53.15.49.4zm-.94-.54c-.25.19-.57.38-.83.61.09-.1-.11-.54.1-.68.23.06.5.01.73.08m3.16-4.04c-.31.26-.59.7-1.06.49-.03-.24.21-.37.27-.56.27.01.47-.02.79.08m-1.64.52l-.55.04c.1-.21.21-.43.37-.6h.62l-.45.57.01-.01zm-.53-.55c-.17.33-.52.41-.7.71.02-.13-.23-.09-.23-.09-.05-.24.06-.32.04-.56l.89-.06zm1.81-1.58c1.26.72 2.11 2.38 2.37 3.76-.36.57-.83 1.25-1.44 1.39.18-.19.15-.6.31-.79.07-.08.77-.09.77-.09l-.46-.14c.09-.21.22-.46.26-.67l-.7.7h-.25c.01-.27.16-.67.25-.93l.43.04.23-.49c-.1.07-.32.17-.46.29-.13-.03-.22-.03-.34-.06.08-.13.09-.29.15-.41-.35.14-.61.52-1.03.44.11-.18.18-.39.29-.55.42-.04.7-.06.7-.06l-.2-.11.33-.5c-.2.06-.47.28-.67.4-.08 0-.17-.07-.24-.03.11-.1.14-.36.26-.46.03-.03.13-.05.22-.07l-.16-.12c.05-.11.19-.24.21-.35-.19.06-.46.42-.72.23.05-.16.17-.32.22-.48-.22.16-.61.26-.91.41l-.18-.07c.08-.16.09-.47.2-.62l-.76.59c-.41 0-.14.05-.48.02.11-.25.11-.55.25-.79l-.9.76-.22.02c.16-.78.72-1.41 1.33-1.57.4-.06.99.11 1.36.35m-3.19 8.64c-.05.08-.16.16-.22.24-.35.07-.2-.45-.22-.69l.31-.3.12.75h.01z" fill="#FEBF49"/><path d="M51.956 52.47s-.01.04-.03.06c-.03.04-.06.07-.11.09-.04.02-.11.04-.22.07l-.41.12c-.05.02-.2.03-.39.04-.19.01-.43.03-.67.04-.43.02-.85.05-1.01.07-.03.14-.08.25-.15.35.94-.07 1.88-.1 2.79-.09h.06l.02.05c.13.4-.06.55-.32.59-.12.02-.25.02-.37.02s-.23 0-.3.03h-.04c-.77-.18-1.52-.09-2.3.01-.39.05-.79.11-1.19.13-.4.03-.81.02-1.24-.05-.51 0-.44-.26-.35-.46.02-.04.04-.08.05-.12.01-.04.01-.06.01-.07 0 0 0-.02-.03-.03a.483.483 0 00-.15-.04h-.04l-.02-.04a.554.554 0 01-.06-.27v-.34h.07c2.08-.23 4.31-.34 6.35-.34h.11l-.03.1-.02.06-.01.02zm-1.88-2.06c.65-.15 1.31-.3 1.96-.44l.07-.02.02.07.09.27c.03.09.05.19.07.29v.08l-.07.01c-1.83.3-3.71.48-5.57.71l-.15.02.15-.69.16-.43h.04c1.65-.57 3.38-.91 5.07-1.35l.09-.02.04.34v.18l-.06.02c-.5.14-1.02.35-1.74.65-.02 0-.04.03-.07.07-.03.04-.05.09-.07.15l-.04.08v.02l.01-.01zm-.2-4.51c-.57 1.01-1.08 2.04-1.44 3.13l-.03.04s-.03.02-.04.05c-.02.02-.04.04-.05.06-.04.05-.11.09-.21.07l-.08-.02.02-.08c.3-1.24.83-2.38 1.44-3.49.6-1.1 1.29-2.17 1.9-3.27l.04-.06.07.03c.11.05.16.15.18.24.02.09.02.19 0 .26v.03c-.61 1.01-1.23 2-1.8 3.01zm.76.19c-.4.74-.7 1.53-1.08 2.27l-.04.03c-.06.03-.13.06-.2.09-.06.03-.12.06-.17.09l-.2.14.07-.23c.2-.64.48-1.25.8-1.85.31-.59.66-1.18.99-1.76l1.28-1.99.03.21c.02.15.08.3.12.45.04.16.07.32.04.49v.03c-.77.58-1.26 1.27-1.65 2.01m-1.79.15l-.55.98-.02-.26c-.11-1.26-.25-2.55-.3-3.8v-.1l.09.01.33.06c.1.02.21.03.32.01h.09l.03 3.09.01.01zm-1.23 2.91l-.09-.22c-.61-1.55-1.07-2.91-1.46-4.59v-.03l.01-.03c.22-.33.89-1.05 1.32-1.12h.08l.5 4.72-.37 1.28.01-.01zm1.79-4.07l-.15-.04c.02-.45.1-1.07.24-1.55l.02-.07h.07c.14.03.22.13.28.21.03.04.05.08.08.12.03.04.05.06.08.08l.07.04-.68 1.22-.01-.01zm2.25 1.29c-.17.21-.36.42-.52.64-.16.21-.3.42-.4.65.01.19-.1.26-.22.29-.05.01-.11.01-.16.02-.05 0-.09.01-.11.02l-.21.11.1-.21c.49-1.07 1.06-2.15 1.9-3.05l.21-.02v.07c.06.59-.24 1.06-.58 1.49m-4.4 3.01c.05.14.08.3.06.46v.07h-.23v-.07c-.07-.3-.1-.61-.18-.9-.07-.27-.17-.52-.35-.73h-.19v-.07a3.16 3.16 0 00-.28-.72c-.11-.24-.24-.48-.34-.71-.2-.48-.3-.99.05-1.56l.09-.14.06.15c.49 1.26.82 2.43 1.18 3.8.03.14.09.28.13.42zm4.08-1.73v-.12c0-.19.1-.38.23-.54.13-.17.29-.33.44-.47l.09-.09.04.12c.05.14.02.3-.02.44s-.11.28-.17.41v.03l-.61.21v.01zm-6.66 1.18c-.12.24-.21.5-.3.76-.19.51-.4 1.03-.92 1.39l-.15.1.02-.18c.11-1.01.52-1.97.69-2.99v-.04l.05-.02c.31-.14.83-.31 1.08.23l.03.05-.04.04c-.2.19-.34.42-.46.66zm4.02.59l-.09-.13c.31-.31.72-.53 1.16-.72.43-.19.9-.35 1.32-.53.17-.06.34-.09.51-.11.16-.03.33-.04.48-.08l.1-.03v.66l-.06.02c-1.11.37-2.32.49-3.42.92zm-3.95 1.4c-.07.11-.13.19-.19.28-.06.08-.1.16-.12.24v.05h-.07c-.1.01-.17-.05-.21-.09-.02-.02-.04-.05-.06-.07-.02-.02-.03-.04-.05-.05l-.05-.04.04-.06c.24-.4.44-.85.65-1.3.21-.45.43-.91.71-1.33l.05-.03h.09c.02 0 .03.02.05.03l.25-.09-.14.22c-.42.64-.68 1.46-.93 2.25m-1.86-.19l-.02.05h-.42l.29-1.82.03-.02s.09-.04.13-.05h.19c.02 0 .03 0 .04-.02l.16-.16-.02.22c-.05.63-.17 1.23-.38 1.79m3.37-.11c-.03.05-.05.11-.07.17-.02.06-.04.13-.05.19-.07.26-.17.54-.55.64-.03.04-.05.1-.07.18-.02.09-.04.19-.07.27-.06.19-.18.36-.47.27-.07-.02-.12-.07-.17-.11-.04-.04-.08-.09-.13-.13l-.03-.02v-.04c0-.29.12-.52.26-.72.07-.1.14-.2.21-.29.07-.09.13-.18.17-.27.09-.67.41-1.24.89-1.73l.09-.09.05.12c.07.18.17.38.23.6.06.22.09.46 0 .69v.04l-.05.01c-.12.05-.2.13-.25.23m-4.31 2.34l-.14.27v-.3c-.02-.3.03-.59.08-.86.06-.27.13-.53.17-.8v-.08l.09.01c.09.02.18.04.28.05.09.01.18.03.27.03h.12l-.05.11c-.24.55-.55 1.04-.84 1.57m-1.03 2.73h-.3v-.09c.08-.53.11-1.09.17-1.63.05-.55.13-1.09.29-1.6.03-.08.03-.19.02-.3-.01-.12-.03-.25-.03-.36-.01-.25.06-.48.44-.46h.08v.08c.01.2 0 .41-.02.61s-.05.4-.08.6c-.06.4-.12.78-.09 1.17l-.47 2-.01-.02zm-.58.04h-.16l-.76-4.38.05-.03c.21-.11.92-.11 1.16-.08h.07v.08c0 1.02-.19 3.42-.36 4.41zm11.93-3.89h-.04c-2.08.12-4.19.41-6.23.36h-.08v-.28h.08c2.14-.2 4.2-.55 6.42-.58h.06l.01.06c.06.23-.11.38-.22.44zm-7.88.9c.06.05.12.1.17.16.1.13.11.3-.04.48-.14.17-1.69 1.92-1.83 2.09-.19.24-.43.22-.65.18-.1-.02-.21-.05-.31-.07a.613.613 0 00-.27 0l-.11.03v-.11c.02-.73.36-1.44.76-2.1.4-.66.87-1.29 1.17-1.88l.02-.04h.05c.36 0 .54.32.67.56l.02.04-1.26 1.86.03.19.65-.85.69-.71.06.04c.06.04.12.08.18.13zm-4.66 2.82v.08l-.26.01v-.08c-.04-.32-.13-.63-.24-.95-.11-.32-.24-.63-.36-.95-.24-.63-.44-1.28-.34-1.95.02-.06.06-.1.09-.12.03-.02.08-.04.11-.05.04-.01.08-.02.11-.03.04-.01.06-.02.08-.03l.09-.05.03.1c.33 1.3.57 2.63.68 4m-.79-.19v.11l-.1-.03c-.38-.09-.69-.43-.88-.74l-.96-1.51v-.03c.03-.3.1-.71.48-.84h.2c.06 0 .11-.02.16-.03.11-.02.24-.04.38.03l.04.02v.04c.18 1.01.57 1.92.68 2.96m-3.26-1.68l-.09.1-.1.1c-.14.12-.33.22-.56.06l-.05-.04.02-.06c.05-.16.22-.25.38-.31.17-.06.36-.1.52-.12l.05.15s-.1.07-.16.13m8.82 1.38c-.35.19-.73.32-1.08.49l-.2.1.1-.21c.18-.39.47-.74.79-1.05.32-.32.66-.61.96-.89l.05-.04.05.04c.12.08.17.2.2.31.03.11.04.23.07.34v.06c-.23.41-.56.66-.92.86m-7.9-1.03s-.07.04-.1.06c-.03.02-.06.04-.07.05l-.04.04-.05-.02a.561.561 0 00-.2-.03c-.09 0-.18.01-.26 0l-.23-.02.2-.13s.09-.08.15-.15c.03-.04.06-.08.1-.11.03-.04.07-.08.11-.11.17-.15.38-.18.55.13v.04c.01.13-.07.2-.14.25m.68.46l-.61-.06v-.07c-.02-.15.13-.28.26-.32.16-.05.33.03.35.28v.17zm-2.98.1l-.07-.02.02-.07c.07-.29.27-.32.46-.3.09.01.18.04.27.06.09.02.15.03.21.02l.17-.03-.08.15c-.22.4-.67.29-.96.2m1.5.52l-.04.03-.53-.29.05-.07c.22-.29.68-.47 1.04-.33l.09.04-.05.08c-.12.19-.35.42-.56.55m14.64-.09c.04.16.08.31.11.47l.02.09-2.82.08-.04-1.23 2.65.03v.08c.01.17.04.32.08.48zm-12.9-.06l-1.3.29.15-.18c.26-.32.69-.54 1.11-.32l.04.02v.19zm13.09 2.65c-.15.24-.31.38-.31.38l-.03.03-2.79-.56.23-1.21h.05c.47-.11.96-.14 1.45-.16.49-.01.98-.01 1.47-.05h.07l.13.6c.03.4-.12.74-.27.97zm-6.92-.07c-.16.08-.34.06-.47-.14l-1.4-1.17.21-.13.04.02c.65.32 1.31.61 1.92.96l.06.04-.03.07c-.06.14-.19.28-.34.36m-1.56-.62c.14.11.28.22.41.33.13.12.25.24.36.39l.08.11-.48.05-.03-.03c-.26-.24-.54-.47-.81-.7-.27-.24-.55-.49-.78-.79l-.1-.13h.55l.03.03c.23.29.5.51.78.73m8.14 2.05h-.08c-.54 0-1.05-.07-1.53-.19s-.93-.27-1.39-.4l-.09-.03.23-.49.07.02c.42.14.87.19 1.34.23.23.02.47.04.7.07.24.03.47.07.7.14l.06.02v.62l-.01.01zm-.31 1.27l-.91.84-2.28-2.15.12-.35h.07c1.14.19 2.06.84 2.97 1.49l.03.02v.15zm-1.64 2.41a1 1 0 01-.27.14.84.84 0 01-.18.04l-.03-.04c-.58-.82-1.7-2.86-1.81-3.07-.04-.17.06-.27.15-.34.04-.03.09-.06.14-.09a.45.45 0 00.1-.09l.05-.06.06.05c.85.68 1.75 1.45 2.26 2.49v.04c-.05.5-.26.78-.47.93zm-8.63 1.63c-.07.03-.14.07-.21.09-.16.05-.33.04-.46-.16-.68-1.46-1.38-2.92-1.93-4.42l-.05-.13.39.06 2.52 4.45-.09.03c-.05.02-.11.05-.18.08m1.49-.51l.05.07-.07.05c-.2.15-.42.22-.67.24h-.05l-.03-.04c-.88-1.39-1.78-2.76-2.54-4.22l-.05-.1.11-.02c.42-.07.66.15.83.42.08.13.16.27.23.41.08.13.15.25.25.34.61.99 1.22 1.94 1.93 2.85m3.29-3.62l.8-.36.04.02c.14.09.19.23.23.36.02.06.03.13.05.19.02.06.03.12.06.17l.1.2-1.28-.58zm-6.28 4.01s-.07 0-.1.01h-.08c-.02 0-.03 0-.04.01l-.08.06-.04-.09c-.26-.61-.57-1.2-.86-1.8-.29-.6-.55-1.23-.7-1.89v-.05l.48-.46.05.1c.58 1.28 1.09 2.61 1.51 3.95l.02.05-.04.04s-.08.05-.11.05m7.23-.08l-.06.06c-.02.01-.03.03-.05.04h-.98l-4.18-2.68c-.39-.38-.73-.85-.97-1.32l-.11-.23.23.12c2.09 1.12 4.11 2.41 6.12 3.76l.03.04c.02.09 0 .15-.04.2m.5-.77c-.04.08-.08.16-.15.22l-.05.04-.05-.03c-.8-.52-1.63-1.03-2.44-1.56-.81-.54-1.61-1.09-2.36-1.7l-.21-.17 1.2.1 4.2 2.81-.04.07c-.04.07-.07.15-.1.21m-1.38-2.64c.24.11.5.2.73.32.47.24.86.58.76 1.31l-.02.11-.1-.05c-.54-.27-1.05-.6-1.55-.93-.5-.34-1-.68-1.52-.98l-.13-.07.13-.07c.28-.14.73-.09 1.04-.04h.03c.18.18.39.3.63.41m3.02 2.52v.03l-.03.03c-.04.06-.1.07-.17.07h-.03c-.3-.24-.5-.53-.64-.83-.14-.3-.24-.61-.34-.91l.14-.07c.18.24.38.49.57.75.19.26.37.53.52.79l.02.04-.02.04-.03.06m-5.85 1.12l-.06-.03.02-.06c.07-.29-.02-.53-.17-.77-.16-.25-.37-.48-.53-.73l-.17-.26.27.15c.98.53 1.91 1.17 2.84 1.81l.18.13-.23.02c-.72.06-1.53.08-2.17-.25m4.9-.49l-.09.02-.03-.7h.08c.1-.02.18.03.23.09.05.05.1.12.12.17.06.18-.21.4-.3.42" fill="#FEBF49"/><path d="M7.896 54.82c.12-.03.24-.01.35-.03.32.45.76.87 1.2 1.22l-.94-1.36c.11-.11-.05-.24.07-.35.41.64 1.01 1.24 1.53 1.79-.23.33-.38.7-.22 1.14.01.27.57.34.29.65-.12.31-.51.56-.32.93.14.31.47.6.81.63.27.06.45-.18.65-.25.04-.17.25-.2.34-.32.08.27.09.65.41.79.3-.01.56.04.8-.12.34-.2.36-.6.38-.91.19-.02.21.22.37.27.52.02.93-.43 1.17-.86-.09-.51.39-.23.63-.44.68-.69.04-1.57 1.02-2.14.54-.2.96-.34 1.55-.35.06.67-.07 2.19-.07 2.19l-.16 1.21c-.33.14-.52.04-.85.15-1.08.49-2.89 1.4-5.41 1.19-1.13-.26-2.08-.44-2.88-1.5-.49-.4-.85-.8-1.02-1.37l.04-.05c.2.26.39.34.78.65l-.6-.91c.04-.08.08-.17.11-.26.21.24.43.39.79.67l-.71-1.06c.02-.22 0-.45-.04-.67.31.4.7.77 1.1 1.08l-1.17-1.64v.03zm10.72.32c.22-.26.61-.37.96-.41l.03.45c-.35-.05-.7-.08-.99.04v-.08zm.96.74c-.35-.05-.72-.09-1.02-.03.02-.14.03-.28.04-.42.3-.03.66-.09 1.02-.12v.16c0 .05-.03.2-.04.41zm-.02.69c-.37-.04-.75-.03-1.1.05l.06-.43c.34-.06.69-.16 1.05-.2 0 .07 0 .15-.01.23v.35zm.08.7c-.42-.05-.88-.06-1.26.05.02-.14.03-.28.05-.43.36-.07.75-.14 1.14-.18.01.18.03.36.07.55m.28.68c-.53-.06-1.13-.12-1.61.08 0-.13.02-.26.03-.39.41-.17.88-.19 1.33-.23.03.15.08.3.14.45v.04l.04.02s-.01-.02.07.03zm2.98.35c-.09.23-.4.25-.59.35-1.33.15-2.75-.58-4.02-.09v-.21c.54-.13 1.12-.38 1.7-.4.22.13.66.32 1.41.4l1.49-.05h.01zm-1.58.85c-.74.54-1.6 1.03-2.62.79-.17-.12-.26-.31-.22-.49.11-.13.11-.39.34-.39.57-.28 2.28.07 2.5.09zm1.79-1.77l-.11.45c-.65-.14-2.31.18-2.71-.57-.16-.25.14-.3.24-.35.68-.03 1.66.07 2.59.46m24.08-2.92c0 .1 0 .21.01.32-.47.43-1.08.85-1.55 1.16.44-.23 1.07-.42 1.56-.75v.26c-.47.46-1.13.95-1.62 1.28.46-.24 1.13-.43 1.63-.8v.26c-.49.46-1.17.9-1.68 1.25.47-.25 1.13-.35 1.64-.72-.02.09-.03.19-.05.28-.49.47-1.18.91-1.7 1.26.36-.19.83-.28 1.26-.47l-.46.76c-1.88 1.76-5.02 1-7.4.82l-1.78-.3c-.32-1.1-.61-2.2-.76-3.37 1.34-.69 2.55.29 3.85.35l2.37 2.3c.85-.03 1.59-.46 2.07-1.15.08-.14.03-.32-.08-.43-.44-.35-.99-.45-1.48-.72 1.04-.11 1.93-.73 2.61-1.58h.97c-.23.24-.51.41-.71.6.23-.19.96-.39 1.14-.6h.13l.03-.01zm-11.46 1.36l.08.42c-.46-.03-1.03.09-1.43.16.51-.07 1.01.08 1.49.17l.08.43c-.51-.09-1.1-.04-1.61.08.54.01 1.14.09 1.66.19l.08.43c-.52-.12-1.16-.05-1.64.06.56.09 1.17.07 1.7.26l.08.41c-.54-.22-1.3-.03-1.85.01.64-.01 1.32.17 1.91.32l.03.16c-1.56-.43-2.81 1.36-4.07.26.08.08-.21-.07 0-.32.74-.62 1.55-.18 1.94-1.23-.05-.86-.27-1.81-.26-2.64a3.4 3.4 0 011.61.57c-.42-.03-.9.1-1.3.16.48-.05 1.02.04 1.47.1m-2.39 1.26c.46.11.3.53.16.64-.47.08-1.04.44-1.48.61-.06-.29.01-.76-.09-1.15.52-.16.97-.28 1.41-.11m2.68 2.91c-.12.03-.26.04-.38.04h-.36c-.12-.03-.23-.03-.33-.05a.544.544 0 01-.32-.16l-.04-.04.02-.05c.07-.2.31-.27.51-.32.11-.02.22-.04.32-.06.1-.02.19-.04.26-.06l.99.09-.04.1c-.13.31-.36.45-.62.51m-15.77-6.11c0-.15.02-.3.04-.43.5-.05 1.18-.19 1.77-.14-.44-.07-.97-.22-1.43-.15.56-.25 1.38-.03 1.97-.04 1.24.37 2.73.58 4.09.71 2.09.19 3.56-.73 5.55-.76.23.02.45.1.63.24-.45-.06-.98.08-1.41.15.55-.05 1.17.07 1.65.12.07.12.12.26.14.41-.47-.09-1.19.06-1.67.15.58-.08 1.16.12 1.7.21l.04.43c-.55-.13-1.21-.08-1.77.05.59.01 1.23.1 1.79.22l.04.42c-.54-.16-1.22-.08-1.73.04.58.1 1.21.06 1.76.28l.03.39c-.54-.22-1.3-.03-1.86 0 .63-.01 1.3.17 1.88.31v.06c-2.23-.24-3.97 1.13-7 .88-2.14-.21-3.33-.7-5.37-1.18l-.8.03c.52-.14 1.1-.28 1.64-.26-.48-.04-1.13-.19-1.65-.07v-.38c.5-.15 1.07-.14 1.59-.22-.47-.11-1.1-.18-1.61-.07v-.41c.53-.11 1.15-.19 1.71-.21-.55-.13-1.19-.18-1.73-.06v-.42c.54-.09 1.12-.29 1.7-.21-.48-.09-1.22-.25-1.69-.12m9.26 1.38h.05v-.08l-.05.08zm-22.38-5.16c.07.51.33.95.44 1.45l-1.11-.03c-.13-.46.17-.83.48-1.12.05-.1.06-.27.19-.3zm6.14-1.01l-.12.24c-.39-.44-.79-.98-1.23-1.36l1.06 1.74-.03.08c-.16-.07-.09-.1-.39-.21-.32-.38-.65-.79-1-1.09l.67 1.08c-.1.03-.25-.02-.3.04-.25-.25-.49-.46-.8-.73l.57.84c-.14.05-.3.13-.39.24-.51-1.51-1.99-2.71-3.33-3.54-.07-.59.18-1.1-.23-1.6-.34-.21.02-.61-.03-.94.02-.39-.18-.76-.48-.95-.18-.09-.34.05-.51.09.14-.61-.3-1.04-.61-1.49-.42-.33-.71.26-1.04.39-.05-.27-.29-.48-.52-.63-.21-.05-.47-.11-.69-.08-.18-.23-.36-.47-.57-.68-.02-.09-.03-.18-.04-.27.28.31.64.55 1 .8l-1.01-1.19c0-.09.01-.18.03-.27.32.35.77.84 1.13 1.03-.32-.36-.75-1-1.04-1.35.02-.06.04-.12.08-.16.31.34.83.88 1.21 1.13-.28-.36-.65-.84-.93-1.18.14 0 .27 0 .39.02.3.32.67.7.97.86-.21-.24-.43-.54-.64-.81.72.16 1.3.58 1.77 1.3.37.44 2.98 2.72 3.3 2.89 1.67 1.12 2.03 1.47 3.09 2.84.35.51.6.95.77 1.47-.3-.33-.6-.66-.94-.96l1.03 1.85c-.02.06-.04.13-.06.19-.39-.44-.79-.97-1.22-1.35l1.06 1.73.02-.01zm-9.52-7.87c-.07.03-.13.06-.19.11-.05-.15-.1-.29-.15-.44.12.12.22.22.34.32m7.59-5.17c-.06.05-.12.1-.19.14-.27-.22-.5-.27-.84-.57l.38.52c-.11-.09-.22-.19-.33-.22l-.44-.12c-.98-1.23-1.88-2.45-3.05-3.58 0-.17-.09-.3-.22-.37-.11-.09-.49 0-.33-.28.14-.3.25-.7 0-.98-.2-.16-.31-.37-.57-.42-.19.01-.31.21-.5.21.08-.4.16-.79.02-1.19-.09-.12-.19-.23-.3-.33-.27-.32-.51-.68-.83-.95a2.41 2.41 0 010-.38c.3.43.75.74 1.2 1.06l-1.16-1.37v-.14c.09.06.17.09.25.11.32.35.8.89 1.18 1.09-.26-.3-.59-.77-.86-1.13.08-.04.15-.09.22-.15.31.33.75.77 1.08.99-.28-.36-.64-.83-.92-1.17.07-.08.13-.17.2-.25.32.35.78.86 1.15 1.06-.33-.37-.7-.9-.99-1.23h-.03c.08-.09.15-.17.23-.23.12.2.27.35.47.47l.51.05c-.1.61 0 .64.19 1.13 1.11 1.27 2.59 3.14 3.89 4.19 0 0 1.6 1.71 2.27 3.01-.35-.4-.76-.86-1.09-1.15l1.32 2.03c-.03.08-.06.17-.13.22-.43-.5-1.24-1.59-1.66-1.95l.73 1.36c-.09 0-.18.03-.26.07-.26-.31-.48-.56-.83-.86l.63.99c-.07.06-.14.12-.21.19-.24-.23-.45-.39-.77-.66l.6.81-.01-.02zm-6.76-7.41c-.1-.03-.22-.04-.33-.03-.03-.12-.06-.24-.08-.36.17.15.29.27.41.39zm37.52 20.8c-.1.39-.16.79-.19 1.21h-.11a2.65 2.65 0 01-.16-.17c.12-.36.29-.7.45-1.04m7.14-6.64a8.27 8.27 0 00-.87-.11l1.12-.71c-.06.29-.14.56-.24.83m-7.91 7.25c.2-.72.59-1.36.88-2.04-.45.59-.81 1.07-1.06 1.75l.18.29zm8.22-8.49a8.4 8.4 0 00-1.19 1.12c-.67-.05-1.35.03-1.87.45-.86.67-1.07 1.66-1.32 2.62.12.73.31 1.45.65 2.11.02.14-.19.19-.27.11-.2-.24-.32-.56-.61-.73-.42.03-.86.06-1.16.43l-.41.64c-.36.05-.74.05-.99.35l-.12.3c-.32.42-.58.81-.79 1.3-.2-.26-.36-.54-.49-.84l.06.07c.26-.8.53-1.7 1.06-2.38-.61.57-.97 1.22-1.26 1.93-.03-.08-.05-.15-.07-.23.21-.75.45-1.68.95-2.22-.53.47-.89 1.09-1.05 1.74-.03-.19-.05-.38-.07-.57.18-.59.43-1.23.79-1.57-.32.24-.61.55-.8.9v-.08c.77-2.2 3.05-3.51 4.77-4.95 1.45-.96 2.89-1.9 4.29-2.95v.32c-.45.36-.91.76-1.29 1.21l1.29-.83v.3c-.43.34-.86.72-1.23 1.15l1.22-.78c0 .09 0 .18-.01.26-.44.35-.89.74-1.27 1.19l1.24-.79c-.01.14-.03.28-.05.42zm-8.78-4.98c-.01-.16-.01-.3 0-.44.31-.71.65-1.47 1.19-2.03-.42.31-.74.67-1.01 1.06.76-2.2 3.69-3.25 5.24-4.98.88-.91 2-1.8 2.08-3.1.14-.21.57-.37.77-.5.02.23.05.45.07.69-.44.35-.89.74-1.27 1.19l1.3-.83.02.27c-.44.35-.89.74-1.26 1.18l1.29-.82v.23c-.46.36-.94.78-1.34 1.25l1.37-.88v.35c-.48.37-.98.8-1.39 1.28l1.39-.89c0 .1 0 .21-.01.31-.47.36-.96.79-1.36 1.26l1.34-.86c0 .13-.02.26-.03.38-.46.36-.93.76-1.32 1.22l1.27-.81c-.01.09-.03.18-.04.27-.95 1.68-1.65 1.22-4.72 4.52-.72-.2-1.45-.66-2.13-.22.04-.07-.1.08-.06 0l-.37.4c-.32.27-.56.71-.95.92l-.02-.11c.29-.64.85-1.31 1.17-1.89-.49.52-.89.95-1.2 1.58m-23.25-21.9c.16.81.32 1.73.55 2.53.26.43 1.18.6 1.18.6-.21.15-.45.19-.68.29-1.29.18-1.85-.14-2.37-.37-.17-.13-.39-.28-.39-.51.09-.3.65-.15.6-.51-.08-.6-.38-2.3-.38-2.3.08.03.95.62 1.49.28m-1.69 1.27l.18.71c.06.05-.24.15-.35.19-.11-.19-.29-.75-.38-.94-.08-.03.43-.09.55.04zm3.97-1.85c.61.28.54 1.78.54 1.78l-.33 1.03s-1.03-.79-1.68-.4l-.05-.23c.36-.21.72-.29 1.09-.24l-.37-.09c-.19 0-.58 0-.77.1l-.05-.23c.36-.21.73-.34 1.13-.35l-.02-.03c-.27-.04-.88-.05-1.16.14l-.05-.26c.27-.25.7-.41 1-.35-.2-.07-.34-.07-.58-.07-.24 0-.39.08-.48.18l-.07-.32c.16-.23.85-.42.97-.41-.14-.04-.52-.09-.67-.02-.12.04-.27.08-.35.17l-.03-.15s.3-1.6 1.92-.25m-6.93 2.13l.63-.9-.04-.93-.21-.24s-.23-.02-.27-.07c.06-.17-.04-.1-.05-.26-.03-.06-.06-.16-.12-.27.2-.11.97-.55 1.26-.68.26-.11.52-.21.74-.21.2 0 .36.07.5.29l.03.22c-.17-.12-.42-.13-.58-.12-.21 0-.48.19-.68.28.24-.05.93-.02 1.28-.03l.06.45c-.11-.04-.24-.06-.4-.06-.32.07-.61.11-.91.27.39-.1.92-.03 1.34.02l.03.23v.04c-.43 0-.86 0-1.26.26.52-.14.93-.02 1.3.01l.04.29c-.42 0-.82 0-1.2.26.49-.14.88-.03 1.24 0l.02.12c-.21-.01-.51.04-.89.18-.23-.01-1.43.53-1.84.83m6.2.6l.14.57c-.21-.04-.55-.19-.74-.28-.32-.47.49-.37.59-.28m17.8-1.81c-.13.56-.56 1.33-.14 1.86.2.08.45.12.56.32 0 .64-1.39.91-2.07.91-.15 0-.27-.01-.33-.04-.08-.06-.31-.13-.29-.21.1-.14.77-.64.75-.88.21-.64.44-1.44.61-2.09.02 0 .55.31.92.13m-2.84 2.62c-.05-.07-.27-.16-.22-.27l.72-.31c-.01.13-.45.43-.5.58zm4.07-1.65c-.11.3-.32.53-.44.82-.13-.25-.64-.1-.64-.45.08-.33.69-.51 1.08-.36m-2.41-1.84a1.2 1.2 0 00-.31-.13c-.15-.07-.53-.02-.67.02.1 0 .69.15.92.35l-.08.32c-.09-.08-.23-.14-.44-.14-.24 0-.37 0-.58.07.24-.05.67.13.95.33l-.07.29c-.29-.17-.85-.16-1.12-.12l-.02.03c.38 0 .73.13 1.08.32l-.08.3c-.13-.17-.62-.16-.85-.16l-.37.09c.39-.05.78.05 1.16.29l-.08.3c-.08-.14-.23-.26-.53-.26-.24 0-.38 0-.58.07.27-.06.78.18 1.05.41l-.02.06c-.49-.15-1.01.3-1.39.51 0-.03-.23-.39-.23-.39l-.09-.33v-1.12s.12-.43.13-.54c.56-.74 1.46-1.19 1.94-1 .27.11.26.44.26.44m5.04 2.32c-.19-.13-.59-.39-.88-.53-.27-.17-.63-.36-.96-.37l-.19-.06c-.42-.14-.87-.13-1.27-.08.03-.11.07-.21.1-.32.45.05.92-.19 1.58-.01-.41-.28-.87-.27-1.33-.26-.02-.01-.12.07-.2.15.05-.14.1-.29.15-.43.44.02.9-.19 1.52-.02-.41-.28-.87-.27-1.33-.26-.01 0-.06.02-.11.07l.12-.33c.43-.05 1.02-.14 1.44-.04-.3-.16-.59-.2-.91-.27-.18 0-.33.02-.44.07.04-.09.07-.2.12-.31.22.04 1.15-.02 1.43.04-.2-.08-.46-.27-.68-.28-.17-.01-.45 0-.61.14-.05.01-.09.02-.12.03l.02-.04c.09-.18.18-.26.26-.27h.04c.55-.22 1.91-.4 3.07.57 0 0-.05.11-.09.15-.08.08-.15.18-.18.32-.5.81-.58 1.48-.54 2.01 0 .09-.03.25-.02.33" fill="#46C4DA"/><path d="M27.296 52.95c-.15-.14-.36-.33-.62-.53-.54-.41-1.32-.85-2.29-.95h-6.56s-.26 0-.66-.08-.93-.26-1.45-.61c-1.06-.7-2.12-2.11-2.14-4.93V19.03l26.86-.03v26.96c0 2.87-.8 4.25-1.61 4.91-.4.33-.81.48-1.11.55-.3.07-.51.06-.51.06h-6.56c-1.02 0-1.79.43-2.3.85-.26.21-.45.42-.59.57l-.23.27-.23-.21v-.01z" fill="#EE293D"/><path d="M23.746 19.02h-4.38v32.45h4.38V19.02z" fill="#2E62AE"/><path d="M23.955 19.02h-.43v32.45h.43V19.02zm-4.379 0h-.43v32.45h.43V19.02z" fill="#fff"/><path d="M19.216 19.02h-.22v32.45h.22V19.02zm.55 0h-.22v32.45h.22V19.02zm3.85 0h-.22v32.45h.22V19.02zm.52 0h-.22v32.45h.22V19.02z" fill="#000"/><path fill-rule="evenodd" clip-rule="evenodd" d="M33.615 46.33c.03.2-.55.74-.54.27-.06-.1-.16-.18-.24-.27.23-.09.45-.2.69-.24 0 0 .08.13.09.25m1.55-18.49s.17.02.2.04c.19.13.26.36.16.51-.1.15-.34.16-.53.03-.11-.07-.15-.2-.2-.28-.04-.12-.03-.12-.04-.17 0 0 .22-.15.41-.12m-2.16 9.3c.27.61.72 1.36.26 2.1-.09.14-.4.27-.59.18-.36-.17-.19-.78-.6-1.65 0 0-.19-.5-.52-1.09-.31-1.02-.56-2.07-.71-3.07.37.05.66-.18.9-.48-.25-.22-.37-.54-.56-.8.3-.06.61-.13.71-.51-.16 1.98.35 3.73 1.11 5.32zm-5.82-16.36c.09 1.07-.5 1.67-.5 1.67l-1.02 1.15c.39-.17 1.6-.15 1.6-.15.11-.02.32-.03.38-.05.59-.26 1.36-.18 2.03.06.46-.1 1.35-.16 1.87.17.35.23.49.61.8.74l.49.16c-.03.18-.14.32-.29.45.14.08.41.16.41.16-.03.27-.52.55-.52.55.27.4.11 1.16 0 1.67l-.31-.15c.06.55-.07 1.14-.27 1.6.11.09.26.1.37.19-.14.31-.32.61-.6.74.13.42-.12.89.04 1.34.06.17.11.34.27.46.14-1.24.47-2.35 1.2-3.33.02-.5-.6-.16-.6-.16-.28-.89.83-2.05 1.91-1.13.41-.3 2.3-.5 2.34 1.22.01.47-.24 1.08-.66 1.35-.42.27-1.65.45-2.27-.16-.2.37-.33.75-.48 1.32-.68 2.49.4 4.5 1.31 6.55.45 1.03.73 2.79.06 3.71-.61.85-1.39 1.28-2.49.82-.17.68-.38 1.56-.51 2.26.96.07 1.79-.24 2.54-.77.28-.07.57-.17.81.06.16.2.33.32.42.56.06.24-.07.51-.07.51.37.65.21 1.52.45 2.22.11.3.37.78.11 1.08-.2.26-.49.39-.78.4-.44.29-.72.86-1.16 1.16-.29.26-.58-.12-.88.01-.34.09-.64.59-1.01.25-.21-.08-.34.34-.58.16-.15-.1-.3-.24-.38-.41v-.39c-.15.03-.32-.03-.39-.18l.03-.52c-.3-.11-.33-.46-.41-.7.02-.2.39-.61.53-.79-.19.08-.82.43-1.06.42-.36-.01-.59-.03-.84-.36-.09-.23-.22-.41-.21-.68-.54-.69-.8-1.73-.95-2.61-.95.19-1.95.28-2.96.32-.16.85-.65 1.54-1.02 2.3.06.36.17.56.05 1.12-.3.32-.66.41-1.05.42-.23.35-.49.9-.93 1.02-.34.07-.49.58-.84.66-.31.04-.66.23-.91-.08-.18-.22-.37.15-.54-.07l-.24-.23c-.23.12-.54.33-.8.11-.17-.23-.12-.57-.16-.86-.24-.12-.28-.41-.39-.63-.02-.29.53-.68.05-.83-.14-.06-.13-.22-.13-.22.12-.32.17-.81.58-.9.34.11.5-.24.73-.39.43-.14 1.01-.06 1.25.28l.19.38c.27-.12.54-.21.79-.39.07-1.29 0-2.64.3-3.83-.02-.33-.02-.78.17-1.03.3-.33.66-.41 1.07-.47 1.46-1.29 4.64-1.55 4.64-1.55s-.11-.88-.19-.93c.04.03-1.69-1.15-2.07-.97l-2.7 1.62c-.61.35-1.25.63-1.92.83-.58.15-.45-.19-.75-.37-.12.16-.61.69-1-.1-.18.09-.28.48-.5.18l-.19-.21-.23-.82c.02-.13.18-.3.18-.3s-.45-.73-.17-1.11c-.07-.29-.07-.93-.07-.93 0-.26.51-.46.51-.46l-.32-.92c.71-.26 2.09-.71 2.05-1.5-.04-.76-.41-.89-1.09-1.01 0 0-1.05-.08-1.65.49l-.55-.88c.83-.79 2.17-.92 2.82-.78.71.15 1.7.63 2.04 1.55.71 1.91-1.09 3.06-1.45 3.22.11.22.02.36-.08.57.16.2.38.37.59.52.78-.55 1.44-1.39 2.18-2.05-.06-.49.1-.92.24-1.34-.78-1.3-1.71-2.53-2.36-3.89-.17 0-.32-.02-.44-.15l-.34-.42c-.17-.02-.17.02-.33-.07l-1.81 1.69-.75-.98c.65-.7 1.29-1.27 1.96-1.97-.15-.57.24-1.66.67-1.53-.02-.35.45-.77.71-.83l.13.08c.07-.23.06-.37.42-.51.24-.05.51.1.66.21.79-.71 1.38-1.38 2.16-2.12-.13-.21-.49-.56-.64-.76.41-.49 1.42-1.36 1.42-1.36.71-.42 1.09-.45 1.62-.3.59.16.59.27.64.86m-1.8 2.88l-.36-.36c-.76.73-1.55 1.45-2.29 2.17.18.42.4 1.44.4 1.44s1.23 1.38 1.89 1.92c.14 0 .96-.42 1.02-.45.55-.22.68-.68.78-1.29h-.21c.06 0-1.12.04-1.48.2-.29.14-.29-.88-.28-.9.02-.23.11-.44.1-.46-.28-.47-.19-.86-.19-.9 0-.12-.04-.18-.06-.25-.16-.55-.16-.71.03-.91.24-.24.46-.17.64-.24" fill="#000"/><path fill-rule="evenodd" clip-rule="evenodd" d="M34.056 44.53c-.77.41-1.7.59-2.62.46-.07-.04-.03-.13 0-.17.98.19 2.04-.04 2.84-.6.09-.12-.01.2-.23.31m-2.59-18.9c.23.15.49-.14.64.34.05.17.01.66-.02.83-.2-.49-.23-.6-.92-.73-.18-.03-.18-.14-.15-.28 0 0 .22-.29.23-.38.05.14.09.14.23.2m-1.82 7.04c-.02-.11-.44-.9-.51-1.04-.14-.3-.4-.67-.43-1.34-.02-.52.06-2.11.06-2.11l-.33 1.05c-.15.63-.21 1.07-.16 1.3-.07.57.32 1.48.32 1.48.32.41.89.61 1.06.66m.45-3.22l.25 1.13c.13.47.36.78.68.94 0 0-.23-.38-.21-.59 0 0 .03-.48-.07-.86-.2-.41-.65-.63-.65-.63m-.3-3.5s.1.01.18.02c-.1.88-.19 1.66.04 2.41.11.38.93.73.93.73s-.51-.8-.53-.86c-.28-.39-.39-1.81-.42-2.27.06 0 .12 0 .15.01.07.2.11.37.14.51 0 .14.04.27.11.4.14.27.32.26.5.37.3.17.37.56.37.89l.03-.06v.04c.11-.18.16-.38.16-.59-.02-.65-.65-.64-.95-.99l-.24-.54c.13 0 .25-.04.36-.1.1.45.55.46.77.59.48.37.35 1.2.22 1.73l-.13.47c-.25-.07-.41-.39-.45-.5-.08.08-.03.24-.02.37.07.32.36.52.62.6-.17.3-.53.28-.8.26.16.08.33.25.38.45.07.44-.12.91.04 1.35.06.19.14.37.3.51-.12.19-.36.25-.58.23-.39-.09-.76-.78-.76-.78s.6 1.54 1.07 1.87c-.25.22-.55.07-.73-.12-.34-.34-.41-.87-.76-1.21 0 0-.09-.1-.16-.16l.22.46c.1.66.51 1.23.59 1.3-.53 0-1.13-.25-1.53-.61.07.4.63 1.12.63 1.12-1.91-.39-2.46-1.64-2.73-3.2.01-.34.15-1.5.2-1.79-.35.75-.78 1.5-.66 2.45 0 .31-.25.62-.51.77-.25.16-.55.23-.85.29.28-.21.71-.55.78-.98.06-.62.12-1.23.42-1.74l-.03-.03c-.46.57-.73 1.23-.87 1.94-.23.46-.65.78-1.09.9.26-.27.53-.56.71-.88l-.03-.03c-.23.1-.55.09-.76-.03l-.16-.2c.67-.39.43-1.3.99-1.81.58-.71 1.28-.38 1.91-1.25.36-.39.36-.75.42-1.28.21-.03.43-.19.61-.38-.02.34-.13.74-.34 1.21.24-.31.55-.91.65-1.18.07-.26.09-.46.05-.61.01-.04.02-.08.02-.12.11 0 .21.02.32.02 0 .51.03.7-.01.91-.54.88-.95 2.11-1.22 2.66-.31.9-.12 1.56-.12 1.56.04.48.52 1.12.59 1.19.07.07.54.58.54.58l.35.33-.66-1.06-.25-.67c-.2-.72-.06-1.55.18-2.3.25-.86.49-1.85.97-2.8-.09.1-.17.2-.25.32.04-.14.05-.26.05-.38l.06-.38c.12-.03.24-.09.38-.21.1.07.17.12.24.15-.16 1.49-.5 2.63-.3 3.82 0 0 .14.64.31.88.18.35.71.82.63.71-.34-.45-.61-1.62-.61-1.97 0-.35.02-.65.09-1.02.15-.75.13-1.54-.06-2.39.08.04.17.07.32.1m-1.25 8.2c-.18-.01-.56-.05-.51-.19-.12.2-.13.58-.5.69.14-.4-.05-.57-.16-.87 0 .34-.27 1.15-.58 1.29l.12-.72c.1-1.12-.1-1.22-.11-2.31.29 1.36 1.55 1.9 1.74 2.11zm.37-9.69v.05c-.3-.01-.39-.33-.65-.34-.12.06 0 .15 0 .23.06.06.14.09.2.17-.23.04-.38.05-.65 0-.22-.25-.2-.32-.19-.32-.13.05-.25.14-.4.14.32-.26.7-.55 1.18-.39.21.05.37.28.51.45m.68-.59c.79-.02 1.77-.31 2.19.62.15.15.33.22.51.28-.15.17-.25.24-.34.28.12.14.3.16.45.23-.15.11-.26.17-.41.2-.23.06-.37-.2-.45-.34-.06-.4-.28-.77-.65-.98-.17-.09-.38-.16-.59-.09.36.1.74.39.81.79.03.26-.03.48-.17.67-.34.31-.8.24-1.23.17l-.23-.12c.18-.21.43-.45.51-.73.15-.1.3.04.37.16-.02.18-.06.34-.26.4.2.1.4-.06.51-.2.07-.21 0-.43-.14-.59-.15-.15-.35-.15-.53-.23-.17.49-.65 1.03-1.18 1.13h-.82c0 .3-.06.66-.3.9-.67.54-1.62.05-2.37.48-.1-.21.03-.47.26-.5.59-.16 1.4.13 1.83-.37.12-.24-.07-.45-.26-.56-.66-.12-1.29.09-1.89.14 0-.19-.1-.38-.03-.56.52-.37 1.32-.23 1.92-.23-.05-.16-.25-.2-.39-.25-.27-.07-.57-.1-.88-.09l-.02-.23c-.22.05-.53.26-.65.14-.03-.09-.09-.18-.09-.28.95-.55 2.21-.09 3.21-.51.48 0 .92.09 1.33.26m-2.59 2.08c-.41.32-.91-.18-1.37.04-.1.06-.19.15-.27.24-.11-.3.17-.4.33-.45.46-.16.88.19 1.31.18m-5.37 6.98c-.06.77-.78 1.59-1.46 1.8l-.33-.21-.7.33-.17-.51c.33-.12 1.71-.68 1.81-1.53.15-1.19-.53-1.66-1.38-1.73-.35-.02-.82-.01-1.66.35l-.13-.2c.83-.52 1.76-.65 2.62-.38.9.29 1.48 1.07 1.4 2.07m-1.6 3.31c0 .15-.03.29-.07.42-.13.01-.42-.22-.69-.04.02-.01-.44.23-.56.46-.05 0-.06-.09-.07-.15-.02-.23.06-.41.29-.57-.03.02-.04.03-.04.03s.62-.45.92-.33c.14.06.2.12.23.18m-1.51-.2c.16-.14.33-.22.56-.29.3-.13.59-.16.86-.08.06-.13.09-.22.09-.28-.16-.18-.29-.28-.39-.3-.31.06-.62.19-.93.38-.13.14-.17.32-.19.58m15.42-8.95c.05.05.13.15.17.27.19.51.33 1.35.9 1.5.46.13.83-.15.91-.38.21-.66-.42-.98-.56-1.03-.19-.02-.36 0-.7.11-.03-.1-.12-.21-.13-.32.36-.12.71-.16.99-.13.23.03 1.29.63.6 1.75-.3.5-1.13.47-1.4.42-.77-.16-1.12-.77-1.3-1.44-.09-.53-.62-.28-.62-.28.2-.68.97-.64 1.12-.47m-.46 1.88c-.91 1.55-1.01 3.54-.49 5.4.43 2.01 2.33 3.68 1.45 5.95-.21.61-.94 1.05-1.52 1.05-.34.03-.7-.11-.95-.3-.08.41-.66 2.51-.79 3.2.22.35 1.03.13 1.39.08.8-.17 1.08-.25 1.78-.65.15-.1.37-.07.52.04.1.11.17.22.06.4l-.04.04c.25.59.42 1.21.4 1.93.05.3.12.48.3.82.07.26.04.41-.14.52-.23.08-.52.03-.73.17-.41.34-.47 1.06-1.05 1.09-.33.04-.68-.4-.95.01l.12.12c-.17.14-.43.23-.64.11-.08-.02-.12-.12-.19-.16l-.24.26c-.15-.17-.13-.48-.04-.69.16-.2.35-.36.6-.3.11-.13.26-.36.45-.4.13-.02.24.02.35.08.09.09.09.24.2.31.22-.13.44-.27.64-.45l-.19-.21c-.16 0-.35.28-.45.07-.01-.12-.03-.24-.1-.33.26-.09.41-.2.58-.46.13-.2.21-.58 0-.87.06-.11.22-.17.33-.09.13.18.18.35.18.35.44.04.21-.27.21-.37 0 0-.02-.22-.23-.42-.37 0-.65.31-1 .4-.78.26-2.74.59-2.87.57-.14.34-.83.62-1.05-.01-.02-.13-.03-.16-.03-.19s0-.07-.02-.19c-1.33-1.46-1.26-4.75-1.11-6.68.03-.45.03-.45.06-.73.02-.12-.33-1.18-.33-1.18s.78-.68.95-1.02h-.08c-.69.88-1.39.73-1.39.73.45-.37 1.1-1.01 1.55-1.46-.04-.01-.14 0-.14 0-.65.66-1.43 1.46-1.94 1.17.68-.42 1.69-1.41 1.69-1.41l-.13-.02s-1.15 1.24-1.94 1.1c-.22-.19-.24-.27-.27-.3.24-.33.18.06.23-.34.3 0 .72-.39.82-.7.23.33.57.2.91-.35.27.19.43.09.98-.17l-.33-.51c.4.34 1.16.22 1.42.07l-.37-.37c.16.08.37.09.53.1.17 1.21.4 2.15.76 3.28.38.36.86 1.26.9 2.5.14.22.36.39.6.46.48.08.84-.19 1.07-.66.38-.76-.01-1.64-.28-2.33-1.24-2.24-1.64-5.7-.35-8.03l.18-.26.17.26-.01-.03zm-3.24 9.14l.07.07c-.84.73-.95 2.05-1.12 3.09-.11 1.31.05 3.77.99 3.88.29.03.43-.06.47-.22.09.11-.26.61-.47.64-.33.01-.68-.28-.84-.58-.79-1.73-.41-4.28.07-5.79.03-.07 0-.03.04-.09l-.16-.75.04-.04.26.57c.23-.38.44-.61.65-.79m2.63 9.22c-.21 0-.4.11-.54.24-.04-.04-.09-.19-.16-.1l-.21.15s.05.09.09.12c-.29.02-.48.33-.65.56-.06.02-.15-.02-.13-.11-.01-.28.13-.5.24-.73.19-.17.52-.02.65-.34.15-.08.33-.1.51-.11l.19.32h.01zm-.35-.67c-.18.11-.51-.05-.6.26-.02 0-.08-.05-.11-.08l-.23.17.05.1c-.2-.02-.39.12-.48.32-.01.06-.02.13-.09.16-.13 0-.1-.14-.17-.22.18-.36.81-1.01 1.14-1.01.19 0 .34.15.48.29m-12.28-.86l.12.23c-.23-.03-.6-.07-.81.11l-.12-.17c-.1.07-.22.11-.31.19.06.08.13.24-.02.27-.14.07-.25-.11-.38 0a.215.215 0 01-.15-.1c0-.16.07-.24.15-.32.05-.07.32-.03.41-.08.14-.17.31-.3.47-.37.11-.05.54-.08.66.23m7.59-6.77c-.16.9-.05 1.51-.11 2.45-.5.25-1.73.79-3.23.94-.4.04-.6-.18-.63-.35-.04-.13.03-.38.26-.58-.08.02-.39.14-.37.73.22.36.63.46 1.1.4 1.05-.14 1.88-.27 2.81-.59l.07.73c-1.38.31-2.56.49-4.01.32-.02.55-.1 1.1-.12 1.73.22-.44.28-.78.42-1.27l.44.04c-.11.86-.61 1.56-1 2.29l.1.81c0 .24-.29.34-.44.34-.23 0-.47-.06-.62.22-.27.39-.51.88-.96 1.04-.24.38-.6.52-1 .48-.15-.09-.2-.28-.31-.41-.11.01-.22.02-.3.1.02.04.01.09.01.13-.25.17-.39-.43-.62-.15l-.34.09.02-.5c.27-.41.65-.61 1.08-.64.11 0 .21.1.25.2 0 .08.05.15.11.2.22-.11.45-.22.68-.35 0-.12-.06-.25-.12-.36l-.44.21c-.09-.14-.23-.3-.39-.34l-.32.05c-.05-.08-.07-.18-.15-.26-.1.09-.23.08-.32.18.26.3-.21.24-.28.43-.1.08-.14.21-.22.28-.11 0-.24-.07-.28-.2.04-.23.09-.46.28-.6.29.08.44-.26.68-.35.24-.1.59-.21.83-.03.11.1.1.27.18.38.12-.03.24-.07.34-.14l-.11-.34c.41-.19.84-.33 1.18-.68.08-1.16 0-2.39.24-3.48.04-.08.07-.2.17-.23.17-.07-.07-.32-.1-.38-.22-.84.49-.99.78-.97.1-.02.3.04.3.04-.06-.19.09-.29.22-.37 1.48-.9 2.55-1.03 4.23-1.26m-2.13-3.88s-1.66 1.69-3.74 2.29c-.24.24-.39.47-.81.5.08-.06.17-.08.27-.15.23-.11.38-.3.42-.54 1.87-.19 3.98-2.63 3.98-2.7.05.3-.13.6-.13.6m-5.68 1.97c.03.07.06.14.09.2l.38-.04.05.2c-.03-.29-.42-.62-.09-.88.02-.09-.04-.19-.06-.29.21.21.48.5.81.38l.37-.28 2.31-2.19c.8-.48 1.89-.26 2.54-1.14.11 1.03.03 2.11-.76 2.77-.27.25-.62.32-.91.53-.95.81-2 1.38-3.07 1.91-.36.13-.81.44-1.18.13-.47-.54-.6-.55-.91-.57-.12 0-.21.17-.35.09-.03-.09-.11-.03-.15 0-.13.07-.15.25-.28.29.02-.13-.11-.22-.03-.35.04-.09.25-.17.13-.28-.04-.22.14-.34.28-.48.24-.11.58-.2.82-.01m-.64 1.33c0-.12.11-.22.24-.22s.24.1.24.22-.11.23-.24.23-.24-.1-.24-.23zm1.38-12.13c0 .16.18.3.18.3-.03.15 0 .32.03.46-.2-.01-.53-.15-.57-.33-.02-.13.11-.35-.07-.4v-.61c.07-.26.2-.47.45-.53-.01.3-.04.73-.02 1.1m-.74.69c.07.12.18.12.27.17-.02.2.07.46-.05.58-.12.01-.31-.11-.48-.35-.1-1.02-.1-.97.28-1.39.03.24-.02.59 0 1m4.66 2.16c-.54.51-.48 1.26-.97 1.83-.08.11-.19.16-.32.14.11.33.34.68.66.88l-.25.35-.09-.05-1.8-2.83c-.15-.28-.31-.46-.4-.81.13 0 .36-.46.36-.46l1.37 2.29.04-.09-1.31-2.45.05-.2c.2-.03.43 0 .62-.1l.26-.39s1.18 1.25 1.79 1.88m-6.4.1l-.22-.3 1.37-1.37c-.02.08.02.18.18.4l-1.34 1.27h.01zm3.76-4.21l.15.48 2.78-2.82.53.56 1.07-1.26c.18-.26.26-.62.24-.98-.02-.52-.09-.76-.68-.76-.23 0-.53.06-.93.31l-1.19 1.09.4.43.64-.63s.26-.29.56-.02c.39.35-.11.82-.11.82s.09-.25-.1-.4c-.12-.1-.41.24-.41.24l-2.96 2.93.01.01zm-.34-.29c.01.39.36.84.09 1.19-.2.19.03.37.05.57-.1.08-.27.1-.39.05-.1-.12-.2-.32-.35-.34-.09-.21.17-.4-.02-.59.02-1.26.28-.98.62-.87m.77 2.57c-.3.12-.76-.03-.86.43-.07.2-.1.45-.26.59-.13.06-.27.09-.4 0-.47-.46-.18-.15-.19-.79.14 0 .32.12.55-.02.03-.2.07-.39.04-.57.1 0 .29.05.41.07.2-.07.37-.13.48-.45.06-.3-.11-.3.23-.66.15.4.35 1.04 0 1.41m3.57 5.51c-.65.6-1.6.43-2.26 1.01.06-.41.57-.58.88-.78.09-.04.2-.06.26-.14l-1.13.28c.09-.2.27-.4.45-.49.84-.01 1.64-.15 2.24-.77.08.38-.19.68-.45.89m-.31-3.3c-.54.39-.21 1.29-.87 1.6-.16.09-.35.14-.55.14.77-.37.54-1.53 1.4-1.76h.01l.01.02z" fill="#FEBF49"/></svg>