<svg width="53" height="68" fill="none" xmlns="http://www.w3.org/2000/svg"><path fill-rule="evenodd" clip-rule="evenodd" d="M10.986 37.478v3.2h1.92v-.64h-1.28v-2.56h-.64zm2.561 0v3.2h1.92v-.64h-1.28v-.64h1.28v-.64h-1.28v-.64h1.28v-.64h-1.92zm4.159.64v.64h.64c.18 0 .32.14.32.32s-.14.32-.32.32h-.64v.64h.64a.96.96 0 000-1.92h-.64zm.64-1.28c-1.24 0-2.24 1-2.24 2.24 0 1.24 1 2.24 2.24 2.24 1.24 0 2.24-1 2.24-2.24 0-1.24-1-2.24-2.24-2.24zm0 .64c.88 0 1.6.72 1.6 1.6 0 .88-.72 1.6-1.6 1.6-.88 0-1.6-.72-1.6-1.6 0-.88.72-1.6 1.6-1.6z" fill="#6A489D"/><path fill-rule="evenodd" clip-rule="evenodd" d="M21.227 37.478v3.2h.64v-2.01l1.28 2.01h.63v-3.2h-.63v2.01l-1.28-2.01h-.64z" fill="#EE332E"/><path d="M25.066 37.478h-.64v3.2h.64v-3.2z" fill="#6A489D"/><path fill-rule="evenodd" clip-rule="evenodd" d="M25.696 37.478v3.2h1.6c.53 0 .96-.43.96-.96v-1.28a.96.96 0 00-.96-.96h-1.6zm.64.64h.96c.18 0 .32.14.32.32v1.28c0 .18-.14.32-.32.32h-.96v-1.92zm5.76-.64l-.64.64h.96c.18 0 .32.14.32.32s-.14.32-.32.32a.96.96 0 00-.96.96v.96h1.92v-.64h-1.28v-.32c0-.18.14-.32.32-.32a.96.96 0 000-1.92h-.32zm4.16-.629c-1.24 0-2.24 1-2.24 2.24 0 1.24 1 2.24 2.24 2.24 1.24 0 2.24-1 2.24-2.24 0-1.24-1-2.24-2.24-2.24zm0 .64c.88 0 1.6.72 1.6 1.6 0 .88-.72 1.6-1.6 1.6-.88 0-1.6-.72-1.6-1.6 0-.88.72-1.6 1.6-1.6zm2.881.629v2.56h.64v-3.2l-.64.64zm1.279-.64v1.92h.96c.18 0 .32.14.32.32s-.14.32-.32.32h-.96l.64.64h.32a.96.96 0 000-1.92h-.32v-.64h1.28v-.64h-1.92z" fill="#6A489D"/><path d="M13.646 17.998c-.73-.3-1.49-.91-2.32-1.69-.42.31-.89.73-1.36 1.14-.73.65-1.43 1.28-1.89 1.41-.17.05-.38.05-.55 0-.12-.04-.24-.09-.37-.15-.14.55.55 1.46 1.28 2.42.26.35.53.7.76 1.04v7.44c-.1.14-.18.3-.22.46-.07.3-.03.64.18 1.05v.02l.01.02c0 .09.01.17.01.26v.24c-.02.39-.11.71-.25.95-.16.27-.39.42-.62.49-.09.02-.18.03-.27.04-.47.04-.87 0-1.2-.17-.18-.09-.34-.22-.47-.38.13.59.34 1.27.66 2.05.52 1.27.91 2.55 1.18 3.86.26 1.31.4 2.64.38 4.03-.02 1.37-.25 2.7-.48 4.03-.07.41-.14.83-.21 1.22-.2 1.29-.46 3.15-.42 4.98.03 1.81.35 3.59 1.28 4.73.2.25.43.46.68.65.25.19.51.36.78.51.57.31 1.04.62 1.48.99.44.37.83.79 1.24 1.33.15.19.32.4.51.6l-.07-.92c-.05-.41.09-.86.3-1.21.33-.52.88-.9 1.58-1.09.7-.19 1.54-.19 2.47 0 .87.19 1.82.57 2.77 1.16.32.17.64.32.95.47.31.14.61.27.9.38.58.23 1.13.39 1.63.49v-1.91c.6-.01 1.2.05 1.74.32.29.15.66.41.81.73.02.05.07.21.07.32v5.09c0 .28-.09.36-.31.51-.65.44-1.91.65-3.34.4-.32-.06-.66-.14-.99-.24-.34-.1-.68-.24-1.02-.39-.96-.45-2.14-.95-3.16-1.19-.79-.18-1.48-.21-1.88.07l-.02.23c-.01.16-.02.32-.04.45v.02c-.04.12-.09.25-.13.36-.39.9-1.02 1.39-1.77 1.59-.74.2-1.59.1-2.41-.16a8.75 8.75 0 01-.66-.24c-.85-.37-1.54-1.12-2.21-1.86-.14-.15-.27-.3-.41-.45-.66-.71-1.44-1.31-2.22-1.91-1.38-1.06-2.76-2.13-3.51-3.78-.4-.89-.69-1.86-.88-2.86-.19-1-.27-2.04-.29-3.1-.04-1.87.3-3.68.64-5.48.3-1.63.61-3.25.62-4.9.01-.96-.11-1.9-.33-2.83a19.2 19.2 0 00-.89-2.72c-.11-.28-.22-.59-.31-.93-.09-.34-.18-.71-.24-1.09-.34-1.96-.27-4.34.74-5.61.64-.8 1.12-.76 1.97-.68l.18.02c.34.03.7.07 1.06.11l.16.02c.14-.95.16-1.77.07-2.46-.1-.71-.32-1.29-.64-1.75-.34-.47-.73-.88-1.12-1.28-.59-.61-1.18-1.22-1.6-2.07-.4-.82-.58-1.6-.51-2.28.03-.26.09-.51.2-.75.13-.3.39-.61.62-.84.46-.44 1.27-.83 2.08-1.22.47-.22.93-.45 1.32-.67-.07-.05-.13-.11-.19-.17-.3-.3-.51-.62-.61-.95-.26-.82.14-1.35.65-1.85.44-.44 1.42-.66 2.56-.93 1.02-.24 2.18-.51 3.19-.99h.04c.81-.07 2.03 1.06 3.29 2.22 1.16 1.07 2.35 2.17 3.21 2.34v2.93h-3.83l-.03-.04z" fill="#000"/><path d="M10.076 14.809c1.67 1.69 3.06 3.08 4.33 3.19h3.07v-2.74c-.92-.17-2.15-1.29-3.34-2.39-1.22-1.13-2.41-2.22-3.14-2.18-1.02.48-2.18.75-3.21.99-.92.22-1.72.4-2.2.68.37-.08.8-.03 1.28.14.81.28 1.76.9 2.74 1.85.06.06.12.12.18.17l.28.29h.01zm1.11 1.37c-.4-.38-.81-.8-1.25-1.23l-.28-.28a2.81 2.81 0 00-.18-.17c-.97-.93-1.89-1.54-2.67-1.81-.61-.21-1.12-.21-1.51-.01-.55.29-.76.98-.57 1.56.27.87 1.17 1.42 1.98 1.69.09.03.17.06.25.09.54.22 1.02.54 1.32.92.31.4.44.86.28 1.35-.02.05-.04.11-.07.16.38-.26.86-.69 1.35-1.12.45-.4.92-.82 1.34-1.13m-4.53-.09a4.05 4.05 0 01-1.14-.57c-.41.25-.9.48-1.4.72-.62.3-1.24.6-1.69.91.49-.17 1.06-.18 1.61-.1.2.03.4.07.6.13.19.05.37.12.54.19.44.18.87.45 1.27.7.36.22.78.54 1.2.62.32.06.58-.12.7-.4.01-.03.02-.05.03-.08.14-.42.03-.82-.25-1.17-.28-.36-.73-.66-1.24-.86l-.24-.09m1.63 13.1c.53.45.44 1.04-.28 1.78-.23.2-.39.39-.51.57-.11.17-.17.34-.17.5a.9.9 0 00.2.63c.09.11.21.18.34.22.13.04.27.04.4 0 .19-.05.37-.18.51-.41.13-.21.21-.5.23-.86v-.22c0-.07 0-.15-.01-.23-.22-.44-.27-.82-.19-1.16.06-.26.21-.5.4-.72v-6.81c-.26-.41-.59-.85-.91-1.27-.77-1.01-1.51-1.98-1.3-2.62-.2-.11-.41-.24-.63-.38-.4-.25-.82-.51-1.25-.69-.16-.07-.33-.13-.52-.18-.18-.05-.38-.09-.57-.12-.99-.15-2.08.03-2.51.97-.1.22-.16.46-.18.69-.07.64.1 1.39.49 2.17.41.83.99 1.43 1.57 2.03.39.41.79.82 1.13 1.3.35.48.58 1.09.68 1.83.1.71.08 1.54-.07 2.51.57.07 1.15.13 1.72.13.57 0 .98-.07 1.43.32m-.76 3.74c-.05-.04-.1-.09-.15-.14-.16-.18-.26-.44-.25-.76 0-.19.08-.39.2-.59.12-.19.3-.4.54-.6.59-.61.69-1.1.3-1.48-.52-.5-1.04-.11-1.41.32a2.3 2.3 0 00-.49 1.07c-.06.35-.07.76-.01 1.24.14.39.36.64.65.78.18.09.38.14.61.16m8.51 28.99c-.26.3-.6.55-1.01.58-.11 0-.23 0-.34-.02-.39-.07-.75-.29-1.07-.56-.32-.27-.59-.59-.82-.89-.4-.52-.78-.94-1.21-1.29-.42-.36-.89-.66-1.45-.97-.27-.15-.55-.32-.8-.52-.26-.2-.5-.43-.71-.68-.96-1.18-1.29-2.99-1.33-4.84-.03-1.84.22-3.71.42-5.01.07-.42.14-.83.21-1.23.23-1.32.46-2.65.47-4 .02-1.37-.12-2.7-.38-3.99-.26-1.3-.66-2.56-1.17-3.82-.72-1.75-.92-3.03-.74-3.96.14-.77.54-1.3 1.11-1.66-.77.03-1.62-.07-2.45-.17-.36-.04-.71-.08-1.05-.11l-.18-.02c-.79-.07-1.23-.11-1.81.61-.97 1.23-1.03 3.54-.7 5.46.06.38.14.74.24 1.07.09.33.19.64.3.91.37.9.68 1.82.9 2.75.22.94.35 1.89.33 2.87-.02 1.66-.32 3.29-.63 4.93-.33 1.79-.67 3.59-.64 5.44.02 1.05.11 2.08.29 3.07.18.99.46 1.93.86 2.81.73 1.61 2.09 2.66 3.45 3.71.78.61 1.57 1.21 2.25 1.93.14.15.28.3.42.46.66.73 1.33 1.47 2.14 1.82.21.09.42.17.64.24.8.25 1.61.34 2.31.16.69-.18 1.28-.64 1.64-1.48.05-.11.09-.22.12-.34l.03-.43c.06-.76.13-1.76.34-2.81m8.14-1.08c.7.12 1.29.09 1.75-.12.15-.07.27-.15.35-.23.07-.07.11-.15.12-.22a.41.41 0 00-.04-.24.827.827 0 00-.21-.27h-.01v-.01a2.26 2.26 0 00-.5-.36c-.44-.23-.96-.31-1.47-.31v1.76h.01zm2.23-.22c-.1.1-.23.19-.41.27-.86.39-2.17.2-3.71-.4-.3-.11-.6-.25-.91-.39-.31-.14-.63-.3-.95-.47-.94-.58-1.86-.95-2.72-1.14-.9-.2-1.72-.19-2.39-.01-.66.18-1.17.52-1.47 1.01-.11.18-.2.39-.25.61-.05.21-.05.42-.01.58.03.1.07.19.13.26s.14.11.24.13c.11.02.23.02.39-.02.14-.03.28-.1.44-.19.36-.2.75-.59 1.22-.4.45.19.36.83.28 1.2-.2.94-.29 1.87-.36 2.62.46-.23 1.14-.2 1.9-.02 1.03.24 2.22.74 3.19 1.2a7.155 7.155 0 001.96.62c1.52.26 2.83 0 3.36-.5.04-.04.06-.07.06-.13v-4.84l.01.01zm-12.75 1.08c.3.27.66.51 1.06.59.36.07.7-.04.98-.29.25-.23.44-.48.46-.82.01-.22-.04-.47-.22-.54-.37-.15-.78.23-1.06.39-.36.2-.91.4-1.27.07l.05.61v-.01z" fill="#DA2926"/><path d="M17.477 15.569c-1.04-.16-2.31-1.34-3.55-2.48-.81-.75-1.61-1.49-2.22-1.85-.26-.16-.57-.32-.89-.46.07-.03.13-.06.2-.09.73-.05 1.91 1.05 3.14 2.17 1.19 1.1 2.41 2.23 3.34 2.39v.32h-.02zm0 .63c-1.26-.14-2.63-1.41-3.97-2.65-.73-.68-1.46-1.34-1.94-1.69-.4-.28-.89-.59-1.41-.84.13-.04.26-.09.38-.14.42.22.83.48 1.17.74.54.4 1.27 1.03 2 1.7 1.29 1.19 2.61 2.41 3.76 2.57v.32l.01-.01zm-9.95-4.46c.85.36 1.79 1.01 2.75 1.94.16.15.31.31.47.47.89.9 1.69 1.7 2.38 2.24 1.13.88 1.79 1.23 3.29 1.62h-.28l-.39-.02c-1.23-.18-1.87-.63-2.81-1.35-.72-.55-1.52-1.36-2.41-2.26l-.47-.47c-1.05-1.02-2.09-1.69-2.98-1.99l-.09-.03c.17-.04.35-.09.54-.13m-1.16.31c.2.03.4.08.61.15.85.29 1.84.94 2.86 1.92.16.15.31.31.46.46.9.91 1.72 1.73 2.46 2.3.81.62 1.61 1.12 2.67 1.11h-1.03c-1.27-.11-2.65-1.5-4.33-3.19-.15-.15-.3-.31-.46-.46-.99-.95-1.93-1.57-2.74-1.85-.48-.17-.91-.21-1.28-.14.2-.12.46-.22.77-.32m.62.69c-1.29.12-1.45.9-1.35 1.2.18.56.88.91 1.38 1.08.12.04.22.08.3.11.69.28 1.3.7 1.71 1.21.29.37.47.89.44 1.3-.1.09-.17.16-.27.24.08-.46-.12-.98-.41-1.35-.37-.47-.94-.86-1.58-1.11-.08-.03-.18-.07-.29-.1-.61-.2-1.37-.62-1.58-1.29-.14-.44.09-1.18 1.08-1.47.13.03.27.06.41.11.06.02.11.04.17.06m-1.18-.21c-.61.31-.98.93-.77 1.6.24.77 1.07 1.25 1.78 1.49.1.03.19.06.27.1.59.24 1.11.59 1.45 1.02.32.4.46.91.34 1.42-.13.11-.26.2-.37.28.03-.05.05-.1.07-.16.16-.49.03-.95-.28-1.35-.3-.38-.78-.7-1.32-.92-.08-.03-.16-.06-.25-.09-.82-.27-1.71-.82-1.98-1.69-.09-.3-.1-.59 0-.86.16-.49.57-.8 1.08-.84m-2.59 4.17c.29-.01.59 0 .87.05.21.03.43.08.63.13.2.06.39.13.57.2.47.2.91.47 1.32.73.35.22.68.42.94.53.34.13.62.18.82-.12 0 .02-.02.05-.03.07l-.06.12c-.02.04-.05.07-.08.1-.14.16-.36.24-.64.16-.32-.1-.7-.34-1.12-.6-.4-.25-.83-.52-1.27-.71-.17-.07-.35-.14-.54-.19-.19-.05-.39-.1-.6-.13-.54-.08-1.11-.07-1.6.1.22-.16.49-.31.78-.46m1.1-.54c.45.08.87.2 1.23.35.52.22.97.51 1.4.77.77.44 1.18.7 1.47.4.01.08.02.16.01.25-.33.27-.7.22-1.65-.38-.42-.26-.87-.54-1.36-.75-.46-.2-1.03-.34-1.62-.39.11-.05.22-.1.32-.15l.19-.09.01-.01zm4.88 7c-.3-.55-.75-1.19-1.16-1.73-.85-1.11-1.65-2.18-1.33-2.97.09.06.19.11.28.16-.21.63.53 1.61 1.3 2.62.32.42.65.86.91 1.27v.65zm0 1.56h-.02c-.06-.6-1-2.06-1.64-2.91-.99-1.31-1.94-2.56-1.37-3.68l.19.12.08.05c-.45.96.43 2.12 1.35 3.33.45.6 1.04 1.42 1.41 2.21v.89-.01zm-5.3-7.48c-.79.3-1.56 1.02-1.64 1.77-.05.46.09 1.03.4 1.66.34.7.87 1.25 1.4 1.79.42.43.84.87 1.22 1.41.43.61.72 1.36.84 2.25.11.78.09 1.69-.07 2.73-.1 0-.21-.02-.31-.03.15-1.01.17-1.9.07-2.66-.11-.84-.38-1.54-.79-2.11-.37-.52-.78-.95-1.2-1.37-.55-.57-1.09-1.13-1.46-1.87-.34-.68-.48-1.31-.43-1.83.07-.73.63-1.37 1.31-1.77.21-.01.43 0 .64.03h.02zm-1.29.07c-.53.43-.91 1.01-.98 1.64-.06.58.1 1.27.46 2 .39.79.95 1.37 1.51 1.95.4.42.81.83 1.17 1.34.38.53.62 1.18.73 1.97.1.74.08 1.6-.07 2.59l-.31-.03c.14-.96.16-1.8.07-2.51-.1-.74-.33-1.35-.68-1.83-.34-.48-.74-.89-1.13-1.3-.58-.6-1.16-1.2-1.57-2.03-.39-.79-.56-1.53-.49-2.18.04-.38.16-.71.38-1.02.23-.29.55-.48.91-.58m4.71 14.79c.39.14.78.03.74-.65-.05-.13-.1-.26-.13-.38.09-.08.17-.17.25-.26.04.18.1.37.19.56.05 1.08-.54 1.18-1.04.89v-.15m.86-2.98c.15-.25.35-.49.58-.7.15-.14.29-.25.43-.34v.39c-.07.06-.15.12-.22.19-.23.2-.42.42-.56.67a1.14 1.14 0 00-.23-.2m-.84 3.24c.35.44.81.54 1.15-.02.19-.31.2-.71.18-1.06-.14-.29-.22-.59-.22-.87.16-.27.21-.52.15-.74.12-.28.32-.54.58-.78h.01v.43c-.2.21-.34.45-.4.71-.08.34-.04.72.19 1.16 0 .08.01.16.01.23v.23c-.02.36-.1.65-.23.86-.11.18-.24.3-.39.36-.11.05-.24.07-.35.07-.12 0-.23-.04-.33-.11a.783.783 0 01-.29-.33s-.04-.09-.06-.14zm-2.93-3.49c-1.11.05-1.69.54-2.17 1.44-.57 1.07-.56 2.86-.29 4.4.06.36.14.69.21.98.08.28.17.55.27.8.38.94.71 1.9.94 2.89.23 1 .37 2.03.36 3.09-.02 1.75-.33 3.42-.64 5.1-.32 1.74-.65 3.5-.62 5.25.02.99.1 1.97.28 2.91.17.91.42 1.79.79 2.6.63 1.4 1.9 2.37 3.17 3.35.8.62 1.61 1.24 2.33 2.01l.02.03c.17.18.3.32.43.46.59.65 1.19 1.31 1.82 1.58.17.07.36.14.56.21.64.2 1.27.28 1.79.14.4-.1 1.33-.51 2.08-1.83-.01.17-.03.33-.04.48v.05c-.53.95-1.48 1.48-1.96 1.6-.58.15-1.27.07-1.96-.15-.2-.06-.4-.14-.58-.21-.69-.3-1.31-.98-1.93-1.66-.13-.14-.26-.29-.42-.46v-.02h-.02c-.71-.75-1.51-1.37-2.31-1.98-1.3-1-2.6-2-3.26-3.47-.38-.84-.64-1.74-.82-2.67-.18-.96-.26-1.95-.28-2.96-.03-1.79.3-3.56.63-5.32.31-1.66.62-3.32.64-5.04.01-1.04-.12-2.04-.35-3.02-.23-.97-.55-1.91-.93-2.84-.11-.26-.2-.54-.28-.84-.08-.3-.16-.64-.22-1.01-.27-1.57-.27-3.41.31-4.55.38-.76.94-1.36 1.91-1.39l.56.06m2.09.2c-.51.38-.9.89-1.02 1.55-.19 1.04.02 2.43.78 4.31.5 1.23.89 2.46 1.14 3.71.25 1.25.38 2.54.37 3.86-.01 1.29-.24 2.6-.47 3.9-.06.35-.12.7-.2 1.23-.21 1.32-.47 3.23-.43 5.11.04 1.97.4 3.93 1.47 5.23.24.29.52.55.82.78.29.22.59.41.89.58.53.29.96.57 1.35.9.38.32.74.7 1.11 1.19.25.33.55.68.91.99.8.67 1.85 1 2.69.38-.02.11-.03.23-.04.34-.91.56-1.91.33-2.85-.48-.38-.32-.7-.7-.96-1.04-.36-.48-.7-.84-1.06-1.14-.37-.31-.78-.58-1.3-.86-.31-.17-.62-.37-.93-.6a4.83 4.83 0 01-.86-.83c-1.12-1.37-1.5-3.39-1.54-5.42-.03-1.91.23-3.83.44-5.17.09-.58.15-.91.21-1.24.22-1.29.45-2.59.46-3.85.01-1.31-.11-2.57-.36-3.8a20.95 20.95 0 00-1.12-3.65c-.79-1.93-1-3.38-.8-4.48.12-.67.5-1.15.99-1.52.11 0 .22.01.33.02m-3.19-.31c-.19-.02-.39-.03-.58 0h-.05c-.46.07-.79.39-1.05.75-.89 1.25-.94 3.49-.62 5.35.06.38.14.74.24 1.07.09.33.19.64.3.91.37.9.68 1.82.9 2.75.22.93.35 1.89.33 2.87-.02 1.66-.32 3.29-.63 4.93-.34 1.79-.67 3.58-.64 5.44.02 1.05.11 2.08.29 3.07.18.99.46 1.94.86 2.82.73 1.61 2.09 2.66 3.45 3.71.79.61 1.57 1.21 2.24 1.93.14.15.28.3.41.45.66.73 1.33 1.47 2.15 1.82.21.09.42.17.64.24.79.25 1.61.34 2.31.16.91-.24 1.49-.95 1.77-1.82-.32.74-1.24 1.36-1.85 1.52-.64.17-1.39.08-2.14-.15-.21-.07-.42-.14-.61-.23-.75-.32-1.4-1.03-2.04-1.74-.13-.15-.27-.29-.42-.46v-.01c-.69-.73-1.49-1.35-2.28-1.95-1.33-1.03-2.66-2.05-3.35-3.59-.39-.86-.66-1.78-.84-2.74-.18-.97-.27-1.99-.29-3.02-.03-1.82.3-3.6.63-5.38.31-1.65.61-3.29.63-4.98.01-1.01-.11-1.99-.34-2.95-.22-.95-.54-1.88-.92-2.8-.11-.27-.2-.56-.29-.88-.09-.32-.16-.67-.23-1.04-.32-1.85-.27-4.07.63-5.22.47-.6.78-.79 1.35-.82m3.56.32c-.53.36-.95.89-1.08 1.6-.18.99.02 2.32.76 4.13.51 1.25.9 2.5 1.15 3.77.26 1.27.39 2.58.37 3.92-.01 1.32-.24 2.64-.47 3.95-.06.38-.13.75-.21 1.23-.21 1.31-.46 3.2-.43 5.06.03 1.91.38 3.8 1.39 5.04.23.28.49.52.76.73.27.21.56.39.85.55.55.3 1 .6 1.4.93.4.34.77.73 1.16 1.24.24.31.53.65.87.94.72.62 1.79.97 2.54.28l.09-.51c-.01.02-.03.03-.04.05-.3.33-.68.56-1.13.53-.47-.03-.9-.29-1.25-.58-.32-.27-.59-.59-.82-.89-.4-.52-.78-.94-1.21-1.29-.42-.36-.89-.66-1.45-.97-.27-.15-.55-.32-.8-.52-.26-.2-.5-.42-.71-.68-.96-1.18-1.29-2.99-1.33-4.84-.03-1.84.22-3.71.43-5.01.07-.42.14-.82.21-1.22.23-1.32.46-2.65.47-4 .02-1.37-.12-2.69-.38-3.99-.26-1.3-.66-2.56-1.17-3.82-.72-1.75-.92-3.03-.75-3.96.14-.75.53-1.28 1.12-1.66h-.34m19.53 32.34s-.1.05-.15.07c-1.03.47-2.5.27-4.19-.39-.32-.12-.63-.26-.95-.4-.3-.14-.63-.3-.98-.49h-.01l-.04-.02c-.87-.54-1.73-.88-2.52-1.05-.8-.18-1.52-.17-2.09-.02-.84.22-1.71 1.07-1.27 2 .1-.02.15-.03.24-.08-.34-.73.49-1.46 1.11-1.62.53-.14 1.2-.14 1.95.02.76.17 1.58.5 2.42 1.02l.05.03h.01c.36.19.7.36.99.5.32.15.64.28.97.41 1.77.69 3.33.89 4.44.38h.02v-.36zm0-.37c-.08.05-.17.11-.28.15-.94.43-2.34.23-3.95-.39a12.4 12.4 0 01-.93-.4c-.31-.14-.63-.3-.97-.48h-.02c-.9-.57-1.79-.93-2.62-1.11-.85-.19-1.62-.18-2.24-.01-.95.25-2 1.24-1.42 2.29-.46-.09-.45-.63-.38-.98.05-.22.13-.43.25-.61.3-.48.81-.83 1.47-1.01.67-.18 1.49-.19 2.39.01.85.19 1.78.56 2.72 1.14a20.976 20.976 0 001.87.86c1.54.6 2.85.79 3.71.4.18-.08.31-.18.4-.29v.429zm-10.45 2.91c.52-.18 1.2-.14 1.94.03 1.06.25 2.26.76 3.25 1.22.32.15.64.27.95.37.31.1.63.17.93.22 1.48.26 2.47.14 3.37-.58v.17c0 .08.01.14-.05.2-.12.12-.28.22-.48.31-.8.37-1.72.41-2.9.2a7.155 7.155 0 01-1.96-.62c-.97-.45-2.16-.96-3.19-1.2-.76-.18-1.44-.21-1.9.02l.03-.36m.07-.68c.58-.13 1.28-.08 2.01.1 1.1.26 2.35.79 3.37 1.26.29.13.58.24.87.34.28.09.57.16.85.2 1.61.28 2.35.16 3.27-.81v.44c-.89.83-1.78.95-3.32.68-.3-.05-.6-.12-.89-.21-.3-.1-.61-.21-.91-.35-1-.47-2.23-.99-3.31-1.24-.74-.17-1.42-.22-1.98-.07.01-.11.02-.22.04-.34zm9.79-3.77c.2.12.44.32.54.54.04.08.05.16.04.24-.01.05-.03.11-.07.16-.43-.76-1.28-1.02-2.09-1.04h-.06v-.31c.57 0 1.15.11 1.64.41zm.02 1.27s.06-.02.09-.04c.07-.03.14-.07.2-.11-.44-.61-1.17-.88-1.94-.9v.31c.64.02 1.28.23 1.66.73m-12.18.95c.45.31 1.13.09 1.53-.19.39-.26.69-.31.84-.15.07-.42-.21-.57-.64-.31-.05.03-.1.07-.16.1-.44.32-1.06.53-1.59.31l-.03-.37s.02.01.02.02c.35.3.88.11 1.24-.09.28-.15.68-.54 1.06-.39.19.08.24.32.22.54-.01.24-.11.44-.25.61.14-.41-.4-.11-.54-.02-.29.2-.67.36-1.04.39-.24-.11-.46-.28-.66-.46m-5.79-32.55c.12.05.22.11.31.2.39.38.29.87-.3 1.48-.24.21-.42.41-.54.6-.18.29-.26.63-.16.96.05.2.16.38.32.51l.03.03a1.47 1.47 0 01-.49-.11c-.17-.27-.23-.54-.21-.81.03-.37.21-.72.46-1 .02-.03.05-.05.08-.08.3-.29.55-.56.67-.81.18-.36-.04-.59-.36-.72.14.21.12.43 0 .66-.16.31-.52.6-.76.87-.37.42-.52 1.09-.31 1.61-.13-.14-.24-.32-.32-.54-.02-.14-.03-.28-.03-.41.08-.35.25-.73.49-.93.3-.28.54-.53.66-.74.14-.27 0-.46-.24-.59.22-.16.47-.25.72-.16" fill="#F3EB3D"/><path d="M39.676 17.998c.73-.3 1.49-.91 2.32-1.69.42.31.89.73 1.36 1.14.73.65 1.43 1.28 1.89 1.41.17.05.38.05.55 0 .12-.04.24-.09.37-.15.14.55-.55 1.46-1.28 2.42-.26.35-.53.7-.76 1.04v7.44c.1.14.18.3.22.46.07.3.03.64-.18 1.05v.02l-.01.02c0 .09-.01.17-.01.26v.24c.02.39.11.71.25.95.16.27.39.42.62.49.09.02.18.03.27.04.47.04.87 0 1.2-.17.18-.09.34-.22.47-.38-.12.59-.34 1.27-.65 2.05-.52 1.27-.91 2.55-1.18 3.86-.27 1.31-.4 2.64-.38 4.03.02 1.37.25 2.7.48 4.03.07.41.14.83.2 1.22.21 1.29.46 3.15.42 4.98-.03 1.81-.35 3.59-1.28 4.73-.2.25-.43.46-.68.65-.25.19-.51.36-.78.51-.57.31-1.05.62-1.48.99-.44.37-.83.79-1.24 1.33-.15.19-.32.4-.51.6l.07-.92c.05-.41-.09-.86-.3-1.21-.33-.52-.88-.9-1.58-1.09-.7-.19-1.55-.19-2.48 0-.87.19-1.82.57-2.77 1.16-.32.17-.63.32-.95.47-.31.14-.61.27-.9.38-.58.23-1.13.39-1.62.49v-1.91c-.6-.01-1.2.05-1.74.32-.29.15-.66.41-.81.73-.02.05-.06.21-.06.32v5.09c0 .28.09.36.31.51.65.44 1.91.65 3.34.4.32-.06.65-.14.99-.24.34-.1.68-.24 1.02-.39.96-.45 2.14-.95 3.16-1.19.79-.18 1.48-.21 1.88.07l.02.23c.01.16.02.32.03.45v.02c.04.12.09.25.14.36.39.9 1.02 1.39 1.77 1.59.74.2 1.59.1 2.41-.16.22-.07.44-.15.66-.24.85-.37 1.54-1.12 2.21-1.86.14-.15.27-.3.41-.45.66-.71 1.44-1.31 2.22-1.91 1.38-1.06 2.76-2.13 3.51-3.78.4-.89.69-1.86.87-2.86.19-1 .28-2.04.29-3.1.04-1.87-.3-3.68-.64-5.48-.3-1.63-.61-3.25-.63-4.9-.01-.96.11-1.9.33-2.83.22-.92.53-1.83.89-2.72.11-.28.22-.59.31-.93.09-.34.18-.71.24-1.09.34-1.96.27-4.34-.74-5.61-.64-.8-1.12-.76-1.97-.68l-.18.02c-.34.03-.7.07-1.06.11l-.16.02c-.14-.95-.16-1.77-.07-2.46.1-.71.32-1.29.64-1.75.34-.47.73-.88 1.12-1.28.59-.61 1.18-1.22 1.6-2.07.4-.82.58-1.6.51-2.28-.03-.26-.09-.51-.2-.75-.13-.3-.39-.61-.62-.84-.46-.44-1.28-.83-2.08-1.22-.47-.22-.93-.45-1.32-.67.07-.05.13-.11.19-.17.31-.3.51-.62.61-.95.26-.82-.14-1.35-.65-1.85-.44-.44-1.42-.66-2.56-.93-1.02-.24-2.18-.51-3.19-.99h-.04c-.81-.07-2.03 1.06-3.29 2.22-1.16 1.07-2.35 2.17-3.21 2.34v2.93h3.83l.04-.04z" fill="#000"/><path d="M43.246 14.809c-1.67 1.69-3.06 3.08-4.33 3.19h-3.07v-2.74c.92-.17 2.15-1.29 3.34-2.39 1.22-1.13 2.41-2.22 3.14-2.18 1.02.48 2.18.75 3.21.99.92.22 1.72.4 2.2.68-.37-.08-.8-.03-1.28.14-.81.28-1.76.9-2.74 1.85-.06.06-.12.12-.18.17l-.28.29h-.01zm-1.11 1.37c.4-.38.81-.8 1.25-1.23l.28-.28c.06-.06.12-.12.18-.17.97-.93 1.89-1.54 2.67-1.81.61-.21 1.12-.21 1.51-.01.55.29.76.98.57 1.56-.27.87-1.16 1.42-1.98 1.69-.09.03-.17.06-.25.09-.54.22-1.02.54-1.32.92-.31.4-.44.86-.28 1.35.02.05.04.11.07.16-.38-.26-.86-.69-1.35-1.12-.45-.4-.92-.82-1.34-1.13m4.53-.09c.45-.15.83-.34 1.14-.57.41.25.9.48 1.4.72.62.3 1.24.6 1.69.91-.49-.17-1.06-.18-1.61-.1-.2.03-.4.07-.6.13-.19.05-.37.12-.54.19-.44.18-.87.45-1.27.7-.36.22-.78.54-1.2.62-.32.06-.58-.12-.7-.4-.01-.03-.02-.05-.03-.08-.14-.42-.03-.82.25-1.17.28-.36.73-.66 1.24-.86l.24-.09m-1.63 13.1c-.53.45-.44 1.04.28 1.78.23.2.39.39.51.57.11.17.17.34.17.5a.9.9 0 01-.2.63c-.09.11-.21.18-.34.22-.13.04-.27.04-.4 0-.19-.05-.37-.18-.51-.41-.13-.21-.21-.5-.22-.86v-.22c0-.07 0-.15.01-.23.22-.44.27-.82.19-1.16-.06-.26-.21-.5-.4-.72v-6.81c.26-.41.59-.85.91-1.27.77-1.01 1.51-1.98 1.3-2.62.2-.11.41-.24.63-.38.4-.25.82-.51 1.25-.69.16-.07.33-.13.52-.18.18-.05.38-.09.57-.12.99-.15 2.08.03 2.51.97.1.22.16.46.18.69.07.64-.1 1.39-.49 2.17-.41.83-.99 1.43-1.57 2.03-.39.41-.79.82-1.14 1.3-.35.48-.58 1.09-.68 1.83-.1.71-.08 1.54.07 2.51-.57.07-1.15.13-1.72.13-.57 0-.98-.07-1.43.32m.76 3.74c.05-.04.1-.09.15-.14.16-.18.26-.44.25-.76 0-.19-.08-.39-.2-.59-.12-.19-.3-.4-.54-.6-.59-.61-.69-1.1-.3-1.48.52-.5 1.04-.11 1.41.32.24.29.41.64.49 1.07.06.35.07.76.01 1.24-.14.39-.36.64-.65.78-.18.09-.38.14-.61.16m-8.51 28.99c.26.3.6.55 1.01.58.11 0 .23 0 .34-.02.39-.07.75-.29 1.07-.56.32-.27.59-.59.82-.89.4-.52.78-.94 1.21-1.29.42-.36.89-.66 1.45-.97.27-.15.55-.32.8-.52.26-.2.5-.43.71-.68.96-1.18 1.29-2.99 1.33-4.84.03-1.84-.22-3.71-.43-5.01-.07-.42-.14-.83-.2-1.23-.23-1.32-.46-2.65-.47-4-.02-1.37.12-2.7.38-3.99.26-1.3.66-2.56 1.17-3.82.72-1.75.92-3.03.74-3.96-.14-.77-.54-1.3-1.11-1.66.77.03 1.62-.07 2.45-.17.36-.04.71-.08 1.05-.11l.17-.02c.79-.07 1.23-.11 1.81.61.97 1.23 1.03 3.54.7 5.46-.06.38-.14.74-.24 1.07-.09.33-.19.64-.3.91-.37.9-.68 1.82-.9 2.75-.22.94-.34 1.89-.33 2.87.02 1.66.32 3.29.63 4.93.33 1.79.67 3.59.64 5.44-.02 1.05-.11 2.08-.29 3.07-.18.99-.46 1.93-.86 2.81-.73 1.61-2.09 2.66-3.45 3.71-.78.61-1.57 1.21-2.25 1.93-.14.15-.28.3-.42.46-.66.73-1.33 1.47-2.14 1.82-.21.09-.42.17-.64.24-.8.25-1.61.34-2.31.16-.7-.18-1.28-.64-1.64-1.48-.04-.11-.09-.22-.13-.34a47.6 47.6 0 01-.03-.44c-.06-.76-.13-1.76-.33-2.81l-.01-.01zm-8.14-1.08c-.7.12-1.29.09-1.75-.12-.15-.07-.27-.15-.35-.23a.404.404 0 01-.12-.22.41.41 0 01.04-.24c.04-.09.11-.18.21-.27h.01v-.01c.07-.07.15-.14.24-.2.08-.06.17-.11.26-.16.44-.23.96-.31 1.47-.31v1.76h-.01zm-2.23-.22c.1.1.23.19.41.27.86.39 2.17.2 3.71-.4.3-.11.6-.25.91-.39.31-.14.63-.3.95-.47.94-.58 1.86-.95 2.72-1.14.9-.2 1.72-.19 2.39-.01.66.18 1.17.52 1.47 1.01.11.18.2.39.24.61.05.21.05.42.01.58-.02.1-.07.19-.13.26s-.14.11-.24.13c-.11.02-.23.02-.39-.02-.14-.03-.28-.1-.44-.19-.37-.2-.75-.59-1.22-.4-.45.19-.36.83-.28 1.2.2.94.29 1.87.36 2.62-.46-.23-1.14-.2-1.9-.02-1.03.24-2.22.74-3.19 1.2a7.155 7.155 0 01-1.96.62c-1.52.26-2.83 0-3.36-.5-.04-.04-.06-.07-.06-.13v-4.84.01zm12.75 1.08c-.3.27-.66.51-1.06.59-.36.07-.7-.04-.98-.29-.25-.23-.44-.48-.46-.82-.01-.22.04-.47.23-.54.37-.15.77.23 1.05.39.36.2.91.4 1.27.07l-.05.61v-.01z" fill="#DA2926"/><path d="M35.846 15.569c1.04-.16 2.31-1.34 3.55-2.48.81-.75 1.61-1.49 2.22-1.85.26-.16.57-.32.89-.46-.07-.03-.13-.06-.2-.09-.73-.05-1.91 1.05-3.14 2.17-1.19 1.1-2.41 2.23-3.34 2.39v.32h.02zm0 .63c1.26-.14 2.63-1.41 3.97-2.65.73-.68 1.46-1.34 1.94-1.69.4-.28.89-.59 1.41-.84a4.26 4.26 0 01-.38-.14c-.42.22-.83.48-1.17.74-.54.4-1.27 1.03-2 1.7-1.29 1.19-2.61 2.41-3.76 2.57v.32l-.01-.01zm9.95-4.46c-.85.36-1.79 1.01-2.75 1.94-.16.15-.31.31-.47.47-.89.9-1.69 1.7-2.38 2.24-1.13.88-1.79 1.23-3.29 1.62h.28l.39-.02c1.23-.18 1.87-.63 2.81-1.35.72-.55 1.52-1.36 2.42-2.26l.47-.47c1.05-1.02 2.09-1.69 2.98-1.99l.09-.03c-.17-.04-.35-.09-.54-.13m1.16.31c-.2.03-.4.08-.61.15-.85.29-1.84.94-2.86 1.92-.16.15-.31.31-.46.46-.9.91-1.72 1.73-2.46 2.3-.81.62-1.61 1.12-2.67 1.11h1.03c1.27-.11 2.65-1.5 4.33-3.19.15-.15.3-.31.46-.46.99-.95 1.93-1.57 2.74-1.85.48-.17.91-.21 1.28-.14-.2-.12-.46-.22-.77-.32m-.62.69c1.29.12 1.45.9 1.35 1.2-.18.56-.88.91-1.38 1.08-.12.04-.22.08-.3.11-.69.28-1.3.7-1.71 1.21-.29.37-.47.89-.44 1.3.1.09.17.16.27.24-.08-.46.12-.98.41-1.35.37-.47.94-.86 1.58-1.11.08-.03.17-.07.29-.1.61-.2 1.37-.62 1.58-1.29.14-.44-.09-1.18-1.08-1.47-.13.03-.27.06-.41.11-.05.02-.11.04-.17.06m1.18-.21c.61.31.98.93.77 1.6-.24.77-1.07 1.25-1.78 1.49-.1.03-.19.06-.27.1-.59.24-1.11.59-1.45 1.02-.32.4-.46.91-.34 1.42.13.11.26.2.37.28a.774.774 0 01-.07-.16c-.16-.49-.03-.95.28-1.35.3-.38.78-.7 1.32-.92.08-.03.16-.06.25-.09.82-.27 1.71-.82 1.98-1.69.09-.3.1-.59 0-.86-.16-.49-.57-.8-1.08-.84m2.58 4.17c-.29-.01-.59 0-.87.05-.21.03-.43.08-.63.13-.2.06-.39.13-.58.2-.47.2-.91.47-1.32.73-.35.22-.68.42-.94.53-.34.13-.62.18-.82-.12 0 .02.02.05.03.07l.06.12c.02.04.05.07.08.1.14.16.36.24.64.16.32-.1.7-.34 1.12-.6.4-.25.83-.52 1.27-.71.17-.07.35-.14.54-.19.19-.05.39-.1.59-.13.55-.08 1.11-.07 1.61.1-.22-.16-.49-.31-.78-.46m-1.1-.54c-.45.08-.87.2-1.23.35-.52.22-.97.51-1.4.77-.77.44-1.18.7-1.47.4-.01.08-.02.16-.01.25.33.27.7.22 1.65-.38.42-.26.87-.54 1.36-.75.46-.2 1.03-.34 1.62-.39-.11-.05-.22-.1-.32-.15l-.19-.09-.01-.01zm-4.88 7c.3-.55.75-1.19 1.16-1.73.85-1.11 1.65-2.18 1.33-2.97-.09.06-.19.11-.28.16.21.63-.53 1.61-1.3 2.62-.32.42-.65.86-.91 1.27v.65zm0 1.56h.02c.06-.6 1-2.06 1.64-2.91.99-1.31 1.94-2.56 1.37-3.68l-.19.12-.08.05c.45.96-.43 2.12-1.35 3.33-.45.6-1.04 1.42-1.41 2.21v.89-.01zm5.3-7.48c.79.3 1.56 1.02 1.64 1.77.05.46-.09 1.03-.4 1.66-.34.7-.87 1.25-1.4 1.79-.42.43-.84.87-1.22 1.41-.43.61-.72 1.36-.84 2.25-.11.78-.09 1.69.07 2.73.1 0 .21-.02.31-.03-.15-1.01-.17-1.9-.07-2.66.12-.84.38-1.54.79-2.11.37-.52.78-.95 1.2-1.37.55-.57 1.09-1.13 1.46-1.87.34-.68.48-1.31.43-1.83-.07-.73-.63-1.37-1.31-1.77-.21-.01-.43 0-.64.03m1.29.07c.53.43.91 1.01.98 1.64.06.58-.1 1.27-.46 2-.39.79-.95 1.37-1.51 1.95-.4.42-.81.83-1.17 1.34-.38.53-.62 1.18-.73 1.97-.1.74-.08 1.6.07 2.59l.31-.03c-.14-.96-.16-1.8-.07-2.51.1-.74.33-1.35.68-1.83.34-.48.74-.89 1.14-1.3.58-.6 1.16-1.2 1.57-2.03.39-.79.56-1.53.49-2.18-.04-.38-.16-.71-.38-1.02a1.73 1.73 0 00-.91-.58m-4.7 14.79c-.39.14-.78.03-.74-.65.05-.13.1-.26.13-.38a3.07 3.07 0 01-.25-.26c-.04.18-.1.37-.19.56-.05 1.08.54 1.18 1.04.89v-.15m-.86-2.98c-.15-.25-.34-.49-.58-.7-.15-.14-.29-.25-.43-.34v.39c.07.06.15.12.22.19.23.2.42.42.56.67.06-.07.14-.14.23-.2m.84 3.24c-.35.44-.81.54-1.15-.02-.19-.31-.2-.71-.18-1.06.14-.29.22-.59.22-.87-.16-.27-.21-.52-.15-.74-.12-.28-.32-.54-.58-.78h-.01v.43c.2.21.34.45.4.71.08.34.04.72-.19 1.16 0 .08-.01.16-.01.23v.23c.02.36.1.65.23.86.11.18.24.3.39.36.11.05.24.07.35.07.12 0 .23-.04.33-.11.12-.07.22-.19.29-.33 0 0 .04-.09.06-.14zm2.93-3.49c1.11.05 1.69.54 2.17 1.44.57 1.07.56 2.86.29 4.4-.06.36-.14.69-.21.98-.08.28-.17.55-.27.8-.38.94-.71 1.9-.95 2.89-.23 1-.37 2.03-.36 3.09.02 1.75.33 3.42.64 5.1.32 1.74.65 3.5.62 5.25-.02.99-.1 1.97-.28 2.91-.17.91-.42 1.79-.79 2.6-.63 1.4-1.9 2.37-3.17 3.35-.8.62-1.61 1.24-2.33 2.01l-.02.03c-.17.18-.3.32-.43.46-.59.65-1.19 1.31-1.82 1.58-.17.07-.36.14-.56.21-.64.2-1.27.28-1.79.14-.4-.1-1.33-.51-2.08-1.83.01.17.03.33.04.48v.05c.53.95 1.48 1.48 1.96 1.6.58.15 1.27.07 1.96-.15.2-.06.4-.14.58-.21.69-.3 1.31-.98 1.93-1.66.13-.14.26-.29.42-.46v-.02h.02c.71-.75 1.51-1.37 2.3-1.98 1.3-1 2.6-2 3.26-3.47.38-.84.64-1.74.82-2.67.18-.96.26-1.95.28-2.96.03-1.79-.3-3.56-.63-5.32-.31-1.66-.62-3.32-.64-5.04-.01-1.04.12-2.04.35-3.02.23-.97.55-1.91.93-2.84.11-.26.2-.54.28-.84.08-.3.16-.64.22-1.01.27-1.57.28-3.41-.31-4.55-.38-.76-.94-1.36-1.91-1.39l-.56.06m-2.09.2c.51.38.9.89 1.02 1.55.19 1.04-.02 2.43-.78 4.31-.5 1.23-.89 2.46-1.14 3.71-.25 1.25-.38 2.54-.37 3.86.01 1.29.24 2.6.47 3.9.06.35.12.7.2 1.23.21 1.32.47 3.23.43 5.11-.04 1.97-.4 3.93-1.47 5.23-.24.29-.52.55-.82.78-.29.22-.59.41-.89.58-.53.29-.96.57-1.35.9-.38.32-.74.7-1.11 1.19-.25.33-.55.68-.91.99-.8.67-1.85 1-2.69.38.02.11.03.23.04.34.91.56 1.91.33 2.85-.48.38-.32.7-.7.96-1.04.36-.48.7-.84 1.06-1.14.37-.31.78-.58 1.3-.86.31-.17.62-.37.93-.6.32-.24.61-.52.86-.83 1.12-1.37 1.5-3.39 1.54-5.42.03-1.91-.23-3.83-.44-5.17-.09-.58-.15-.91-.21-1.24-.22-1.29-.45-2.59-.46-3.85-.01-1.31.11-2.57.36-3.8.25-1.22.63-2.44 1.12-3.65.79-1.93 1-3.38.8-4.48-.12-.67-.5-1.15-.99-1.52-.11 0-.22.01-.33.02m3.19-.31c.19-.02.39-.03.58 0h.05c.46.07.79.39 1.05.75.89 1.25.94 3.49.62 5.35-.06.38-.14.74-.24 1.07-.09.33-.19.64-.3.91-.37.9-.68 1.82-.9 2.75-.22.93-.35 1.89-.34 2.87.02 1.66.32 3.29.63 4.93.34 1.79.67 3.58.64 5.44-.02 1.05-.11 2.08-.29 3.07-.18.99-.46 1.94-.86 2.82-.73 1.61-2.09 2.66-3.45 3.71-.79.61-1.57 1.21-2.24 1.93-.14.15-.28.3-.41.45-.66.73-1.33 1.47-2.15 1.82-.21.09-.42.17-.64.24-.79.25-1.61.34-2.31.16-.91-.24-1.49-.95-1.77-1.82.32.74 1.24 1.36 1.85 1.52.64.17 1.39.08 2.14-.15.21-.07.42-.14.61-.23.75-.32 1.4-1.03 2.04-1.74.13-.15.27-.29.42-.46v-.01c.69-.73 1.48-1.35 2.27-1.95 1.33-1.03 2.66-2.05 3.36-3.59.39-.86.66-1.78.84-2.74.18-.97.27-1.99.29-3.02.03-1.82-.3-3.6-.63-5.38-.31-1.65-.61-3.29-.63-4.98-.01-1.01.12-1.99.34-2.95.22-.95.54-1.88.92-2.8.1-.27.21-.56.29-.88.09-.32.16-.67.23-1.04.32-1.85.27-4.07-.63-5.22-.47-.6-.79-.79-1.35-.82m-3.56.32c.53.36.95.89 1.08 1.6.18.99-.02 2.32-.76 4.13-.51 1.25-.9 2.5-1.15 3.77-.26 1.27-.39 2.58-.37 3.92.01 1.32.24 2.64.47 3.95.06.38.13.75.2 1.23.21 1.31.46 3.2.43 5.06-.03 1.91-.38 3.8-1.39 5.04-.23.28-.49.52-.76.73-.27.21-.56.39-.85.55-.55.3-1 .6-1.4.93-.4.34-.77.73-1.16 1.24-.24.31-.53.65-.87.94-.72.62-1.79.97-2.54.28l-.09-.51c.01.02.03.03.04.05.3.33.68.56 1.13.53.47-.03.9-.29 1.25-.58.32-.27.59-.59.82-.89.4-.52.78-.94 1.21-1.29.42-.36.89-.66 1.45-.97.27-.15.55-.32.8-.52.26-.2.5-.42.71-.68.96-1.18 1.29-2.99 1.33-4.84.03-1.84-.22-3.71-.43-5.01-.07-.42-.14-.82-.21-1.22-.23-1.32-.46-2.65-.47-4-.02-1.37.12-2.69.38-3.99.26-1.3.66-2.56 1.17-3.82.71-1.75.92-3.03.75-3.96-.14-.75-.53-1.28-1.12-1.66h.34m-19.53 32.34s.1.05.15.07c1.03.47 2.5.27 4.19-.39.32-.12.63-.26.95-.4.3-.14.63-.3.98-.49h.01l.04-.02c.87-.54 1.73-.88 2.52-1.05.8-.18 1.52-.17 2.09-.02.84.22 1.71 1.07 1.27 2a.68.68 0 01-.24-.08c.34-.73-.49-1.46-1.11-1.62-.53-.14-1.19-.14-1.95.02-.76.17-1.58.5-2.42 1.02l-.05.03h-.01c-.36.19-.7.36-.99.5-.32.15-.64.28-.97.41-1.77.69-3.33.89-4.44.38h-.02v-.36zm0-.37c.08.05.17.11.28.15.94.43 2.34.23 3.95-.39.31-.12.62-.25.93-.4.31-.14.63-.3.97-.48h.02c.9-.57 1.79-.93 2.62-1.11.85-.19 1.62-.18 2.24-.01.95.25 2 1.24 1.42 2.29.46-.09.45-.63.38-.98-.05-.22-.13-.43-.25-.61-.3-.48-.81-.83-1.47-1.01-.67-.18-1.49-.19-2.39.01-.85.19-1.78.56-2.72 1.14-.32.17-.64.33-.95.47-.31.14-.61.27-.91.39-1.54.6-2.85.79-3.71.4-.18-.08-.31-.18-.4-.29v.42l-.01.01zm10.45 2.91c-.52-.18-1.2-.14-1.94.03-1.06.25-2.27.76-3.25 1.22-.32.15-.64.27-.95.37-.31.1-.63.17-.93.22-1.48.26-2.47.14-3.37-.58v.17c0 .08-.01.14.05.2.12.12.28.22.48.31.8.37 1.72.41 2.9.2a7.155 7.155 0 001.96-.62c.97-.45 2.16-.96 3.19-1.2.76-.18 1.44-.21 1.9.02l-.03-.36m-.07-.68c-.58-.13-1.28-.08-2.01.1-1.1.26-2.35.79-3.37 1.26-.29.13-.58.24-.87.34-.28.09-.57.16-.85.2-1.61.28-2.35.16-3.27-.81v.44c.89.83 1.78.95 3.32.68.3-.05.59-.12.89-.21.3-.1.61-.21.91-.35 1-.47 2.23-.99 3.31-1.24.74-.17 1.42-.22 1.98-.07-.01-.11-.02-.22-.04-.34zm-9.79-3.77c-.2.12-.44.32-.54.54-.04.08-.05.16-.04.24.01.05.03.11.07.16.43-.76 1.28-1.02 2.09-1.04h.06v-.31c-.57 0-1.15.11-1.64.41zm-.02 1.27s-.06-.02-.09-.04c-.07-.03-.14-.07-.2-.11.44-.61 1.17-.88 1.94-.9v.31c-.64.02-1.28.23-1.66.73m12.18.95c-.45.31-1.13.09-1.53-.19-.39-.26-.69-.31-.84-.15-.07-.42.21-.57.64-.31.05.03.1.07.16.1.44.32 1.06.53 1.59.31l.03-.37-.02.02c-.35.3-.88.11-1.24-.09-.28-.15-.68-.54-1.06-.39-.19.08-.24.32-.22.54.01.24.11.44.25.61-.14-.41.4-.11.54-.02.29.2.67.36 1.04.39.24-.11.46-.28.66-.46m5.79-32.55c-.12.05-.22.11-.31.2-.39.38-.29.87.3 1.48.24.21.42.41.54.6.18.29.26.63.16.96-.05.2-.16.38-.32.51l-.03.03c.18-.01.35-.05.49-.11.17-.27.23-.54.21-.81-.03-.37-.21-.72-.46-1-.02-.03-.05-.05-.08-.08-.3-.29-.55-.56-.67-.81-.18-.36.04-.59.36-.72-.14.21-.12.43 0 .66.17.31.52.6.76.87.37.42.52 1.09.31 1.61.13-.14.24-.32.32-.54.02-.14.03-.28.04-.41-.08-.35-.25-.73-.49-.93-.3-.28-.54-.53-.66-.74-.14-.27 0-.46.24-.59-.22-.16-.46-.25-.71-.16" fill="#F3EB3D"/><path d="M10.326 5.049l8 6.15-1.68-8.97 4.37 5.38-.4-5.76 4.23 6.03.38-1.34a1.45 1.45 0 01-1.07-1.4c0-.52.28-.98.69-1.24-.31-.27-.51-.67-.51-1.11 0-.71.51-1.31 1.2-1.44.09-.69.56-1.21 1.14-1.21.58 0 1.05.53 1.14 1.21a1.462 1.462 0 01.69 2.55c.41.26.69.72.69 1.24 0 .67-.45 1.23-1.07 1.4l.37 1.34 4.23-6.03-.4 5.76 4.37-5.38-1.68 8.97 8-6.15-7.1 13.04h-18.46l-7.1-13.04h-.03z" fill="#000"/><path d="M10.916 5.748l6.62 12.16h18.24l6.62-12.16-7.68 5.91 1.64-8.72-7.03 8.66-2.67-9.53-2.67 9.53-7.03-8.66 1.64 8.72-7.68-5.91zm21.19 2.13l.38-5.35-3.93 5.6.86 3.07 2.7-3.32h-.01zm-7.34.25l-3.93-5.6.38 5.35 2.7 3.32.86-3.07h-.01zm2.86-6.6c.66.05 1.18.6 1.18 1.27 0 .5-.29.93-.71 1.14.51.16.89.64.89 1.21s-.39 1.07-.93 1.23l-1.4-5-1.4 5c-.54-.15-.93-.64-.93-1.23s.37-1.05.89-1.21c-.42-.21-.71-.64-.71-1.14 0-.67.52-1.22 1.18-1.27.03-.66.45-1.19.97-1.19s.94.53.96 1.19" fill="#F3EB3D"/><path d="M16.386 15.778l.68 1.26c1.41-.53 3.16-.9 5.06-1.13.86-.1 1.74-.18 2.64-.22.9-.04 1.81-.06 2.71-.04 3.27.07 6.47.53 8.78 1.39l.69-1.26c-2-.81-4.53-1.32-7.2-1.55-1.78-.15-3.57-.17-5.35-.06-2.97.18-5.81.71-8.01 1.6m-.27-.5c1.62-.67 3.56-1.15 5.63-1.44.93-.13 1.89-.22 2.86-.28.97-.05 1.95-.07 2.93-.05 3.54.08 7.03.67 9.67 1.76l3.86-7.09-7.54 5.8h-.07l1.39-7.41-5.55 6.83c-.21-.02-.42-.03-.64-.04l-2-7.13-2 7.13c-.21.01-.43.02-.64.04l-5.55-6.83 1.39 7.39h-.07l-7.54-5.79 3.86 7.09.01.02zm19.68 2c-4.77-1.58-13.28-1.56-18.12 0h18.12zm-6.84-7.72l2.08-2.96-.2 2.84-1.42 1.75-.46-1.63zm-4.59 0l-2.08-2.96.2 2.84 1.42 1.75.46-1.63z" fill="#DA2926"/><path d="M16.476 15.948l.51.92c1.43-.54 3.21-.92 5.12-1.15.86-.1 1.75-.18 2.65-.22.9-.04 1.81-.06 2.72-.04 3.3.07 6.54.53 8.87 1.4l.5-.92c-1.97-.8-4.48-1.3-7.13-1.52a36.34 36.34 0 00-5.32-.06c-2.94.18-5.76.7-7.93 1.58m13.05-2.51c1.29.1 2.55.27 3.75.51l1.25-6.66-5 6.15zm-9.48.51c1.23-.24 2.49-.41 3.74-.51l-5-6.15 1.25 6.66h.01zm4.81-.57c1.2-.06 2.4-.06 3.6 0l-1.8-6.42-1.8 6.42zm15.99-4.77l-3.55 6.52c-1.06-.44-2.25-.8-3.53-1.07l7.08-5.44v-.01zm-24.83 6.52l-3.55-6.52 7.08 5.44c-1.28.28-2.47.64-3.53 1.07" fill="#FFCA28"/><path d="M26.656 60.319c-.26-.72-.47-1.17-.94-1.64-.51-.51-1.22-.83-1.99-.83h-11.6c-.84 0-1.6-.34-2.15-.89a3.03 3.03 0 01-.89-2.15v-36.97h35.13v36.97c0 .84-.34 1.6-.89 2.15-.55.55-1.31.89-2.15.89h-11.6c-.78 0-1.48.32-1.99.83-.47.47-.67.91-.94 1.64" fill="#000"/><path d="M27.536 58.428c.46-.46 1.22-.8 2.06-.8h11.6c.78 0 1.48-.32 1.99-.83s.83-1.21.83-1.99v-36.75H9.326v36.75c0 .78.32 1.48.83 1.99s1.22.83 1.99.83h11.6c.84 0 1.6.34 2.06.8.46.46.73.92.87 1.43.14-.51.42-.97.87-1.43" fill="#DA2926"/><path d="M29.357 23.858s.09-.06.14-.07c.05 0 .12.03.16.06.39-.16.78-.26 1.2-.28.6-.03 1.64.06 2.17.5.43.35.57.88.45 1.61.09.03.16.15.13.24a.36.36 0 01-.07.1c.18.37.28.72.3 1.13.26.09 1.55.46 1.55.86.21.18.45.5.5.96.15.22.17.51.25.76.03.09.06.17.1.25.11.22.17.46.03.65.14.23.25.41.25.67 0 .1.04.15.08.23.14.16.28.33.42.5.23.25.47.49.68.76.43.54.87 1.31 1.22 1.9.31.51.63.65 1.03 1.15.77.96 1.24 2.05 1.63 3.27.14.42.27.85.37 1.28.08.31.19.65.21.97v.32c.02.41.17.84.34 1.2-.89-.58-1-1.19-1.26-2.14l-.15.3c-.22-.31-.25-.59-.33-.98l-.07.1c-.18-.27-.18-.52-.25-.8-.03.05-.03.13-.05.2-.44-.42-.47-1.26-.55-1.85-.07-.51-.18-1.09-.48-1.45.34.88.46 1.77.42 2.7l-.13-.05c.08.32.11.71 0 .98.14.4.18.94.08 1.36.36.62.6 1.28.83 1.95.13.38.2.65.39.85.11.12.27.22.52.29.03.78 0 1.24-.07 1.9-.08.69-.23 1.44-.23 2.16 0 .22.02.44.05.66.06.51.07.97-.05 1.47-.6.11-1.08.55-1.23 1.08h-2.97c.21-.75.87-1.22 1.76-1.26.03-.21.15-.41.3-.61.4-.42.8-1.08.83-1.68.04-.56.04-1.16-.04-1.72-.07-.51-.3-.95-.56-1.37-.26-.41-.43-.88-.61-1.33-.18-.48-.58-.9-1.01-1.21.12.59.12 1 .06 1.48-.03.4-.01.79.12 1.17.06.16.11.3.04.46-.15.36-.35.72-.55 1.06-.26.44-.51.88-.74 1.32-.43.81-.83 1.76-1.02 2.68-.64.24-1.31.47-1.68 1.01h-2.8c.17-.74.68-1.12 1.4-1.25.19-.04.39-.06.56-.06.42-.11.37-.27.48-.48.08-.2.34-.38.49-.53.26-.26.47-.51.66-.78.4-.57.92-1.57 1.09-2.24.03-.58-.08-1.55-.2-2.19-.17-.53-.78-1.4-1.07-2.65-.38-.38-.68-.85-.99-1.28-.52.26-1.33.57-2.09.46l.08.22c-.24.03-.49.04-.73.03l.05.08c-.34.16-.93.25-1.63.1.07.07.17.12.25.18-.48.02-.95.05-1.43.03.39 1.24.55 2.64.15 3.54.21 1.08.16 2.09.19 3.11 0 .22.2.62.27 1.1.06.42 0 .93-.12 1.42l-.02.13c-.62-.18-1.38.9-1.57 1.06h-2.68c.11-.45.28-.73.65-.97.29-.19.62-.32.97-.36.16 0 .22-.18.3-.3.15-.31.46-.54.74-.72.11-.07.21-.14.29-.24.13-.49-.04-1.49-.18-1.99-.09-.42-.22-1.18-.45-1.58-.15-.15-.32-.29-.36-.55-.11-.65-.54-1.61-.75-2.13-.17.44-.3.82-.65 1.14-.11.94-.4 1.26-.68 1.76-.15.27-.17.48-.2.72-.1.65-.15 1.31-.15 1.98 0 .28 0 .57.03.85v.95c0 .08-.08.14-.18.18-.65.27-.96.7-1.36 1.26h-2.88c.07-.45.28-.87.68-1.1.27-.15.6-.22.92-.28l.13-.03c.13-.07.31-.24.34-.41.03-.2.15-.35.28-.48.11-.11.28-.25.43-.38.13-.11.31-.27.34-.45.09-.46.13-1.33.17-1.71.09-.85.07-1.19-.38-1.9.11-.69.12-1.23-.02-1.93-.07.06-.18.14-.28.17.05-.15.01-.47 0-.63-.17.12-.35.22-.53.3.12-.2.23-.54.23-.8-.2.16-.4.25-.63.33.35-.37.45-.68.38-1.16-.06-.3-.13-.56-.28-.82-.26.65-.61 1.08-.91 1.62-.29.52-.55 1.2-.52 1.78-.14-.23-.32-.52-.38-.78-.1.2-.08.61-.1.75-.11-.16-.27-.29-.35-.48-.15.53-.52.89-.98 1.06.21-.34.4-.75.33-1.16-.1.39-.16.67-.48.93-.08-.4-.28-.63-.63-.98-.67-.54-1.46-1.36-1.66-2.16 0 .44.02.69.13 1.13-.58-.58-1.06-1.4-1.06-2.24-.08.27-.09.54-.1.81-.28-.38-.49-1.25-.38-1.79-.16.22-.3.31-.53.4.27-.55.35-.95.33-1.61-.12.17-.29.33-.46.46.15-.61.18-1.32.21-1.95.02-.5.06-.99.25-1.48-.09.06-.17.11-.28.15v-.1c-.15.14-.3.26-.48.35.05-.12.07-.24.12-.35-.17.2-.38.27-.63.33.25-.32.35-.7.35-1.11 0-.68-.18-1.51.23-2.11-.24.06-.46.22-.68.33-.23.17-.43.16-.63-.05-.04-.05-.18-.24-.18-.3-.28.03-.49-.03-.6-.3-.14-.33.02-.7.24-.96.19-.72.75-.93 1.45-1.23.34-.14.66-.3.97-.49.45-.26.94-.71 1.07-1.23.08-.3-.03-.54-.21-.77.19.06.36.13.53.25.07-.15-.04-.42-.1-.55.19.05.5.3.63.58.07-.11.08-.44.07-.55.2.3.4.62.47.95.16-.19.17-.58.21-.82.25.24.39.55.45.88.13-.24.18-.39.23-.65.12.16.28.44.28.65.12-.12.17-.34.2-.5.14.2.23.49.23.76.13-.08.25-.18.38-.28v.43l.2-.25c.06.18.08.42.05.61l.15-.1c.05.19.03.32 0 .48l.1-.02c.01.14 0 .35-.02.5.41.07.72.47.9.82.13.25.34.79.38 1.14.12.37.16.93.12 1.2.09.45.15.87.08 1.29l-.18-.1c0 .23 0 .45-.02.68.47-1.27.95-2.26 1.94-3.27.5-.51 1.14-1.04 1.79-1.36.2-.69.55-1.61 1.17-2.01.04-.46.16-.89.31-1.26-.1-.08-.12-.17-.03-.28-.16-.33-.2-.65-.13-.97.25-1.12 1.59-1.45 2.56-1.44.58 0 1.19.1 1.85.28" fill="#000"/><path d="M18.446 28.849c-.05.15-.17.35-.43.58-.28.23-.68.15-.68.15a1.18 1.18 0 001.08-1.16l-.1.1c-.07.29-.38.49-.66.55.5-.31.66-.67.6-1.08l-.28.28v-.48c-.09.08-.15.14-.25.2-.05.29-.11.5-.16.6.13-.02.23-.02.25.03.05.08-.1.23-.18.33-.1.1-.4.53-.68.65-.3.13-.63.1-.81 0 .41-.03.68-.36.95-.63-.38-.03-.79.08-1.13.25.32-.36.86-.42 1.31-.33-.17.41-.48.56-.68.68 0 0 .25-.02.53-.25.3-.23.35-.5.53-.63 0 0-.2.02-.45 0-.23 0-.68 0-.93.1-.25.08-.5.28-.5.28.09-.33.45-.4.68-.45.23-.47.33-1.16 0-1.61-.05.33-.08.46-.28.65.1.49-.15.99-.53 1.31.41-.56.61-1.23.13-2.01-.02.31-.16.49-.15.5.03 0-.21-.44-.41-.64.01.13.01.27-.05.39.1.1.28.33.35.68.12.58-.3.88-.3.88.15-.25.23-.55.18-.86-.02-.22-.2-.53-.3-.65-.07-.08-.16-.14-.25-.2.27.78-.51 1.53-1.11 1.88-.31.18-.65.32-.95.48-.25.1-.48.2-.7.33-.43.23-.58.53-.63.68.08-.08.2-.18.3-.23.18-.1.43-.18.53-.15.13 0 .13.18.03.25-.1.08-.33 0-.58.13-.18.08-.38.25-.48.35-.1.18-.18.43-.1.63.1.25.33.25.45.23.15-.1.55-.35.78-.5.3-.2.7-.4.75-.43.03 0 .08.1.1.12.02.05.15.15.08.2-.08.08-.23 0-.33 0s-.22.03-.33.08c-.09.05-.36.22-.55.34-.26.16-.5.24-.18.56.05.08.18.18.43 0 .46-.32.95-.47 1.26-.53-.72.72-.61 1.44-.61 2.44 0 .38-.07.68-.15.86.17-.13.45-.36.47-1.06.03-.73.21-1.9.66-2.21-.53.86-.43 1.85-.48 2.35-.08.53-.2.79-.22.84.22-.19.35-.46.46-.72.33-.85.2-1.33.6-2.02-.36.96.04 1.26-.71 2.61.69-.64 1.04-1.67 1.03-2.64.13.43 0 1.01 0 1.01.2-.27.32-.74.39-.97l-.12-.18c.29.21.76.22.98.13 0 0-.23-.04-.43-.23.45.1.73-.05.83-.15-.03 0-.4.02-.7-.23.61.19.76-.09.81-.11 0 0-.4-.01-.66-.29 0 0 .43.2.76.18.35-.05.53-.25.53-.25s-.38.15-.88-.12c.52.19 1.28 0 1.5-.53-.29 0-.63-.07-.88-.22 1.01.18 1.69-.16 1.67-1.13l-.06.02.04-.01zm-1.83-.24c.23-.03.34-.02.49-.02.13-.43.21-.9 0-1.33-.07.23-.13.35-.3.49-.02.26-.06.63-.2.86m.6-.01h.24c.13-.3.21-.86.1-1.17-.06.17-.1.2-.22.32.03.23-.03.68-.13.86m7.67.24c-.07-.36-.1-.77-.08-1.14-.54.46-.86 1.29-1.06 1.95-.67.36-1.3.84-1.83 1.39-.6.62-.99 1.25-1.29 1.79-.39.76-.91 2.31-1.03 3.54l-.3-.05c.5-.99.48-3.07.5-3.07l.18.11c0-.98-.31-1.44-.31-1.44.09.07.17.12.21.24.01-.5-.1-.94-.36-1.37.07.02.18.16.2.2-.03-.31-.18-.67-.35-.98-.18-.31-.4-.67-.79-.74-.13.42-.35.74-.9.81l.18.05s-.23.53-.58.65c0 0-.24.36-.64.44 0 0-.16.17-.29.22h.25s-.17.34-.65.37l.2.1s-.41.34-.96.14c0 0-.2.9-.53 1.15 0 0-.2.7-.6 1.16-.15.4-.35 1.06-.35 1.79s-.07 1.23-.13 1.53c.12-.12.19-.26.28-.4.18.55.14 1.04-.05 1.58.27-.3.52-.8.58-1.44.07.64-.16.99-.21 1.37-.05.48.01.95.11 1.26.05-.33.18-.83.43-1.21-.21.97-.02 1.9.58 2.71-.07-.53.08-1.28.28-1.51-.27 1.21.72 2.08 1.56 2.92.28.22.54.51.66.86.14-.21.23-.5.26-.75.04-.31-.11-.76.12-1.04 0 0-.12.53.08.91.2.4.08.73-.05 1.03.53-.44.64-.96.55-1.61.13.28.1.72.33.95-.02-.38.25-.74.35-1.1 0 .35-.06.67.13.98.07-.42.32-.95.53-1.31.69-1.16 1.36-1.93 1.08-3.37.35.83 0 1.68 0 1.68s.23.25.35.93c.08.35 0 .63-.08.83.08-.05.73-.65.55-2.44.28 1.66-.23 2.26-.23 2.26.02.2-.03.53-.08.7 0 0 .53-.3.65-.83 0 .38-.3.73-.3.73.03.18.05.34.05.49.05-.05.35-.36.53-1.12-.08.78-.3 1.03-.3 1.03.28.63.1 1.86.05 2.06.49.66.48 1.21.39 1.93-.02.24-.04.53-.07.81-.05.53-.11 1.02-.17 1.11-.05.1-.18.2-.35.35-.13.1-.25.23-.4.38-.18.18-.2.28-.23.4-.06.23-.24.42-.44.55-.26.16-.68.36-.83.54-.15.2-.21.47-.21.57h2.11c.18-.3.48-.63.73-.85.2-.18.38-.28.5-.33.1-.05.2-.1.2-.15.02-.05.02-.4 0-.8 0-.28 0-.6-.03-.96 0-1.01.17-2.06.22-2.36.03-.23.15-.43.3-.7.3-.4.48-.99.53-1.48.36-.33.59-.95.71-1.4.76-.86.71-2.41.35-3.43.23.35.36.86.39 1.35.15-.63.19-1.38.02-1.95.08.09.13.18.17.33.35-1.16-.18-2.23-.33-2.57.39.61.83 1.49.41 2.79.04.58-.03 1.17-.23 1.78.88.4 2.34.38 2.89.35-.08-.08-.15-.19-.23-.28.58.13 1.18.22 1.76.08l-.33-.33c.33.13.72.18 1.08.15l-.1-.25c.72.12 1.6-.12 2.23-.44-1.02-1.74-1.16-3.83-.8-5.84-.6.27-1.34.29-2.04.16-.96-.18-1.93-.05-2.86.22-1.45.42-2.9-.16-3.27-1.6-.34-1.31-.02-2.85.44-4.12m3.28 19.07c-.03-.99.01-2.05-.18-3.04-.13-.66-.33-1.31-.62-1.92 0 0 .49.74.69 1.62.15-.45.14-.85.14-1.07-.05-.27-.18-.73-.48-1.11.2.14.38.3.46.54-.05-.68-.25-1.34-.35-1.7-.6-.02-1.21-.12-1.74-.35-.01 0 0 .89-.64 1.69.13.28.3.7.48 1.13.23.53.3.93.35 1.16 0 .22.22.32.32.48.15.18.33.8.55 1.93.2 1.01.18 1.58.1 1.79-.05.13-.2.2-.35.3-.3.18-.57.44-.73.76-.08.1-.18.28-.33.28-.63.33-.88.83-.96 1.08h1.89c.34-.37.84-1.07 1.54-1.11.12-.49.17-1 .11-1.36-.06-.39-.22-.68-.27-1.11m13.16-3.47c-.1 0-.28-.08-.45-.23-.18-.15-.31-.5-.46-.96-.17-.69-.51-1.38-.84-2 .14-.77-.04-1.47-.44-1.93.25.15.43.36.43.36 0-.58-.13-1.08-.5-1.44.18.11.38.28.55.52.04-1.46-.38-2.41-.52-2.76-.14-.11-.24-.19-.37-.29.28.66.39 1.61.06 2.29l-.06-.07c.1.76-.04 1.26-.06 1.28l-.06-.11c.05.48-.21.93-.21.93l-.08-.05c.05.4-.13.8-.13.8l-.05-.1c-.05.53-.4 1.31-.53 1.56.73.46 1.01.95 1.17 1.32.2.46.3.93.62 1.34.18.25.48.86.55 1.38.08.48.08 1.01.03 1.84-.03.73-.66 1.48-.88 1.74-.12.18-.23.38-.25.6-.58.15-1.03.44-1.3 1.01h2.28c.33-.83 1.01-1.03 1.23-1.06.1-.45.05-.91.03-1.36-.03-.23-.05-.45-.05-.65 0-.58.13-1.51.23-2.19.05-.6.07-1.18.07-1.79m-7.51-17.12c0 .21-.01.39-.04.6.82 1.56.75 3.96-.27 5.49-.21.31-.44.5-.73.67-.47 2.48-.16 5.14 1.64 7.07-.25-1.08-.69-2.62-.69-2.62.58 1.36.85 3.02 1.33 4.17.18.43.58 1.18.63 1.36 0 0 .27 1.71.17 2.24-.1.5-.6 1.66-1.11 2.31-.4.55-.83.93-1.03 1.11-.21.31-.16.64-.68.71-.05 0-.13.03-.18.03-.78.23-1.04.83-1.14 1.03h2.02c.15-.23.55-.63 1.66-.98.08-.25.35-1.46 1.03-2.67.28-.53.55-.98.76-1.36.33-.53.53-.91.55-1.03 0-.07-.03-.18-.08-.33-.08-.25-.18-.65-.13-1.21.08-.6 0-1.08-.08-1.61.28-.46.62-1.67.53-2.19l.14.32c.07-.33.05-.64-.01-.95l.19.32c.14-.22.18-.93.12-1.35l.13.39c.09-.27.08-1.04-.13-1.44.13.11.22.25.27.38.28-.82.07-1.63-.32-2.51l.91.71c.35.38.57.93.69 1.73.08.52.07 1.09.34 1.56 0-.08.18-.58.18-.58 0 .15.1 1.01.2 1.23l.18-.38v.4c.02.15.08.58.2.83.07-.16.14-.3.23-.45.15.75.29 1.58.88 2.16-.1-.28-.2-.68-.18-1.11 0-.08-.13-.81-.58-2.21-.48-1.46-1.03-2.54-1.66-3.27-.32-.35-.8-.71-1.01-1.13-.15-.25-.78-1.36-1.18-1.83-.37-.42-.77-.84-1.11-1.28a.636.636 0 01-.13-.4c0-.11-.21-.65-.43-.83.08-.04.21.05.25.1.1-.29-.12-.61-.4-.68 0 0 .03-.08.23 0-.14-.44-.12-.84-.6-1.08 0 0 .13-.08.3.07-.08-.33-.35-.7-.68-.83 0 0 .05-.03.18-.03-.1-.1-.41-.35-1.37-.65" fill="#B5B7B7"/><path d="M34.246 40.419c-.24-.93-.51-1.89-.51-1.89l-.09-.48s.97 2.24 1.5 3.65c.5 1.41.98 2.19.98 2.19-.2.63-.08 1.69-.08 1.69.33-.65 1.13-1.16 1.13-1.16 0-.39.09-.71.1-1.11.02-.45-.05-.98-.05-1.13.37-.84.59-1.72.48-2.79.15.17.26.38.35.63 0-.5-.19-1.14-.23-1.13.07.04.12.08.18.19.25-1.28-.14-2.1-.14-2.1.28.15.45.35.45.35.2-1.53-.65-2.84-.65-2.84l.3.08c-.13-.33-.68-1.11-.93-1.46-.25-.35-.73-.88-.98-1.31-.27-.52-.21-1.14-.66-1.56.09 0 .18.02.28.05.02-.4-.42-.82-.42-.82.08-.02.2 0 .27.04-.05-.43-.24-.74-.51-.88l.3-.02c-.12-.45-.68-.68-.68-.68l.18-.1c-.21-.07-.59-.17-.79-.22.38.78.84 1.96.82 3.13-.02 1.26-.65 2.56-1.03 2.94-.35.38-.76.63-.91.8-.15.15-.23 1.11-.23 1.11l.2-.7s-.06.98-.15 1.53l.15-.35c.08.58.03 1.31.05 1.76l.1-.5s.15.27.15.48c.03.2.13 1.03.35 1.71l.02-.53s.17.68.66 1.44m-16.21 2.74s.01-.07.02-.1c.02-.14 0-.32 0-.49-.03-.41.12-.53.23-.74 0 0-.03.58.02.73.08.18.15.5.15.5.23-.38.3-1.08.48-1.53.2-.45.6-.85.6-.85-.6.95-.45 2.14-.45 2.14.07-.28.38-.73.38-.73.08-.76.98-2.01 1.21-2.47.23-.48.35-1.26.35-1.26l.28.25c.03.29.07.58.03.88l.08.25a.9.9 0 00-.03.43l.1-.28.12.3c-.1.33-.03.48-.03.48.03-.17.1-.3.1-.3l.1.38c-.08.23-.1.65-.1.65.18-.22.33-.88.35-1.13v.15c.02-.26.01-.56-.02-.9.07.4.09.73.08 1.02.07.69-.04 1.55-.08 1.55.12-.1.25-.26.34-.4v-.03.02s.05-.08.08-.12c.02.45-.18.93-.18.93.14-.17.31-.52.38-.72l.1.15-.2.78.15-.23.02.3c-.1.17-.15.5-.15.5l.18-.33.03.2-.13.43.15-.18c.13 1.28-.02 1.53-.02 1.53s.25.3.3.76c.05.45-.15 2.04-.2 2.72-.05.68-.5.75-.88 1.11-.4.38-.48.73-.48.73h.2c.2-.66.78-.83.78-.83-.43.28-.6.86-.6.86l.3.02c.2-.53.7-.63.7-.63-.4.2-.58.65-.58.65.3.13.5.05.81-.12.3-.2.23-.68.2-1.36-.02-.68.03-1.96.1-2.36.08-.4-.05-.5-.05-.58 0-.1.05-.17.25-.65s.25-1.58.25-1.58c.28 1.13-.15 1.84-.15 1.84.68-.8.45-1.81.45-1.81 1.08-1.03.65-2.14.65-2.14.1 1.01-.28 1.41-.28 1.41-.1-1.18-.81-1.93-.81-1.93.55 1.18.03 2.24.03 2.24s.08-.83-.4-1.48c-.5-.65-.78-1.46-.85-1.91-.08-.45 0-.88 0-.88-1.01-.18-.88-1.58-.88-1.58-.18.18-.4.53-.4.53-.38-.8-.03-2.44-.03-2.44l-.23.15c-.03-.86.5-2.14.5-2.14-.18.13-.43.3-.43.3.2-1.03 1.28-2.54 1.28-2.54-.98 1.01-1.52 2.23-1.8 3.01-.22.61-.33 1.27-.56 1.88-.29.77-.96.68-1.27-.04-.15-.36-.14-.77-.17-1.15.07.02.22.13.22.13-.05-.15-.18-.48-.18-.48.08.02.23.1.23.1-.05-.18-.2-.51-.2-.51.18.05.28.1.28.1-.1-.25-.23-.45-.23-.45.12 0 .28.1.28.1-.08-.23-.25-.53-.25-.53.1.02.3.18.3.18-.15-.7-.6-1.26-.6-1.26.3.12.55.45.55.45.03-.13-.02-.4-.02-.4.1.08.28.2.28.2-.08-.2-.5-.7-.5-.7l.43.23c-.1-.23-.25-.28-.25-.28.1-.53-.38-.88-.38-.88.33.05.61.25.61.25-.08-.15-.28-.33-.28-.33.03-.53-.4-.73-.4-.73.4.02.68.17.68.17-.28-.3-.58-.4-.58-.4l-.4.25-.13.1c-.33.48-1.31 1.33-2.14 2.09-.85.8-1.26 1.86-1.53 2.77-.28.9-.1 2.31-.1 2.31l.23-.65c.18.6.05 1.16-.03 1.53-.05.38-.02.9-.02.9.23-.68.65-1.23.65-1.23.02.35-.15.55-.18 1.36-.03.8.3 1.43.3 1.43.15-.98.65-1.53.65-1.53-.4 1.66.63 2.67 1.33 3.27.71.6.73.9.73.9.08-.06.13-.15.17-.25m2.39 8.1h1.56c.08-.14.34-.46.48-.57 0 0-.82-.15-1.26-.04-.48.11-.73.27-.79.61m7.4-8.95s-.05-.43-.15-.63c0 0-1.03-.05-1.28-.13 0 0-.05.73-.2 1.11 0 0 .18.93.28 1.31.13.38.6 1.43.8 1.89.2.45.4 1.56.43 2.36.03.78 0 1.13 0 1.13l.05.2s-.4.05-.76.3c-.35.28-.51.55-.51.55h.3s.47-.58.87-.68c0 0-.51.44-.61.67l.43.05s.15-.16.23-.21c.1-.05.3-.08.35-.13.05-.03.23-.5.18-.93-.03-.43-.25-.93-.33-1.13-.05-.23-.02-.88-.08-1.43-.07-.55-.15-1.18-.13-1.58.03-.38-.02-1.03-.18-1.43-.15-.4-.53-.93-.53-.93l.15-.05s.5.38.68.78c0 0-.02-.8-.75-1.61h.2s.3.15.55.53m-2.51 8.95h1.25c.14-.23.63-.62.65-.6 0 0-.37-.06-.78-.04-.45.03-.89.14-1.11.64m7.2-12.17c-.4.38-1.28.4-1.28.4l.02.13c-.35.2-.93.08-.93.08l.02.1c-.25.28-1.18.23-1.18.23-.33.28-1.08.05-1.08.05l.03.15c-.75.37-1.58-.16-1.79-.34-.01.12-.03.23-.06.35.55.19 1.2.24 1.2.24l1.16.43-.48-.41.84-.04 1.14.25-.51-.33.53-.05.88.23-.33-.31.39-.07.7.13-.39-.26.4-.1.65.12-.36-.21c.4-.15.74-.22.74-.22l-.3-.55h-.01zm-6.67-2.11s.28.5.23 1.08c0 0-.25-.4-.38-.6 0 0 .1-.33.15-.48zm-.23.73s.41.57.38 1c0 0-.18-.33-.35-.55 0 0 .15.48.2.78 0 0-.33-.58-.6-.65.04 0 .38.65.33 1.03-.11-.39-.35-.93-.56-1.23.18.1.52.04.61-.38m-.15 2.82s-.43-1.33-1.03-1.61c0 0 .76 1.68.6 2.64 0 0-.43-.96-.8-1.18 0 0 .53 1 .38 1.89 0 0-.58-1.46-1.33-1.96 0 0 .28.53.4 1.03.13.5.18.96.15 1.16 0 0-.25-.78-.63-1.28-.38-.53-.7-1.46-.5-2.21 0 0 .73-.08.88-.83.03.14.2.58.62.45.36-.11.44-.38.51-.58-.02 0 .8.78.76 2.49m12.53 10.74h1.64c.08-.27.23-.43.42-.63-.83-.13-1.59.04-2.06.63zm2.61-6.94s.38.38.43.48c.03.07-.13 1.13-.15 1.31l-.53-.4s.25.68.3 1.38c.05.7.1 1.53.1 1.96.02.4.08 1.11-.28 1.23-.35.13-.96-.02-.96-.02s.68-1.01.7-1.96c.05-.95-.05-2.31-.25-2.99 0 0 .38.08.58.28 0 0 .15-.58.05-1.26m-1.64-4.43s.13.45.2.63c.1.2.13.7.32 1.26.2.55.68 1.76.66 2.06 0 .33-.28 1.03-.28 1.03s-.35-.4-.55-.9c-.2-.48-.58-1.11-.7-1.31-.15-.2-.15-.85-.03-1.31.13-.48.38-1.46.38-1.46zm-6.93-5.15c-.47-.08-1.05-.06-1.52-.05-1.01.02-2.54.65-3.92.45-1.43-.2-2.49-1.26-2.47-2.54 0-.77.12-1.27.24-1.66.09-.73.29-1.45.52-2.1-.02-.09-.03-.18-.05-.27-.11.06-.23.15-.34.31-.5.65-.4 1.01-.4 1.01s-.25.15-.28.48c0 0-.65 0-1.41 1.11-.76 1.05-.88 1.83-.88 1.83l.48-.18s-.6 1.03-.68 1.99l.4-.2s-.45 1.33-.33 2.39c0 0 .38-.43.48-.48 0 0-.23 1.66.58 1.71.83.08 1.06-.73 1.13-1.01.04.22.22.89.57.72.38-.19.39-.69.39-.69s.22.45.55.33c.33-.15.73-.93.53-2.29.29.35.56.87.72 1.43.18.52.24 1.15-.01 1.94 0 .16.01.33 0 .49.17.22.57.66 1.23.61 0 0-.35-.15-.5-.33 0 0 .45.03.65-.02 0 0 .45.23.88.17l-.53-.23.4-.1s.75.33 1.26.18l-.91-.3.7-.18s.63.35 1.21.3c0 0-.73-.28-.96-.4l.58-.15s.75.3 1.26.1l-1.01-.23.38-.23s.78.08 1.11-.08l-.83-.05.2-.23s.45 0 .78-.18l-.63-.03s.13-.23.15-.35c0 0 .3-.03.5-.1l-.45-.07c.15-.95.2-1.89.21-2.84m9.07 5.68c-.08-.43-.1-.85 0-1.31-.23.14-.29.36-.35.51-.09-.49-.14-.98-.12-1.47-.17.17-.26.43-.31.65 0 0-.08-.63-.18-1.06-.1-.43-.2-.88-.53-1.63 0 0 1.46 2.19 1.79 3.8 0 0-.18.28-.3.53m-4.96 7.09c-.85 1.26-1.43 2.31-1.43 2.31s.5-.5.7-.78c0 0-.2.53-.23.68-.05.15.05.5-.18.58-.25.1-.71-.1-.93-.33 0 0 .73-.6 1.13-1.38.38-.78 1.01-1.99 1.01-1.99v.48s.48-.76.55-1.06c.08-.3-.03-.58-.28-.38-.25.18-.23-.18-.05-.35.35-.35.85-.43.85-.43s.13.33.18.43c0 0-.48.93-1.33 2.21m-2.67 3.75h-1.29s.1-.42.74-.57c.65-.16 1.07-.05 1.26.02-.23.06-.64.39-.7.55m8.08-10.86s.2.58.23 1.05c0 0-.23-.35-.23-1.05zm-23.47-11.18c.2-.21.32-.49.32-.79l-.1.1c-.03.13-.11.24-.22.33 0 .01-.01.02-.01.02h-.02c-.18.22-.44.25-.44.25.28.05.43-.05.43-.05-.25.28-.65.25-.65.25-.06.08-.14.15-.23.23.38-.04.71-.18.91-.35m.17-1.18v-.04l-.08.08c-.05.29-.15.59-.38.78.32-.18.45-.49.46-.82zm-.28.19v-.43s-.07.06-.1.09c-.01.34-.07.57-.08.57.05-.05.12-.13.18-.23zm-1.81 1.38c.17-.01.32-.07.45-.17-.18.08-.39.12-.68.12 0 0 .25-.08.45-.18.23-.1.35-.25.5-.3 0 0-.13-.05-.55.13-.4.18-.45.27-.45.27a.908.908 0 00-.17-.17c.14-.15.37-.24.56-.3.3-.16.69-.18 1.03-.11-.17.41-.48.56-.68.68 0 0 .25-.03.53-.25.3-.23.35-.5.53-.63 0 0-.2.03-.45 0-.23 0-.68 0-.93.1-.25.08-.5.28-.5.28.03-.11.09-.19.17-.25.03-.05.1-.14.19-.23.18-.15.5-.33.38-1.13 0 0-.14.33-.31.53-.04.38-.25.73-.55.98-.05.04-.11.07-.18.1l-.1-.13c.37-.42.42-1.17.15-1.69-.04-.08-.1-.16-.16-.24.02.15 0 .29-.02.43.07.11.14.26.17.45.09.43-.12.71-.24.82 0 .01 0 .02-.01.03-.07.13-.15.23-.2.3 0 0-.1.53-.53.68-.4.13-.88.03-1.26.18-.35.15-1.84.9-1.91 1.21-.1.3.18.3.3.28.15-.05.43-.25.68-.4.24-.12.58-.29.74-.26l.04-.02s.08.1.1.13c.02.05.15.15.07.2-.07.07-.2.01-.3 0-.05 0-.14.03-.23.1-.22.11-.71.44-.79.57-.03.04 0 .11 0 .15.02.06.04.11.08.11.05 0 .2-.07.35-.15.15-.08.46-.24.65-.31.16-.05.46-.05.52-.03 0 0 .01 0 .01.02 0 .04-.11.16-.15.37-.05.2-.2.8-.23 1.48 0 0 .15-.71.28-1.18.13-.45.23-.68.55-.76 0 0-.2.43-.27.71-.08.3-.1.68-.1.68s.33-1.08.5-1.43l.2-.05s-.28.5-.43 1.01c-.15.53-.15.73-.23 1.16 0 0 .2-.63.38-1.26.15-.6.4-.95.4-.95l.02.1s-.05.13-.13.58c-.05.48-.13 1.01-.3 1.61 0 0 .3-.53.35-1.03.05-.5.12-1.11.12-1.11l.13.13c.05.1.1.3.1.45.02.19-.02.45-.11.71 0 .06-.01.11-.02.15.13-.15.32-.52.15-1.23.23.15.55.3.88.35.07 0 .14-.02.19-.05-.52-.07-.94-.33-1.38-.68l.25-.1s.73.7 1.33.45c0 0-.33.12-1.28-.48 0 0 .23-.1.38-.2 0 0 .61.42 1.09.32.04 0 .08-.02.12-.03 0 0-.15 0-.32-.07-.18-.03-.47-.11-.84-.27 0 0 .13-.1.2-.2.41.21.87.37 1.34.35.17-.08.25-.17.25-.17s-.21.08-.53 0c-.34-.03-.68-.15-1-.26l.13-.15s1.52.55 1.94-.25c-.17 0-.35-.04-.52-.1-.2-.02-.83-.17-1.27-.03.05-.18.07-.43.07-.43.09 0 .19-.02.28-.03m1.16.4c.68 0 1.13-.34 1.17-1.04-.03.1-.08.22-.11.28-.46.86-1.76.62-1.76.62.3.09.52.13.71.15m-5.56.2c.13-.07.31-.14.43-.15.1-.05.3-.13.58-.2.2-.05.58-.17.96-.33.36-.15.84-.3 1.1-.51.5-.39.62-1.14.23-1.65 0 0 .05.5-.2.88-.12.18-.28.35-.49.53-.29.24-.67.48-1.02.65-.6.3-.98.38-1.51.73-.03.03-.05.03-.08.05zm5.79-2.79c-.03.09-.06.14-.1.19.02.62-.08.94-.08.94.2-.34.2-.79.18-1.13zm-.35.14c-.02-.1-.05-.19-.1-.29 0 .03-.02.05-.02.08.08.66-.17 1.15-.18 1.15.26-.29.3-.67.3-.94z" fill="#fff"/><path d="M29.166 25.198c-.05-.13.09-.28.23-.24-.02-.32-.04-.63-.07-.95-.64-.18-1.26-.28-1.82-.29-.82 0-2.19.32-2.41 1.32-.06.28-.01.58.12.87 1.23-.45 2.63-.67 3.95-.72m.59 5.09s-.11.1-.18.09c-.04 0-.11-.04-.14-.07-.64.34-1.35.55-2.08.55-1.02 0-1.8-.4-2.23-1.34-.06-.13-.12-.31-.17-.44-.39 1.18-.65 2.61-.37 3.79.33 1.37 1.7 1.96 3.09 1.56.96-.28 1.95-.42 2.95-.24 1.06.2 2.13.06 2.78-.87.97-1.39 1.01-3.74.35-5.14-.02.07-.05.2-.07.27-.37 1.25-1.05 2.02-2.58 2.03-.4 0-.85-.05-1.35-.19zm-.32-4.51c-.14.09-.3-.06-.27-.2-1.33.04-2.63.24-3.89.72-.36.88-.45 2.19 0 3.16.4.88 1.16 1.26 2.11 1.26.7 0 1.4-.2 2.02-.53.07-1.47.1-2.93.04-4.4m.63-.21c.04.13-.1.27-.23.23.05 1.44.02 2.89-.04 4.34.5.13.94.19 1.33.19.78 0 1.55-.3 1.98-.96.17-.26.33-.6.45-.99.22-.77.18-1.6-.17-2.32-.32-.11-.65-.19-.99-.26-.78-.17-1.55-.22-2.33-.22m-.27-.59c.14-.09.31.07.27.21.81 0 1.62.06 2.41.21.29.06.58.14.87.23.1-.65-.02-1.13-.4-1.43-.51-.41-1.52-.49-2.08-.47-.4.02-.79.1-1.15.25.03.33.06.66.08.99" fill="#DF8825"/><path d="M25.236 26.179c.33-.12.72-.25 1.06-.34.98-.26 1.96-.36 2.96-.38l.09-.08-.07-.07c-1.01.03-2.04.17-3 .42-.35.09-.74.19-1.07.31-.03.01-.07.05-.05.09.02.04.06.05.1.04m4.73-.73c.83 0 1.64.04 2.46.22.31.06.67.16.98.27.05.02.08-.01.09-.05 0-.03 0-.08-.06-.1-.31-.11-.68-.19-.98-.26-.8-.17-1.65-.22-2.48-.22l-.08.07.08.07h-.01zm-.3 4.74c.07-1.5.1-2.99.04-4.48l-.09-.09-.06.06c.06 1.5.03 2.99-.04 4.5 0 .06.04.08.08.08.03 0 .07-.02.08-.07m.01-5.11c-.02-.36-.05-.71-.08-1.07-.01-.11-.17-.1-.16.01.03.35.06.69.08 1.03l.1.09.06-.06zm-.3.6l.15-.13-.09-.08-.14.12c-.07.06.02.15.09.09m.41-.38l.14-.12c.05-.05-.03-.14-.09-.09l-.14.13.09.09v-.01zm.12.26l-.52-.47c-.07-.06-.15.03-.1.08h.01l.52.48c.08.07.17-.02.09-.09zm-.04-1.26c.01.21-.01.42.02.63.07.02.14.08.17.15.85.02 1.77.12 2.67.29.54.1.52-.34.41-.73a.61.61 0 00-.12-.16c-.75-.72-2.62-.43-3.15-.19m.14 2c0 .86 0 1.72.19 2.57.12.56.06.91.79.94 1.81.08 2.71-1.34 2.44-3.11-.12-.29-.32-.52-.61-.62-.65-.21-1.27-.35-1.92-.38-.75-.04-.89-.09-.89.6zm-4.53-.57c-.52-1.44 1.77-2.16 3.8-1.53l.06.74c-.07.01-.14.07-.16.14-1.33.05-2.56.28-3.7.64m3.86.07c.05 1.07.07 2.15-.06 3.19-.05.42.02.86-.46 1-.84.24-2.27.27-2.77-.31-.39-.46-.58-1.31-.57-2.37 0-.45-.02-.82.49-1 1.06-.36 2.11-.6 3.19-.66.02.08.09.15.17.15m-4.34 4.01c.71 1.2 2.02 1.47 3.74 1.1.7-.15 1.5-.12 2.33-.09 1.03.04 1.89-.39 2.61-1.24.17 3.25-1.16 4.65-3.94 3.97-.46-.11-.85-.16-1.28.08-1.38.76-2.74 1.27-3.4-.42-.38-1.17-.28-2.29-.07-3.39" fill="#FFCA28"/><path fill-rule="evenodd" clip-rule="evenodd" d="M14.697 28.899l-.09.07-.21-.09c.8-.6.78-1.21.78-1.21.15.58-.2 1.01-.48 1.23zm1.02 1.46l.1-.23c.48-.12.99.21 1.45.18-.34.3-1.12-.03-1.55.04m2.25-.1l-.02-.12.14.02c-.03.95-.76 1.66-.76 1.66.4-.07.65.05.65.05-.98.55-1.31 1.53-1.31 1.53.98-.28 1.01 0 1.01 0-.63.18-.93.8-.93.8.48-.08.81.15.81.15-.91.45-1.06 1.33-1.06 1.33.48-.3 1.08-.45 1.08-.45-1.71 1.66-.53 3.09-.53 3.09-1.23-.93-.35-2.49-.35-2.49-.25.15-.68.5-.68.5a2.704 2.704 0 011.01-1.94c-.45.03-.88.4-.88.4.23-.78.91-1.33.91-1.33-.63.12-1.01.58-1.01.58.35-1.36 1.41-2.09 1.41-2.09-.55.02-1.23.65-1.23.65.25-.63.91-1.16 1.36-1.56.45-.4.38-.81.38-.81m2.17 5.12l.13-.38s.55 1.37.52 2.48c-.03 1.11-.48 2.01-.48 2.01-.03-.38-.2-.8-.2-.8-.13.65-.35 1.03-.35 1.03l-.13-.15c-.03.88-.65 1.68-.65 1.68l-.1-.2-.28.48-.23-.43c-.03.6-.48.79-.55 1.26-.1-.55.25-.76.35-1.23.1-.48-.13-1.08-.13-1.08.25.33.57 1.08.57 1.08.25-.4.01-1.18.01-1.18.28.3.41.76.41.76.58-.73.42-1.94.42-1.94.14.22.21.38.27.5.33-.5.24-1.58.24-1.58.13.5.33.86.33.86.43-1.36-.15-3.16-.15-3.16m12.3 15.15c-.48.08-.86.25-1.16.96h.28c.3-.63.6-.86.88-.96zm-6.89-.04c-.49.08-1.03.52-1.16 1h.39c.15-.53.49-.82.77-1zm-5.12.13c.14-.08.32-.16.46-.23-.78.03-1.25.47-1.38 1.11h.4c.03-.33.2-.69.52-.87m17.9-.07c-.77.21-1.04.64-1.16.95h.2c.08-.15.36-.7.96-.95zm-1.14-6.12c.17.05.3-.08.13-.24-.1-.09-.19-.15-.23-.29-.1-.33-.18-.4-.2-.73 0-.33.05-.83-.3-1.33 0 0 .6-.65.53-2.04l.4.18s0-.63-.07-.98c0 0 .2.1.33.25 0 0 .03-.45-.15-.9l.2.18c-.02-.15.03-.7-.2-1.36l.25.13s-.15-.9-.38-1.43c0 0 .33.18.4.3 0 0 .08-.83-.5-1.91-.55-1.08-1.48-1.48-1.48-1.48s1.11.6 1.53 2.74c0 0-.35-.28-1.03-.5 0 0 .76.35.85 1.56 0 0-.4-.38-.83-.6 0 0 .8.65.83 1.79 0 0-.35-.38-.73-.65 0 0 .6.6.63 1.48 0 0-.38-.35-.6-.65 0 0 .45.86.48 1.53 0 0-.25-.25-.58-.66l.1.39c.42.55.08 1.77-.25 2.3l-.4-.23s.33.33.5.6c.18.28.28.7.33 1.03.03.33.03.6.08.76.05.15.13.38-.17.63-.3.24-.46.58-.48.8.26-.36.54-.69 1.03-.65m-5.23-9.74l.49.14c-.44.39-.89.87-1.49.97-.55.13-.52-.1-.45-.43 0 0-.25.35-.78.65-.53.28-.65.28-.6.13.05-.15.05-.35.05-.35s-1.21 1.03-2.57.28c0 .03 1.56.39 2.64-.7 0 0 .32-.03.62-.25 0 0-.29.49-.41.79.37-.04 1.03-.69 1.33-.94-.09.16-.14.32-.12.52.01.13.13.2.47-.02.68-.48.83-.79.83-.79" fill="#B5B7B7"/><path d="M14.747 29.178c.03.06.05.12.05.19 0 .2-.17.37-.37.37-.19 0-.34-.14-.37-.32-.11.04-.23.09-.35.13-.02-.14.01-.27.16-.35.02-.09.08-.16.16-.19a.23.23 0 01.23-.12c.08-.04.17-.05.25 0 .06-.02.12-.02.18 0 .01 0 .02.01.04.02 0 0 .01 0 .02.01.06 0 .12 0 .16.04.01 0 .02.02.03.03l.06.09c-.09.03-.17.06-.26.09" fill="#000"/><path d="M14.346 29.319s.02.03.02.05c0 .04-.03.06-.06.06-.04 0-.06-.03-.06-.06l-.07.02c.02.07.09.13.16.13.1 0 .17-.08.17-.17 0-.02 0-.05-.02-.07l-.15.05.01-.01z" fill="#fff"/><path d="M13.846 29.389c.32-.13.65-.25.98-.36h-.09c-.07-.06-.11-.08-.21-.04-.08-.05-.14-.05-.22 0-.09 0-.14 0-.18.1-.1.03-.13.07-.14.17-.06.03-.11.06-.14.12" fill="#B5B7B7"/></svg>