<svg width="45" height="78" fill="none" xmlns="http://www.w3.org/2000/svg"><mask id="a" style="mask-type:luminance" maskUnits="userSpaceOnUse" x="0" y="0" width="45" height="78"><path d="M44.426.923H.906v76.82h43.52V.923z" fill="#fff"/></mask><g mask="url(#a)"><path d="M44.286 23.563h-43.1c-.11 0-.23-.03-.27.05v43.67c.03.65-.02 1.2.36 2.3.71 2.03 1.88 3.09 3.96 3.37.85.11 1.73.07 2.6.07h8.08c1.44 0 3.24-.27 4.51.55 1.27.82 1.55 2.32 1.65 3.7.15.15.3.32.46.47h.3l.44-.47c.02-1.42.47-3.06 1.82-3.8.66-.36 1.39-.45 2.13-.45h7.99c1.65 0 3.54.05 5.14-.1.33-.06.65-.14.96-.27.31-.12.6-.28.88-.46s.53-.4.76-.64c.23-.24.43-.5.61-.78.27-.51.48-1.04.63-1.59.15-.55.23-1.12.26-1.69v-43.79c0-.12-.03-.14-.14-.13" fill="#000"/><path d="M31.036 10.173a4.55 4.55 0 00-1.69-1.07c-.36-.14-.74-.25-1.12-.33-.31-.07-.74-.24-1.04-.09-.09-.22-.43-.14-.61-.17-.23-.03-.51-.17-.73-.04-.33.19-.33.7-.39 1.02a1.75 1.75 0 00-.92-.23c.03-.2.18-.57-.02-.73-.16-.13-.47-.11-.66-.15-.13-.03-.53-.1-.4-.31s.34-.32.49-.49c.65-.74.29-1.93-.53-2.36h.83l-.73-1.29 1.29.73v-3.16l-1.29.73.73-1.29h-3.16l.72 1.29-1.29-.73v3.16l1.29-.73-.73 1.3h.83c-.83.44-1.2 1.66-.51 2.39.15.16.38.28.49.46.14.22-.35.29-.46.31-.18.04-.53.02-.66.17-.17.19-.03.5 0 .71-.32 0-.63.07-.91.23-.07-.32-.07-.83-.4-1.02-.22-.12-.51 0-.73.03-.18.03-.53-.06-.61.16-.24-.16-.78.04-1.03.09-.44.09-.87.23-1.28.41-.27.12-.71.25-.91.47-.12.1-.24.2-.37.28-.16.13-.31.28-.44.44-.28.35-.5.74-.65 1.17-.15.43-.23.86-.23 1.31-.02.47.02.94.11 1.41.04.21.1.41.17.62.04.16.04.29.22.32-.1.48.16.99.33 1.43.08.23.17.46.26.69.05.14.11.48.27.52-.13.11.16.61.21.72.17.36.33.73.51 1.09.13.28.27.56.41.83.1.19.38.54.35.76-.03.22-.15.39-.07.64.07.22.11.21.3.14-.02.06-.03.11-.03.17 0 .06 0 .12.02.17.02.06.04.11.08.16.03.05.08.09.12.12-.13.04-.43.09-.52.21-.14.18.03.55.1.73h13.2c.12-.23.16-.47.12-.72-.04-.16-.38-.2-.5-.24.04-.04.08-.08.11-.13s.05-.11.07-.17c.01-.06.01-.12 0-.18 0-.06-.03-.12-.05-.17l.28.09c.07-.18.09-.36.07-.56-.03-.18-.14-.24-.05-.42.17-.33.35-.66.51-.99.35-.7.66-1.42.96-2.14.3-.72.55-1.45.79-2.19.03-.11.12-.25.08-.37-.04-.12.09-.19.12-.3.11-.35.2-.7.27-1.06.25-1.35-.02-2.82-.99-3.84" fill="#000"/><path d="M1.196 23.853v43.47l.02.3.02.29.03.28.04.27.04.26.05.27.06.25c.09.32.2.63.33.93l.1.2.11.21.12.2.13.19.14.18.15.17.16.16.17.15.17.14.18.14.19.13.2.12.21.11.22.1.23.09.24.08.25.07c.33.07.54.1.8.14l.29.02h12.6c2.85.08 3.76 2.09 3.88 4.51l.27.27h.1l.27-.27c.13-2.42 1.03-4.43 3.88-4.51h12.6l.29-.03.28-.03c.26-.04.52-.1.78-.17l.24-.08.23-.09.22-.1.21-.11.2-.12.19-.12.18-.14.18-.14.16-.15.16-.17.15-.16.14-.18.13-.19.12-.2.11-.21c.18-.37.32-.75.43-1.14l.06-.25.05-.26.04-.27.04-.27.03-.28.02-.29.02-.29v-43.47H1.166l.03-.01z" fill="#E3392C"/><path d="M20.726 29.983v-6.13h-.35v6.28l.11-.05.11-.05.11-.05h.02zm0 5.36v-1.62h-.03l-.06-.04-.06-.04-.06-.03-.06-.04-.06-.03h-.02v1.81h.35v-.01zm0 15.63v-.14h-.02l-.08.05-.08.03-.08.02-.08.02h.35l-.01.02zm0 1.65v-1.5l-.35.14v1.45l.05-.02.1-.03.11-.03.09-.02v.01zm0 11.89v-1.7l-.02-.04-.03-.06-.03-.06-.03-.06-.03-.06-.04-.05-.04-.05-.04-.05-.05-.05-.05-.05v3.24l.04-.1.04-.1.04-.1.04-.1.04-.1.03-.11.03-.11.03-.11.03-.11.02-.09.02.02zm-.36 8.67c.12.06.24.14.35.22v-4.62l-.05.02-.09.04-.09.04-.09.04-.05.02v4.23l.02.01zm-.76-42.81v-6.53h-.35v6.48h.12l.14.02.1.03h-.01zm0 5.4v-3.23l-.08-.07-.08-.07-.08-.07-.07-.07-.05-.05v3.66l.08-.02.11-.02h.12l.01-.01.03-.06.01.01zm0 17.42v-1.66h-.01l-.08.02-.08.02-.08.02-.08.02h-.03v2.06l.02-.03.05-.08.05-.07.05-.07.06-.07.06-.07.06-.07.01-.02zm0 13.6v-4.45l-.09-.07-.09-.08-.08-.09-.07-.1-.02-.03v4.99l.08.02.1.02.06-.08.06-.08.04-.06.01.01zm-.35 6c.12.02.24.05.35.08v-3.29l-.04.02-.08.05-.08.05-.08.04-.08.04h-.01v3l.02.01zm-1.34-15.97v.23-.02l.07-.09.03-.04-.1-.09v.01zm.35-20.13v-12.86h-.35v12.99l.09-.04.09-.03.09-.03.07-.02.01-.01zm0 9.97v-.23l-.03-.03-.07-.08-.07-.08-.07-.08-.07-.08-.05-.06v1.12l.06-.08.09-.11.08-.12.08-.11.04-.06h.01zm0 5.7v-.26l-.07.02-.11.02h-.12l.3.22zm0 2.73v-2.68l-.35-.04v3.75-.07l.02-.09.02-.09.02-.09.02-.09.03-.09.03-.09.03-.09.04-.08.04-.08.04-.08.05-.08v-.02l.01.01zm0 11.05v-5.85l-.03-.07-.04-.13-.02-.13v-.26l.04-.12.02-.06-.17-.36-.04-.08-.04-.08-.04-.08-.03-.08v-.02l-.01 6.87.13.11.14.18.09.17v-.01zm-.35 6.59h.35v-2.62h-.35v2.62zm-1.4-6.05v.02h.09l.1.03.09.02.09.03.1.03.09.04v-.28h-.03l-.03-.01h-.27l-.03.03-.03.02-.03.02-.12.09v-.02l-.02-.02zm0-27.17v.03l.02-.05h-.02v.02zm.63-2.17v-13.49h-.63v14.42h.01l.07-.08.07-.07.08-.06.08-.06.08-.05.08-.05-.4.05.38-.43.07-.08.08-.07.04-.04-.01.01zm0 8.02v-.04l-.28-.24-.08-.07-.08-.07-.07-.08-.06-.08-.06-.08.02.02.04.06.04.06.04.05.05.05.05.06.05.05.05.05.05.05.06.06.06.05.06.04.04.03.02.03zm0 2.66v-1.96h-.09l-.35.01h-.09l-.08-.03h-.02v2.46l.04-.03.12-.08.12-.09.11-.09.11-.09.11-.09.03-.03-.01.02zm0 17.5v-13.23l-.05-.02-.1-.03-.1-.03-.14.1h-.23v13.57l.03-.05.13-.12.15-.1.17-.07.16-.03-.02.01zm-.63 7.23h.63v-2.46h-.07l-.09-.02-.08-.02-.08-.03-.08-.03-.08-.04h-.01l-.02.06-.03.07-.04.15-.06.21v2.13l.01-.02zm-.88-31.77v-17.12h-.63v16.86l.08.03.18.07.18.07.18.07h.01v.02zm0 7.95v-3.02h-.04l-.1-.04-.1-.04-.1-.04-.09-.05-.09-.05-.08-.05-.04-.02v3.47l.13-.03.16-.04.17-.05.15-.05h.03v.01zm-.63 23.82h.63v-3.76l-.03-.07-.03-.11-.02-.11v-.11l-.01-.11.02-.11.03-.11.04-.08-.12.17-.07-.56v-.39l.03-.09.03-.08.03-.07.04-.07.04-.07v-14.96l-.06-.08-.05-.09-.03-.07h-.21l-.11.01h-.17v20.92h.02zm-.54-32.27v-16.61h-.52v16.32h.01l.15.1.16.09.16.08.05.02h-.01zm0 8.72v-4.01l-.04-.05-.02-.03-.09.04-.19-.08-.12-.06-.06-.03v4.3h.17l.08-.02.08-.04h.08l.08-.02h.03zm-.52 23.56h.52v-20.88h-.52v20.88zm-.87-33.17v-15.71h-.3v3.13-.02 12.34l.12.1.12.1.06.05v.01zm0 9.73v-5.04l-.04-.07-.06-.1-.05-.1-.04-.1-.03-.1v-.03.23l-.08-.06v5.39h.3v-.02zm-.3 23.43h.3v-21l-.1-.02-.1-.03-.09-.03v21.07l-.01.01zm-.96-44.39v-4.49h-.4v4.87l.05-.05.08-.08.08-.08.08-.08.08-.07.02-.03.01.01zm0 6.09v-1.53l-.02.03-.06.09-.06.09-.07.09-.07.09-.08.09-.05.05v.92h.22l.08.03.08.02.03.02v.01zm0 3.82v-1.83h-.01l-.1.09-.06.08-.06.09-.05.09-.04.09-.03.09-.03.09-.02.09v.36l.03.09.03.1.03.1.04.1.05.09.08.12.09.12.05.08v-.04zm0 10.62v-6.45l-.03-.03-.13-.12-.12-.12-.12-.12v5.71l.02.15v.21l.02.06.04.07.03.07.03.08.03.07.03.07.04.07.04.07.05.07.05.07.03.04-.01.03zm0 16.86v-14.22h-.09l-.09.02h-.22v14.41l.08-.02.07-.04.06-.04.04-.03.03-.02.13-.08-.01.02zm-.4 6.99h.4v-5.93l-.03.16-.03.17-.03.16-.04.17-.04.17-.04.16-.04.17-.04.17-.04.16-.05.17v4.27h-.02zm-1.01-44.52v-4.35h-.59v4.35h.26v.28h.03v-.28h.31-.01zm-.59 44.54h.59v-1.72l-.05.09-.14.25h-.27l-.14-.25v1.62l.01.01zm-.91-43.81v-5.08h-.93v4.21l.05.04.07.06.07.07.07.07.07.06.08.08.08.07.08.08.08.08.08.08.08.08.08.07.02.02.02.01zm0 5.07v-.3h-.01l-.09-.11-.09-.09-.08-.1-.08-.09-.07-.09-.07-.09-.07-.1-.06-.09-.06-.09-.05-.08-.05-.09-.05-.08-.04-.08-.03-.08-.04-.08v2.04h.18l.08.03.29-.26.09-.07.09-.05.1-.04.1-.03.01.02zm0 .82v-.2h-.02l-.04-.03h-.04l-.05-.02h-.27l.11.07.12.09.08.07h.11v.02zm0 12.79v-9.34l-.06-.07-.06-.08-.06-.09-.06-.08-.06-.08-.05-.08-.05-.08-.05-.08-.04-.08-.04-.08-.04-.08-.04-.08-.04-.08-.03-.08-.03-.08-.03-.08-.03-.08-.02-.08-.02-.08-.02-.08-.02-.08v-.08l-.03-.07h-.02l-.04-.02v12.47l.08-.08.09-.07h.02l.09-.51.06-.15.08-.13.1-.11.12-.08.13-.06.14-.03h.02l.01-.06zm0 .98v-.18h-.01l-.05-.02h-.16l-.07.02-.07.03-.27.15.05-.02.11-.02h.24l.12.03.08.03.02-.03.01.01zm-.93 24.16h.93v-3.78l-.05-.16-.05-.17-.05-.17-.05-.16-.04-.17-.04-.17-.04-.16-.04-.17-.04-.17-.04-.16-.03-.17-.03-.16-.03-.17-.03-.17-.03-.16-.03-.17-.03-.17-.09-.52.33.19.03.02.04.03.06.03.07.04.08.05.08.06.05.03v-14.8h-.07l-.09-.04-.09-.04-.08-.05-.07-.07-.06-.08-.05-.09-.04-.1-.03-.11-.02-.11v-.02h-.06l-.03.06-.03.08-.03.1-.16.58v21.36l-.02.01zm-1.86 0h1.24v-37.39l-.23.16.23-.62v-.03l.01-6.96-.05-.87.04.11v-3.28h-1.24v48.88zm1.98-23.12l.05-.02.12-.04.12-.02h.2v-.07l-.02-.02h-.02l-.03-.01h-.16l-.05.03-.05.02-.04.03-.04.03-.08.07zm30.28 23.11h1.25v-48.88h-1.25v22.64l.06.33.03.33.02.33v.63l-.03.31-.04.29-.04.28v23.73h.01l-.01.01zm-.6-28.36v-20.52h-.93v18.58l.05.1.12.24.12.24.12.24.12.24.12.25.16.35.12.27v.01zm-.93 28.35h.93v-21.86l-.1.21-.15.28-.16.28-.17.27-.2.27-.16.22v.8h.11l-.11.11v19.43h.02l-.01-.01zm-.91-32.23v-16.65h-.59v15.35l.09.2.11.24.11.24.11.24.11.24.07.14h-.01zm-.6 32.22h.6v-18.61l-.04.03-.1.07-.09.06-.1.05-.09.06-.1.05-.07.04v18.27l-.01-.02zm-1.01-35.84v-13.04h-.41v7.65h.22l-.22.39v4.07l.13.3.1.24.1.24.07.15h.01zm-.41 35.84h.41v-17.91l-.07.02-.1.02-.1.02h-.09l-.04.01.05.07.04.09.03.1.02.1v.28h-.14v17.21l-.01-.01zm-.95-41.16v-7.72h-.3v7.77h.02l.18-.04.1-.02v.01zm0 19.7v-3.88l-.06-.09-.08-.12-.08-.12-.08-.12v4.69l.07-.08.11-.13.11-.14v-.01h.01zm-.3 21.44h.3v-17.36l-.09-.02-.1-.02-.1-.03v8.03l.06-.1.08.63v.14l.01.14v.13l-.03.13-.03.13-.04.12-.05.1v7.99-.02l-.01.01zm-.88-40.76v-8.1h-.53v8.55l.02-.02.11-.11.11-.1.12-.09.13-.09.03-.02v-.02h.01zm0 20.19v-6.56l-.05-.07-.08-.12-.08-.12-.08-.12-.08-.12-.17-.26v7.11l.02.14.03.21h.04l.18-.02.17-.04.07-.02v-.02l.03.01zm0 8.93v-6.09h-.01l-.1-.05-.1-.05-.1-.05-.1-.05-.1-.05h-.02v5.96h.02l.07.02.07.02.07.03.06.03.06.04.11.08.03.12.02.06h.01v-.01l.01-.01zm-.52 11.65h.52v-5.93l-.02.03-.06.07-.06.07-.07.07-.07.07-.08.07-.08.07-.09.07v5.42l.01-.01zm-1.17-30.35v.35l.33.1-.06-.06-.07-.08-.06-.08-.06-.08-.05-.08-.04-.07h.01zm.63-9.64v-8.89h-.63v9.49l.07-.08.08-.09.08-.08.09-.08.09-.08.09-.08.13-.11zm0 16.94v-5.74l-.32-.5h.31l-.04-.03-.07-.05-.06-.05-.06-.05-.05-.06-.34-.41v5.32l.05.11.15.32.14.33.13.33.12.33.05.14-.01.01zm0 11.05v-5.6l-.03.06-.03.06-.03.06-.03.06-.04.06-.03.06-.04.06-.03.06-.03.05-.04.05-.04.05-.04.05-.04.05-.04.05-.04.05-.04.05-.04.05-.04.04v4.71h.35l.12-.03.09-.02.03-.02.04-.02v-.02l.02.03zm-.63 11.99h.63v-4.4l-.04.07-.05.08-.05.08-.05.08-.06.08-.06.08-.06.07-.06.07-.06.07-.06.07-.07.07-.03.03v3.56l.02-.01zm-1.51-8.03v1.64l.02-.08.02-.09.02-.09.02-.09.02-.09.02-.09.02-.09.02-.09.02-.09.04-.15.02-.13v-.21l-.02-.09-.03-.07-.03-.06-.05-.05-.06-.05-.07-.04.02.01zm.63-30.05v-10.79h-.63v5.2l.02.12v.49l-.01 1.96v.05l.02.07v.07l.02.07v.91l-.02.08-.02.15v.4l.02.12.02.11.03.1.03.1.04.09.04.09.03.08.05.08.06.08.06.08.06.07.18.19v.03zm0 11.93v-6.7l-.02-.05-.03-.1-.03-.1-.02-.09-.02-.1v-.09l-.02-.1v-.47l.02-.09.02-.09.02-.09.02-.09.02-.09.03-.09v-.04l.01-3.47-.22.11-.06.02-.06.02-.06.02-.07.02-.06.02h-.11v10.72l.12.17.2.29.2.29.11.17v-.02l.01.02zm0 13.89v-2.24h-.01l-.05-.03-.05-.04-.05-.04-.05-.04-.05-.05-.05-.05-.03-.04v.13l-.03.08v1.07l.02.09v.09l.03.09v.09l.03.09.02.1.02.1.02.09.02.1.03.1.02.1.02.06.07.09.08.08-.01-.02zm-.63 12.26h.63v-2.79l-.07.06-.09.08-.09.08-.09.07-.09.08-.09.07-.09.07-.03.02v2.25l.01.01zm-.76-45.14v-3.74h-.35v3.42l.11.09.11.1.11.1.02.02v.01zm0 17.16v-7.41h-.12l-.08-.03-.07-.02-.07-.03h-.01v7.11l.1.11.24.27h.01zm0 23.23v-3.41h-.09l-.16-.02h-.1v3.41l.04.02.05.02.05.02h.06l.06.02h.04l.05-.06zm-.35 4.77h.35v-1.8l-.07.03-.1.04-.1.04-.07.02v1.66l-.01.01zm-.99-44.96v-3.92h-.35v4.2l.04.08.03.07.02.08v-.02l.04-.08.03-.07.04-.07.03-.07.04-.06.04-.06.04-.06v-.02zm0 15.61v-5.97.02l-.26.26-.08.09-.02.02v5.27l.14.12.22.19zm0 23.34v-2.41h-.02l-.15-.05-.14-.05h-.04v2.37h.03l.15.05.15.07h.03l-.01.02zm-.35 6.09c.11-.02.23-.04.35-.05v-1.55h-.23l-.07.07-.05.04v1.5-.01zm-.76-45.62v-3.33h-.35v3.25l.1-.03.12.05.07.03.06.03zm0 14.55v-2.21l-.11-.06-.08-.05-.08-.05-.07-.05h-.01v1.94l.05.05.04.06.04.05.04.06.04.06.04.06.04.06.04.06.02.04v-.02zm0 24.94v-2.84l-.12-.08-.12-.08-.09-.07v3.62l.02-.11.05-.13.07-.12.09-.1.1-.08v-.01zm0 1.21v-.28l-.02.02-.02.02-.17.2h.14l.07.03v.01zm-.35 5.29c.11-.06.23-.12.35-.16v-1.73l-.07-.05-.08-.07-.08-.08-.04-.05v.07l.02.07.03.09.2.5-.34-.15v1.57l.01-.01zm15.12-49.32v48.81c.21-.04.41-.08.7-.16l.24-.08.23-.09.22-.1.21-.11.2-.12.2-.12.18-.14.18-.14.16-.15.16-.17.15-.16.14-.18.13-.19.12-.2.11-.21c.18-.37.32-.75.43-1.14l.06-.25.05-.26.05-.27.04-.27.03-.28.02-.29.02-.29v-43.47h-4.03v.03zm-34.51 0v48.86h-.03c-.26-.03-.48-.07-.81-.14l-.25-.07-.24-.08-.23-.09-.22-.1-.21-.11-.2-.12-.19-.13-.18-.14-.17-.14-.17-.15-.16-.17-.14-.16-.14-.18-.13-.19-.12-.2-.11-.21-.1-.21c-.13-.3-.24-.61-.33-.93l-.06-.25-.05-.27-.05-.27-.04-.26-.03-.28-.02-.29-.02-.29v-43.47h4.4v.04z" fill="#D83B32"/><path d="M8.476 34.543s.45.39.47.21c.03-.25-.31-.21-.47-.21zm8.02 32.16c.2.02.39.07.57.15 0-.19.07-.32-.16-.33-.16 0-.29.06-.41.17v.01zm-.76 1.33c.07-.08.15-.15.24-.2.02-.02.19-.08.1-.12-.13-.05-.29.24-.34.31v.01zm.38 1.08s.29-.22.16-.24c-.09-.03-.17.21-.16.23v.01zm-5.5-22.17c.13.02.26.06.37.13.11.07.2.17.27.29.07.11.12.23.14.36 0 .15.02.3.04.45.1.38.39.98.79 1.11.22.05.45.06.68.05.23 0 .46 0 .7-.02.46-.03.92-.09 1.37-.18.54-.12 1.04-.32 1.52-.61.47-.29.88-.65 1.22-1.08.19-.23.38-.47.55-.72.1-.14.07-.15-.04-.28-.11-.13-.21-.24-.31-.36-.13-.17-.11-.19-.31-.12-.12.04-.25.08-.38.11-.25.05-.5.04-.75-.02-.16-.04-.31-.11-.45-.2l.24.3c-.5-.17-.99-.3-1.43-.61-.11-.08-.38-.42-.49-.38-.11.05-.53-.24-.64-.33l.12.46c-.36-.47-.81-.93-.98-1.51v.23c-.22-.21-.5-.42-.63-.71a1.02 1.02 0 01-.1-.38c.01-.07.02-.13.01-.2-.06-.07-.12-.12-.19-.17-.48-.41-.92-.87-1.32-1.36v5.77-.02zm-2.33 1.66c.13-.05.26-.06.39-.04.12.02.27.12.26-.08 0-.25-.59.08-.65.12zm-.19 1.04c.16-.07.32-.09.5-.07-.01-.27-.42-.02-.5.07zm17.04 18.24c.17.01.34.05.5.11-.03-.15-.04-.3-.02-.46-.23 0-.35.19-.48.35zm-.38 2.24c.07-.04.15-.03.13-.12-.05.03-.1.07-.13.12zm4.89-35.99c.25-.74.87-1.19 1.46-1.65l-.09.3c.66-1.1 1.94-1.21 3.1-1.24-.43.7-.71 1.46-.84 2.27-.1.84-.05 1.68.17 2.5l.33-.58c.88 2.05 1.77 4.09 2.73 6.11.47.99 1.04 1.99 1.41 3.03.41 1.1.58 2.23.52 3.39-.14 1.9-1.04 3.56-2.28 4.96h.76c-.4.44-.84.81-1.33 1.14-.52.3-1.09.49-1.69.56.12.2.16.41.13.64-1.11-.11-2.18-.38-3.12-1.01-.16.74-.63 1.25-1.03 1.86-.45.68-.39 1.34-.22 2.09-.29-.15-.62-.28-.82-.56-.08.49-.08.98 0 1.46.04.26.09.52.16.78.04.12.11.23.2.32.09.1.19.17.31.22.26.12.52.16.8.13.26-.02.49-.17.75-.17.23 0 .6.11.66.34.04.15.19.02.29.13.08.08.14.17.2.27.15.27.2.56.17.87l.08-.16c.1.43.23.84.13 1.29l.11-.19c.08.57.19 1.14-.13 1.65a.21.21 0 00-.07.13c.05.05.07.11.06.18-.03.14-.07.27-.13.4-.05.12-.12.24-.21.34-.04.05-.24.21-.23.26.06.47-.48.94-.83 1.18-.17.11-.22.5-.31.67-.11.23-.24.45-.4.66-.15.21-.32.41-.51.59-.2.19-.44.33-.63.52-.33.35-.7.65-1.11.9-.41.25-.86.41-1.34.47-.12.01-.23.02-.35.02-.07 0-.25-.05-.31 0a.61.61 0 01-.16.12c-.06.03-.13.05-.19.07-.07.01-.13.02-.2 0-.07 0-.13-.03-.19-.06a.975.975 0 01-.38-.32c0 .23.17.51.25.72-.41-.18-.91-.36-.93-.89 0-.11 0-.22.04-.33.02-.07-.12-.23-.16-.3-.11-.19-.17-.4-.17-.62 0-.09.03-.18.07-.26.08-.15.14-.12.04-.28a.916.916 0 01-.15-.62c.06-.42.52-.58.89-.58-.01-.58.03-1.18.72-1.3.13-.01.26 0 .39.02.13.03.25.08.37.14.12.07.22.15.31.25s.16.21.21.33c.04.11.04.25.09.34.08.11.18.2.3.27.1.06.2.1.32.12.12.02.17-.11.24-.2.27-.4.47-.83.6-1.3.07-.23.13-.47.19-.7.06-.24.17-.51.12-.76-.09-.57-.87-.48-1.29-.54-.51-.05-1.01-.17-1.49-.36a5.13 5.13 0 01-1.62-1.03l.33.45-.23-.14c.08.27.08.54 0 .81-.03.1-.17.22-.18.32.02.06.03.13.05.2-.03.08-.05.15-.08.22-.09.25-.22.48-.37.69-.04.05-.23.23-.21.28.04.15.03.3-.02.45-.15.51-.72.76-1.2.86-.16.03-.33.42-.45.55-.17.19-.35.36-.55.52-.36.28-.76.51-1.19.68-.17.06-.33.31-.47.43-.18.14-.37.27-.57.38-.42.21-.86.32-1.33.33-.24 0-.43.12-.66.14a.988.988 0 01-.63-.15l-.15.57c-.2-.12-.45-.24-.58-.45-.16-.27-.11-.45-.08-.74.02-.2-.18-.48-.24-.7a.842.842 0 01.06-.66l-.12.16c-.05-.47-.21-1.12.24-1.46a.92.92 0 01.28-.14c.11-.03.28 0 .28-.11 0-.29 0-.58.23-.79.4-.37 1.11-.5 1.49 0 .17.21.23.52.41.7.25.26.55.42.9.5.13.03.18-.11.25-.21.17-.22.32-.44.46-.68.26-.44.46-.9.6-1.39.25-.86.37-2.07-.52-2.6-.02.22.13.44.21.63-.43-.23-1.04-.46-1.2-.98-.05-.12-.06-.25-.05-.38.01-.1-.25-.28-.32-.34a2.51 2.51 0 01-.47-.65c-.13-.25-.16-.51-.11-.77.05-.24-.15-.5-.25-.72-.2-.45-.34-.92-.23-1.41.03-.12.08-.24.13-.36a.99.99 0 01.11-.17c.06-.09.02-.09-.06-.15-.08-.07 0-.59 0-.71.02-.26.09-.51.2-.75.11-.24.27-.45.46-.63.09-.08.2-.15.31-.22.05-.02.09-.04.12-.08a.331.331 0 010-.24c.1-.24.21-.46.35-.67.15-.22.33-.4.55-.55.22-.15.45-.25.71-.32.26-.06.52-.08.78-.08.15 0 .3.08.43.02.18-.08.36-.13.56-.15.2-.02.38 0 .57.05-.37-.98-.91-1.86-1.63-2.62 0 .13-.03.26-.08.39-.05.12-.12.24-.21.34-.09.1-.2.18-.32.25-.12.06-.25.11-.38.13l.7.02c-.69.28-1.41.66-2.16.66l.13.04c-.33.22-.64.47-1.05.46l.37.26c-.28-.03-.57-.06-.85-.1-.13-.02-.26-.04-.38-.07-.06-.03-.13-.04-.2-.05a.95.95 0 01-.17.1c-.26.03-.52 0-.77-.07a.745.745 0 01-.32-.21c-.04-.05-.07-.13-.12-.17a.156.156 0 00-.08-.06h-.1c-.97.08-2 .1-2.91-.26a.586.586 0 00-.43-.05c-.15.03-.3.04-.45.06-.31.04-.62.04-.93 0v12.86c0 .07.26.07.34.15-.06.4-.08.8-.07 1.2-.11.06-.27 0-.27.13v.54l1.4-.82c-.17 1.13-.42 2.24-.76 3.34-.17.54-.38 1.06-.62 1.57-.11.24-.23.46-.35.69-.1.18-.13.15-.33.15-.05 0-.17-.27-.2-.33-.89-1.69-1.31-3.53-1.63-5.4.47.27.93.54 1.4.81v-.54c0-.13-.16-.07-.27-.13.01-.4-.01-.8-.07-1.2.08-.08.34-.08.34-.15v-13.15c0-.12-.43 0-.49 0-.07 0-.13 0-.2-.01a.36.36 0 01-.18-.07.61.61 0 01-.16-.12.61.61 0 01-.12-.16c-.07-.11-.11-.54-.22-.25-.09.27-.17.55-.23.83-.11-.41-.31-.86-.25-1.29.03-.21.23-.39.19-.57-.04-.21-.1-.44 0-.65.06-.14.28-.28.3-.4.02-.24.08-.47.19-.68.24-.38.8-.4 1.18-.28v-8.62c0-.15-.15-.22-.25-.33-.38-.36-.69-.78-.93-1.24-.16-.33-.27-.67-.33-1.03 0-.07-.21-.19-.26-.27a.746.746 0 01.01-.76c.06-.06.12-.13.17-.2-.02-.07-.17-.05-.21-.05-.22.03-.43.26-.6.39.14-.4.24-.99.74-1.1.1-.02.2-.02.3 0 .12.03.26-.17.35-.24.09-.08.2-.13.31-.16a.83.83 0 01.35-.02c-.46-.41-.84-.9-1.14-1.44-.28-.55-.29-1.14-.33-1.75.02.04.05.07.07.11-.07-.28-.11-.57-.12-.85-.02-.31-.12-.6-.14-.91 0-.19 0-.38-.04-.56-.05-.15-.09-.3-.11-.46-.05-.36-.05-.73-.08-1.09.12.25.22.62.43.82.2.2.4.38.6.57.4.37.79.74 1.2 1.09v-1.16c0-.2.1-.13.29-.13.08-.01.16-.01.24 0 .02.09.02.18 0 .28h.02v-.27c.06-.02.12-.02.19 0 .15 0 .34-.08.34.1v1.13c.41-.35.8-.72 1.2-1.08.19-.18.39-.36.57-.54.08-.12.15-.25.19-.39l.21-.46c-.02.38-.03.76-.08 1.13-.02.14-.05.28-.09.42-.04.19-.07.38-.07.57-.02.3-.12.57-.13.86 0 .32-.04.63-.12.94.02-.03.04-.06.06-.1-.04.68-.07 1.31-.41 1.92-.17.29-.38.57-.61.83-.12.13-.24.26-.36.38-.08.08-.36.26-.36.37.04-.04.09-.07.15-.08.06-.01.12-.01.18 0 .19.03.14.07.12.25l-.08.71c.14-.04.15-.03.17-.18 0-.12.02-.24.03-.36 0-.14-.04-.27.12-.27.14 0 .27.01.4.04.06.01.11.03.17.06.05.02.1.05.15.09.05.03.09.07.13.11.04.04.08.09.11.14a1.093 1.093 0 01.14.32c.01.06.02.11.02.17v.17c-.08.59-.63.82-.88 1.3-.27.52-.08 1.02.25 1.46a7.21 7.21 0 002.38 2.08c.47.26.96.48 1.46.66.19.07.19-.06.29-.22.07-.11.13-.22.2-.33.09-.14.39-.42.35-.57a.388.388 0 01.06-.36c-.16.15-.33.32-.49.48.07-.81.14-1.65.93-2.08l-.4.05c.38-.43.74-.85 1.28-1.09.12-.05.24-.1.36-.14.07-.02.34-.04.38-.09 0-.07 0-.14-.01-.21a.47.47 0 01.13-.15c.1-.11.22-.21.35-.28.1-.05.2-.09.31-.11.19-.04.19-.03.29-.21.1-.18.56-.27.74-.3.11-.01.23-.01.34 0 .09 0 .11.04.16-.04.04-.05.1-.1.17-.12.22-.11.49-.06.73-.05.3.02 1.39.08 1.31-.47-.07-.51-.9-.51-1.27-.58-.48-.09-.94-.25-1.36-.5-.23-.11-.44-.25-.65-.41a.534.534 0 01-.17-.25c-.04-.11.04-.32-.04-.38-.4-.31-.72-.69-.95-1.14-.3-.55.09-1.1.68-1.1.13.02.26.03.39.03.14-.03.27-.08.4-.13.22-.11.45-.2.68-.28.13-.01.25-.04.38-.08.09-.09.16-.18.21-.29.18-.23.4-.42.66-.56.59-.33 1.31-.38 1.97-.33-.09-.79.2-1.38.99-1.6.22-.06.6.29.74.43.2.22.34.47.42.76.08-.22.19-.43.34-.62.15-.19.32-.35.52-.47.18-.11.18-.08.35.05.1.08.2.16.28.24.21.19.39.4.54.64a2.336 2.336 0 01.35 1.48c-.03.28-.1.54-.2.8-.05.13-.1.26-.17.38-.04.08.11.22.15.29.31.55.3 1.19.23 1.8-.03.17-.04.34-.03.5.01.17.05.33.11.49.06.16.14.31.23.44.1.14.21.26.35.37-.33.17-.7.37-1.07.15-.18.37-.28.77-.31 1.18-.01.44.08.85.27 1.25-.51.05-.85-.04-1.15-.5-.41.45-.88.88-1.23 1.37-.38.52-.26.96-.08 1.53-.37-.2-.82-.39-1-.8-.32.36-.59.83-.44 1.33.15.5.64.83.93 1.24.15.21.27.43.37.67.04.09.07.19.1.28.01.11.04.21.08.3.44.37.87.76 1.29 1.17.84.82 1.58 1.72 2.2 2.71.63.99 1.13 2.04 1.51 3.15.17.52.31 1.05.42 1.59.06.29.1.58.15.87.01.08.67-.14.73-.17 1.05-.48 1.45-1.69 1.46-2.77.01-1.16-.63-2.04-1.24-2.98-.6-.94-1.24-1.92-1.87-2.88h.31c-.29-.19-.49-.5-.7-.75l.41.13c-.19-.19-.33-.41-.43-.66a.36.36 0 01-.07-.18c.05-.05.09-.1.11-.17-.08-.09-.16-.19-.23-.29-.13-.19-.24-.4-.33-.61-.07-.16-.24-.47-.23-.66.03-.05.06-.11.08-.17a1.14 1.14 0 00-.1-.19c-.06-.13-.1-.26-.13-.4-.04-.26-.04-.53 0-.79.04-.24.07-.58.28-.7.04-.02-.1-.65-.11-.73a6.76 6.76 0 01.06-1.68c.02-.15 0-.29.16-.33.15-.04.08-.18.07-.33-.01-.29.02-.57.11-.85v.04l.02.06z" fill="#000"/><path d="M33.826 31.673c-.89 1.49-.99 3.18-.42 5.04.14-.21.23-.42.38-.64 1.12 2.58 2.25 5.17 3.56 7.74 1.78 3.74.99 6.88-1.54 9.55h.75c-.19.21-.4.4-.63.57-.23.17-.47.31-.73.42-.26.12-.52.21-.8.27-.28.06-.55.1-.84.1.23.24.33.42.33.61a6.07 6.07 0 01-1.63-.34c-.52-.19-1.01-.45-1.46-.78-.09.8-.47 1.36-.89 1.88a2.284 2.284 0 00-.48.98c-.04.18-.06.36-.06.54 0 .18.03.37.07.54a1.23 1.23 0 01-.4-.31c-.11-.13-.2-.28-.26-.44a5.312 5.312 0 00.14 2.96c.52.7 1.12.7 1.78.61.07-.04.14-.07.22-.09.08-.02.16-.03.24-.02.08 0 .16.02.23.05.08.03.14.07.21.12.09.31.17.62.23.94.1-.21.14-.43.1-.66.52.51.33 1.22 0 2.06.22-.2.39-.43.52-.7.18.7-.14 1.36-.61 1.92.42-.04.7-.33.8-.84.1.7-.14 1.26-.89 1.68.24-.03.46-.11.66-.24-.09.42-.28.89-1.03 1.13.07.04.15.07.23.07.08 0 .16-.02.23-.07-.1.33-.33.66-.84.99-.13.48-.34.92-.63 1.33-.29.4-.64.74-1.06 1.02-.89.89-1.87 1.55-3.14 1.36-.28.38-.7.28-1.03-.19-.33.09-.23.33-.09.61-.61-.19-.61-1.12.05-1.26.09-.61-.47-.38-.56.14-.38-.66-.24-1.08.42-1.22.14-.42-.38-.52-.52-.05-.61-.94.52-1.26 1.45-.75-.09-.38-.14-.7-.05-.89-.37-.1-.56.05-.66.19-.09-.84.61-1.08 1.31-.61.13.08.23.19.3.32.08.13.11.28.12.43.11.15.25.27.41.36.16.09.34.14.53.15.66-.75.89-1.69 1.12-2.62.24-.89-.23-1.17-1.03-1.22-1.82-.1-3.14-.89-4.07-2.15-.01.14 0 .27.04.4s.11.25.19.35c-1.03-.66-1.4-1.27-.8-1.82a.814.814 0 01-.28-.75c-.08.13-.13.28-.16.43-.03.15-.02.31.02.46-.38-.47-.42-.89-.24-1.31-.18.05-.28.24-.37.38-.05-.56.04-1.08.47-1.36 0-.28.05-.56.05-.89-.38.14-.52.52-.56.94-.47-.84-.09-1.27.56-1.83-.28 0-.52.14-.7.47.14-.94.61-1.55 1.17-2.06-.23 0-.52.19-.75.47.05-.7.38-1.22 1.17-1.31-.2-.09-.4-.1-.61-.05.23-.3.52-.55.85-.74.33-.19.69-.3 1.07-.34-.28-.19-.61-.14-.94.09.28-.52.61-1.03 1.73-.8a.76.76 0 00-.19-.12c-.07-.03-.14-.05-.21-.07a.543.543 0 00-.22 0c-.08 0-.15.03-.22.06.56-.42 1.17-.42 1.83-.42-.84-.23-1.69-.47-2.81.94-.05.38-.19.61-.42.75-.06-.42-.15-.83-.27-1.23-.12-.4-.28-.8-.47-1.17-.19-.38-.4-.74-.65-1.08a7.55 7.55 0 00-.82-.96c.17-.09.34-.17.52-.23.33.19.56.05.89-.14.56-.23.8-.52.8-.84.61-.14.84-.42.99-.8.75-.54.75-1.1.47-1.65-.09.48-.33.83-.7.99.15-.01.29-.07.42-.15.12-.09.22-.2.28-.34 0 .78-.56 1.11-1.45 1.29.11.07.24.11.37.11s.26-.01.38-.06c-.11.12-.24.23-.38.32s-.29.16-.45.22c-.16.06-.32.09-.49.1-.17.01-.34 0-.5-.03.04.07.09.12.15.16.06.05.13.08.2.1.07.02.15.03.22.02.08 0 .15-.02.22-.05-.33.28-.7.47-1.07.19 0 .14.14.28.33.38-.66-.04-1.08-.14-1.31-.38.09.22.25.37.47.47-.42 0-.8 0-1.12-.24.05.19.19.28.47.38-.31.26-.64.48-.99.66.37.19.75 0 1.17-.38 0 1.12-.99 1.22-1.97 1.12.3.21.63.32.99.33-.75.33-1.54.52-2.43 0 0 .38.28.56.84.61-.47.33-.99.28-1.45-.14.05.18.24.38.52.56-.27 0-.53-.07-.78-.17-.25-.11-.47-.25-.67-.43.05.19.19.33.47.56-.47 0-.94-.04-1.08-.52-1.22.1-2.39.14-3.37-.38-.94.23-1.87.23-2.81-.24-.61.19-.94 0-.99-.56-.37-.23-.42.09-.51.38-.28-.84.14-1.27.8-1.08.14-.66-.52-.56-.7-.28-.02-.06-.04-.12-.04-.18s0-.13.02-.19.04-.12.08-.17a.556.556 0 01.3-.23c.06-.02.12-.03.19-.03.06 0 .12.02.18.04s.11.05.16.1c.51-.52-.09-.8-.52-.52.05-.75 1.08-.75 1.68 0 .05-.02.09-.05.13-.08a.47.47 0 00.09-.12c.02-.05.04-.1.04-.15 0-.05 0-.1-.02-.15-.1-.33-.28-.38-.47-.38.28-.53 1.45-.54 1.4.7.06.26.17.51.32.74.15.23.34.42.56.57.9.1 1.79.05 2.67-.14 1.97-.33 2.95-1.54 3.8-2.81.32-.38.59-.79.8-1.23.37-.07.71-.21 1.03-.42.26-.13.49-.3.69-.51.2-.21.36-.45.48-.71.84-.23 1.08-.91 1.17-1.68.42-.58.33-1.08-.23-1.52.23.39.37.8.23 1.24-.09-.26-.23-.39-.37-.38.28.5.14.96-.05 1.42 0-.12-.03-.24-.08-.35a.976.976 0 00-.21-.29 1.028 1.028 0 01.12.68c-.02.12-.05.23-.1.33s-.12.2-.2.28c.02-.16 0-.32-.04-.48-.05-.15-.13-.29-.24-.41.09 1.01-.33 1.58-.94 2.04.09-.17.14-.34.15-.53 0-.19-.02-.37-.1-.54-.19.99-.51 1.74-1.54 1.59.24-.24.42-.48.42-.72-.28.26-.61.53-1.12.51.04.12.12.21.22.29.1.08.21.12.34.13-.1.44-.27.86-.52 1.24-.8-.84-1.31-1.69-1.31-2.57-.28.27-.28.66-.14 1.12-.89-.74-.7-1.49-.23-2.22-.33.14-.56.44-.75.89-.15-1.19.18-1.94.84-2.45-.37 0-.7.18-.93.58.05-.61.19-1.12.84-1.26-.16 0-.3.03-.44.1-.14.06-.26.16-.36.28.28-.47.52-1.06 1.12-1.1-.23-.32-.37-.17-.51-.09.18-.51.56-.71 1.03-.77-.52-.11-.99.13-1.4.56.09-1.36.93-1.75 2.15-1.71-.46-.14-.93-.18-1.4-.1.7-.83 1.68-1.03 2.76-.96-.19-.41-.61-.33-.99-.28.28-.42.75-.61 1.5-.3 0-.23-.14-.38-.47-.42.11-.08.24-.13.37-.17.13-.04.27-.06.41-.06.14 0 .27.03.4.07.13.04.25.1.36.18.04-.12 0-.23-.33-.35.28-.29 1.17.11 1.87-.21.75-.33.37-1.12-.66-1.21-.36-.04-.72-.12-1.06-.25-.34-.13-.66-.31-.95-.52-.47-.18-.52-.41-.33-.68-.4-.25-.72-.59-.94-1.01-.56-.64 0-1.22.61-.98.61-.02 1.12-.53 1.73-.52.51-.99 1.54-1.31 2.95-1.17-.23-1.03.14-1.46.8-1.61.75.28 1.12.96 1.08 2.06.09-1.01.47-1.68 1.08-2.01 1.36 1.02 1.5 2.23.75 3.56.47.47.56 1.16.47 2.01-.14.89.14 1.39.51 1.78-.28.14-.56.23-.84-.07-.42.86-.61 1.71-.18 2.57-.38.06-.66-.18-.89-.63-.42.46-.84.93-1.26 1.4-.42.47-.52.95-.38 1.43-.47-.26-.56-.51-.61-.77-.84.79-1.03 1.59-.28 2.39.28.24.51.52.69.85.19.32.31.66.38 1.02 3.04 2.53 5.06 5.66 5.57 9.59 2.25 0 3.19-2.95 2.06-4.96-.84-1.29-1.69-2.56-2.48-3.83.28 0 .56-.01.84-.07-.21 0-.4-.06-.59-.15-.19-.09-.35-.21-.49-.37.11.05.23.07.35.07.12 0 .24-.02.35-.07-.66-.14-.89-.55-1.08-1.01.28.29.61.46.93.38-1.03-.55-1.4-1.32-1.64-2.13.29.3.64.53 1.03.68-1.4-.92-1.36-1.84-1.08-2.76.03.17.08.33.14.49.07.15.15.3.24.44a2.322 2.322 0 00.73.68c-1.12-1.39-1.26-2.86-.99-4.37.07.33.19.64.35.93.16.29.36.56.59.8-1.31-2.51-.66-3.5.33-4.26-.07.18-.11.37-.13.56-.02.19-.03.38 0 .58.02.19.05.38.11.56.06.18.14.36.23.53-.47-2.45.66-3.45 2.86-3.46l-.02-.11z" fill="#fff"/><path d="M16.216 41.713c-.09.15-.15.32-.19.49-.09-.14.1-.35.19-.47v-.02zm.04 1.99v.39a.551.551 0 010-.38v-.01zm.23.99c.24.28.5.53.8.75-.33-.18-.6-.43-.8-.75zm.66.07c.11.29.25.57.42.83-.19-.08-.19-.13-.28-.34-.05-.17-.09-.33-.14-.5v.01zm1.92.12l-.14.15s-.1-.04-.14-.07c.1-.02.19-.05.28-.09v.01zm2.11 4.61l-.05.05s0-.05.05-.05zm1.4 9c0 .1-.05.24-.05.38 0 .1-.05.1-.14.19.05-.19.05-.42.19-.56" fill="#E8E8E6"/><path d="M9.636 38.783v-4.06c-.24-.68-.71-.72-1.09-.35.46-.01.64.15.54.49-.05.05-.11.09-.18.1-.07.02-.14 0-.21-.02-.57-.57-1.08-.46-1.24.09.15-.14.72-.2.64.27-.28.03-.47.76.06.93.1.85.54 1.69 1.47 2.54l.01.01zm11.901 13.97c1.43-.33 1.86.43 1.71 1.38-.5.54-1.18 1.43-1.05 2.18-.39.91-.38 1.82-.23 2.74-.02.78-.09 1.56.74 2.35.03.64.32 1.24 1.06 1.76.22.03.26.39.12.83.29-.12.34-.47.38-.72.3.65.17 1.29-.77 1.73.29.08.49-.1.7-.27-.16.5-.39.99-1.17 1.56.1.01.2 0 .3-.04.1-.03.18-.09.25-.16-.03.5-.39.85-1.25 1.02-.46.8-1.19 1.37-2.15 1.76-.62.69-1.38 1.16-2.46 1.09-.09.06-.19.1-.29.12-.1.02-.21.03-.32.02-.11 0-.21-.04-.3-.08-.1-.04-.18-.1-.26-.18l-.16.59c-.77-.43-.39-1.13.12-1.41 0-.54-.52-.39-.59.17-.3-.59-.3-1.07.39-1.32-.06-.45-.4-.42-.66 0-.16-1.07.74-1.24 1.72-.66-.27-.27.01-.72-.2-.79-.11-.05-.22-.07-.34-.05-.12.01-.22.06-.32.13-.09-.8 1.34-1.36 1.72.04a2.033 2.033 0 001.29.7c.7-.85 1.28-1.82 1.49-3.17.09-.92-.04-1.73-.94-2.15-.11.09-.1.41-.05.5-.54-.26-.99-.76-.58-1.4-.05-.32-.13-.6-.39-.59-.06.22-.06.44 0 .66-.77-.72-.87-1.39-.43-1.8 0-.65-.06-1.04-.23-.9-.08.25-.12.52-.12.78-.4-.83-.75-1.64.23-2.51.15-.21.18-.38.08-.51-.23.08-.36.33-.51.59-.03-.85.14-1.88 1.37-2.27.13-.04.25-.1.35-.19.1-.09.18-.2.24-.32-.32.01-.61.12-.86.31.36-.85.86-1.59 2.38-1.52h-.01z" fill="#E7E7E5"/><path d="M21.926 52.623c.7.33 1.03.8 1.03 1.55-.42.23-.51.94-.37 1.17.28-.66.66-1.08.99-1.26-.1-.7-.19-1.36-1.64-1.45l-.01-.01z" fill="#E8E8E6"/><path d="M21.926 52.623c.7.33 1.03.8 1.03 1.55-.42.23-.51.94-.37 1.17.28-.66.66-1.08.99-1.26-.1-.7-.19-1.36-1.64-1.45l-.01-.01z" stroke="#000" stroke-width="2.34"/><path d="M17.556 45.753c-.21-.08-.4-.18-.57-.31-.18-.13-.33-.28-.47-.45-.14-.17-.24-.36-.33-.56-.08-.2-.14-.41-.16-.62-.1-.24-.17-.48-.2-.74s-.02-.51.04-.77c-.12-.36-.16-.74-.11-1.12-2.06-.71-3.42-1.81-4.31-3.17a1.18 1.18 0 01-.17-.4 1.316 1.316 0 01.07-.87c.06-.14.14-.26.24-.37 1.21-.95.6-1.88-.22-1.86l-.05.71-.52.17.11-1.04c-.14-.04-.25.08-.33.35v6.09a9.63 9.63 0 001.75 1.8c-.08.3-.02.62.35.96-.01-.11 0-.21.06-.31.05-.1.12-.18.22-.23-.02.27.01.52.1.77.09.25.22.48.4.67-.02-.06-.04-.11-.04-.17 0-.06 0-.12.01-.18s.03-.12.06-.17c.03-.05.07-.1.11-.14-.13.47.06.86.74 1.12-.28-.37-.41-.73-.3-1.09.2.87.66 1.58 1.75 1.91a1.97 1.97 0 01-.32-.49c-.08-.18-.13-.37-.14-.57.56 1.06 1.32 1.42 2.27 1.07l-.04.01zm11.26 9.3c.02.18 0 .35-.03.52-.04.17-.11.33-.2.48.34-.14.61-.36.81-.66.22-.38.23-.9-.1-1.65l.19-.08c.12.27.2.54.25.83.16-.29.24-.6.25-.94-.02-.49-.16-.95-.42-1.37l.17-.1c.16.26.28.54.36.83.12-.2.17-.41.16-.64-.03-.26-.18-.53-.49-.79l.13-.16c.21.16.36.36.48.6.02-.2 0-.4-.06-.6-.07-.18-.16-.34-.29-.48-.13-.14-.28-.25-.45-.34l.1-.18c.17.09.33.21.47.35-.03-.17-.08-.33-.16-.48-.08-.13-.18-.24-.3-.33a1.01 1.01 0 00-.41-.18l.05-.2c.18.04.34.11.49.22.15.11.26.24.36.39.14.28.22.58.25.88h-.02c.05.09.09.19.13.29.11.4.1.79-.02 1.18h-.02c-.03.28-.13.52-.3.75a2.186 2.186 0 01-.08 1.04c-.07.22-.18.42-.32.61 0 .23-.07.46-.18.66-.25.43-.71.69-1.25.9l-.38.15.26-.31c.15-.15.26-.33.33-.54.07-.2.1-.41.08-.62l.2-.02v-.02l-.04.01zm-1.7-27.31c.59.79.66 1.61.37 2.47-.13-.2-.29-.37-.49-.52-.19-.15-.4-.26-.63-.33-.03-.72.2-1.29.74-1.62m-2.7 1.14c.45-.01.88.05 1.3.2 0-.15 0-.3-.04-.44-.03-.15-.08-.28-.14-.42-.06-.13-.14-.26-.24-.37-.1-.11-.2-.21-.32-.3-.41.24-.54.73-.56 1.32v.01zm.12 6.01a.95.95 0 01-.59.17c.17.14.36.22.57.23.26 0 .53-.13.83-.51l.09.08c-.1.13-.22.25-.36.35.2 0 .38-.04.55-.13.26-.14.45-.35.59-.6l.1.06c-.09.15-.2.29-.33.41.14 0 .26-.02.37-.09.16-.12.25-.28.27-.47l.12.02c-.03.15-.09.29-.18.41.11-.04.21-.11.29-.19.08-.08.13-.18.17-.29.04-.11.05-.22.05-.33h.12c0 .11-.02.23-.05.34.08-.06.15-.14.21-.22.05-.08.08-.16.09-.25.01-.09 0-.18-.02-.26l.12-.03c.03.1.04.21.02.31-.01.11-.05.2-.11.29-.1.15-.23.27-.39.38-.03.05-.07.1-.11.15-.18.17-.39.27-.62.32-.15.05-.31.07-.47.04l-.18.12c-.25.13-.51.17-.79.13-.12.06-.26.09-.4.09-.32-.04-.59-.17-.81-.4l-.18-.16.23.05c.12.03.24.04.37.02a.83.83 0 00.34-.13l.07.1v-.02l.02.01zm9.45 17.49c-.06.16-.15.32-.26.45-.12.14-.25.25-.4.34.36.03.71-.05 1.02-.22.36-.24.61-.7.67-1.52l.2.02c-.02.29-.07.57-.16.85.28-.18.49-.42.64-.72.21-.45.29-.92.25-1.41h.2c.02.29 0 .59-.05.88.2-.12.34-.29.43-.5.05-.15.07-.31.05-.47a1.17 1.17 0 00-.13-.45l.19-.08c.11.24.16.49.15.75.11-.17.18-.36.22-.56.02-.19.01-.38-.04-.56-.05-.18-.13-.35-.25-.51l.16-.11c.11.16.2.34.26.52.05-.16.07-.33.07-.5 0-.15-.05-.3-.12-.44-.07-.14-.16-.25-.28-.35l.14-.15a1.294 1.294 0 01.47.92c0 .31-.07.61-.18.9h-.02c0 .1 0 .21-.02.31-.08.4-.27.75-.56 1.04h-.02c-.15.21-.36.39-.6.51-.09.28-.23.53-.42.76-.19.22-.42.4-.68.53-.11.21-.27.38-.47.51-.41.27-.95.29-1.52.23l-.4-.04.38-.15c.2-.07.38-.18.53-.33.15-.15.27-.32.35-.52l.19.07h.01z" fill="#E7E7E5"/><path d="M10.436 51.513v13.11h.26s.05 0 .08.02c.02.01.05.02.06.04.02.02.03.04.04.06.01.02.01.05.01.08s0 .05-.01.08c0 .02-.02.04-.04.06-.02.02-.04.04-.06.04-.03.01-.05.02-.08.02h-.26v.23h.26s.05 0 .08.02c.02.01.05.03.06.04.02.02.03.04.04.07.01.02.01.05.01.07 0 .03 0 .05-.01.08 0 .03-.02.05-.04.07a.21.21 0 01-.06.04c-.03.01-.05.01-.08.01h-.26v1.08c.5-.27 1.35-.78 1.35-.78-.29 1.74-.71 3.49-1.68 5.24h-.06c-.97-1.74-1.39-3.49-1.68-5.24 0 0 .85.5 1.35.78v-1.09h-.26s-.05 0-.08-.01c-.03 0-.05-.02-.07-.04a.161.161 0 01-.04-.07c-.01-.02-.01-.05-.01-.08s0-.05.01-.08c.01-.02.02-.05.04-.06.02-.02.04-.03.07-.04.02-.01.05-.01.08-.01h.26v-.22h-.26s-.05 0-.08-.02c-.03 0-.05-.02-.07-.04a.21.21 0 01-.04-.06c-.01-.03-.01-.05-.01-.08s0-.05.01-.08a.21.21 0 01.04-.06c.02-.02.04-.03.07-.04.02 0 .05-.02.08-.02h.26v-13.38c.23.12.48.21.73.27m.12-20.83c1.57-1.22 1.95-2.07 1.98-2.81.02.02-1.5 1.43-1.98 1.83v.98zm0 3.36c1.23-1.1 1.54-1.89 1.58-2.59.01.02-1 1.05-1.58 1.6v.99zm0-1.12c1.3-1.14 1.62-1.95 1.65-2.66.01.02-1.1 1.14-1.65 1.67v.99z" fill="#FDC728"/><path d="M10.566 31.803c1.43-1.18 1.78-2.01 1.82-2.74.01.02-1.28 1.28-1.82 1.76v.98zm-1.05-1.11c-1.57-1.22-1.95-2.07-1.98-2.81-.02.02 1.5 1.43 1.98 1.83v.98zm0 3.36c-1.23-1.1-1.54-1.89-1.58-2.59-.01.02 1 1.05 1.58 1.6v.99zm0-1.12c-1.3-1.14-1.62-1.95-1.65-2.66-.01.02 1.1 1.14 1.65 1.67v.99z" fill="#FDC728"/><path d="M9.516 31.803c-1.43-1.18-1.78-2.01-1.82-2.74-.01.02 1.28 1.28 1.82 1.76v.98zm.19-3.42h.18v.28h.37v-.28h.18v18.52c-.12 0-.24.03-.36.07-.14.07-.27.15-.38.26v-18.85h.01zm.18 19.34l.12.09-.02-.04-.02-.02-.01-.01-.01-.01h-.03l-.03-.01z" fill="#FDC728"/><path d="M10.766 66.893c.34-.16.63-.38.88-.66-.25 1.58-.72 3.08-1.42 4.52.49-1.32.86-2.66 1.13-4.04-.19.1-.39.15-.59.18zm-.89-1.02c-.12 1.19-.19 2.41.01 3.77-.07-1.26-.07-2.51-.01-3.77zm-.49.93c-.34-.16-.63-.38-.87-.66.25 1.58.72 3.08 1.42 4.52-.49-1.32-.87-2.66-1.13-4.04.18.1.38.15.59.18m14.15-50.29l.09-.72c.02-.16-.02-.2.14-.2l.54.03s0 .1-.03.14c-.02.05-.06.08-.1.1a2.55 2.55 0 00-.64.64v.01zm-7.611 2.21c.2.34.48.6.83.78.29.16.63.33.95.27.34-.06.67-.06 1.01-.01-.33-.16-.63-.36-.89-.62-.1-.13-.21-.26-.33-.38a2.56 2.56 0 00-.78-.14c-.27 0-.53.03-.79.11v-.01zm3.581-2.91c-.1.39-.1.79 0 1.18.04.15.22.23.34.32.22.17.42.37.59.6.17.22.32.45.45.7.08.15.18.62.33.68.02-.26-.15-.5-.24-.74-.19-.49-.29-.99-.28-1.52 0-.25-.24-.48-.41-.66-.22-.24-.49-.42-.79-.56h.01zm-2.25 1.11c.08.36.24.67.5.94.07.08.24.3.35.31.07 0 .14.01.21.03.27.04.54.12.79.23-.14-.23-.26-.47-.35-.72-.02-.06-.04-.12-.05-.18-.04-.14-.22-.21-.33-.27-.34-.21-.71-.32-1.1-.33l-.02-.01zm6.4-1.41c.01-.18.04-.35.07-.52h.2l.46.03c-.02.18-.04.35-.09.52h-.2l-.45-.03m.09-.59c.01-.09 0-.44.1-.44l.64.03c-.02.15-.04.29-.08.43h-.2l-.46-.03v.01zm.06-.51c.01-.09.01-.47.11-.47l.66.03c-.02.16-.05.32-.08.47h-.19l-.49-.04-.01.01zm.07-.54c.02-.12-.02-.41.12-.41h.66c-.02.14-.05.29-.09.44h-.19l-.51-.03h.01zm.07-.48c0-.06.08-.63.09-.63l.74.07c-.02.09-.07.54-.12.55h-.71v.01zm.09-.69c.01-.09.02-.51.11-.5l.74.07s-.09.51-.1.51l-.24-.02-.51-.05v-.01zm.08-.58c.02-.12 0-.48.13-.47l.74.07s-.08.48-.1.47l-.23-.02-.55-.05h.01zm.08-.55c.02-.12 0-.53.14-.52l.78.08c-.01.06-.08.52-.12.52l-.26-.02-.54-.05v-.01zm.08-.59l.05-.33c.02-.12.02-.1.14-.08l.75.07c-.01.06-.07.43-.11.42l-.26-.03-.58-.06.01.01zm.08-.5l.08-.55.91.15c-.04.14-.07.28-.09.41-.02.1-.05.07-.14.06l-.74-.07h-.02zm.08-.62c.03-.29-.01-.5.35-.4.14.04.62.09.64.25 0 .1-.03.2-.08.3l-.25-.04-.66-.11zm-3.39 5.93l-.02-.17.54-.03c.15 0 .11.03.13.2.03.24.06.47.08.71-.2-.28-.45-.52-.74-.72l.01.01zm-.03-.23l-.08-.52.46-.02h.2s.07.47.07.52l-.66.03.01-.01zm-.089-.59l-.07-.44.61-.03c.15 0 .11.31.13.43l-.67.03v.01zm-.081-.51l-.08-.48.66-.03c.09 0 .09.38.1.47l-.69.03.01.01zm-.1-.54c-.03-.15-.05-.31-.08-.47h.63c.09 0 .1-.02.11.07l.05.36-.7.04h-.01zm-.09-.54c-.03-.17-.06-.34-.1-.52l.73-.07s.09.52.1.6h-.73v-.01zm-.11-.59l-.1-.51.71-.07c.14-.01.12.38.14.5l-.75.07m-.11-.56c-.03-.16-.06-.32-.1-.48l.71-.07c.11-.01.09-.02.11.09l.06.38-.78.08zm-.11-.55l-.11-.52.75-.07c.12-.01.1 0 .11.13l.06.39-.81.08v-.01zm-.12-.58l-.09-.43.75-.07c.09 0 .12-.04.13.05l.06.37-.85.08zm-.1-.5c-.03-.15-.06-.31-.1-.47l.9-.16.08.54-.88.09zm-.12-.54c-.08-.3-.15-.4.19-.5.13-.04.58-.23.67-.08.07.11.04.3.05.42-.08.03-.17.04-.25.04l-.66.11v.01zm9.41 8.67c-.2.34-.48.6-.83.78-.29.16-.63.33-.95.27-.34-.06-.67-.06-1.01-.01.33-.16.63-.36.89-.62.1-.13.21-.26.33-.38.25-.09.51-.13.78-.14.27 0 .53.03.79.11v-.01zm-3.58-2.91c.1.39.1.79 0 1.18-.04.15-.22.23-.34.32-.22.17-.42.37-.59.6-.17.22-.32.45-.45.7-.08.15-.18.62-.33.68-.02-.26.15-.5.24-.74.19-.49.29-.99.28-1.52 0-.25.24-.48.41-.66.22-.24.49-.43.79-.56m2.24 1.11c-.08.36-.24.67-.49.94-.07.08-.24.3-.35.31-.07 0-.14.01-.21.03-.27.04-.54.12-.79.23.14-.23.26-.47.35-.72.02-.06.04-.12.05-.18.04-.14.22-.21.33-.27.34-.21.71-.32 1.1-.33l.01-.01z" fill="#D29634"/><path d="M22.976 10.033a.631.631 0 00-.23-.08.652.652 0 00-.46.13.631.631 0 00-.24.41.652.652 0 00.13.46.631.631 0 00.41.24c.08.01.16 0 .24-.01a.65.65 0 00.38-.29c.04-.07.07-.15.08-.23a.652.652 0 00-.13-.46.548.548 0 00-.18-.16m-.04 1.29a.48.48 0 00-.2-.07c-.07-.01-.14 0-.21.01-.07.02-.13.05-.19.09-.06.04-.1.1-.14.16-.03.06-.06.13-.07.2-.01.07 0 .14.01.21.02.07.05.13.09.19.04.06.09.1.16.14.06.04.13.06.2.07.07 0 .14 0 .21-.01.07-.02.13-.05.19-.09.06-.04.1-.1.14-.15.03-.06.06-.13.07-.2 0-.07 0-.14-.01-.21a.663.663 0 00-.09-.19.502.502 0 00-.15-.14m-.041 1.13a.546.546 0 00-.18-.06c-.07 0-.13 0-.19.01-.06.02-.12.05-.17.08-.05.04-.09.09-.12.14-.03.06-.05.11-.06.18 0 .07 0 .13.01.19.02.06.04.12.08.17.04.05.09.09.14.12.06.03.12.05.18.06.06 0 .13 0 .19-.01a.53.53 0 00.17-.08c.05-.04.09-.09.12-.14.03-.06.05-.12.06-.18 0-.06 0-.13-.01-.19a.556.556 0 00-.09-.17.407.407 0 00-.14-.12m-.019 1.03s-.1-.04-.15-.05c-.05 0-.11 0-.16.01s-.1.04-.15.07c-.04.03-.08.07-.1.12-.03.05-.05.1-.05.15v.16c.01.05.04.1.07.15.03.04.07.08.12.11.05.03.1.05.15.05.05 0 .11 0 .16-.01s.1-.04.14-.07c.04-.03.08-.07.11-.12.03-.05.05-.1.05-.15v-.16c-.02-.05-.04-.1-.07-.15a.426.426 0 00-.12-.11zm-.02.95s-.09-.04-.14-.05c-.05 0-.1 0-.14.01-.05.01-.09.04-.13.06-.04.03-.07.07-.09.11-.02.04-.04.09-.05.14 0 .05 0 .1.01.14.01.05.03.09.06.13.03.04.07.07.11.1.04.03.09.04.14.05.05 0 .1 0 .14-.01.05 0 .09-.03.13-.06.04-.03.07-.07.1-.11.02-.04.04-.09.04-.14v-.14a.33.33 0 00-.07-.13.524.524 0 00-.11-.1zm3.61-5.79c-.42-.06-.52-.19-.69.17-.32 1.39-.61 2.77-.86 4.17-.17.93-.33 1.87-.47 2.81l.09.23.04.13.04.13.03.13v.07l.07-.08.07-.09.07-.08.08-.08.08-.06.08-.08.08-.07.03-.02c.14-.63.29-1.26.44-1.89.22-.91.45-1.8.68-2.69.21-.79.43-1.57.65-2.35.13-.48.04-.3-.52-.38m-2.77-3.01c-.07-.07-.14-.13-.22-.18-.08-.05-.16-.1-.25-.13-.09-.04-.18-.06-.27-.08a1.333 1.333 0 00-.56 0c-.09.02-.18.05-.27.08-.09.04-.17.08-.25.13-.08.05-.15.11-.22.18-.07.07-.12.14-.18.22-.05.08-.1.16-.13.25-.04.09-.07.18-.08.27-.02.09-.03.18-.03.28 0 .1 0 .19.03.28.02.09.05.18.08.27.03.09.08.17.13.25.05.08.11.15.18.22.07.07.14.13.22.18.08.05.16.1.25.13.09.04.18.06.27.08.09.02.19.03.28.03.09 0 .19 0 .28-.03.09-.02.18-.05.27-.08.09-.04.17-.08.25-.13.08-.05.15-.11.22-.18.07-.07.13-.14.18-.22.05-.08.1-.16.13-.25.04-.09.06-.18.08-.27.02-.09.03-.19.03-.28 0-.09 0-.19-.03-.28-.02-.09-.04-.18-.08-.27-.04-.09-.08-.17-.13-.25-.05-.08-.11-.15-.18-.22zm.95-3.84l-1.57.88.88-1.57h-2.56l.88 1.57-1.57-.88v2.57l1.57-.89-.88 1.57h2.56l-.88-1.57 1.57.89v-2.57zm4.75 13l-.07.03c-.39.26-.77.53-1.14.8l.11.18c.24.41.48.84.71 1.29.25-.21.51-.41.78-.62l.33-.26c-.23-.49-.47-.96-.72-1.42zm-.38-.68c-.15-.26-.3-.51-.46-.75-.4.31-.8.63-1.21.96.26.38.51.77.76 1.17.37-.27.75-.54 1.14-.8l.07-.05-.3-.54m-1.57-2.39c-.43.36-.86.72-1.27 1.07.37.45.73.92 1.07 1.41.4-.34.81-.66 1.21-.97-.33-.52-.68-1.03-1.02-1.51m1.51-1.21c-.4.32-.79.63-1.18.94l-.2.17c.35.48.69.99 1.03 1.51l.09-.07c.42-.32.85-.63 1.28-.93-.32-.56-.66-1.11-1.02-1.62zm1.1 1.76c-.42.29-.84.6-1.26.92l-.1.08c.16.25.31.51.47.77.1.17.2.35.3.52.43-.29.88-.58 1.32-.86-.22-.49-.46-.96-.72-1.43m.79 1.58c-.45.28-.89.57-1.32.85.25.45.49.93.73 1.42.38-.29.77-.59 1.16-.88-.16-.47-.36-.94-.56-1.39m-3.63.58c-.37.32-.75.64-1.11.98.26.32.52.66.78 1.01.36-.28.72-.56 1.09-.83-.24-.4-.5-.79-.75-1.16m-1.25 1.09l-.07.06h.03l.08.28.02.08.02.08v.09l.01.61v.09l-.02.06.07-.03.12-.05.12-.05.12-.04.08-.02.21-.17c-.26-.36-.51-.69-.77-1.01m.84 1.15l-.03.02v.46l.09-.05.09-.05.09-.05c-.08-.11-.16-.22-.24-.34m1.31-.74l-.1-.17c-.37.27-.73.55-1.08.83.09.12.16.25.26.38l.04-.02.1-.04.1-.03.1-.03.1-.02.1-.02h.1l.1-.01h.33l-.07.32-.03.1-.03.1-.04.09-.04.09-.05.09-.05.09-.05.08-.06.09-.06.08.08.14c.32-.27.65-.54.98-.82-.24-.46-.48-.91-.73-1.33m-.44 2.12l-.03.03-.05.06h.02l.11.01-.05-.1zm1.25-.65c-.33.26-.64.53-.95.79l.24.05-.12.25.03.06h.04l.11-.02h.11l.23-.01-.22-.3.36.3h.26l.1.03.1.02.1.03.05.02.11-.02c-.19-.4-.37-.8-.57-1.18m.6 1.18l-.03.02.04.01-.01-.03zm-.94 1.15l-.11.05-.13.06-.13.05.04.02.09.04.09.05.09.05.08.06.08.06.15.12c-.09-.19-.17-.38-.26-.56m.33.69l-.21.17-.08.05-.09.05-.09.04-.09.04-.1.04-.09.03-.05.02c.33.09.66.19.98.3l.08-.15c-.08-.21-.17-.4-.25-.59m.69-1.66l-.12.2-.07.1-.08.1-.09.09-.09.09-.1.08-.1.08-.11.08-.1.07c.18.38.36.77.53 1.17.23-.44.45-.89.66-1.34-.1-.24-.21-.49-.31-.73m.55-2.36l-.31.24c-.27.21-.54.43-.8.64.33.64.65 1.32.95 2.02.26-.55.49-1.11.71-1.66-.18-.42-.36-.83-.55-1.23m1.3-.93l-.02-.05c-.39.29-.77.58-1.15.87.17.36.34.73.5 1.12.07-.16.13-.33.19-.51l-.34-.45.39.32c.17-.43.31-.86.44-1.3m-.53-1.68c.21.45.4.91.57 1.38l.04-.03c.05-.17.09-.33.13-.5l-.33-.44.37.3c.03-.1.05-.2.08-.3.06-.33.09-.66.1-.99-.32.19-.64.39-.96.58zm.6-2.53c-.47.3-.94.61-1.4.94.26.47.51.95.74 1.44.33-.21.68-.42 1.03-.62 0-.61-.12-1.2-.36-1.75m-.47-.74c-.3-.35-.64-.64-1.04-.87-.34.26-.68.51-1 .77.36.52.7 1.06 1.02 1.63.47-.33.94-.64 1.41-.94a3.35 3.35 0 00-.39-.59zm-3.21-1.62h-.01l.2.24c.28.33.56.7.83 1.07l.06.08c.31-.24.62-.48.94-.73-.64-.33-1.31-.55-2.02-.67m.89 1.41c-.26-.37-.54-.72-.81-1.06-.11-.14-.23-.27-.34-.4-.33-.07-.39-.07-.53.39-.13.43-.26.86-.38 1.29.25.32.49.64.75.98l.2-.17c.38-.31.78-.63 1.18-.95l-.06-.08h-.01zm-2.12.41c-.16.62-.33 1.23-.48 1.86.37-.32.76-.65 1.16-.97-.23-.31-.45-.6-.68-.89zm-.57 2.25c-.1.39-.19.78-.28 1.18l-.07.29.2.17.62-.13-.66.38-.19-.25-.07.31c.12.13.24.27.36.41.37-.34.75-.67 1.13-.99-.33-.47-.68-.92-1.03-1.35m-.52 2.1c-.06.25-.12.5-.16.75.15-.14.3-.29.46-.43-.1-.11-.2-.22-.29-.33m-8.63 4.76l-.13-.06-.12-.06-.08-.04s.03.03.03.05c0 .02 0 .04-.02.06-.04.06-.09.12-.13.18-.04.06-.08.12-.12.19l-.05.09.09.05.17-.14.08-.06.08-.06.09-.05.09-.05.09-.04.04-.02-.13-.05.02.01zm-1.31-1.18v.02l-.06.09c.06.03.13.07.19.1l-.13-.21zm3.3-1.91a3.7 3.7 0 00-.43-.25c-.09.18-.16.36-.21.55l.04.02.09.05.09.04v-.53l.35.09.07.03zm.68-2.13l-.07.12-.05.09c.07.03.13.07.2.11l-.08-.32z" fill="#FDC728"/><path d="M19.756 15.123c-.11-.07-.22-.13-.33-.19-.12.24-.2.48-.25.74 0 .02-.01.04-.03.06-.02.02-.04.02-.07.02-.02 0-.04-.02-.06-.04-.01-.02-.02-.04-.01-.07.05-.27.15-.54.27-.78-.11-.05-.22-.1-.33-.13-.02 0-.04-.02-.05-.04 0-.02-.01-.04 0-.06 0-.02.02-.03.04-.05.02 0 .04-.01.06 0 .11.04.22.09.34.14.02-.04.04-.07.06-.1.04-.06.08-.13.12-.2l.04-.06-.06-.25c-.39-1.66-.78-3.31-1.28-4.91a.795.795 0 00-.19-.39c.02.03.02.05 0 .08-.01.02-.03.03-.05.03-.02 0-.04 0-.06-.01a.99.99 0 00-.17-.11c-.08.02-.19.04-.32.07h-.03c-.07.17-.12.34-.16.52 0 .02-.01.04-.03.05-.02.01-.04.01-.06.01-.02 0-.04-.02-.06-.04-.01-.02-.02-.04 0-.07.03-.15.07-.3.12-.45-.57.12-1.12.3-1.65.55l.15.1s.03.03.03.05c0 .02 0 .04-.01.06-.01.02-.03.03-.05.04-.02 0-.04 0-.06-.01-.08-.05-.15-.1-.22-.14-.12.07-.24.14-.35.21-.05.14-.09.28-.12.42 0 .02-.02.04-.03.05-.02.01-.04.02-.06.01-.02 0-.04-.01-.05-.03-.01-.02-.02-.04-.01-.06.01-.07.03-.15.05-.22-.22.16-.41.35-.58.56-.08.1-.15.2-.22.3.09.05.17.11.26.17.02.01.03.03.03.05 0 .02 0 .04-.02.06-.01.02-.03.03-.05.03-.02 0-.04 0-.06-.01-.08-.06-.17-.11-.26-.17-.32.57-.49 1.18-.51 1.83.06.04.13.08.19.13.02.01.02.03.03.05 0 .02 0 .04-.02.06-.01.02-.03.03-.05.03h-.06l-.11-.07c0 .41.03.81.1 1.22.07.28.14.56.22.84h.05c.05-.19.11-.37.19-.54 0-.02.02-.03.05-.04h.06c.02 0 .04.02.04.04v.06c-.07.17-.13.35-.17.53.17.04.34.09.51.15.02 0 .03.02.04.04v.06c0 .02-.02.04-.04.05h-.06c-.16-.06-.33-.11-.5-.15 0 .02 0 .05-.01.07-.01.06-.02.12-.03.17.18.62.39 1.24.63 1.85l.04-.06.13-.19a.12.12 0 01.05-.05h.07c.02.02.03.04.04.06 0 .03 0 .05-.03.07-.04.06-.09.12-.13.19-.04.06-.07.11-.1.16l.07.19c.11.06.21.12.32.2.02.01.03.03.03.05v.06c-.01.02-.03.03-.05.03-.02 0-.04 0-.06-.01l-.12-.08c.09.22.18.44.28.66 0-.02.02-.04.04-.05.02 0 .04-.01.06 0 .11.04.22.08.34.14.02-.03.04-.07.06-.1.04-.06.08-.13.12-.19.04-.07.09-.13.13-.19.01-.02.03-.03.05-.03.02 0 .04 0 .06.01.02.01.03.03.03.05 0 .02 0 .04-.02.06-.04.06-.09.12-.13.18-.03.05-.07.11-.1.17l.31-.1.1-.03.1-.02.1-.02.11-.02h.64l.11.03.11.02-.14-.32.35-.07.12-.02h.12l.02-.01-.05-.06-.07-.07-.07-.08-.06-.08-.06-.09-.05-.08-.05-.09-.05-.09-.04-.09-.04-.09-.03-.1-.03-.1-.07-.33h.33l.1.01.1.02.1.02.1.02.1.03.1.03.1.04.1.04c.05-.19.12-.38.21-.55-.11-.05-.22-.09-.32-.13-.02 0-.04-.02-.05-.04 0-.02-.01-.04 0-.06 0-.02.02-.04.04-.04.02-.01.04-.01.06 0 .11.04.23.09.34.14l.06-.1c.04-.07.08-.13.12-.2.04-.07.09-.13.14-.19.01-.02.03-.03.05-.03.02 0 .04 0 .06.02.02.01.03.03.03.05 0 .02 0 .04-.02.06-.04.06-.09.12-.13.18-.04.06-.08.13-.12.19l-.05.09c.16.08.31.17.46.27.02.01.03.03.03.05 0 .02 0 .04-.01.06-.02.02-.04.03-.06.03l.11.04.12.05.07.03v-.06l-.02-.09v-.7l.02-.08.02-.08.07-.3.3.14.1.05.1.06.04.02c-.05-.24-.11-.47-.16-.71m-4.72 3.58h-.01c.07.15.13.3.2.45.04-.1.08-.21.13-.31-.1-.05-.21-.1-.32-.14zm1.54.95l-.12-.07-.11-.08-.11-.08-.1-.09-.09-.09-.06-.07s-.04 0-.06-.02c-.14-.1-.29-.19-.44-.26-.07.15-.13.3-.18.45.21.44.42.88.65 1.32.04-.12.09-.24.15-.35-.11-.05-.22-.09-.33-.13-.02 0-.04-.02-.05-.04 0-.02-.01-.04 0-.06 0-.02.02-.04.04-.04.02-.01.04-.01.06 0 .11.04.23.09.34.14.02-.03.03-.07.06-.1.04-.07.08-.13.12-.2l.13-.19c.03-.03.06-.04.1-.03v-.02.01zm.57 1.19l-.1-.03-.09-.04-.09-.04-.09-.04s-.05 0-.07-.01c-.14-.1-.28-.19-.44-.27-.08.16-.14.32-.19.48.05.09.09.18.14.27.33-.11.65-.2.98-.3l-.06-.02h.01zm3.26-7.81c-.26-1.4-.55-2.79-.87-4.17-.16-.37-.27-.23-.69-.17-.56.08-.66-.1-.52.37.22.77.44 1.55.66 2.35.23.89.46 1.78.68 2.69.15.63.3 1.25.44 1.89l.03.02.08.06.08.08.09.07.08.08.07.08.07.09.06.07v-.07l.04-.14.04-.13.04-.13.09-.24c-.14-.94-.3-1.88-.47-2.81" fill="#FDC728"/><path d="M20.886 19.993c-.65-.35-1.21-.82-1.65-1.41-.29-.15-.6-.25-.92-.29-.32-.05-.64-.04-.96.02.51 1.14 2.01 1.88 3.61 1.8-.02-.04-.05-.08-.07-.11" fill="#FDC728"/><path d="M18.706 16.843c-.03 1.28 1.05 2.61 2.56 3.22-.24-1.61-1.32-2.94-2.56-3.22zm3.13.11a2.48 2.48 0 00-.83-.96c-.52 1.26-.06 2.95 1.08 4.07h.03c.05-.2.08-.39.11-.59-.17-.4-.29-.81-.36-1.23a4.64 4.64 0 01-.03-1.29zm4.26 1.63c-.45.59-1 1.06-1.65 1.41l-.08.11c1.59.08 3.1-.66 3.6-1.8a2.932 2.932 0 00-1.87.27" fill="#FDC728"/><path d="M24.066 20.063c1.51-.61 2.59-1.94 2.56-3.22-1.24.28-2.32 1.61-2.56 3.22zm.25-4.07c-.36.25-.63.57-.83.96.05.43.03.86-.03 1.28-.07.43-.19.84-.36 1.23.02.2.06.39.1.59h.04c1.14-1.12 1.6-2.8 1.08-4.07" fill="#FDC728"/><path d="M22.666 15.433c-1.03 1.25-1.03 2.78 0 4.57 1.02-1.8 1.02-3.32 0-4.57zm2.88 4.77c.08.05.17.09.24.13.61.11 1.21.24 1.8.39.4-.02.76-.15 1.08-.39-.76-.64-2.05-.71-3.12-.14m-8.88.15c.32.24.68.37 1.08.39.59-.16 1.19-.29 1.8-.4.08-.04.17-.09.24-.13-1.06-.57-2.36-.5-3.12.14zm12.44.95c-2.09-.72-4.23-1.1-6.44-1.13-2.21.04-4.35.41-6.44 1.13-.06.08-.09.18-.1.28-.01.1 0 .2.04.29 2.06-.79 4.2-1.18 6.41-1.19 2.27 0 4.47.39 6.61 1.16a.654.654 0 00-.08-.54z" fill="#FDC728"/><path d="M22.016 20.973s-.07-.06-.12-.08a.32.32 0 00-.14-.03c-.05 0-.1 0-.14.03-.04.02-.08.05-.12.08a.36.36 0 00-.08.12.32.32 0 00-.03.14c0 .05 0 .1.03.14.02.04.05.08.08.12.04.04.07.06.12.08.04.02.09.03.14.03.05 0 .09 0 .14-.03.05-.02.08-.05.12-.08a.36.36 0 00.08-.12.32.32 0 00.03-.14c0-.05 0-.1-.03-.14a.317.317 0 00-.08-.12zm-.79.05s-.07-.06-.12-.08a.32.32 0 00-.14-.03c-.05 0-.1 0-.14.03-.04.02-.08.05-.12.08a.36.36 0 00-.08.12.32.32 0 00-.03.14c0 .05 0 .1.03.14.02.04.05.08.08.12.04.04.07.06.12.08.04.02.09.03.14.03.05 0 .09 0 .14-.03.05-.02.08-.05.12-.08a.36.36 0 00.08-.12.32.32 0 00.03-.14c0-.05 0-.1-.03-.14a.317.317 0 00-.08-.12zm-.85.14s-.07-.06-.12-.08a.353.353 0 00-.14-.03c-.05 0-.09 0-.14.03-.04.02-.08.04-.12.08-.03.04-.06.07-.08.12a.32.32 0 00-.03.14c0 .05 0 .09.03.14.02.04.04.08.08.12.03.04.07.06.12.08.04.02.09.03.14.03.05 0 .09-.01.14-.03a.36.36 0 00.2-.2.32.32 0 00.03-.14c0-.05 0-.1-.03-.14a.418.418 0 00-.08-.12zm-.8.13s-.07-.06-.12-.08a.353.353 0 00-.14-.03c-.05 0-.1 0-.14.03-.04.02-.08.04-.12.08-.03.04-.06.07-.08.12a.32.32 0 00-.03.14c0 .05 0 .09.03.14.02.04.04.08.08.12.03.04.07.06.12.08.04.02.09.03.14.03.05 0 .09-.01.14-.03a.36.36 0 00.2-.2.32.32 0 00.03-.14c0-.05 0-.1-.03-.14a.418.418 0 00-.08-.12zm-.89.21s-.07-.06-.12-.08a.352.352 0 00-.14-.03c-.05 0-.1 0-.14.03-.04.02-.08.04-.12.08-.03.04-.06.07-.08.12a.32.32 0 00-.03.14c0 .05 0 .09.03.14.02.04.04.08.08.12.03.04.07.06.12.08.04.02.09.03.14.03.05 0 .09-.01.14-.03a.36.36 0 00.2-.2.32.32 0 00.03-.14c0-.05 0-.1-.03-.14a.419.419 0 00-.08-.12zm-.8.18s-.07-.06-.12-.08a.353.353 0 00-.14-.03c-.05 0-.1 0-.14.03-.04.02-.08.04-.12.08-.03.04-.06.07-.08.12a.32.32 0 00-.03.14c0 .05 0 .09.03.14.02.04.04.08.08.12.03.04.07.06.12.08.04.02.09.03.14.03.05 0 .09-.01.14-.03a.36.36 0 00.2-.2.32.32 0 00.03-.14c0-.05 0-.1-.03-.14a.418.418 0 00-.08-.12zm-.84.25s-.07-.06-.12-.08a.32.32 0 00-.14-.03c-.05 0-.1 0-.14.03-.04.02-.08.05-.12.08a.36.36 0 00-.08.12.32.32 0 00-.03.14c0 .05 0 .1.03.14.02.04.05.08.08.12.04.04.07.06.12.08.04.02.09.03.14.03.05 0 .09 0 .14-.03.05-.02.08-.05.12-.08a.36.36 0 00.08-.12.32.32 0 00.03-.14c0-.05 0-.1-.03-.14a.317.317 0 00-.08-.12zm6.79-.96s-.07-.06-.12-.08a.32.32 0 00-.14-.03c-.05 0-.1 0-.14.03-.04.02-.08.05-.12.08a.36.36 0 00-.08.12.32.32 0 00-.03.14c0 .05 0 .1.03.14.02.04.05.08.08.12.04.04.07.06.12.08.04.02.09.03.14.03.05 0 .09 0 .14-.03.05-.02.08-.05.12-.08a.36.36 0 00.08-.12.32.32 0 00.03-.14c0-.05 0-.1-.03-.14a.316.316 0 00-.08-.12zm.79.05s-.07-.06-.12-.08a.353.353 0 00-.14-.03c-.05 0-.1 0-.14.03a.36.36 0 00-.2.2.32.32 0 00-.03.14c0 .05 0 .09.03.14.02.04.04.08.08.12.03.04.07.06.12.08.04.02.09.03.14.03.05 0 .09-.01.14-.03a.36.36 0 00.2-.2.32.32 0 00.03-.14c0-.05 0-.1-.03-.14a.418.418 0 00-.08-.12zm.85.14s-.07-.06-.12-.08a.353.353 0 00-.14-.03c-.05 0-.1 0-.14.03-.04.02-.08.04-.12.08-.03.04-.06.07-.08.12a.32.32 0 00-.03.14c0 .05 0 .09.03.14.02.04.04.08.08.12.03.04.07.06.12.08.04.02.09.03.14.03.05 0 .09-.01.14-.03a.36.36 0 00.2-.2.32.32 0 00.03-.14c0-.05 0-.1-.03-.14a.418.418 0 00-.08-.12zm.79.13s-.07-.07-.12-.09a.353.353 0 00-.14-.03c-.05 0-.1 0-.15.02-.04.02-.09.04-.12.08a.393.393 0 00-.11.26c0 .05.01.1.03.14.02.05.05.08.08.12.04.03.08.06.12.08.05.02.1.03.15.02.05 0 .09-.01.14-.04.05-.02.08-.05.12-.09.03-.03.05-.07.07-.11.02-.04.02-.08.02-.13s0-.09-.02-.13a.413.413 0 00-.07-.11m.89.22s-.07-.06-.12-.08a.352.352 0 00-.14-.03c-.05 0-.1 0-.14.03-.04.02-.08.04-.12.08-.03.04-.06.07-.08.12a.32.32 0 00-.03.14c0 .05 0 .09.03.14.02.04.04.08.08.12.03.04.07.06.12.08.04.02.09.03.14.03.05 0 .09-.01.14-.03a.36.36 0 00.2-.2.32.32 0 00.03-.14c0-.05 0-.1-.03-.14a.419.419 0 00-.08-.12zm.8.18s-.07-.06-.12-.08a.353.353 0 00-.14-.03c-.05 0-.09 0-.14.03-.04.02-.08.04-.12.08-.03.04-.06.07-.08.12a.32.32 0 00-.03.14c0 .05 0 .09.03.14.02.04.04.08.08.12.03.04.07.06.12.08.04.02.09.03.14.03.05 0 .09-.01.14-.03a.36.36 0 00.2-.2.32.32 0 00.03-.14c0-.05 0-.1-.03-.14a.418.418 0 00-.08-.12zm.84.25s-.07-.06-.12-.08a.353.353 0 00-.14-.03c-.05 0-.1 0-.14.03a.36.36 0 00-.2.2.32.32 0 00-.03.14c0 .05 0 .09.03.14.02.04.04.08.08.12.03.04.07.06.12.08.04.02.09.03.14.03.05 0 .09-.01.14-.03a.36.36 0 00.2-.2.32.32 0 00.03-.14c0-.05 0-.1-.03-.14a.418.418 0 00-.08-.12zm-5.94-1.02s-.07-.06-.12-.08a.353.353 0 00-.14-.03c-.05 0-.1 0-.14.03-.04.02-.08.04-.12.08-.03.04-.06.07-.08.12a.32.32 0 00-.03.14c0 .05 0 .09.03.14.02.04.04.08.08.12.03.04.07.06.12.08.04.02.09.03.14.03.05 0 .09-.01.14-.03a.36.36 0 00.2-.2.32.32 0 00.03-.14c0-.05 0-.1-.03-.14a.418.418 0 00-.08-.12zm6.36 1.99a20.06 20.06 0 00-6.64-1.18c-1.11 0-2.21.11-3.29.32-1.09.21-2.15.51-3.18.91-.01.15.01.29.07.42 2.11-.73 4.27-1.15 6.49-1.27 2.22.12 4.39.55 6.49 1.27.07-.15.09-.31.06-.48m-4.98-14.28c-.45-.07-1.55-.27-1.57-.33-.02.06-1.12.25-1.57.33-.22.04-.19 0-.19.22l.02.15c.35 2.41.7 4.83.99 7.34l.04-.11.06-.14.07-.13.07-.13.08-.13.09-.13.09-.12.1-.12h-.03l-.1-.05-.09-.06-.08-.08-.06-.09-.04-.1-.02-.11v-.11l.03-.11.05-.1.07-.09.07-.06-.04-.04-.08-.09-.06-.1-.04-.11-.02-.11v-.11l.03-.11.05-.11.07-.1.05-.04-.05-.03-.09-.1-.07-.11-.05-.12-.02-.13v-.13l.03-.13.06-.13.08-.11.07-.07-.05-.03-.1-.1-.07-.12-.05-.13-.02-.14v-.14l.03-.14.06-.13.08-.12.09-.08-.08-.06-.11-.12-.08-.14-.04-.14-.03-.15v-.17l.03-.15.08-.14.1-.13.12-.11-.05-.04-.11-.12-.08-.13-.06-.15-.02-.15v-.17l.03-.16.07-.15.1-.13.11-.11.13-.08.15-.06.15-.03h.16l.16.04.15.07.13.11.11.12.08.13.05.14.03.16v.16l-.03.15-.07.15-.1.13-.12.1.04.02.11.12.08.13.05.15.03.15v.16l-.03.15-.07.15-.1.13-.12.11-.04.02.03.02.1.11.07.12.05.12.02.14v.14l-.03.14-.06.13-.08.12-.1.09h.01l.08.12.07.11.05.12.02.12v.13l-.03.13-.06.12-.08.11-.1.09.08.08.06.1.04.11v.1l.01.12-.02.11-.05.11-.07.1-.09.08.02.03.07.08.06.09.04.11.02.11v.11l-.02.11-.05.1-.07.09-.08.07-.09.06-.1.04.09.12.09.12.09.13.08.13.07.13.07.13.06.13.05.11c.3-2.52.65-4.93.99-7.34l.02-.15c0-.21.03-.18-.19-.22" fill="#FDC728"/><path d="M22.976 8.753a.631.631 0 00-.23-.08.652.652 0 00-.46.13.631.631 0 00-.24.41.652.652 0 00.13.46.631.631 0 00.41.24c.08.01.16 0 .24-.01a.65.65 0 00.38-.29c.04-.07.07-.15.08-.23a.652.652 0 00-.13-.46.69.69 0 00-.18-.16v-.01z" fill="#FDC728"/><path d="M16.476 23.613c4.15-1.57 8.26-1.62 12.28 0h-12.28z" fill="#D29634"/><path d="M23.186 30.223c-.1 0-.2.03-.29.08l-.05.04c-.25.17-.48.15-.75.18.17.04.32.1.48.17.03.02.05.04.07.07.01.03.02.06.01.1a.502.502 0 00.21.34c.06.04.12.07.18.09.07.02.13.02.2.02s.14-.03.2-.06c.06-.04.11-.08.16-.13.04-.05.08-.11.1-.18.02-.06.03-.13.03-.2s-.02-.13-.05-.2a.657.657 0 00-.12-.17.62.62 0 00-.17-.11.448.448 0 00-.2-.04" fill="#000"/><path d="M23.176 31.213c-.06 0-.12-.01-.18-.03a.396.396 0 01-.15-.1.395.395 0 01-.1-.15.584.584 0 01-.04-.18c0-.06.01-.12.04-.18.02-.06.06-.1.1-.15.04-.04.09-.08.15-.1.06-.02.12-.04.18-.04s.12.01.18.04c.06.02.11.06.15.1.04.04.08.09.1.15.02.06.04.12.04.18s-.01.12-.04.18c-.02.06-.06.11-.1.15-.04.04-.09.08-.15.1-.06.02-.12.03-.18.03z" fill="#fff"/><path d="M23.136 30.453s-.07 0-.1.02c-.03.01-.06.03-.09.05-.02.02-.04.05-.06.08-.02.03-.02.06-.02.1 0 .03 0 .07.02.1 0 .03.03.06.05.08.02.03.05.04.08.06.03.01.06.02.09.02.04 0 .07 0 .1-.01s.06-.03.08-.05c.03-.02.04-.05.06-.08.02-.03.02-.06.02-.1 0 0 0-.08-.02-.11a.218.218 0 00-.05-.08c-.02-.02-.05-.04-.08-.06a.292.292 0 00-.09-.02" fill="#000"/><path d="M24.276 31.023c-.43-.42-.53-.87-1.57-.83-.21.02-.42.06-.63.11.16-.05.31-.11.46-.18.12-.06.25-.09.39-.1.66-.05 1.07.4 1.34.99m-4.76.31c-.05.02-.1.03-.15.02-.05 0-.1-.01-.15-.03a.567.567 0 01-.13-.08.345.345 0 01-.09-.12c.07.02.14.01.21-.01.07-.03.12-.07.17-.12.17-.12.42.17.15.34m9.64-14.75l-.55-.73.6.49.62-.13-.66.37h-.01zm-.97-1.48l-.56-.73.6.5.62-.13-.66.37v-.01zm-1.43-2.1l.6.49.62-.13-.66.38-.56-.73v-.01zm1.92-.36l-.62-.83.66.55.7-.15-.74.43zm.35.85l.6.5.62-.13-.66.38-.56-.74v-.01zm.87 1.41l.6.5.62-.13-.66.38-.56-.74v-.01zm-3.46.39l.6.49.62-.13-.66.38-.56-.73v-.01zm3.54 2.68l-.56-.73.6.5.62-.13-.66.37v-.01zm.5-5.52l.6.5.62-.13-.66.38-.56-.74v-.01zm-.22-.81l-.56-.73.6.5.62-.13-.66.37v-.01zm-2.7-.65l-.56-.73.6.5.62-.13-.66.37v-.01zm-10 .01s.02-.03.04-.04h.06c.11.05.22.1.33.17.02-.03.04-.06.06-.1.04-.06.08-.13.13-.19s.09-.12.14-.18c.02-.02.03-.03.05-.03.02 0 .04 0 .06.02.02.02.03.03.03.05 0 .02 0 .04-.02.06-.05.06-.09.12-.14.18-.04.06-.09.12-.13.18l-.05.07c.16.09.3.19.45.31.02.01.03.03.03.05 0 .02 0 .04-.01.06-.01.02-.03.03-.05.04h-.07c-.13-.11-.27-.21-.42-.29-.13.23-.22.47-.29.73 0 .02-.02.04-.04.05-.02.01-.04.02-.06.01-.02 0-.04-.02-.05-.04-.01-.02-.01-.04-.01-.07.07-.27.17-.52.31-.76-.11-.06-.21-.1-.32-.15-.02 0-.04-.02-.05-.04a.064.064 0 010-.06l.02-.03zm-.36 1.04s.03-.03.05-.03c.02 0 .04 0 .06.01.02.02.03.03.03.05 0 .02 0 .04-.02.06-.04.06-.09.12-.13.19-.04.06-.08.13-.12.19-.02.03-.03.06-.05.09.16.08.31.17.45.28.02.01.03.03.03.05 0 .02 0 .04-.01.06-.01.02-.03.03-.05.03-.02 0-.04 0-.06-.01-.14-.1-.28-.19-.44-.26-.12.24-.2.48-.25.74 0 .02-.02.04-.03.05-.02.01-.04.02-.06.01-.02 0-.04-.02-.05-.03-.01-.02-.02-.04-.01-.06.05-.27.14-.54.26-.79-.11-.05-.22-.09-.33-.13-.02 0-.03-.02-.04-.04v-.06c0-.02.02-.03.04-.04.02-.01.04-.01.06 0 .11.04.23.09.34.14.02-.03.04-.07.06-.1.04-.07.08-.13.12-.2.05-.07.09-.12.15-.19m-1.21-1.2c.09-.23.21-.45.35-.66l.04-.06c-.1-.07-.2-.13-.29-.18-.02-.01-.03-.03-.04-.05v-.06c.01-.02.03-.03.05-.04h.06c.11.06.21.12.32.2a4 4 0 01.4-.43c.02-.02.03-.02.06-.02.02 0 .04 0 .06.02.02.01.02.03.02.06s0 .04-.02.06c-.14.13-.26.26-.38.41.14.11.28.22.4.35.02.02.02.04.02.06 0 .02 0 .04-.02.05-.02.02-.03.02-.05.02-.02 0-.04 0-.05-.02-.12-.12-.25-.23-.38-.33-.01.02-.03.04-.04.05-.14.2-.25.41-.33.63 0 .02-.02.04-.05.05-.02.01-.05.01-.07 0a.12.12 0 01-.05-.05v-.07m-.98.74s.02-.04.04-.04c.02-.01.04-.01.06 0 .11.04.23.09.34.14.1-.17.2-.33.32-.49.01-.02.03-.03.05-.03.02 0 .04 0 .06.01.02.02.03.03.03.05 0 .02 0 .04-.02.06-.11.15-.21.3-.3.47.16.08.31.17.45.28.02.01.03.03.03.05 0 .02 0 .04-.01.06-.01.02-.03.03-.05.03-.02 0-.04 0-.06-.01-.14-.1-.29-.18-.44-.26l-.03.06c-.1.22-.18.44-.22.68 0 .02-.02.04-.04.05-.02.01-.04.02-.06.01-.02 0-.04-.01-.05-.03-.01-.02-.02-.04-.01-.06.05-.25.13-.49.23-.72l.03-.07c-.11-.05-.22-.09-.32-.13-.02 0-.03-.02-.04-.04 0-.02-.01-.04 0-.06l.01-.01zm-.56 2.67s-.04-.01-.06-.03c-.01-.02-.02-.04-.02-.06.02-.25.07-.5.15-.74 0-.02.01-.05.02-.07-.11-.04-.22-.07-.33-.09-.02 0-.04-.01-.06-.03a.142.142 0 01-.02-.06s.02-.05.04-.06c.02-.01.04-.01.06-.01.12.03.23.06.36.1.08-.18.16-.36.26-.54.01-.02.03-.03.05-.04h.06c.02.01.03.03.04.05v.06c-.09.16-.17.32-.24.5.17.06.33.14.48.22.02.01.03.03.04.05v.06c-.01.02-.03.04-.05.04h-.06c-.15-.08-.3-.15-.46-.21 0 .02-.01.04-.02.06-.08.23-.12.46-.14.7 0 .02 0 .04-.02.06-.02.02-.03.03-.06.03l-.02.01zm1.32 1.91s-.02.03-.05.04h-.06c-.15-.07-.31-.13-.47-.18-.08.25-.11.52-.12.78 0 .02 0 .04-.02.06-.02.02-.03.02-.06.02-.02 0-.04 0-.06-.02-.02-.01-.02-.04-.02-.06 0-.28.04-.56.12-.83-.11-.03-.23-.05-.34-.07-.02 0-.04-.02-.05-.03a.142.142 0 01-.02-.06c0-.02.02-.04.03-.05.02-.01.04-.02.06-.01.12.02.24.05.36.08l.03-.07c.02-.07.05-.14.08-.21.03-.07.06-.14.1-.21l.02-.04s.03-.04.04-.04h.06c.02 0 .03.02.04.04v.1c-.05.07-.08.14-.11.2-.03.07-.07.14-.09.21l-.02.06c.17.05.33.12.5.19.02.01.03.02.04.04v.06m-.11-1.05s-.02.04-.04.05c-.02.01-.04.02-.06 0-.02 0-.04-.02-.05-.03-.01-.02-.02-.04-.01-.06.06-.27.16-.53.29-.78-.1-.05-.21-.1-.32-.14-.02 0-.04-.02-.04-.04a.064.064 0 010-.06c0-.02.02-.04.04-.05h.06c.11.04.22.09.33.15a.88.88 0 00.06-.1c.04-.06.08-.13.13-.19s.09-.13.14-.19c.01-.02.03-.02.05-.03.02 0 .04 0 .06.01.02.01.03.03.03.05v.06h-.01c-.05.07-.1.14-.14.2-.04.06-.07.12-.11.19-.02.03-.04.06-.05.09.15.09.3.18.45.29.02.01.03.03.03.05 0 .02 0 .04-.02.06-.01.02-.03.03-.05.03-.02 0-.04 0-.06-.01-.13-.11-.28-.2-.42-.29-.13.23-.22.48-.28.74m1.33 2.04s-.03.03-.05.03c-.02 0-.04 0-.06-.01-.14-.1-.28-.19-.44-.26-.12.24-.2.48-.25.74 0 .02-.02.04-.03.05-.02.01-.04.02-.06.02-.02 0-.04-.02-.05-.03-.01-.02-.02-.04-.01-.06.05-.27.14-.54.27-.78-.11-.05-.21-.09-.32-.13-.02 0-.04-.02-.05-.04a.064.064 0 010-.06c0-.02.02-.03.04-.05.02 0 .04-.01.06 0 .11.04.22.09.34.14a.88.88 0 01.06-.1c.04-.06.08-.13.12-.2.04-.07.08-.13.13-.19.02-.02.03-.03.05-.03.02 0 .04 0 .06.02.02.01.03.03.03.05 0 .02 0 .04-.02.06-.04.06-.09.12-.13.18-.04.07-.08.13-.12.19-.02.03-.03.06-.05.09.16.08.31.17.45.28.02.01.03.03.03.05 0 .02 0 .04-.01.06l.01-.02zm.89-1.56s-.03.03-.05.03c-.02 0-.04 0-.06-.01-.14-.1-.28-.19-.44-.26-.12.24-.2.48-.25.74 0 .02-.02.04-.03.05-.02.01-.04.02-.06.02-.02 0-.04-.02-.05-.03-.01-.02-.02-.04-.01-.06.05-.27.14-.54.27-.78-.11-.05-.22-.1-.33-.13-.02 0-.03-.02-.04-.05v-.06c0-.02.02-.04.04-.05.02-.01.04-.01.06 0 .11.04.22.08.34.14.02-.03.04-.07.06-.1.04-.07.08-.13.12-.2.04-.07.09-.13.13-.19.01-.02.03-.03.05-.03.02 0 .04 0 .06.02.02.01.03.03.03.05 0 .02 0 .04-.02.06-.04.06-.09.12-.13.19-.04.06-.08.12-.12.19l-.05.09c.15.08.3.18.45.29.02.01.03.03.03.05 0 .02 0 .04-.01.06m.88-1.47s-.03.03-.05.03c-.02 0-.04 0-.06-.01-.14-.1-.28-.19-.44-.26-.12.24-.2.48-.25.74 0 .02-.01.05-.03.06-.02.02-.04.02-.07.02-.02 0-.04-.02-.06-.04-.01-.02-.02-.04-.01-.07.05-.27.14-.53.27-.78-.11-.05-.21-.09-.32-.13-.02 0-.04-.02-.04-.04a.064.064 0 010-.06c0-.02.02-.04.04-.05.02 0 .04-.01.06 0 .11.04.22.09.34.14.02-.03.04-.07.06-.1.04-.07.08-.13.12-.2.04-.07.09-.13.13-.19.02-.02.03-.03.05-.03.02 0 .04 0 .06.01.02.01.03.03.03.05 0 .02 0 .04-.01.06-.05.06-.09.12-.13.18-.04.06-.08.12-.11.19-.02.03-.03.06-.05.09.16.08.32.17.47.28.02.02.03.03.03.05 0 .02 0 .04-.02.06h-.01z" fill="#000"/></g></svg>