<svg width="860" height="331" fill="none" xmlns="http://www.w3.org/2000/svg"><g clip-path="url(#clip0_192_92087)"><g opacity=".15" clip-path="url(#clip1_192_92087)" fill="#BDE7F4"><path d="M140.896 265.759H90.889l-15.454-47.591 40.461-29.412 40.462 29.412-15.454 47.591h-.008zm-46.491-4.85h42.959l13.279-40.89-34.755-25.266-34.755 25.266 13.28 40.89h-.008z"/><path d="M148.154 274.722H84.552L64.895 214.2l51.454-37.407 51.454 37.407-19.657 60.522h.008zm-60.078-4.849h56.554l17.483-53.822-45.756-33.26-45.755 33.26 17.482 53.822h-.008zM118.774-286h-4.85v453.878h4.85V-286zM858.487-5.498L175.756 209.243l1.455 4.626L859.942-.871l-1.455-4.627zM155.478 280.888l-3.971 2.784 33.404 47.653 3.971-2.784-33.404-47.653zm-78.241-.059l-33.395 47.658 3.971 2.783 33.396-47.658-3.972-2.783zM1.463 191.763l-1.454 4.626 55.516 17.451 1.455-4.626-55.517-17.451zm114.886 119.945l-11.647-8.462 4.445-13.692h14.395l4.446 13.692-11.647 8.462h.008zm-5.941-10.321l5.941 4.324 5.941-4.324-2.272-6.992h-7.347l-2.271 6.992h.008zm-46.329 23.585l-3.977-2.789 29.688-42.336h19.285v4.849H92.311L64.08 324.972zm104.54 0l-28.232-40.276h-16.764v-4.849h19.285l29.688 42.336-3.977 2.789zm12.754-60.66l-11.655-8.463 4.446-13.692h14.395l4.453 13.692-11.647 8.463h.008zm-5.948-10.314l5.948 4.325 5.949-4.317-2.271-6.991h-7.355l-2.271 6.983zm9.149 59.787l-29.978-42.765 5.876-18.097 4.615 1.504-5.124 15.793 28.588 40.785-3.977 2.78zm-14.993-73.196l-4.615-1.495 5.892-18.137 1.196-.372L858.485 4.747l1.455 4.623-685.243 215.466-5.116 15.753zM51.325 264.312l-11.648-8.463 4.454-13.692h14.395l4.445 13.692-11.655 8.463h.008zm-5.95-10.314l5.95 4.316 5.948-4.324-2.27-6.983h-7.356l-2.271 6.991zm2.749 59.787l-3.969-2.78 28.588-40.785-5.132-15.793 4.615-1.504 5.876 18.097-29.978 42.765zm14.993-73.196L58 224.836l-47.033-14.791 1.455-4.623 49.417 15.535 5.892 18.137-4.615 1.495zm13.158-52.577l-11.647-8.462 4.438-13.692H83.46l4.453 13.692-11.639 8.462zm-5.956-10.313l5.948 4.324 5.941-4.316-2.271-6.992H72.59l-2.263 6.992-.008-.008zm-3.791 29.388l-49.716-15.632 1.455-4.623 47.388 14.896 13.409-9.747 2.845 3.928-15.381 11.178zm27.149-19.738l-2.845-3.92 13.393-9.739V-286h4.85v462.163l-15.398 11.186zm72.493 19.738l-15.381-11.178 2.845-3.928 13.409 9.747L858.485-15.678l1.455 4.624-693.77 218.141zm-15.381-11.178l-27.166-19.746V-286h4.85v459.69l25.161 18.291-2.845 3.928z"/></g></g><defs><clipPath id="clip0_192_92087"><path fill="#fff" d="M0 0h860v331H0z"/></clipPath><clipPath id="clip1_192_92087"><path fill="#fff" transform="translate(0 -286)" d="M0 0h859.94v617.317H0z"/></clipPath></defs></svg>