<?xml version="1.0" encoding="utf-8"?><svg viewBox="0 0 62 63" xmlns="http://www.w3.org/2000/svg" xmlns:xlink="http://www.w3.org/1999/xlink"><style>:root>svg{display:none}:root>svg:target{display:block}</style><svg fill="none" viewBox="0 0 24 24" id="icon-accordeon-blue" xmlns="http://www.w3.org/2000/svg"><path d="M13.601 12l-4.6-4.6 1.4-1.4 6 6-6 6-1.4-1.4 4.6-4.6z" fill="#004F9F"/></svg><svg fill="none" viewBox="0 0 24 24" id="icon-accordeon-white" xmlns="http://www.w3.org/2000/svg"><path d="M13.601 12l-4.6-4.6 1.4-1.4 6 6-6 6-1.4-1.4 4.6-4.6z" fill="#fff"/></svg><svg fill="none" viewBox="0 0 24 24" id="icon-arrow-breadcrumb" xmlns="http://www.w3.org/2000/svg"><path d="M12.6 12L8 7.4 9.4 6l6 6-6 6L8 16.6l4.6-4.6z" fill="#D43B2C"/></svg><svg fill="none" viewBox="0 0 24 24" id="icon-arrow-more" xmlns="http://www.w3.org/2000/svg"><path d="M12.6 12L8 7.4 9.4 6l6 6-6 6L8 16.6l4.6-4.6z" fill="currentColor"/></svg><svg fill="none" viewBox="0 0 24 24" id="icon-arrow-next" xmlns="http://www.w3.org/2000/svg"><path d="M8.025 22L6.25 20.225 14.475 12 6.25 3.775 8.025 2l10 10-10 10z" fill="currentColor"/></svg><svg fill="none" viewBox="0 0 24 24" id="icon-arrow-prev" xmlns="http://www.w3.org/2000/svg"><path d="M15.975 22l1.775-1.775L9.525 12l8.225-8.225L15.975 2l-10 10 10 10z" fill="currentColor"/></svg><svg fill="none" viewBox="0 0 24 24" id="icon-biatlon" xmlns="http://www.w3.org/2000/svg"><path d="M10.68 8.564c.376 4.664-2.98 9.859-7.357 11.484 3.268-3.306 5.753-7.113 7.358-11.484z" fill="currentColor"/><path d="M12.199 19.89c-.136-2.002-.378-3.872-1.554-5.509-.364-.521-.81-1.011-1.335-1.552 3.311.151 4.89 4.606 2.889 7.064M10.545 9.24c2.643.247 5.02.047 7.546-.784-1.445 2.56-5.588 2.938-7.546.783zM20.661 19.596c-1.246-1.25-2.147-2.71-2.96-4.243-.787-1.548-1.458-3.127-1.759-4.866 1.249 1.248 2.151 2.707 2.962 4.242.782 1.549 1.455 3.127 1.757 4.867z" fill="currentColor"/><path d="M0 20.158c6.107-.663 12.248-.6 18.37-.307l3.042.172c.936.112 1.849-.42 2.588-1.126-.448.805-1.217 1.515-2.145 1.728-1.162.179-2.332.224-3.486.285-6.135.244-12.282.106-18.369-.752zM13.43 5.816c-.061 2.22-3.284 2.274-3.363 0 .077-2.28 3.303-2.222 3.363 0zm0 0c-.061-1.61-2.309-1.56-2.346 0 .033 1.566 2.287 1.611 2.346 0zM9.31 2.25c0 1.476-.38 2.84-.88 4.19-.536 1.34-1.155 2.616-2.168 3.695.026-1.472.394-2.834.903-4.182.533-1.338 1.16-2.605 2.147-3.703M8.905 8.212c-.024 2.098-1.109 4.318-2.804 5.565.073-2.153 1.103-4.236 2.804-5.565z" fill="currentColor"/></svg><svg fill="none" viewBox="0 0 24 24" id="icon-bobsled" xmlns="http://www.w3.org/2000/svg"><path d="M0 10.962c4.175.58 8.2 1.706 12.194 2.98 3.983 1.316 7.9 2.768 11.618 4.758-4.178-.578-8.2-1.705-12.195-2.98C7.637 14.4 3.72 12.947 0 10.962zM.264 13.972c3.18-.304 6.648.814 9.037 2.935-3.196.309-6.63-.816-9.037-2.935zM12.065 17.807c3.179-.304 6.647.814 9.036 2.936-3.195.308-6.629-.817-9.036-2.936zM1.346 6.816c5.568-.302 21.155 2.226 22.624 8.577a2.717 2.717 0 01-.297 1.69c.065-.556.005-1.094-.204-1.553-1.409-2.76-6.675-4.06-9.527-5.044-4.178-1.282-8.407-2.311-12.593-3.67" fill="currentColor"/><path d="M20.256 7.66c-.825 2.47-4.456 1.444-3.766-1.148.872-2.544 4.46-1.366 3.766 1.148zm0 0c.447-1.711-1.898-2.363-2.426-.74-.475 1.646 1.844 2.41 2.426.74zM15.841 6.317c-.824 2.47-4.455 1.445-3.765-1.148.871-2.543 4.46-1.365 3.765 1.148zm0 0c.447-1.711-1.897-2.363-2.426-.74-.475 1.647 1.845 2.41 2.426.74z" fill="currentColor"/></svg><svg fill="none" viewBox="0 0 24 24" id="icon-caret" xmlns="http://www.w3.org/2000/svg"><path d="M12 15.375l-6-6 1.4-1.4 4.6 4.6 4.6-4.6 1.4 1.4-6 6z" fill="currentColor"/></svg><svg fill="none" viewBox="0 0 24 24" id="icon-close" xmlns="http://www.w3.org/2000/svg"><path d="M6.4 19L5 17.6l5.6-5.6L5 6.4 6.4 5l5.6 5.6L17.6 5 19 6.4 13.4 12l5.6 5.6-1.4 1.4-5.6-5.6L6.4 19z" fill="currentColor"/></svg><svg fill="none" viewBox="0 0 24 24" id="icon-figure-skating" xmlns="http://www.w3.org/2000/svg"><path d="M13.93 21.729c2.095-1.081 4.68-1.092 6.777-.01-2.093 1.09-4.677 1.086-6.777.01zM2.338 4.734c2.095-1.08 4.68-1.092 6.777-.01-2.093 1.09-4.677 1.086-6.777.01zM4.152 6.935c1.122-.997 2.781-.906 3.775.226a2.636 2.636 0 01-3.775-.226z" fill="currentColor"/><path d="M15.032 19.789c1.121-.997 2.78-.906 3.774.226a2.636 2.636 0 01-3.774-.226zM10.885 6.065c1.912.595 3.565 1.505 5.558 1.076.618-.113 1.26-.335 2.01-.554-1.567 3.373-6.207 2.63-7.568-.52" fill="currentColor"/><path d="M7.487 7.854c4.73 3.25 8.175 3.737 12.592-.35-.832 2.546-3.375 4.541-6.145 4.526-2.781.022-5.193-1.856-6.447-4.174M15.293 12.176a3.97 3.97 0 012.803 3.085c.32 1.483-.602 3.263-2.12 3.571.295-.664.485-1.227.571-1.762.31-1.798-.6-3.218-1.254-4.894zM21.484 4.4c-.773 2.174-3.976 1.204-3.322-1.081.813-2.239 3.977-1.138 3.322 1.08zm0 0c.435-1.54-1.684-2.17-2.19-.714-.454 1.484 1.639 2.215 2.19.713z" fill="currentColor"/></svg><svg fill="none" viewBox="0 0 24 24" id="icon-freestyle" xmlns="http://www.w3.org/2000/svg"><path d="M16.755 0c1.294 2.659 2.125 5.457 2.839 8.302.676 2.856 1.222 5.721 1.29 8.679-1.299-2.66-2.13-5.455-2.84-8.302-.672-2.856-1.218-5.723-1.29-8.679zM14.451.033c1.173 2.781 1.879 5.68 2.463 8.619.548 2.947.963 5.899.897 8.918-1.177-2.782-1.882-5.678-2.462-8.62-.544-2.947-.959-5.898-.898-8.917zM3.12 21.174c3.7-3.946 9.984-3.565 11.924 1.877-4.29-3.724-6.747-3.385-11.924-1.877z" fill="currentColor"/><path d="M9.714 18.376c-.358-.923-.452-1.847-.433-2.77.071-1.047.122-1.902.76-2.886 1.228-1.55 3.135-2.246 5.003-2.595-.721.576-1.435 1.118-2.103 1.675-.595.507-1.28 1.09-1.653 1.732-.511 1.557-.691 3.32-1.574 4.844z" fill="currentColor"/><path d="M11.29 16.52c-.33-1.511-.015-2.935 1.08-4.056 1.893-1.417 4.156-1.867 6.427-2.15-1.476.893-3.058 1.65-4.485 2.553a6.319 6.319 0 00-.799.594c-.7 1.004-1.167 2.112-2.223 3.062M10.93 22.528c-.697 1.972-3.593 1.096-3.002-.976.737-2.031 3.597-1.03 3.002.976zm0 0c.38-1.32-1.447-1.864-1.864-.606-.4 1.275 1.388 1.898 1.864.606z" fill="currentColor"/></svg><svg fill="none" viewBox="0 0 24 24" id="icon-hockey" xmlns="http://www.w3.org/2000/svg"><path d="M11.26 20.2c-.546-2.494-.573-5.05-2.564-6.832-.591-.573-1.306-1.094-2.058-1.711 4.744-.188 6.773 4.712 4.622 8.543zM13.19 13.302c-.585-1.37-.861-2.704-1.527-3.935-.646-1.25-1.609-2.103-2.589-3.224 3.658-.097 5.744 4.068 4.116 7.159zM7.045 4.724c.49 1.098.653 2.192 1.16 3.15.49.977 1.298 1.526 2.152 2.368-3.274.857-5.197-3.01-3.314-5.518" fill="currentColor"/><path d="M2.4 19.462c.286-1.93 1.03-3.66 1.917-5.352.92-1.674 1.956-3.246 3.412-4.546-.283 1.931-1.025 3.66-1.916 5.352-.925 1.674-1.958 3.244-3.412 4.546zM19.617 20.545c-2.137-1.269-3.93-2.914-5.64-4.674-1.683-1.787-3.243-3.652-4.412-5.848 2.14 1.266 3.932 2.911 5.64 4.674 1.68 1.79 3.24 3.656 4.412 5.848zM10.12 21.515c.91-1.207 2.572-1.34 3.652-.277-.908 1.213-2.57 1.33-3.651.277zM19.617 19.994c.912-1.207 2.571-1.34 3.651-.277-.907 1.213-2.569 1.33-3.65.277z" fill="currentColor"/><path d="M.693 22.562c-.536-1.413.234-2.89 1.708-3.24.544 1.416-.241 2.886-1.708 3.24zM14.117 4.14c-.064 2.39-3.53 2.46-3.618 0 .084-2.468 3.554-2.394 3.618 0zm0 0c-.064-1.63-2.312-1.577-2.343 0 .024 1.58 2.279 1.631 2.343 0z" fill="currentColor"/></svg><svg fill="none" viewBox="0 0 24 25" id="icon-location" xmlns="http://www.w3.org/2000/svg"><mask id="ana" style="mask-type:alpha" maskUnits="userSpaceOnUse" x="0" y="0" width="24" height="25"><path fill="#D9D9D9" d="M0 .226h24v24H0z"/></mask><g mask="url(#ana)"><path d="M12 12.226c.55 0 1.02-.196 1.412-.588.392-.391.588-.862.588-1.412 0-.55-.196-1.02-.588-1.413A1.926 1.926 0 0012 8.226c-.55 0-1.02.196-1.412.587A1.926 1.926 0 0010 10.226c0 .55.196 1.02.588 1.412.391.392.862.588 1.412.588zm0 7.35c2.033-1.867 3.542-3.563 4.525-5.088C17.508 12.965 18 11.61 18 10.427c0-1.817-.58-3.304-1.738-4.463C15.104 4.805 13.683 4.226 12 4.226c-1.683 0-3.104.58-4.263 1.737C6.58 7.122 6 8.61 6 10.426c0 1.183.492 2.537 1.475 4.063.983 1.524 2.492 3.22 4.525 5.087zm0 2.65c-2.683-2.283-4.688-4.404-6.013-6.362C4.662 13.905 4 12.093 4 10.425c0-2.5.804-4.492 2.412-5.975C8.021 2.968 9.883 2.226 12 2.226s3.98.742 5.587 2.225C19.197 5.934 20 7.926 20 10.426c0 1.667-.663 3.48-1.988 5.438-1.325 1.958-3.329 4.079-6.012 6.362z" fill="#D43B2C"/></g></svg><svg fill="none" viewBox="0 0 24 24" id="icon-luge" xmlns="http://www.w3.org/2000/svg"><path d="M1.527 14.215c5.738.325 11.32 1.721 16.756 3.502.026.01.353.116.38.126.474.055.955-.109 1.453-.245.861-.262 1.713-.6 2.56-.949-1.185.76-2.35 1.55-3.765 1.86-2.383-.02-4.599-.54-6.901-.993-3.586-.81-7.116-1.777-10.487-3.3M3.09 9.74c2.76-.342 5.802.512 7.967 2.261-2.759.35-5.797-.52-7.966-2.26zM13.135 12.633c1.93-.153 3.78.156 5.628.603 1.84.482 3.613 1.09 5.237 2.147-1.93.157-3.78-.154-5.628-.603-1.838-.486-3.611-1.093-5.237-2.147z" fill="currentColor"/><path d="M4.543 12.763c2.18-.092 4.276.282 6.366.79 2.082.544 4.103 1.211 5.977 2.334-2.182.096-4.276-.278-6.366-.79-2.08-.547-4.101-1.213-5.977-2.334zM3.422 8.315C2.646 10.499-.57 9.522.088 7.23.903 4.986 4.081 6.09 3.422 8.315zm0 0c.437-1.546-1.69-2.18-2.2-.715-.455 1.489 1.645 2.223 2.2.715z" fill="currentColor"/></svg><svg fill="none" viewBox="0 0 24 24" id="icon-nordic-combined" xmlns="http://www.w3.org/2000/svg"><path d="M.75 13.586c2.244-1.978 4.758-3.514 7.356-4.938 2.618-1.39 5.282-2.644 8.17-3.426-2.242 1.983-4.756 3.516-7.356 4.939C6.3 11.548 3.636 12.8.75 13.586zM12.728 16.065a4.87 4.87 0 014.72-2.955 4.87 4.87 0 01-4.72 2.955zM7.442 5.556a4.87 4.87 0 014.72-2.954 4.87 4.87 0 01-4.72 2.954z" fill="currentColor"/><path d="M2.147 3.036c2.392-1.233 5.368-1.32 7.822-.208-2.39 1.241-5.368 1.311-7.822.208zM5.173 16.95a6.196 6.196 0 015.093-2.254 6.196 6.196 0 01-5.093 2.254zM3.373 19.59c3.747.592 7.242 1.959 10.836 3.043 1.164.287 2.345.83 3.546.414-.86 1.087-2.553.98-3.795.916a21.314 21.314 0 01-10.587-4.37" fill="currentColor"/><path d="M11.777 21.402c2.829-.718 5.688-.609 8.553-.477.942.01 1.862.214 2.79-.068-.537.893-1.735 1.173-2.675 1.414-2.908.546-5.936.321-8.668-.867M9.289 20.855c.759-.927 1.803-1.556 2.507-2.347.196-.24.3-.405.377-.665.1-.63-.114-1.183-.284-2.021 1.049.282 2.038 1.453 1.777 2.64-.447 1.932-2.64 2.675-4.377 2.39M3.033 11.248c-.34-2.425 1.428-5.552 4.124-5.373-1.392 1.904-2.238 3.917-4.124 5.373zM15.875 20.692c-.05-.877.271-1.918.134-2.585a.85.85 0 00-.266-.38c-.463-.378-.936-.588-1.534-1.061 1.14-.746 2.997-.51 3.447.959.327 1.35-.582 2.567-1.781 3.067zM15.429 13.02c-.132-.04-.243.043-.362.086-.7.342-1.467.682-2.175.933-.767.338-1.548.334-1.637 1.313-.66-.263-.792-1.235-.403-1.799.376-.611.921-.926 1.446-1.128.99-.338 2.213-.354 3.03.37.051.058.107.15.1.223M15.256 2.248c-.749 2.12-3.863 1.18-3.228-1.05.794-2.184 3.867-1.11 3.228 1.05zm0 0c.407-1.419-1.553-2.003-2.002-.651-.432 1.369 1.49 2.038 2.002.65zM20.758 12.56c-.748 2.121-3.863 1.18-3.227-1.049.794-2.184 3.867-1.11 3.227 1.05zm0 0c.408-1.418-1.553-2.002-2.003-.65-.432 1.37 1.49 2.038 2.003.65z" fill="currentColor"/></svg><svg fill="none" viewBox="0 0 36 37" id="icon-ok-default" xmlns="http://www.w3.org/2000/svg"><path fill-rule="evenodd" clip-rule="evenodd" d="M17.25 8.957c-.808 0-1.582.305-2.152.846a2.815 2.815 0 00-.893 2.04c0 1.589 1.365 2.883 3.044 2.883.807-.001 1.58-.305 2.15-.846.571-.54.893-1.273.894-2.038a2.815 2.815 0 00-.892-2.04 3.135 3.135 0 00-2.152-.845zm0 9.85c-1.95-.001-3.818-.735-5.196-2.041-1.378-1.306-2.153-3.077-2.155-4.924.001-1.847.776-3.619 2.154-4.926C13.431 5.61 15.3 4.875 17.25 4.873c1.95.001 3.819.736 5.197 2.043 1.379 1.306 2.154 3.078 2.155 4.926-.002 1.848-.778 3.618-2.156 4.924-1.378 1.306-3.247 2.04-5.196 2.042zm-2.975 5.684a14.194 14.194 0 01-4.268-1.675 2.048 2.048 0 01-.953-1.275 1.952 1.952 0 01.277-1.54 2.154 2.154 0 011.345-.904 2.254 2.254 0 011.625.263 9.715 9.715 0 004.949 1.346c1.75 0 3.465-.466 4.95-1.346a2.254 2.254 0 011.624-.263c.557.12 1.041.446 1.345.904.304.458.404 1.012.277 1.54s-.47.987-.953 1.275a14.219 14.219 0 01-4.268 1.675l4.11 3.898c.2.19.358.415.466.662a1.95 1.95 0 01-.001 1.563 2.04 2.04 0 01-.468.662c-.2.19-.437.34-.698.442a2.255 2.255 0 01-1.649 0 2.166 2.166 0 01-.698-.444l-4.036-3.829-4.04 3.83a2.215 2.215 0 01-1.522.597 2.215 2.215 0 01-1.523-.598 1.989 1.989 0 01-.631-1.443c0-.542.227-1.061.63-1.444l4.11-3.896z" fill="#D43B2C"/></svg><svg fill="none" viewBox="0 0 50 50" id="icon-person-white" xmlns="http://www.w3.org/2000/svg"><g opacity=".6"><mask id="ara" style="mask-type:alpha" maskUnits="userSpaceOnUse" x="0" y="0" width="50" height="50"><path fill="#D9D9D9" d="M0 0h50v50H0z"/></mask><g mask="url(#ara)"><path d="M25 25c-2.292 0-4.253-.816-5.885-2.448-1.632-1.632-2.448-3.594-2.448-5.885 0-2.292.816-4.254 2.448-5.886C20.747 9.15 22.708 8.333 25 8.333s4.253.816 5.885 2.448c1.632 1.632 2.448 3.594 2.448 5.886 0 2.291-.816 4.253-2.448 5.885C29.253 24.184 27.292 25 25 25zM8.333 41.667v-5.834c0-1.18.304-2.265.912-3.255a6.075 6.075 0 012.422-2.266 30.93 30.93 0 016.562-2.421A28.664 28.664 0 0125 27.083c2.292 0 4.549.27 6.77.808a30.93 30.93 0 016.563 2.422 6.075 6.075 0 012.422 2.265c.608.99.912 2.075.912 3.255v5.834H8.333z" fill="#fff"/></g></g></svg><svg fill="none" viewBox="0 0 62 63" id="icon-play-red" xmlns="http://www.w3.org/2000/svg"><path d="M30.926 1.62l30.926 22.085L50.039 59.44H11.813L0 23.705 30.926 1.621z" fill="currentColor"/><mask id="asa" style="mask-type:alpha" maskUnits="userSpaceOnUse" x="14" y="17" width="34" height="34"><path fill="#D43B2C" d="M14.791 17.756h32.27v32.27h-32.27z"/></mask><g mask="url(#asa)"><path d="M27.564 39.942l9.413-6.05-9.413-6.052v12.102zm3.362 7.395c-1.86 0-3.608-.353-5.244-1.059a13.578 13.578 0 01-4.27-2.874 13.578 13.578 0 01-2.873-4.269c-.706-1.636-1.06-3.384-1.06-5.244 0-1.86.354-3.608 1.06-5.244a13.578 13.578 0 012.874-4.269 13.58 13.58 0 014.269-2.874c1.636-.706 3.384-1.059 5.244-1.059 1.86 0 3.608.353 5.244 1.059a13.58 13.58 0 014.269 2.874 13.58 13.58 0 012.874 4.27c.706 1.635 1.059 3.383 1.059 5.243 0 1.86-.353 3.608-1.059 5.244a13.58 13.58 0 01-2.874 4.27 13.579 13.579 0 01-4.27 2.873c-1.635.706-3.383 1.06-5.243 1.06zm0-2.69c3.003 0 5.546-1.041 7.63-3.125 2.085-2.084 3.127-4.628 3.127-7.63 0-3.004-1.042-5.547-3.126-7.632-2.085-2.084-4.628-3.126-7.631-3.126s-5.547 1.042-7.63 3.127c-2.085 2.084-3.127 4.627-3.127 7.63s1.042 5.547 3.126 7.63c2.084 2.085 4.628 3.127 7.63 3.127z" fill="#D43B2C"/></g></svg><svg fill="none" viewBox="0 0 24 24" id="icon-route" xmlns="http://www.w3.org/2000/svg"><path d="M9.333 20c-.977 0-1.814-.348-2.51-1.044-.697-.697-1.045-1.534-1.045-2.512V9.178A2.747 2.747 0 014.5 8.21 2.535 2.535 0 014 6.667c0-.741.26-1.37.778-1.89A2.572 2.572 0 016.667 4c.74 0 1.37.26 1.889.778.518.518.777 1.148.777 1.889 0 .577-.166 1.092-.5 1.544-.333.452-.759.774-1.277.967v7.266c0 .49.174.908.522 1.256.348.348.766.522 1.255.522.49 0 .908-.174 1.256-.522.348-.348.522-.767.522-1.256V7.556c0-.978.348-1.815 1.045-2.512C12.852 4.348 13.689 4 14.666 4c.978 0 1.816.348 2.512 1.044.696.697 1.044 1.534 1.044 2.512v7.266c.519.193.945.515 1.278.967.333.452.5.967.5 1.544 0 .741-.26 1.37-.778 1.89a2.572 2.572 0 01-1.889.777c-.74 0-1.37-.26-1.889-.778a2.572 2.572 0 01-.777-1.889c0-.577.166-1.096.5-1.555.333-.46.759-.778 1.277-.956V7.556c0-.49-.174-.908-.522-1.256a1.712 1.712 0 00-1.255-.522c-.49 0-.908.174-1.256.522a1.712 1.712 0 00-.522 1.256v8.888c0 .978-.348 1.815-1.045 2.512-.696.696-1.533 1.044-2.51 1.044zM6.667 7.556A.86.86 0 007.3 7.3a.86.86 0 00.256-.633.86.86 0 00-.256-.634.86.86 0 00-.633-.255.86.86 0 00-.634.255.86.86 0 00-.255.634.86.86 0 00.255.633.86.86 0 00.634.256zm10.666 10.666a.86.86 0 00.634-.255.86.86 0 00.255-.634.86.86 0 00-.255-.633.86.86 0 00-.634-.256.86.86 0 00-.633.256.86.86 0 00-.256.633.86.86 0 00.256.634.86.86 0 00.633.255z" fill="currentColor" fill-opacity=".85"/></svg><svg fill="none" viewBox="0 0 24 24" id="icon-short-track" xmlns="http://www.w3.org/2000/svg"><path d="M23.985 21.515c-1.148-1.566-1.84-3.312-2.407-5.127-.532-1.83-.913-3.665-.812-5.608 1.153 1.566 1.842 3.31 2.407 5.13.527 1.83.909 3.664.812 5.607M16.692 8.755c-1.868-.535-3.483-1.486-5.045-2.574-1.542-1.119-2.968-2.337-4.079-3.931 1.871.53 3.486 1.484 5.046 2.574 1.54 1.124 2.965 2.339 4.078 3.93zM17.455 12.452c-2.069 1.164-4.283 1.851-6.557 2.412-2.282.525-4.57.904-6.942.794 2.069-1.166 4.283-1.856 6.556-2.412 2.283-.52 4.57-.902 6.943-.794z" fill="currentColor"/><path d="M15.948 10.408c2.24 5.996-3.574 8.196-8.526 8.151.982-.629 1.996-1.097 2.977-1.58 1.794-.919 3.796-1.557 4.7-3.446.383-.885.548-2.006.847-3.127M7.088 18.707c-.433 1.411-1.915 2.085-3.26 1.463.43-1.418 1.916-2.077 3.26-1.463zM3.26 15.888C2.825 17.3 1.343 17.973 0 17.351c.428-1.418 1.916-2.077 3.26-1.463zM21.502 7.954c-.068 2.494-3.685 2.563-3.777 0 .087-2.57 3.709-2.496 3.777 0zm0 0c-.068-1.75-2.49-1.69-2.527 0 .033 1.696 2.461 1.75 2.527 0z" fill="currentColor"/></svg><svg fill="none" viewBox="0 0 24 24" id="icon-skates" xmlns="http://www.w3.org/2000/svg"><path d="M2.541 14.074c2.459-.61 5.165-1.03 6.44-3.404.387-.713.624-1.569.854-2.535 2.15 4.668-3.254 7.973-7.294 5.94zM14.367 18.5c.8-4.503 1.79-7.814-3.53-9.491 2.16-.66 4.843.395 5.528 2.72.722 2.472-.309 5.024-1.998 6.772zM6.54 3.587c2.571.129 5.02.738 7.457 1.485 2.422.784 4.78 1.689 6.958 3.063-2.573-.124-5.023-.735-7.457-1.485-2.422-.785-4.777-1.693-6.958-3.063zM.05 12.309c1.819 1.639 2.786 4.192 2.491 6.623-1.825-1.634-2.779-4.194-2.49-6.623zM10.837 19.916c2.098-1.289 4.788-1.501 7.055-.535-2.095 1.296-4.786 1.492-7.055.535zM24 4.923c-.07 2.524-3.733 2.594-3.825 0 .088-2.6 3.755-2.528 3.825 0zm0 0c-.067-1.785-2.542-1.724-2.582 0 .033 1.732 2.517 1.786 2.582 0z" fill="currentColor"/></svg><svg fill="none" viewBox="0 0 24 24" id="icon-skeleton" xmlns="http://www.w3.org/2000/svg"><path d="M17.871 17.99a6.603 6.603 0 016.13-.055 6.603 6.603 0 01-6.13.056zM14.082 8.735c1.398.592 2.52 1.51 3.578 2.545 1.034 1.057 1.949 2.181 2.535 3.584-1.4-.588-2.52-1.509-3.578-2.545-1.032-1.062-1.947-2.186-2.535-3.584zM9.548 6.678c1.929 1.142 3.563 2.613 5.126 4.184 1.54 1.596 2.975 3.258 4.076 5.215-1.931-1.14-3.565-2.611-5.126-4.184-1.537-1.598-2.973-3.26-4.076-5.215zM21.15 13.964a1.843 1.843 0 011.995 1.396c.228.894-.546 1.908-1.483 1.683.119-.424.179-.731.158-.947-.154-.756-.552-1.334-.67-2.13M18.556 6.954c-.06 2.238-3.31 2.3-3.388 0 .079-2.304 3.328-2.24 3.388 0zm0 0c-.06-1.579-2.25-1.527-2.286 0 .032 1.531 2.226 1.581 2.286 0zM12.008 10.565c-.984.97-2.142 1.787-3.095 2.728-.67.93-.847 2.072-1.352 3.148-1.081 2.765-3.056 2.686-5.634 2.117A11.984 11.984 0 010 17.935c1.343-.019 2.676-.005 3.922-.154 1.463-.145 1.785-.615 2.298-1.905.45-1.074.752-2.352 1.52-3.318a2.41 2.41 0 01.469-.43c1.173-.807 2.423-1.293 3.801-1.563" fill="currentColor"/><path d="M9.548 13.455c1.169-.515 3.876-1.523 4.96-.49.299.282.303.866.12 1.17-.932 1.512-2.686 2.22-3.88 3.397-.079.074-.127.166-.124.13a.28.28 0 00-.038-.126c.687.461 2.838.57 3.885.73-1.2.346-4.2 1.094-4.973-.223-.245-.424.004-1.041.225-1.315.917-1.201 2.287-1.943 3.377-2.866.108-.089.208-.18.279-.257.074-.067.1-.166.087-.03 0 .036.01.09.033.138.027.052.033.056.054.075.03.025.033.014.012-.002-1.137-.443-2.742-.231-4.015-.33" fill="currentColor"/></svg><svg fill="none" viewBox="0 0 24 24" id="icon-ski-jumping" xmlns="http://www.w3.org/2000/svg"><path d="M0 22.337c3.591-2.86 7.506-5.183 11.511-7.371C15.541 12.819 19.633 10.83 24 9.41c-3.589 2.865-7.503 5.186-11.511 7.371C8.456 18.922 4.364 20.911 0 22.337zM10.344 9.927c1.49-2.586 4.317-4.365 7.298-4.567-1.485 2.592-4.32 4.354-7.298 4.567zM2.162 6.032C4.105 5.178 6.115 4.92 8.18 4.84c2.067-.033 4.088.116 6.073.87-1.94.857-3.953 1.113-6.018 1.19-2.068.031-4.089-.12-6.073-.87zM3.53 18.723c-.082-3.633 2.358-8.172 6.375-8.304-2.396 2.6-3.796 5.848-6.374 8.304z" fill="currentColor"/><path d="M22.424 4.81c-1.11 3.125-5.715 1.716-4.776-1.552C18.81.053 23.365 1.625 22.424 4.81zm0 0c.654-2.298-2.537-3.26-3.307-1.074-.671 2.224 2.484 3.32 3.307 1.074z" fill="currentColor"/></svg><svg fill="none" viewBox="0 0 24 24" id="icon-ski-mountaineering" xmlns="http://www.w3.org/2000/svg"><path d="M9.817 7.673c1.884 3.851.289 9.43-3.368 11.675A39.608 39.608 0 009.817 7.673z" fill="currentColor"/><path d="M14.164 17.178c-1.1-2.287-2.291-4.031-4.41-5.482 2.965-1.002 5.864 2.78 4.41 5.482zM10.5 9.18c2.318-.701 4.217-1.32 6.386-2.413-.337 2.793-4.272 4.185-6.386 2.413zM5.058 3.387c1.365 2 2.526 3.63 4.22 5.37-2.762.518-5.272-2.818-4.22-5.37zM.367 22.591c3.677-1.81 7.522-3.142 11.417-4.354 3.909-1.172 7.84-2.213 11.905-2.758-3.675 1.814-7.52 3.146-11.417 4.354-3.909 1.17-7.842 2.209-11.905 2.759z" fill="currentColor"/><path d="M.367 24c3.677-1.81 7.522-3.142 11.417-4.355 3.909-1.172 7.84-2.212 11.905-2.758-3.675 1.815-7.52 3.146-11.417 4.355C8.363 22.412 4.43 23.45.367 24zM11.442 6.652c-1.165 1.665-3.864.1-2.717-1.812 1.322-1.803 3.808.093 2.717 1.812zm0 0c.715-1.158-.949-2.176-1.677-1.117-.703 1.083.886 2.225 1.677 1.117zM8.428 12.828c-.909-1.025-.826-2.54.206-3.448a2.41 2.41 0 01-.206 3.447zM.709 11.366l.256.13L6.695.128 6.437 0 .708 11.366zM18.347 15.942l.283-.046-2.049-12.564-.283.046 2.05 12.564z" fill="currentColor"/></svg><svg fill="none" viewBox="0 0 24 24" id="icon-ski-race" xmlns="http://www.w3.org/2000/svg"><path d="M15.997 19.25c.567-3.393.777-5.748-2.553-7.654 4.36-.211 5.308 4.99 2.553 7.655zM17.236 6.968c1.518.323 2.966.955 4.391.192.422-.226.833-.58 1.307-1.003-.062 3.332-4.367 3.427-5.696.811M10.055 9.9c-.187-2.98 3.525-5.444 6.035-3.544-.695.092-1.3.188-1.857.361-1.785.523-2.962 1.79-4.178 3.182z" fill="currentColor"/><path d="M5.931 14.039c4.766-.806 5.53-.588 8.462-4.718.715-.947 1.454-1.896 2.313-2.765-.723 2.015-1.622 3.942-2.923 5.646-1.89 2.537-5.06 2.572-7.85 1.837M17.415 20.086c.518-2.14 1.397-4.12 2.375-6.067 1.006-1.934 2.1-3.803 3.539-5.472-.516 2.142-1.393 4.122-2.375 6.068-1.008 1.932-2.104 3.802-3.539 5.471zM0 9.297c1.6-.456 3.214-.524 4.85-.484 1.633.071 3.239.25 4.803.821-1.6.459-3.214.529-4.85.485C3.17 10.045 1.565 9.863 0 9.297z" fill="currentColor"/><path d="M8.334 20.708c3.97-.672 7.991-.634 11.99-.369.661.046 1.335.122 1.98.176.578.103 1.174-.198 1.696-.632-.223.47-.614.903-1.112 1.12-.819.281-1.725.27-2.566.361-4.009.233-8.037.14-11.988-.658M.568 10.48c2.596 1.56 4.702 3.746 6.575 6.093l.386.498c.086.112.275.19.486.232.211.043.445.053.684.052a1.99 1.99 0 01-.668.309c-.769.255-1.476-.487-2.038-.9C3.85 14.982 1.93 12.938.57 10.48M20.163 4.626c-.058 2.137-3.162 2.189-3.238 0 .074-2.196 3.18-2.14 3.238 0zm0 0c-.058-1.55-2.222-1.504-2.26 0 .032 1.507 2.202 1.55 2.26 0z" fill="currentColor"/></svg><svg fill="none" viewBox="0 0 24 24" id="icon-skiing" xmlns="http://www.w3.org/2000/svg"><path d="M1.743 1.504c4.072 1.487 7.87 3.488 11.612 5.632 3.717 2.185 7.34 4.491 10.645 7.294-4.072-1.482-7.872-3.486-11.612-5.633C8.673 6.61 5.049 4.304 1.743 1.504zM11.144 5.044c1.647-2.52 5.822-2.47 6.537.782.19.905.03 1.812-.46 2.52-.305-.801-.592-1.457-.95-1.978-1.176-1.848-3.155-1.339-5.127-1.324zM0 14.123c3.478 1.287 8.245 3.488 11.68 4.975 1.922.819 3.846 1.625 5.803 2.258 1.453.44 2.94.902 4.457.71a2.728 2.728 0 001.393-.602c-.126.24-.303.459-.514.65C17.704 25.766 4.042 17.883 0 14.123z" fill="currentColor"/><path d="M9.162 17.404c3.75-2.518 5.263-3.239 1.015-6.533-.935-.73-1.927-1.424-2.972-2.19 2.813.08 6.603 1.659 7.384 4.65.456 2.99-3.085 4.151-5.427 4.073zM21.648 4.175c-.894 2.523-4.606 1.399-3.848-1.25.944-2.598 4.611-1.32 3.848 1.25zm0 0c.494-1.75-1.907-2.465-2.478-.806-.521 1.683 1.85 2.512 2.478.806z" fill="currentColor"/></svg><svg fill="none" viewBox="0 0 24 26" id="icon-snowboarding" xmlns="http://www.w3.org/2000/svg"><path d="M2.19 11.66c3.287 1.687 6.27 3.806 9.18 6.049 2.885 2.274 5.666 4.65 8.1 7.433-3.29-1.683-6.27-3.804-9.18-6.05-2.883-2.278-5.665-4.651-8.1-7.433zM7.473 11.5c1.239-2.633 3.766-4.812 6.56-5.629-1.232 2.64-3.77 4.805-6.56 5.629zM14.34 5.827c1.329-1.426 3.026-2.245 4.754-2.985.949-.412 1.529-1.127 2.354-1.938.237 1.774-.956 3.335-2.593 3.96-1.436.64-2.899 1.054-4.514.963zM14.509 6.312c1.155.919 1.905 2.081 2.511 3.374.297.691.593 1.358.604 2.16-.004.819-.285 1.598-.87 2.14-.178-.759-.34-1.379-.557-1.91-.867-1.81-1.726-3.676-1.688-5.764zM16.337 13.395c.143 1.218-.188 2.261-.664 3.286-.248.507-.358.627-.42 1.16-.058.483-.08 1.037-.153 1.663a3.19 3.19 0 01-1.11-1.474c-.625-1.743.802-3.842 2.344-4.637M15.737 12.124c-1.22.678-2.617.793-3.819.99-.98.275-1.991 1.574-2.905 2.28.2-1.503.885-3.197 2.352-3.86 1.496-.552 3.056-.34 4.37.59M14.173 3.86c-.854 2.407-4.401 1.334-3.678-1.195.9-2.478 4.401-1.258 3.678 1.196zm0 0c.482-1.704-1.863-2.402-2.425-.788-.503 1.641 1.814 2.451 2.425.789z" fill="currentColor"/></svg><svg fill="none" viewBox="0 0 24 24" id="icon-target" xmlns="http://www.w3.org/2000/svg"><path d="M12 20a7.79 7.79 0 01-3.12-.63 8.079 8.079 0 01-2.54-1.71 8.08 8.08 0 01-1.71-2.54A7.79 7.79 0 014 12c0-1.107.21-2.147.63-3.12.42-.973.99-1.82 1.71-2.54a8.079 8.079 0 012.54-1.71A7.79 7.79 0 0112 4a7.79 7.79 0 013.12.63c.973.42 1.82.99 2.54 1.71s1.29 1.567 1.71 2.54c.42.973.63 2.013.63 3.12a7.79 7.79 0 01-.63 3.12 8.08 8.08 0 01-1.71 2.54 8.08 8.08 0 01-2.54 1.71A7.79 7.79 0 0112 20zm0-1.6c1.787 0 3.3-.62 4.54-1.86 1.24-1.24 1.86-2.753 1.86-4.54s-.62-3.3-1.86-4.54C15.3 6.22 13.787 5.6 12 5.6s-3.3.62-4.54 1.86C6.22 8.7 5.6 10.213 5.6 12s.62 3.3 1.86 4.54C8.7 17.78 10.213 18.4 12 18.4zm0-1.6c-1.333 0-2.467-.467-3.4-1.4-.933-.933-1.4-2.067-1.4-3.4 0-1.333.467-2.467 1.4-3.4.933-.933 2.067-1.4 3.4-1.4 1.333 0 2.467.467 3.4 1.4.933.933 1.4 2.067 1.4 3.4 0 1.333-.467 2.467-1.4 3.4-.933.933-2.067 1.4-3.4 1.4zm0-1.6c.88 0 1.633-.313 2.26-.94.627-.627.94-1.38.94-2.26 0-.88-.313-1.633-.94-2.26A3.081 3.081 0 0012 8.8c-.88 0-1.633.313-2.26.94A3.081 3.081 0 008.8 12c0 .88.313 1.633.94 2.26.627.627 1.38.94 2.26.94zm0-1.6a1.54 1.54 0 01-1.13-.47A1.54 1.54 0 0110.4 12c0-.44.157-.817.47-1.13A1.54 1.54 0 0112 10.4c.44 0 .817.157 1.13.47.313.313.47.69.47 1.13 0 .44-.157.817-.47 1.13a1.54 1.54 0 01-1.13.47z" fill="currentColor"/></svg><svg fill="none" viewBox="0 0 36 37" id="icon-tg" xmlns="http://www.w3.org/2000/svg"><rect y=".891" width="36" height="36" rx="8" fill="#2AABED"/><path fill-rule="evenodd" clip-rule="evenodd" d="M8.375 18.61c5.369-2.34 8.949-3.881 10.74-4.626 5.114-2.128 6.177-2.497 6.87-2.51.152-.002.493.036.713.215.186.15.238.355.262.498.025.144.055.47.031.726-.277 2.912-1.476 9.978-2.086 13.24-.259 1.38-.767 1.843-1.259 1.888-1.07.098-1.881-.707-2.917-1.386-1.621-1.062-2.537-1.724-4.11-2.76-1.819-1.199-.64-1.857.396-2.934.272-.281 4.984-4.567 5.075-4.956.011-.049.022-.23-.086-.326-.108-.095-.266-.063-.381-.037-.163.037-2.752 1.749-7.768 5.135-.735.505-1.4.75-1.997.738-.658-.015-1.923-.372-2.863-.678-1.153-.375-2.07-.573-1.99-1.21.041-.331.498-.67 1.37-1.017z" fill="#fff"/></svg><svg fill="none" viewBox="0 0 36 37" id="icon-tg-default" xmlns="http://www.w3.org/2000/svg"><path fill-rule="evenodd" clip-rule="evenodd" d="M29.677 7.272L5.76 16.437c-1.631.65-1.623 1.556-.297 1.958l5.964 1.851 2.283 6.952c.277.76.14 1.063.945 1.063.621 0 .895-.282 1.242-.617.22-.213 1.524-1.476 2.982-2.883l6.205 4.556c1.14.625 1.966.302 2.25-1.053l4.073-19.07c.417-1.66-.638-2.415-1.73-1.922zM12.364 19.82l13.444-8.427c.671-.406 1.287-.188.781.258l-11.512 10.32-.447 4.75-2.266-6.9z" fill="#D43B2C"/></svg><svg fill="none" viewBox="0 0 25 24" id="icon-timer" xmlns="http://www.w3.org/2000/svg"><path d="M10.214 5.524V4h4.572v1.524h-4.572zm1.524 8.38h1.524v-4.57h-1.524v4.57zM12.5 20c-.94 0-1.825-.181-2.657-.543a7.004 7.004 0 01-2.18-1.476A7.006 7.006 0 016.185 15.8a6.587 6.587 0 01-.543-2.657c0-.94.181-1.825.543-2.657a7.004 7.004 0 011.476-2.181 7.004 7.004 0 012.181-1.476 6.587 6.587 0 012.657-.543c.787 0 1.543.127 2.267.38a7.407 7.407 0 012.038 1.105l1.067-1.066 1.066 1.066-1.066 1.067c.482.635.85 1.314 1.104 2.038.254.724.381 1.48.381 2.267 0 .94-.18 1.825-.543 2.657a7.006 7.006 0 01-1.476 2.181 7.004 7.004 0 01-2.18 1.476A6.588 6.588 0 0112.5 20zm0-1.524c1.473 0 2.73-.52 3.772-1.562 1.04-1.041 1.562-2.298 1.562-3.771 0-1.473-.521-2.73-1.562-3.772C15.23 8.331 13.973 7.81 12.5 7.81c-1.473 0-2.73.52-3.771 1.561-1.041 1.042-1.562 2.299-1.562 3.772 0 1.473.52 2.73 1.562 3.771 1.041 1.042 2.298 1.562 3.771 1.562z" fill="currentColor"/></svg><svg fill="none" viewBox="0 0 36 37" id="icon-vk" xmlns="http://www.w3.org/2000/svg"><rect y=".891" width="36" height="36" rx="8" fill="#07F"/><path d="M18.44 25.384c-6.533 0-10.258-4.47-10.414-11.91h3.272c.108 5.46 2.52 7.774 4.43 8.25v-8.25h3.082v4.71c1.886-.203 3.869-2.349 4.537-4.71h3.081c-.513 2.91-2.663 5.055-4.191 5.938 1.528.715 3.977 2.587 4.908 5.973h-3.392c-.728-2.266-2.543-4.018-4.943-4.257v4.256h-.37z" fill="#fff"/></svg><svg fill="none" viewBox="0 0 36 37" id="icon-vk-default" xmlns="http://www.w3.org/2000/svg"><path d="M19.523 29.09C7.871 29.09 1.224 21.267.947 8.248h5.837c.192 9.555 4.495 13.603 7.903 14.437V8.248h5.497v8.24c3.365-.354 6.901-4.11 8.094-8.24h5.496c-.916 5.09-4.75 8.846-7.477 10.39 2.727 1.252 7.094 4.527 8.756 10.452h-6.05c-1.3-3.964-4.538-7.03-8.82-7.448v7.448h-.66z" fill="#D43B2C"/></svg></svg>