<?xml version="1.0" encoding="utf-8"?><svg viewBox="0 0 62 63" xmlns="http://www.w3.org/2000/svg" xmlns:xlink="http://www.w3.org/1999/xlink"><style>:root>svg{display:none}:root>svg:target{display:block}</style><svg fill="none" viewBox="0 0 24 24" id="icon-accordeon-blue" xmlns="http://www.w3.org/2000/svg"><path d="M13.601 12l-4.6-4.6 1.4-1.4 6 6-6 6-1.4-1.4 4.6-4.6z" fill="#004F9F"/></svg><svg fill="none" viewBox="0 0 24 24" id="icon-accordeon-white" xmlns="http://www.w3.org/2000/svg"><path d="M13.601 12l-4.6-4.6 1.4-1.4 6 6-6 6-1.4-1.4 4.6-4.6z" fill="#fff"/></svg><svg fill="none" viewBox="0 0 24 24" id="icon-arrow-breadcrumb" xmlns="http://www.w3.org/2000/svg"><path d="M12.6 12L8 7.4 9.4 6l6 6-6 6L8 16.6l4.6-4.6z" fill="#D43B2C"/></svg><svg fill="none" viewBox="0 0 24 24" id="icon-arrow-next" xmlns="http://www.w3.org/2000/svg"><path d="M8.025 22L6.25 20.225 14.475 12 6.25 3.775 8.025 2l10 10-10 10z" fill="currentColor"/></svg><svg fill="none" viewBox="0 0 24 24" id="icon-arrow-prev" xmlns="http://www.w3.org/2000/svg"><path d="M15.975 22l1.775-1.775L9.525 12l8.225-8.225L15.975 2l-10 10 10 10z" fill="currentColor"/></svg><svg fill="none" viewBox="0 0 24 24" id="icon-caret" xmlns="http://www.w3.org/2000/svg"><path d="M12 15.375l-6-6 1.4-1.4 4.6 4.6 4.6-4.6 1.4 1.4-6 6z" fill="currentColor"/></svg><svg fill="none" viewBox="0 0 24 25" id="icon-location" xmlns="http://www.w3.org/2000/svg"><mask id="ga" style="mask-type:alpha" maskUnits="userSpaceOnUse" x="0" y="0" width="24" height="25"><path fill="#D9D9D9" d="M0 .226h24v24H0z"/></mask><g mask="url(#ga)"><path d="M12 12.226c.55 0 1.02-.196 1.412-.588.392-.391.588-.862.588-1.412 0-.55-.196-1.02-.588-1.413A1.926 1.926 0 0012 8.226c-.55 0-1.02.196-1.412.587A1.926 1.926 0 0010 10.226c0 .55.196 1.02.588 1.412.391.392.862.588 1.412.588zm0 7.35c2.033-1.867 3.542-3.563 4.525-5.088C17.508 12.965 18 11.61 18 10.427c0-1.817-.58-3.304-1.738-4.463C15.104 4.805 13.683 4.226 12 4.226c-1.683 0-3.104.58-4.263 1.737C6.58 7.122 6 8.61 6 10.426c0 1.183.492 2.537 1.475 4.063.983 1.524 2.492 3.22 4.525 5.087zm0 2.65c-2.683-2.283-4.688-4.404-6.013-6.362C4.662 13.905 4 12.093 4 10.425c0-2.5.804-4.492 2.412-5.975C8.021 2.968 9.883 2.226 12 2.226s3.98.742 5.587 2.225C19.197 5.934 20 7.926 20 10.426c0 1.667-.663 3.48-1.988 5.438-1.325 1.958-3.329 4.079-6.012 6.362z" fill="#D43B2C"/></g></svg><svg fill="none" viewBox="0 0 62 63" id="icon-play-red" xmlns="http://www.w3.org/2000/svg"><path d="M30.926 1.62l30.926 22.085L50.039 59.44H11.813L0 23.705 30.926 1.621z" fill="currentColor"/><mask id="ha" style="mask-type:alpha" maskUnits="userSpaceOnUse" x="14" y="17" width="34" height="34"><path fill="#D43B2C" d="M14.791 17.756h32.27v32.27h-32.27z"/></mask><g mask="url(#ha)"><path d="M27.564 39.942l9.413-6.05-9.413-6.052v12.102zm3.362 7.395c-1.86 0-3.608-.353-5.244-1.059a13.578 13.578 0 01-4.27-2.874 13.578 13.578 0 01-2.873-4.269c-.706-1.636-1.06-3.384-1.06-5.244 0-1.86.354-3.608 1.06-5.244a13.578 13.578 0 012.874-4.269 13.58 13.58 0 014.269-2.874c1.636-.706 3.384-1.059 5.244-1.059 1.86 0 3.608.353 5.244 1.059a13.58 13.58 0 014.269 2.874 13.58 13.58 0 012.874 4.27c.706 1.635 1.059 3.383 1.059 5.243 0 1.86-.353 3.608-1.059 5.244a13.58 13.58 0 01-2.874 4.27 13.579 13.579 0 01-4.27 2.873c-1.635.706-3.383 1.06-5.243 1.06zm0-2.69c3.003 0 5.546-1.041 7.63-3.125 2.085-2.084 3.127-4.628 3.127-7.63 0-3.004-1.042-5.547-3.126-7.632-2.085-2.084-4.628-3.126-7.631-3.126s-5.547 1.042-7.63 3.127c-2.085 2.084-3.127 4.627-3.127 7.63s1.042 5.547 3.126 7.63c2.084 2.085 4.628 3.127 7.63 3.127z" fill="#D43B2C"/></g></svg><svg fill="none" viewBox="0 0 36 37" id="icon-tg" xmlns="http://www.w3.org/2000/svg"><rect y=".891" width="36" height="36" rx="8" fill="#2AABED"/><path fill-rule="evenodd" clip-rule="evenodd" d="M8.375 18.61c5.369-2.34 8.949-3.881 10.74-4.626 5.114-2.128 6.177-2.497 6.87-2.51.152-.002.493.036.713.215.186.15.238.355.262.498.025.144.055.47.031.726-.277 2.912-1.476 9.978-2.086 13.24-.259 1.38-.767 1.843-1.259 1.888-1.07.098-1.881-.707-2.917-1.386-1.621-1.062-2.537-1.724-4.11-2.76-1.819-1.199-.64-1.857.396-2.934.272-.281 4.984-4.567 5.075-4.956.011-.049.022-.23-.086-.326-.108-.095-.266-.063-.381-.037-.163.037-2.752 1.749-7.768 5.135-.735.505-1.4.75-1.997.738-.658-.015-1.923-.372-2.863-.678-1.153-.375-2.07-.573-1.99-1.21.041-.331.498-.67 1.37-1.017z" fill="#fff"/></svg><svg fill="none" viewBox="0 0 36 37" id="icon-vk" xmlns="http://www.w3.org/2000/svg"><rect y=".891" width="36" height="36" rx="8" fill="#07F"/><path d="M18.44 25.384c-6.533 0-10.258-4.47-10.414-11.91h3.272c.108 5.46 2.52 7.774 4.43 8.25v-8.25h3.082v4.71c1.886-.203 3.869-2.349 4.537-4.71h3.081c-.513 2.91-2.663 5.055-4.191 5.938 1.528.715 3.977 2.587 4.908 5.973h-3.392c-.728-2.266-2.543-4.018-4.943-4.257v4.256h-.37z" fill="#fff"/></svg></svg>